M48
; DRILL file {KiCad 9.0.1} date 2025-04-24T12:51:37+0300
; FORMAT={-:-/ absolute / metric / decimal}
; #@! TF.CreationDate,2025-04-24T12:51:37+03:00
; #@! TF.GenerationSoftware,Kicad,Pcbnew,9.0.1
; #@! TF.FileFunction,Plated,1,2,PTH
FMAT,2
METRIC
; #@! TA.AperFunction,Plated,PTH,ComponentDrill
T1C1.000
%
G90
G05
T1
X102.26Y-83.06
X102.26Y-85.6
X102.26Y-88.14
X102.26Y-90.68
X102.26Y-93.22
X102.26Y-95.76
X102.26Y-98.3
X102.26Y-100.84
X102.26Y-103.38
X102.26Y-105.92
X104.8Y-83.06
X104.8Y-85.6
X104.8Y-88.14
X104.8Y-90.68
X104.8Y-93.22
X104.8Y-95.76
X104.8Y-98.3
X104.8Y-100.84
X104.8Y-103.38
X104.8Y-105.92
X107.54Y-117.06
X107.54Y-119.6
X110.08Y-117.06
X110.08Y-119.6
X112.62Y-117.06
X112.62Y-119.6
X115.16Y-117.06
X115.16Y-119.6
X117.7Y-117.06
X117.7Y-119.6
X120.24Y-117.06
X120.24Y-119.6
X122.78Y-117.06
X122.78Y-119.6
X125.32Y-117.06
X125.32Y-119.6
X127.86Y-117.06
X127.86Y-119.6
X130.4Y-117.06
X130.4Y-119.6
X132.94Y-117.06
X132.94Y-119.6
X135.48Y-117.06
X135.48Y-119.6
X137.26Y-83.06
X137.26Y-85.6
X137.26Y-88.14
X137.26Y-90.68
X137.26Y-93.22
X137.26Y-95.76
X137.26Y-98.3
X137.26Y-100.84
X137.26Y-103.38
X137.26Y-105.92
X138.02Y-117.06
X138.02Y-119.6
X139.8Y-83.06
X139.8Y-85.6
X139.8Y-88.14
X139.8Y-90.68
X139.8Y-93.22
X139.8Y-95.76
X139.8Y-98.3
X139.8Y-100.84
X139.8Y-103.38
X139.8Y-105.92
X140.56Y-117.06
X140.56Y-119.6
X143.1Y-117.06
X143.1Y-119.6
X145.64Y-117.06
X145.64Y-119.6
X148.18Y-117.06
X148.18Y-119.6
X150.72Y-117.06
X150.72Y-119.6
X153.26Y-117.06
X153.26Y-119.6
X155.8Y-117.06
X155.8Y-119.6
X158.34Y-117.06
X158.34Y-119.6
X160.88Y-117.06
X160.88Y-119.6
X163.42Y-117.06
X163.42Y-119.6
X165.96Y-117.06
X165.96Y-119.6
X168.5Y-117.06
X168.5Y-119.6
X172.26Y-83.06
X172.26Y-85.6
X172.26Y-88.14
X172.26Y-90.68
X172.26Y-93.22
X172.26Y-95.76
X172.26Y-98.3
X172.26Y-100.84
X172.26Y-103.38
X172.26Y-105.92
X174.8Y-83.06
X174.8Y-85.6
X174.8Y-88.14
X174.8Y-90.68
X174.8Y-93.22
X174.8Y-95.76
X174.8Y-98.3
X174.8Y-100.84
X174.8Y-103.38
X174.8Y-105.92
M30
