%TF.GenerationSoftware,KiCad,Pcbnew,9.0.1*%
%TF.CreationDate,2025-04-24T12:51:30+03:00*%
%TF.ProjectId,acd_dac_board,6163645f-6461-4635-9f62-6f6172642e6b,rev?*%
%TF.SameCoordinates,Original*%
%TF.FileFunction,Soldermask,Bot*%
%TF.FilePolarity,Negative*%
%FSLAX46Y46*%
G04 Gerber Fmt 4.6, Leading zero omitted, Abs format (unit mm)*
G04 Created by KiCad (PCBNEW 9.0.1) date 2025-04-24 12:51:30*
%MOMM*%
%LPD*%
G01*
G04 APERTURE LIST*
%ADD10R,1.700000X1.700000*%
%ADD11O,1.700000X1.700000*%
%ADD12C,2.500000*%
G04 APERTURE END LIST*
D10*
%TO.C,J4*%
X168500000Y-117060000D03*
D11*
X168500000Y-119600000D03*
X165960000Y-117060000D03*
X165960000Y-119600000D03*
X163420000Y-117060000D03*
X163420000Y-119600000D03*
X160880000Y-117060000D03*
X160880000Y-119600000D03*
X158340000Y-117060000D03*
X158340000Y-119600000D03*
X155800000Y-117060000D03*
X155800000Y-119600000D03*
X153260000Y-117060000D03*
X153260000Y-119600000D03*
X150720000Y-117060000D03*
X150720000Y-119600000D03*
X148180000Y-117060000D03*
X148180000Y-119600000D03*
X145640000Y-117060000D03*
X145640000Y-119600000D03*
X143100000Y-117060000D03*
X143100000Y-119600000D03*
X140560000Y-117060000D03*
X140560000Y-119600000D03*
X138020000Y-117060000D03*
X138020000Y-119600000D03*
X135480000Y-117060000D03*
X135480000Y-119600000D03*
X132940000Y-117060000D03*
X132940000Y-119600000D03*
X130400000Y-117060000D03*
X130400000Y-119600000D03*
X127860000Y-117060000D03*
X127860000Y-119600000D03*
X125320000Y-117060000D03*
X125320000Y-119600000D03*
X122780000Y-117060000D03*
X122780000Y-119600000D03*
X120240000Y-117060000D03*
X120240000Y-119600000D03*
X117700000Y-117060000D03*
X117700000Y-119600000D03*
X115160000Y-117060000D03*
X115160000Y-119600000D03*
X112620000Y-117060000D03*
X112620000Y-119600000D03*
X110080000Y-117060000D03*
X110080000Y-119600000D03*
X107540000Y-117060000D03*
X107540000Y-119600000D03*
%TD*%
D10*
%TO.C,J3*%
X174800000Y-83060000D03*
D11*
X172260000Y-83060000D03*
X174800000Y-85600000D03*
X172260000Y-85600000D03*
X174800000Y-88140000D03*
X172260000Y-88140000D03*
X174800000Y-90680000D03*
X172260000Y-90680000D03*
X174800000Y-93220000D03*
X172260000Y-93220000D03*
X174800000Y-95760000D03*
X172260000Y-95760000D03*
X174800000Y-98300000D03*
X172260000Y-98300000D03*
X174800000Y-100840000D03*
X172260000Y-100840000D03*
X174800000Y-103380000D03*
X172260000Y-103380000D03*
X174800000Y-105920000D03*
X172260000Y-105920000D03*
%TD*%
D10*
%TO.C,J1*%
X104800000Y-83060000D03*
D11*
X102260000Y-83060000D03*
X104800000Y-85600000D03*
X102260000Y-85600000D03*
X104800000Y-88140000D03*
X102260000Y-88140000D03*
X104800000Y-90680000D03*
X102260000Y-90680000D03*
X104800000Y-93220000D03*
X102260000Y-93220000D03*
X104800000Y-95760000D03*
X102260000Y-95760000D03*
X104800000Y-98300000D03*
X102260000Y-98300000D03*
X104800000Y-100840000D03*
X102260000Y-100840000D03*
X104800000Y-103380000D03*
X102260000Y-103380000D03*
X104800000Y-105920000D03*
X102260000Y-105920000D03*
%TD*%
D10*
%TO.C,J2*%
X139800000Y-83060000D03*
D11*
X137260000Y-83060000D03*
X139800000Y-85600000D03*
X137260000Y-85600000D03*
X139800000Y-88140000D03*
X137260000Y-88140000D03*
X139800000Y-90680000D03*
X137260000Y-90680000D03*
X139800000Y-93220000D03*
X137260000Y-93220000D03*
X139800000Y-95760000D03*
X137260000Y-95760000D03*
X139800000Y-98300000D03*
X137260000Y-98300000D03*
X139800000Y-100840000D03*
X137260000Y-100840000D03*
X139800000Y-103380000D03*
X137260000Y-103380000D03*
X139800000Y-105920000D03*
X137260000Y-105920000D03*
%TD*%
D12*
%TO.C,REF\u002A\u002A*%
X173000000Y-75100000D03*
%TD*%
%TO.C,REF\u002A\u002A*%
X178000000Y-125100000D03*
%TD*%
%TO.C,REF\u002A\u002A*%
X99900000Y-125100000D03*
%TD*%
%TO.C,REF\u002A\u002A*%
X103000000Y-75100000D03*
%TD*%
M02*
