%TF.GenerationSoftware,KiCad,Pcbnew,9.0.1*%
%TF.CreationDate,2025-04-24T12:51:30+03:00*%
%TF.ProjectId,acd_dac_board,6163645f-6461-4635-9f62-6f6172642e6b,rev?*%
%TF.SameCoordinates,Original*%
%TF.FileFunction,Copper,L1,Top*%
%TF.FilePolarity,Positive*%
%FSLAX46Y46*%
G04 Gerber Fmt 4.6, Leading zero omitted, Abs format (unit mm)*
G04 Created by KiCad (PCBNEW 9.0.1) date 2025-04-24 12:51:30*
%MOMM*%
%LPD*%
G01*
G04 APERTURE LIST*
%TA.AperFunction,ComponentPad*%
%ADD10R,1.700000X1.700000*%
%TD*%
%TA.AperFunction,ComponentPad*%
%ADD11O,1.700000X1.700000*%
%TD*%
%TA.AperFunction,Conductor*%
%ADD12C,0.500000*%
%TD*%
%TA.AperFunction,Conductor*%
%ADD13C,0.200000*%
%TD*%
G04 APERTURE END LIST*
D10*
%TO.P,J4,1,Pin_1*%
%TO.N,GND*%
X168500000Y-117060000D03*
D11*
%TO.P,J4,2,Pin_2*%
X168500000Y-119600000D03*
%TO.P,J4,3,Pin_3*%
%TO.N,/F18*%
X165960000Y-117060000D03*
%TO.P,J4,4,Pin_4*%
%TO.N,/G17*%
X165960000Y-119600000D03*
%TO.P,J4,5,Pin_5*%
%TO.N,/E18*%
X163420000Y-117060000D03*
%TO.P,J4,6,Pin_6*%
%TO.N,/F17*%
X163420000Y-119600000D03*
%TO.P,J4,7,Pin_7*%
%TO.N,/D18*%
X160880000Y-117060000D03*
%TO.P,J4,8,Pin_8*%
%TO.N,/E17*%
X160880000Y-119600000D03*
%TO.P,J4,9,Pin_9*%
%TO.N,/C17*%
X158340000Y-117060000D03*
%TO.P,J4,10,Pin_10*%
%TO.N,/C18*%
X158340000Y-119600000D03*
%TO.P,J4,11,Pin_11*%
%TO.N,/G15*%
X155800000Y-117060000D03*
%TO.P,J4,12,Pin_12*%
%TO.N,/H16*%
X155800000Y-119600000D03*
%TO.P,J4,13,Pin_13*%
%TO.N,/F15*%
X153260000Y-117060000D03*
%TO.P,J4,14,Pin_14*%
%TO.N,/G16*%
X153260000Y-119600000D03*
%TO.P,J4,15,Pin_15*%
%TO.N,/E16*%
X150720000Y-117060000D03*
%TO.P,J4,16,Pin_16*%
%TO.N,/E15*%
X150720000Y-119600000D03*
%TO.P,J4,17,Pin_17*%
%TO.N,/D16*%
X148180000Y-117060000D03*
%TO.P,J4,18,Pin_18*%
%TO.N,/D15*%
X148180000Y-119600000D03*
%TO.P,J4,19,Pin_19*%
%TO.N,/A17*%
X145640000Y-117060000D03*
%TO.P,J4,20,Pin_20*%
%TO.N,/B17*%
X145640000Y-119600000D03*
%TO.P,J4,21,Pin_21*%
%TO.N,/C16*%
X143100000Y-117060000D03*
%TO.P,J4,22,Pin_22*%
%TO.N,/B16*%
X143100000Y-119600000D03*
%TO.P,J4,23,Pin_23*%
%TO.N,/A15*%
X140560000Y-117060000D03*
%TO.P,J4,24,Pin_24*%
%TO.N,/B15*%
X140560000Y-119600000D03*
%TO.P,J4,25,Pin_25*%
%TO.N,/A14*%
X138020000Y-117060000D03*
%TO.P,J4,26,Pin_26*%
%TO.N,/B14*%
X138020000Y-119600000D03*
%TO.P,J4,27,Pin_27*%
%TO.N,/C14*%
X135480000Y-117060000D03*
%TO.P,J4,28,Pin_28*%
%TO.N,/D14*%
X135480000Y-119600000D03*
%TO.P,J4,29,Pin_29*%
%TO.N,/C13*%
X132940000Y-117060000D03*
%TO.P,J4,30,Pin_30*%
%TO.N,/D13*%
X132940000Y-119600000D03*
%TO.P,J4,31,Pin_31*%
%TO.N,/A13*%
X130400000Y-117060000D03*
%TO.P,J4,32,Pin_32*%
%TO.N,/C12*%
X130400000Y-119600000D03*
%TO.P,J4,33,Pin_33*%
%TO.N,/F14*%
X127860000Y-117060000D03*
%TO.P,J4,34,Pin_34*%
%TO.N,/E13*%
X127860000Y-119600000D03*
%TO.P,J4,35,Pin_35*%
%TO.N,/B12*%
X125320000Y-117060000D03*
%TO.P,J4,36,Pin_36*%
%TO.N,/A12*%
X125320000Y-119600000D03*
%TO.P,J4,37,Pin_37*%
%TO.N,/C11*%
X122780000Y-117060000D03*
%TO.P,J4,38,Pin_38*%
%TO.N,/B11*%
X122780000Y-119600000D03*
%TO.P,J4,39,Pin_39*%
%TO.N,/D11*%
X120240000Y-117060000D03*
%TO.P,J4,40,Pin_40*%
%TO.N,/D10*%
X120240000Y-119600000D03*
%TO.P,J4,41,Pin_41*%
%TO.N,/C9*%
X117700000Y-117060000D03*
%TO.P,J4,42,Pin_42*%
%TO.N,/D9*%
X117700000Y-119600000D03*
%TO.P,J4,43,Pin_43*%
%TO.N,/A10*%
X115160000Y-117060000D03*
%TO.P,J4,44,Pin_44*%
%TO.N,/B10*%
X115160000Y-119600000D03*
%TO.P,J4,45,Pin_45*%
%TO.N,/A9*%
X112620000Y-117060000D03*
%TO.P,J4,46,Pin_46*%
%TO.N,/B9*%
X112620000Y-119600000D03*
%TO.P,J4,47,Pin_47*%
%TO.N,GND*%
X110080000Y-117060000D03*
%TO.P,J4,48,Pin_48*%
X110080000Y-119600000D03*
%TO.P,J4,49,Pin_49*%
%TO.N,+3.3V*%
X107540000Y-117060000D03*
%TO.P,J4,50,Pin_50*%
%TO.N,+5V*%
X107540000Y-119600000D03*
%TD*%
D10*
%TO.P,J3,1,Pin_1*%
%TO.N,/D15*%
X174800000Y-83060000D03*
D11*
%TO.P,J3,2,Pin_2*%
%TO.N,/E16*%
X172260000Y-83060000D03*
%TO.P,J3,3,Pin_3*%
%TO.N,/E15*%
X174800000Y-85600000D03*
%TO.P,J3,4,Pin_4*%
%TO.N,/F15*%
X172260000Y-85600000D03*
%TO.P,J3,5,Pin_5*%
%TO.N,/G16*%
X174800000Y-88140000D03*
%TO.P,J3,6,Pin_6*%
%TO.N,/G15*%
X172260000Y-88140000D03*
%TO.P,J3,7,Pin_7*%
%TO.N,/H16*%
X174800000Y-90680000D03*
%TO.P,J3,8,Pin_8*%
%TO.N,/C17*%
X172260000Y-90680000D03*
%TO.P,J3,9,Pin_9*%
%TO.N,/C18*%
X174800000Y-93220000D03*
%TO.P,J3,10,Pin_10*%
%TO.N,/D18*%
X172260000Y-93220000D03*
%TO.P,J3,11,Pin_11*%
%TO.N,/E17*%
X174800000Y-95760000D03*
%TO.P,J3,12,Pin_12*%
%TO.N,/E18*%
X172260000Y-95760000D03*
%TO.P,J3,13,Pin_13*%
%TO.N,/F17*%
X174800000Y-98300000D03*
%TO.P,J3,14,Pin_14*%
%TO.N,/F18*%
X172260000Y-98300000D03*
%TO.P,J3,15,Pin_15*%
%TO.N,/G17*%
X174800000Y-100840000D03*
%TO.P,J3,16,Pin_16*%
%TO.N,GND*%
X172260000Y-100840000D03*
%TO.P,J3,17,Pin_17*%
X174800000Y-103380000D03*
%TO.P,J3,18,Pin_18*%
X172260000Y-103380000D03*
%TO.P,J3,19,Pin_19*%
%TO.N,+5V*%
X174800000Y-105920000D03*
%TO.P,J3,20,Pin_20*%
%TO.N,GND*%
X172260000Y-105920000D03*
%TD*%
D10*
%TO.P,J1,1,Pin_1*%
%TO.N,GND*%
X104800000Y-83060000D03*
D11*
%TO.P,J1,2,Pin_2*%
X102260000Y-83060000D03*
%TO.P,J1,3,Pin_3*%
%TO.N,/F14*%
X104800000Y-85600000D03*
%TO.P,J1,4,Pin_4*%
%TO.N,/E13*%
X102260000Y-85600000D03*
%TO.P,J1,5,Pin_5*%
%TO.N,/B12*%
X104800000Y-88140000D03*
%TO.P,J1,6,Pin_6*%
%TO.N,/A12*%
X102260000Y-88140000D03*
%TO.P,J1,7,Pin_7*%
%TO.N,/C11*%
X104800000Y-90680000D03*
%TO.P,J1,8,Pin_8*%
%TO.N,/B11*%
X102260000Y-90680000D03*
%TO.P,J1,9,Pin_9*%
%TO.N,/D11*%
X104800000Y-93220000D03*
%TO.P,J1,10,Pin_10*%
%TO.N,/D10*%
X102260000Y-93220000D03*
%TO.P,J1,11,Pin_11*%
%TO.N,/C9*%
X104800000Y-95760000D03*
%TO.P,J1,12,Pin_12*%
%TO.N,/D9*%
X102260000Y-95760000D03*
%TO.P,J1,13,Pin_13*%
%TO.N,/A10*%
X104800000Y-98300000D03*
%TO.P,J1,14,Pin_14*%
%TO.N,/B10*%
X102260000Y-98300000D03*
%TO.P,J1,15,Pin_15*%
%TO.N,/A9*%
X104800000Y-100840000D03*
%TO.P,J1,16,Pin_16*%
%TO.N,/B9*%
X102260000Y-100840000D03*
%TO.P,J1,17,Pin_17*%
%TO.N,GND*%
X104800000Y-103380000D03*
%TO.P,J1,18,Pin_18*%
X102260000Y-103380000D03*
%TO.P,J1,19,Pin_19*%
%TO.N,+5V*%
X104800000Y-105920000D03*
%TO.P,J1,20,Pin_20*%
X102260000Y-105920000D03*
%TD*%
D10*
%TO.P,J2,1,Pin_1*%
%TO.N,GND*%
X139800000Y-83060000D03*
D11*
%TO.P,J2,2,Pin_2*%
X137260000Y-83060000D03*
%TO.P,J2,3,Pin_3*%
%TO.N,/C12*%
X139800000Y-85600000D03*
%TO.P,J2,4,Pin_4*%
%TO.N,/A13*%
X137260000Y-85600000D03*
%TO.P,J2,5,Pin_5*%
%TO.N,/D13*%
X139800000Y-88140000D03*
%TO.P,J2,6,Pin_6*%
%TO.N,/C13*%
X137260000Y-88140000D03*
%TO.P,J2,7,Pin_7*%
%TO.N,/D14*%
X139800000Y-90680000D03*
%TO.P,J2,8,Pin_8*%
%TO.N,/C14*%
X137260000Y-90680000D03*
%TO.P,J2,9,Pin_9*%
%TO.N,/B14*%
X139800000Y-93220000D03*
%TO.P,J2,10,Pin_10*%
%TO.N,/A14*%
X137260000Y-93220000D03*
%TO.P,J2,11,Pin_11*%
%TO.N,/B17*%
X139800000Y-95760000D03*
%TO.P,J2,12,Pin_12*%
%TO.N,/A17*%
X137260000Y-95760000D03*
%TO.P,J2,13,Pin_13*%
%TO.N,/B16*%
X139800000Y-98300000D03*
%TO.P,J2,14,Pin_14*%
%TO.N,/C16*%
X137260000Y-98300000D03*
%TO.P,J2,15,Pin_15*%
%TO.N,/B15*%
X139800000Y-100840000D03*
%TO.P,J2,16,Pin_16*%
%TO.N,/A15*%
X137260000Y-100840000D03*
%TO.P,J2,17,Pin_17*%
%TO.N,GND*%
X139800000Y-103380000D03*
%TO.P,J2,18,Pin_18*%
X137260000Y-103380000D03*
%TO.P,J2,19,Pin_19*%
%TO.N,+5V*%
X139800000Y-105920000D03*
%TO.P,J2,20,Pin_20*%
X137260000Y-105920000D03*
%TD*%
D12*
%TO.N,+5V*%
X102260000Y-105920000D02*
X102260000Y-114320000D01*
X102260000Y-114320000D02*
X107540000Y-119600000D01*
D13*
%TO.N,/G17*%
X173460000Y-99500000D02*
X174800000Y-100840000D01*
X167349000Y-104123240D02*
X171972240Y-99500000D01*
X171972240Y-99500000D02*
X173460000Y-99500000D01*
X167349000Y-118211000D02*
X167349000Y-104123240D01*
X165960000Y-119600000D02*
X167349000Y-118211000D01*
%TO.N,/F18*%
X165960000Y-104600000D02*
X172260000Y-98300000D01*
X165960000Y-117060000D02*
X165960000Y-104600000D01*
%TO.N,/F17*%
X171783240Y-97149000D02*
X173649000Y-97149000D01*
X164571000Y-104361240D02*
X171783240Y-97149000D01*
X164571000Y-118449000D02*
X164571000Y-104361240D01*
X173649000Y-97149000D02*
X174800000Y-98300000D01*
X163420000Y-119600000D02*
X164571000Y-118449000D01*
%TO.N,/E18*%
X163420000Y-104600000D02*
X172260000Y-95760000D01*
X163420000Y-117060000D02*
X163420000Y-104600000D01*
%TO.N,/E17*%
X173540000Y-94500000D02*
X174800000Y-95760000D01*
X162031000Y-104361240D02*
X171892240Y-94500000D01*
X162031000Y-118449000D02*
X162031000Y-104361240D01*
X171892240Y-94500000D02*
X173540000Y-94500000D01*
X160880000Y-119600000D02*
X162031000Y-118449000D01*
%TO.N,/D18*%
X160880000Y-104600000D02*
X172260000Y-93220000D01*
X160880000Y-117060000D02*
X160880000Y-104600000D01*
%TO.N,/C18*%
X173649000Y-92069000D02*
X174800000Y-93220000D01*
X171783240Y-92069000D02*
X173649000Y-92069000D01*
X159491000Y-104361240D02*
X171783240Y-92069000D01*
X159491000Y-118449000D02*
X159491000Y-104361240D01*
X158340000Y-119600000D02*
X159491000Y-118449000D01*
%TO.N,/C17*%
X158340000Y-104600000D02*
X172260000Y-90680000D01*
X158340000Y-117060000D02*
X158340000Y-104600000D01*
%TO.N,/H16*%
X171812240Y-89500000D02*
X173620000Y-89500000D01*
X157000000Y-104312240D02*
X171812240Y-89500000D01*
X173620000Y-89500000D02*
X174800000Y-90680000D01*
X157000000Y-118400000D02*
X157000000Y-104312240D01*
X155800000Y-119600000D02*
X157000000Y-118400000D01*
%TO.N,/G15*%
X155800000Y-117060000D02*
X155800000Y-104600000D01*
X155800000Y-104600000D02*
X172260000Y-88140000D01*
%TO.N,/G16*%
X154649000Y-104123240D02*
X171783240Y-86989000D01*
X154649000Y-118211000D02*
X154649000Y-104123240D01*
X173649000Y-86989000D02*
X174800000Y-88140000D01*
X153260000Y-119600000D02*
X154649000Y-118211000D01*
X171783240Y-86989000D02*
X173649000Y-86989000D01*
%TO.N,/F15*%
X153260000Y-117060000D02*
X153260000Y-104600000D01*
X153260000Y-104600000D02*
X172260000Y-85600000D01*
%TO.N,/E15*%
X171783240Y-84449000D02*
X173649000Y-84449000D01*
X151871000Y-104361240D02*
X171783240Y-84449000D01*
X173649000Y-84449000D02*
X174800000Y-85600000D01*
X151871000Y-118449000D02*
X151871000Y-104361240D01*
X150720000Y-119600000D02*
X151871000Y-118449000D01*
%TO.N,/D15*%
X173649000Y-81909000D02*
X174800000Y-83060000D01*
X171783240Y-81909000D02*
X173649000Y-81909000D01*
X149331000Y-104361240D02*
X171783240Y-81909000D01*
X149331000Y-118449000D02*
X149331000Y-104361240D01*
X148180000Y-119600000D02*
X149331000Y-118449000D01*
%TO.N,/E16*%
X150720000Y-104600000D02*
X172260000Y-83060000D01*
X150720000Y-117060000D02*
X150720000Y-104600000D01*
%TO.N,/B14*%
X138649000Y-94371000D02*
X139800000Y-93220000D01*
X136783240Y-94371000D02*
X138649000Y-94371000D01*
X135500000Y-95654240D02*
X136783240Y-94371000D01*
X139409000Y-116409000D02*
X135500000Y-112500000D01*
X139409000Y-118211000D02*
X139409000Y-116409000D01*
X138020000Y-119600000D02*
X139409000Y-118211000D01*
X135500000Y-112500000D02*
X135500000Y-95654240D01*
%TO.N,/A14*%
X134780000Y-93220000D02*
X137260000Y-93220000D01*
X134000000Y-94000000D02*
X134780000Y-93220000D01*
X134000000Y-113040000D02*
X134000000Y-94000000D01*
X138020000Y-117060000D02*
X134000000Y-113040000D01*
%TO.N,/D14*%
X138480000Y-92000000D02*
X139800000Y-90680000D01*
X134500000Y-92000000D02*
X138480000Y-92000000D01*
X133000000Y-93500000D02*
X134500000Y-92000000D01*
X135956760Y-115909000D02*
X135909000Y-115909000D01*
X136631000Y-116583240D02*
X135956760Y-115909000D01*
X136631000Y-118500000D02*
X136631000Y-116583240D01*
X133000000Y-113000000D02*
X133000000Y-93500000D01*
X136551000Y-118580000D02*
X136631000Y-118500000D01*
X136500000Y-118580000D02*
X136551000Y-118580000D01*
X135909000Y-115909000D02*
X133000000Y-113000000D01*
X135480000Y-119600000D02*
X136500000Y-118580000D01*
%TO.N,/C14*%
X134820000Y-90680000D02*
X137260000Y-90680000D01*
X132000000Y-93500000D02*
X134820000Y-90680000D01*
X132000000Y-113580000D02*
X132000000Y-93500000D01*
X135480000Y-117060000D02*
X132000000Y-113580000D01*
%TO.N,/D13*%
X138649000Y-89291000D02*
X139800000Y-88140000D01*
X131500000Y-92000000D02*
X134209000Y-89291000D01*
X132936120Y-115436120D02*
X131500000Y-114000000D01*
X132943880Y-115436120D02*
X132936120Y-115436120D01*
X131500000Y-114000000D02*
X131500000Y-92000000D01*
X134091000Y-116583240D02*
X132943880Y-115436120D01*
X134209000Y-89291000D02*
X138649000Y-89291000D01*
X134091000Y-118449000D02*
X134091000Y-116583240D01*
X132940000Y-119600000D02*
X134091000Y-118449000D01*
%TO.N,/C12*%
X138649000Y-86751000D02*
X139800000Y-85600000D01*
X133749000Y-86751000D02*
X138649000Y-86751000D01*
X129500000Y-91000000D02*
X133749000Y-86751000D01*
X129500000Y-114500000D02*
X129500000Y-91000000D01*
X130876760Y-115876760D02*
X129500000Y-114500000D01*
X131587760Y-117500000D02*
X131551000Y-117536760D01*
X131551000Y-117536760D02*
X131551000Y-116583240D01*
X131551000Y-116583240D02*
X130876760Y-115909000D01*
X131551000Y-117500000D02*
X131587760Y-117500000D01*
X130876760Y-115909000D02*
X130876760Y-115876760D01*
X131551000Y-118449000D02*
X131551000Y-117500000D01*
X130400000Y-119600000D02*
X131551000Y-118449000D01*
%TO.N,/C13*%
X134310000Y-88140000D02*
X137260000Y-88140000D01*
X130500000Y-91950000D02*
X134310000Y-88140000D01*
X132940000Y-117060000D02*
X130500000Y-114620000D01*
X130500000Y-114620000D02*
X130500000Y-91950000D01*
%TO.N,/A13*%
X133400000Y-85600000D02*
X137260000Y-85600000D01*
X128500000Y-115160000D02*
X128500000Y-90500000D01*
X130400000Y-117060000D02*
X128500000Y-115160000D01*
X128500000Y-90500000D02*
X133400000Y-85600000D01*
%TO.N,/A15*%
X138649000Y-102229000D02*
X137260000Y-100840000D01*
X140276760Y-102229000D02*
X138649000Y-102229000D01*
X140951000Y-102903240D02*
X140276760Y-102229000D01*
X140951000Y-116669000D02*
X140951000Y-102903240D01*
X140560000Y-117060000D02*
X140951000Y-116669000D01*
%TO.N,/B15*%
X141711000Y-102751000D02*
X139800000Y-100840000D01*
X141711000Y-118449000D02*
X141711000Y-102751000D01*
X140560000Y-119600000D02*
X141711000Y-118449000D01*
%TO.N,/C16*%
X138500000Y-99540000D02*
X137260000Y-98300000D01*
X141972900Y-99540000D02*
X138500000Y-99540000D01*
X143500000Y-101067100D02*
X141972900Y-99540000D01*
X143500000Y-116660000D02*
X143500000Y-101067100D01*
X143100000Y-117060000D02*
X143500000Y-116660000D01*
%TO.N,/B16*%
X144489000Y-101489000D02*
X141300000Y-98300000D01*
X144489000Y-118211000D02*
X144489000Y-101489000D01*
X141300000Y-98300000D02*
X139800000Y-98300000D01*
X143100000Y-119600000D02*
X144489000Y-118211000D01*
%TO.N,/A17*%
X138649000Y-97149000D02*
X141149000Y-97149000D01*
X141149000Y-97149000D02*
X142250000Y-98250000D01*
X137260000Y-95760000D02*
X138649000Y-97149000D01*
X142500000Y-98500000D02*
X145500000Y-101500000D01*
X145500000Y-101500000D02*
X145500000Y-116920000D01*
X142250000Y-98250000D02*
X142500000Y-98500000D01*
X145500000Y-116920000D02*
X145640000Y-117060000D01*
%TO.N,/B17*%
X141760000Y-95760000D02*
X139800000Y-95760000D01*
X146791000Y-100791000D02*
X141760000Y-95760000D01*
X146791000Y-118449000D02*
X146791000Y-100791000D01*
X145640000Y-119600000D02*
X146791000Y-118449000D01*
%TO.N,/B9*%
X103420000Y-102000000D02*
X102260000Y-100840000D01*
X111469000Y-108421240D02*
X105047760Y-102000000D01*
X105047760Y-102000000D02*
X103420000Y-102000000D01*
X111469000Y-118449000D02*
X111469000Y-108421240D01*
X112620000Y-119600000D02*
X111469000Y-118449000D01*
%TO.N,/A9*%
X112620000Y-108660000D02*
X104800000Y-100840000D01*
X112620000Y-117060000D02*
X112620000Y-108660000D01*
%TO.N,/B10*%
X103460000Y-99500000D02*
X102260000Y-98300000D01*
X113771000Y-108183240D02*
X105087760Y-99500000D01*
X113771000Y-118211000D02*
X113771000Y-108183240D01*
X115160000Y-119600000D02*
X113771000Y-118211000D01*
X105087760Y-99500000D02*
X103460000Y-99500000D01*
%TO.N,/A10*%
X115160000Y-108660000D02*
X104800000Y-98300000D01*
X115160000Y-117060000D02*
X115160000Y-108660000D01*
%TO.N,/D9*%
X105038760Y-96911000D02*
X103411000Y-96911000D01*
X116311000Y-118211000D02*
X116311000Y-108183240D01*
X103411000Y-96911000D02*
X102260000Y-95760000D01*
X117700000Y-119600000D02*
X116311000Y-118211000D01*
X116311000Y-108183240D02*
X105038760Y-96911000D01*
%TO.N,/C9*%
X117700000Y-108660000D02*
X104800000Y-95760000D01*
X117700000Y-117060000D02*
X117700000Y-108660000D01*
%TO.N,/D10*%
X105038760Y-94371000D02*
X103411000Y-94371000D01*
X119089000Y-108421240D02*
X105038760Y-94371000D01*
X119089000Y-118449000D02*
X119089000Y-108421240D01*
X103411000Y-94371000D02*
X102260000Y-93220000D01*
X120240000Y-119600000D02*
X119089000Y-118449000D01*
%TO.N,/B11*%
X103411000Y-91831000D02*
X102260000Y-90680000D01*
X105038760Y-91831000D02*
X103411000Y-91831000D01*
X121629000Y-108421240D02*
X105038760Y-91831000D01*
X121629000Y-118449000D02*
X121629000Y-108421240D01*
X122780000Y-119600000D02*
X121629000Y-118449000D01*
%TO.N,/D11*%
X104800000Y-93300000D02*
X104800000Y-93220000D01*
X120240000Y-108740000D02*
X104800000Y-93300000D01*
X120240000Y-117060000D02*
X120240000Y-108740000D01*
%TO.N,/C11*%
X122780000Y-108660000D02*
X122780000Y-117060000D01*
X104800000Y-90680000D02*
X122780000Y-108660000D01*
%TO.N,/A12*%
X124169000Y-118449000D02*
X125320000Y-119600000D01*
X124169000Y-108421240D02*
X124169000Y-118449000D01*
X105276760Y-89529000D02*
X124169000Y-108421240D01*
X102260000Y-88140000D02*
X103649000Y-89529000D01*
X103649000Y-89529000D02*
X105276760Y-89529000D01*
%TO.N,/B12*%
X104800000Y-88140000D02*
X125320000Y-108660000D01*
X125320000Y-108660000D02*
X125320000Y-117060000D01*
%TO.N,/E13*%
X126709000Y-118449000D02*
X127860000Y-119600000D01*
X126709000Y-108421240D02*
X126709000Y-118449000D01*
X105276760Y-86989000D02*
X126709000Y-108421240D01*
X103649000Y-86989000D02*
X105276760Y-86989000D01*
X102260000Y-85600000D02*
X103649000Y-86989000D01*
%TO.N,/F14*%
X127860000Y-108660000D02*
X127860000Y-117060000D01*
X104800000Y-85600000D02*
X127860000Y-108660000D01*
%TD*%
%TA.AperFunction,Conductor*%
%TO.N,GND*%
G36*
X110330000Y-119166988D02*
G01*
X110272993Y-119134075D01*
X110145826Y-119100000D01*
X110014174Y-119100000D01*
X109887007Y-119134075D01*
X109830000Y-119166988D01*
X109830000Y-117493012D01*
X109887007Y-117525925D01*
X110014174Y-117560000D01*
X110145826Y-117560000D01*
X110272993Y-117525925D01*
X110330000Y-117493012D01*
X110330000Y-119166988D01*
G37*
%TD.AperFunction*%
%TA.AperFunction,Conductor*%
G36*
X168750000Y-119166988D02*
G01*
X168692993Y-119134075D01*
X168565826Y-119100000D01*
X168434174Y-119100000D01*
X168307007Y-119134075D01*
X168250000Y-119166988D01*
X168250000Y-117493012D01*
X168307007Y-117525925D01*
X168434174Y-117560000D01*
X168565826Y-117560000D01*
X168692993Y-117525925D01*
X168750000Y-117493012D01*
X168750000Y-119166988D01*
G37*
%TD.AperFunction*%
%TA.AperFunction,Conductor*%
G36*
X106170948Y-103974992D02*
G01*
X106187185Y-103988660D01*
X110832181Y-108633656D01*
X110865666Y-108694979D01*
X110868500Y-108721337D01*
X110868500Y-115744270D01*
X110848815Y-115811309D01*
X110796011Y-115857064D01*
X110726853Y-115867008D01*
X110688206Y-115854755D01*
X110598220Y-115808905D01*
X110598216Y-115808903D01*
X110396124Y-115743241D01*
X110330000Y-115732768D01*
X110330000Y-116626988D01*
X110272993Y-116594075D01*
X110145826Y-116560000D01*
X110014174Y-116560000D01*
X109887007Y-116594075D01*
X109830000Y-116626988D01*
X109830000Y-115732768D01*
X109829999Y-115732768D01*
X109763875Y-115743241D01*
X109561784Y-115808903D01*
X109372442Y-115905379D01*
X109200540Y-116030272D01*
X109200535Y-116030276D01*
X109050276Y-116180535D01*
X109050272Y-116180540D01*
X108925378Y-116352443D01*
X108920762Y-116361502D01*
X108872784Y-116412295D01*
X108804963Y-116429087D01*
X108738829Y-116406546D01*
X108699794Y-116361493D01*
X108695051Y-116352184D01*
X108695049Y-116352181D01*
X108695048Y-116352179D01*
X108570109Y-116180213D01*
X108419786Y-116029890D01*
X108247820Y-115904951D01*
X108058414Y-115808444D01*
X108058413Y-115808443D01*
X108058412Y-115808443D01*
X107856243Y-115742754D01*
X107856241Y-115742753D01*
X107856240Y-115742753D01*
X107692421Y-115716807D01*
X107646287Y-115709500D01*
X107433713Y-115709500D01*
X107387579Y-115716807D01*
X107223760Y-115742753D01*
X107223757Y-115742754D01*
X107079501Y-115789626D01*
X107021585Y-115808444D01*
X106832179Y-115904951D01*
X106660213Y-116029890D01*
X106509890Y-116180213D01*
X106384951Y-116352179D01*
X106288444Y-116541585D01*
X106222753Y-116743760D01*
X106195518Y-116915713D01*
X106165589Y-116978848D01*
X106106277Y-117015779D01*
X106036414Y-117014781D01*
X105985364Y-116983996D01*
X103046819Y-114045451D01*
X103013334Y-113984128D01*
X103010500Y-113957770D01*
X103010500Y-107107220D01*
X103030185Y-107040181D01*
X103061614Y-107006902D01*
X103139792Y-106950104D01*
X103290104Y-106799792D01*
X103290106Y-106799788D01*
X103290109Y-106799786D01*
X103415048Y-106627820D01*
X103415050Y-106627817D01*
X103415051Y-106627816D01*
X103419514Y-106619054D01*
X103467488Y-106568259D01*
X103535308Y-106551463D01*
X103601444Y-106573999D01*
X103640486Y-106619056D01*
X103644951Y-106627820D01*
X103769890Y-106799786D01*
X103920213Y-106950109D01*
X104092179Y-107075048D01*
X104092181Y-107075049D01*
X104092184Y-107075051D01*
X104281588Y-107171557D01*
X104483757Y-107237246D01*
X104693713Y-107270500D01*
X104693714Y-107270500D01*
X104906286Y-107270500D01*
X104906287Y-107270500D01*
X105116243Y-107237246D01*
X105318412Y-107171557D01*
X105507816Y-107075051D01*
X105555811Y-107040181D01*
X105679786Y-106950109D01*
X105679788Y-106950106D01*
X105679792Y-106950104D01*
X105830104Y-106799792D01*
X105830106Y-106799788D01*
X105830109Y-106799786D01*
X105955048Y-106627820D01*
X105955050Y-106627817D01*
X105955051Y-106627816D01*
X106051557Y-106438412D01*
X106117246Y-106236243D01*
X106150500Y-106026287D01*
X106150500Y-105813713D01*
X106117246Y-105603757D01*
X106051557Y-105401588D01*
X105955051Y-105212184D01*
X105955049Y-105212181D01*
X105955048Y-105212179D01*
X105830109Y-105040213D01*
X105679786Y-104889890D01*
X105507817Y-104764949D01*
X105498504Y-104760204D01*
X105447707Y-104712230D01*
X105430912Y-104644409D01*
X105453449Y-104578274D01*
X105498507Y-104539232D01*
X105507558Y-104534620D01*
X105679459Y-104409727D01*
X105679464Y-104409723D01*
X105829723Y-104259464D01*
X105829727Y-104259459D01*
X105954622Y-104087555D01*
X105989019Y-104020047D01*
X106036992Y-103969251D01*
X106104813Y-103952455D01*
X106170948Y-103974992D01*
G37*
%TD.AperFunction*%
%TA.AperFunction,Conductor*%
G36*
X172510000Y-105486988D02*
G01*
X172452993Y-105454075D01*
X172325826Y-105420000D01*
X172194174Y-105420000D01*
X172067007Y-105454075D01*
X172010000Y-105486988D01*
X172010000Y-103813012D01*
X172067007Y-103845925D01*
X172194174Y-103880000D01*
X172325826Y-103880000D01*
X172452993Y-103845925D01*
X172510000Y-103813012D01*
X172510000Y-105486988D01*
G37*
%TD.AperFunction*%
%TA.AperFunction,Conductor*%
G36*
X104334075Y-103187007D02*
G01*
X104300000Y-103314174D01*
X104300000Y-103445826D01*
X104334075Y-103572993D01*
X104366988Y-103630000D01*
X102693012Y-103630000D01*
X102725925Y-103572993D01*
X102760000Y-103445826D01*
X102760000Y-103314174D01*
X102725925Y-103187007D01*
X102693012Y-103130000D01*
X104366988Y-103130000D01*
X104334075Y-103187007D01*
G37*
%TD.AperFunction*%
%TA.AperFunction,Conductor*%
G36*
X139334075Y-103187007D02*
G01*
X139300000Y-103314174D01*
X139300000Y-103445826D01*
X139334075Y-103572993D01*
X139366988Y-103630000D01*
X137693012Y-103630000D01*
X137725925Y-103572993D01*
X137760000Y-103445826D01*
X137760000Y-103314174D01*
X137725925Y-103187007D01*
X137693012Y-103130000D01*
X139366988Y-103130000D01*
X139334075Y-103187007D01*
G37*
%TD.AperFunction*%
%TA.AperFunction,Conductor*%
G36*
X174334075Y-103187007D02*
G01*
X174300000Y-103314174D01*
X174300000Y-103445826D01*
X174334075Y-103572993D01*
X174366988Y-103630000D01*
X172693012Y-103630000D01*
X172725925Y-103572993D01*
X172760000Y-103445826D01*
X172760000Y-103314174D01*
X172725925Y-103187007D01*
X172693012Y-103130000D01*
X174366988Y-103130000D01*
X174334075Y-103187007D01*
G37*
%TD.AperFunction*%
%TA.AperFunction,Conductor*%
G36*
X172510000Y-102946988D02*
G01*
X172452993Y-102914075D01*
X172325826Y-102880000D01*
X172194174Y-102880000D01*
X172067007Y-102914075D01*
X172010000Y-102946988D01*
X172010000Y-101273012D01*
X172067007Y-101305925D01*
X172194174Y-101340000D01*
X172325826Y-101340000D01*
X172452993Y-101305925D01*
X172510000Y-101273012D01*
X172510000Y-102946988D01*
G37*
%TD.AperFunction*%
%TA.AperFunction,Conductor*%
G36*
X104334075Y-82867007D02*
G01*
X104300000Y-82994174D01*
X104300000Y-83125826D01*
X104334075Y-83252993D01*
X104366988Y-83310000D01*
X102693012Y-83310000D01*
X102725925Y-83252993D01*
X102760000Y-83125826D01*
X102760000Y-82994174D01*
X102725925Y-82867007D01*
X102693012Y-82810000D01*
X104366988Y-82810000D01*
X104334075Y-82867007D01*
G37*
%TD.AperFunction*%
%TA.AperFunction,Conductor*%
G36*
X139334075Y-82867007D02*
G01*
X139300000Y-82994174D01*
X139300000Y-83125826D01*
X139334075Y-83252993D01*
X139366988Y-83310000D01*
X137693012Y-83310000D01*
X137725925Y-83252993D01*
X137760000Y-83125826D01*
X137760000Y-82994174D01*
X137725925Y-82867007D01*
X137693012Y-82810000D01*
X139366988Y-82810000D01*
X139334075Y-82867007D01*
G37*
%TD.AperFunction*%
%TA.AperFunction,Conductor*%
G36*
X100886039Y-72420185D02*
G01*
X100931794Y-72472989D01*
X100941738Y-72542147D01*
X100912713Y-72605703D01*
X100897665Y-72620353D01*
X100814459Y-72688638D01*
X100588638Y-72914459D01*
X100386029Y-73161338D01*
X100386012Y-73161361D01*
X100208601Y-73426877D01*
X100208584Y-73426905D01*
X100058042Y-73708548D01*
X100058040Y-73708553D01*
X99935820Y-74003617D01*
X99843109Y-74309245D01*
X99780803Y-74622477D01*
X99749500Y-74940316D01*
X99749500Y-75259683D01*
X99780803Y-75577522D01*
X99843109Y-75890754D01*
X99935820Y-76196382D01*
X100058040Y-76491446D01*
X100058042Y-76491451D01*
X100208584Y-76773094D01*
X100208601Y-76773122D01*
X100386012Y-77038638D01*
X100386029Y-77038661D01*
X100588638Y-77285540D01*
X100814459Y-77511361D01*
X100814464Y-77511365D01*
X100814465Y-77511366D01*
X101061344Y-77713975D01*
X101061351Y-77713980D01*
X101061361Y-77713987D01*
X101326877Y-77891398D01*
X101326882Y-77891401D01*
X101326894Y-77891409D01*
X101326903Y-77891413D01*
X101326905Y-77891415D01*
X101608548Y-78041957D01*
X101608550Y-78041957D01*
X101608556Y-78041961D01*
X101903619Y-78164180D01*
X102209240Y-78256889D01*
X102522477Y-78319196D01*
X102840313Y-78350500D01*
X102840316Y-78350500D01*
X103159684Y-78350500D01*
X103159687Y-78350500D01*
X103477523Y-78319196D01*
X103790760Y-78256889D01*
X104096381Y-78164180D01*
X104391444Y-78041961D01*
X104673106Y-77891409D01*
X104938656Y-77713975D01*
X105185535Y-77511366D01*
X105411366Y-77285535D01*
X105613975Y-77038656D01*
X105791409Y-76773106D01*
X105941961Y-76491444D01*
X106064180Y-76196381D01*
X106156889Y-75890760D01*
X106219196Y-75577523D01*
X106250500Y-75259687D01*
X106250500Y-74940313D01*
X106219196Y-74622477D01*
X106156889Y-74309240D01*
X106064180Y-74003619D01*
X105941961Y-73708556D01*
X105791409Y-73426894D01*
X105791398Y-73426877D01*
X105613987Y-73161361D01*
X105613980Y-73161351D01*
X105613975Y-73161344D01*
X105411366Y-72914465D01*
X105411365Y-72914464D01*
X105411361Y-72914459D01*
X105185540Y-72688638D01*
X105102335Y-72620353D01*
X105063001Y-72562607D01*
X105061130Y-72492763D01*
X105097318Y-72432994D01*
X105160074Y-72402279D01*
X105181000Y-72400500D01*
X170819000Y-72400500D01*
X170886039Y-72420185D01*
X170931794Y-72472989D01*
X170941738Y-72542147D01*
X170912713Y-72605703D01*
X170897665Y-72620353D01*
X170814459Y-72688638D01*
X170588638Y-72914459D01*
X170386029Y-73161338D01*
X170386012Y-73161361D01*
X170208601Y-73426877D01*
X170208584Y-73426905D01*
X170058042Y-73708548D01*
X170058040Y-73708553D01*
X169935820Y-74003617D01*
X169843109Y-74309245D01*
X169780803Y-74622477D01*
X169749500Y-74940316D01*
X169749500Y-75259683D01*
X169780803Y-75577522D01*
X169843109Y-75890754D01*
X169935820Y-76196382D01*
X170058040Y-76491446D01*
X170058042Y-76491451D01*
X170208584Y-76773094D01*
X170208601Y-76773122D01*
X170386012Y-77038638D01*
X170386029Y-77038661D01*
X170588638Y-77285540D01*
X170814459Y-77511361D01*
X170814464Y-77511365D01*
X170814465Y-77511366D01*
X171061344Y-77713975D01*
X171061351Y-77713980D01*
X171061361Y-77713987D01*
X171326877Y-77891398D01*
X171326882Y-77891401D01*
X171326894Y-77891409D01*
X171326903Y-77891413D01*
X171326905Y-77891415D01*
X171608548Y-78041957D01*
X171608550Y-78041957D01*
X171608556Y-78041961D01*
X171903619Y-78164180D01*
X172209240Y-78256889D01*
X172522477Y-78319196D01*
X172840313Y-78350500D01*
X172840316Y-78350500D01*
X173159684Y-78350500D01*
X173159687Y-78350500D01*
X173477523Y-78319196D01*
X173790760Y-78256889D01*
X174096381Y-78164180D01*
X174391444Y-78041961D01*
X174673106Y-77891409D01*
X174938656Y-77713975D01*
X175185535Y-77511366D01*
X175411366Y-77285535D01*
X175613975Y-77038656D01*
X175791409Y-76773106D01*
X175941961Y-76491444D01*
X176064180Y-76196381D01*
X176156889Y-75890760D01*
X176219196Y-75577523D01*
X176250500Y-75259687D01*
X176250500Y-74940313D01*
X176219196Y-74622477D01*
X176156889Y-74309240D01*
X176064180Y-74003619D01*
X175941961Y-73708556D01*
X175791409Y-73426894D01*
X175791398Y-73426877D01*
X175613987Y-73161361D01*
X175613980Y-73161351D01*
X175613975Y-73161344D01*
X175411366Y-72914465D01*
X175411365Y-72914464D01*
X175411361Y-72914459D01*
X175185540Y-72688638D01*
X175102335Y-72620353D01*
X175063001Y-72562607D01*
X175061130Y-72492763D01*
X175097318Y-72432994D01*
X175160074Y-72402279D01*
X175181000Y-72400500D01*
X183275500Y-72400500D01*
X183342539Y-72420185D01*
X183388294Y-72472989D01*
X183399500Y-72524500D01*
X183399500Y-131275500D01*
X183379815Y-131342539D01*
X183327011Y-131388294D01*
X183275500Y-131399500D01*
X94524500Y-131399500D01*
X94457461Y-131379815D01*
X94411706Y-131327011D01*
X94400500Y-131275500D01*
X94400500Y-124940316D01*
X96649500Y-124940316D01*
X96649500Y-125259683D01*
X96680803Y-125577522D01*
X96743109Y-125890754D01*
X96835820Y-126196382D01*
X96958040Y-126491446D01*
X96958042Y-126491451D01*
X97108584Y-126773094D01*
X97108601Y-126773122D01*
X97286012Y-127038638D01*
X97286029Y-127038661D01*
X97488638Y-127285540D01*
X97714459Y-127511361D01*
X97714464Y-127511365D01*
X97714465Y-127511366D01*
X97961344Y-127713975D01*
X97961351Y-127713980D01*
X97961361Y-127713987D01*
X98226877Y-127891398D01*
X98226882Y-127891401D01*
X98226894Y-127891409D01*
X98226903Y-127891413D01*
X98226905Y-127891415D01*
X98508548Y-128041957D01*
X98508550Y-128041957D01*
X98508556Y-128041961D01*
X98803619Y-128164180D01*
X99109240Y-128256889D01*
X99422477Y-128319196D01*
X99740313Y-128350500D01*
X99740316Y-128350500D01*
X100059684Y-128350500D01*
X100059687Y-128350500D01*
X100377523Y-128319196D01*
X100690760Y-128256889D01*
X100996381Y-128164180D01*
X101291444Y-128041961D01*
X101573106Y-127891409D01*
X101838656Y-127713975D01*
X102085535Y-127511366D01*
X102311366Y-127285535D01*
X102513975Y-127038656D01*
X102691409Y-126773106D01*
X102841961Y-126491444D01*
X102964180Y-126196381D01*
X103056889Y-125890760D01*
X103119196Y-125577523D01*
X103150500Y-125259687D01*
X103150500Y-124940316D01*
X174749500Y-124940316D01*
X174749500Y-125259683D01*
X174780803Y-125577522D01*
X174843109Y-125890754D01*
X174935820Y-126196382D01*
X175058040Y-126491446D01*
X175058042Y-126491451D01*
X175208584Y-126773094D01*
X175208601Y-126773122D01*
X175386012Y-127038638D01*
X175386029Y-127038661D01*
X175588638Y-127285540D01*
X175814459Y-127511361D01*
X175814464Y-127511365D01*
X175814465Y-127511366D01*
X176061344Y-127713975D01*
X176061351Y-127713980D01*
X176061361Y-127713987D01*
X176326877Y-127891398D01*
X176326882Y-127891401D01*
X176326894Y-127891409D01*
X176326903Y-127891413D01*
X176326905Y-127891415D01*
X176608548Y-128041957D01*
X176608550Y-128041957D01*
X176608556Y-128041961D01*
X176903619Y-128164180D01*
X177209240Y-128256889D01*
X177522477Y-128319196D01*
X177840313Y-128350500D01*
X177840316Y-128350500D01*
X178159684Y-128350500D01*
X178159687Y-128350500D01*
X178477523Y-128319196D01*
X178790760Y-128256889D01*
X179096381Y-128164180D01*
X179391444Y-128041961D01*
X179673106Y-127891409D01*
X179938656Y-127713975D01*
X180185535Y-127511366D01*
X180411366Y-127285535D01*
X180613975Y-127038656D01*
X180791409Y-126773106D01*
X180941961Y-126491444D01*
X181064180Y-126196381D01*
X181156889Y-125890760D01*
X181219196Y-125577523D01*
X181250500Y-125259687D01*
X181250500Y-124940313D01*
X181219196Y-124622477D01*
X181156889Y-124309240D01*
X181064180Y-124003619D01*
X180941961Y-123708556D01*
X180791409Y-123426894D01*
X180791398Y-123426877D01*
X180613987Y-123161361D01*
X180613980Y-123161351D01*
X180613975Y-123161344D01*
X180411366Y-122914465D01*
X180411365Y-122914464D01*
X180411361Y-122914459D01*
X180185540Y-122688638D01*
X179938661Y-122486029D01*
X179938638Y-122486012D01*
X179673122Y-122308601D01*
X179673094Y-122308584D01*
X179391451Y-122158042D01*
X179391446Y-122158040D01*
X179096382Y-122035820D01*
X178790754Y-121943109D01*
X178477521Y-121880803D01*
X178477522Y-121880803D01*
X178238141Y-121857227D01*
X178159687Y-121849500D01*
X177840313Y-121849500D01*
X177767822Y-121856639D01*
X177522477Y-121880803D01*
X177209245Y-121943109D01*
X176903617Y-122035820D01*
X176608553Y-122158040D01*
X176608548Y-122158042D01*
X176326905Y-122308584D01*
X176326877Y-122308601D01*
X176061361Y-122486012D01*
X176061338Y-122486029D01*
X175814459Y-122688638D01*
X175588638Y-122914459D01*
X175386029Y-123161338D01*
X175386012Y-123161361D01*
X175208601Y-123426877D01*
X175208584Y-123426905D01*
X175058042Y-123708548D01*
X175058040Y-123708553D01*
X174935820Y-124003617D01*
X174843109Y-124309245D01*
X174780803Y-124622477D01*
X174749500Y-124940316D01*
X103150500Y-124940316D01*
X103150500Y-124940313D01*
X103119196Y-124622477D01*
X103056889Y-124309240D01*
X102964180Y-124003619D01*
X102841961Y-123708556D01*
X102691409Y-123426894D01*
X102691398Y-123426877D01*
X102513987Y-123161361D01*
X102513980Y-123161351D01*
X102513975Y-123161344D01*
X102311366Y-122914465D01*
X102311365Y-122914464D01*
X102311361Y-122914459D01*
X102085540Y-122688638D01*
X101838661Y-122486029D01*
X101838638Y-122486012D01*
X101573122Y-122308601D01*
X101573094Y-122308584D01*
X101291451Y-122158042D01*
X101291446Y-122158040D01*
X100996382Y-122035820D01*
X100690754Y-121943109D01*
X100377521Y-121880803D01*
X100377522Y-121880803D01*
X100138141Y-121857227D01*
X100059687Y-121849500D01*
X99740313Y-121849500D01*
X99667822Y-121856639D01*
X99422477Y-121880803D01*
X99109245Y-121943109D01*
X98803617Y-122035820D01*
X98508553Y-122158040D01*
X98508548Y-122158042D01*
X98226905Y-122308584D01*
X98226877Y-122308601D01*
X97961361Y-122486012D01*
X97961338Y-122486029D01*
X97714459Y-122688638D01*
X97488638Y-122914459D01*
X97286029Y-123161338D01*
X97286012Y-123161361D01*
X97108601Y-123426877D01*
X97108584Y-123426905D01*
X96958042Y-123708548D01*
X96958040Y-123708553D01*
X96835820Y-124003617D01*
X96743109Y-124309245D01*
X96680803Y-124622477D01*
X96649500Y-124940316D01*
X94400500Y-124940316D01*
X94400500Y-85493713D01*
X100909500Y-85493713D01*
X100909500Y-85706286D01*
X100942753Y-85916239D01*
X100942753Y-85916241D01*
X100942754Y-85916243D01*
X100997431Y-86084522D01*
X101008444Y-86118414D01*
X101104951Y-86307820D01*
X101229890Y-86479786D01*
X101380213Y-86630109D01*
X101552182Y-86755050D01*
X101560946Y-86759516D01*
X101611742Y-86807491D01*
X101628536Y-86875312D01*
X101605998Y-86941447D01*
X101560946Y-86980484D01*
X101552182Y-86984949D01*
X101380213Y-87109890D01*
X101229890Y-87260213D01*
X101104951Y-87432179D01*
X101008444Y-87621585D01*
X100942753Y-87823760D01*
X100909500Y-88033713D01*
X100909500Y-88246286D01*
X100942753Y-88456239D01*
X101008444Y-88658414D01*
X101104951Y-88847820D01*
X101229890Y-89019786D01*
X101380213Y-89170109D01*
X101552182Y-89295050D01*
X101560946Y-89299516D01*
X101611742Y-89347491D01*
X101628536Y-89415312D01*
X101605998Y-89481447D01*
X101560946Y-89520484D01*
X101552182Y-89524949D01*
X101380213Y-89649890D01*
X101229890Y-89800213D01*
X101104951Y-89972179D01*
X101008444Y-90161585D01*
X100942753Y-90363760D01*
X100909500Y-90573713D01*
X100909500Y-90786286D01*
X100942753Y-90996239D01*
X101008444Y-91198414D01*
X101104951Y-91387820D01*
X101229890Y-91559786D01*
X101380213Y-91710109D01*
X101552182Y-91835050D01*
X101560946Y-91839516D01*
X101611742Y-91887491D01*
X101628536Y-91955312D01*
X101605998Y-92021447D01*
X101560946Y-92060484D01*
X101552182Y-92064949D01*
X101380213Y-92189890D01*
X101229890Y-92340213D01*
X101104951Y-92512179D01*
X101008444Y-92701585D01*
X100942753Y-92903760D01*
X100909500Y-93113713D01*
X100909500Y-93326286D01*
X100942753Y-93536239D01*
X101008444Y-93738414D01*
X101104951Y-93927820D01*
X101229890Y-94099786D01*
X101380213Y-94250109D01*
X101552182Y-94375050D01*
X101560946Y-94379516D01*
X101611742Y-94427491D01*
X101628536Y-94495312D01*
X101605998Y-94561447D01*
X101560946Y-94600484D01*
X101552182Y-94604949D01*
X101380213Y-94729890D01*
X101229890Y-94880213D01*
X101104951Y-95052179D01*
X101008444Y-95241585D01*
X100942753Y-95443760D01*
X100909500Y-95653713D01*
X100909500Y-95866286D01*
X100942753Y-96076239D01*
X101008444Y-96278414D01*
X101104951Y-96467820D01*
X101229890Y-96639786D01*
X101380213Y-96790109D01*
X101552182Y-96915050D01*
X101560946Y-96919516D01*
X101611742Y-96967491D01*
X101628536Y-97035312D01*
X101605998Y-97101447D01*
X101560946Y-97140484D01*
X101552182Y-97144949D01*
X101380213Y-97269890D01*
X101229890Y-97420213D01*
X101104951Y-97592179D01*
X101008444Y-97781585D01*
X100942753Y-97983760D01*
X100909500Y-98193713D01*
X100909500Y-98406286D01*
X100942753Y-98616239D01*
X101008444Y-98818414D01*
X101104951Y-99007820D01*
X101229890Y-99179786D01*
X101380213Y-99330109D01*
X101552182Y-99455050D01*
X101560946Y-99459516D01*
X101611742Y-99507491D01*
X101628536Y-99575312D01*
X101605998Y-99641447D01*
X101560946Y-99680484D01*
X101552182Y-99684949D01*
X101380213Y-99809890D01*
X101229890Y-99960213D01*
X101104951Y-100132179D01*
X101008444Y-100321585D01*
X100942753Y-100523760D01*
X100923233Y-100647007D01*
X100909500Y-100733713D01*
X100909500Y-100946287D01*
X100919534Y-101009644D01*
X100942753Y-101156239D01*
X100942753Y-101156241D01*
X100942754Y-101156243D01*
X101002733Y-101340839D01*
X101008444Y-101358414D01*
X101104951Y-101547820D01*
X101229890Y-101719786D01*
X101380213Y-101870109D01*
X101552179Y-101995048D01*
X101552181Y-101995049D01*
X101552184Y-101995051D01*
X101561493Y-101999794D01*
X101612290Y-102047766D01*
X101629087Y-102115587D01*
X101606552Y-102181722D01*
X101561502Y-102220762D01*
X101552443Y-102225378D01*
X101380540Y-102350272D01*
X101380535Y-102350276D01*
X101230276Y-102500535D01*
X101230272Y-102500540D01*
X101105379Y-102672442D01*
X101008904Y-102861782D01*
X100943242Y-103063870D01*
X100943242Y-103063873D01*
X100932769Y-103130000D01*
X101826988Y-103130000D01*
X101794075Y-103187007D01*
X101760000Y-103314174D01*
X101760000Y-103445826D01*
X101794075Y-103572993D01*
X101826988Y-103630000D01*
X100932769Y-103630000D01*
X100943242Y-103696126D01*
X100943242Y-103696129D01*
X101008904Y-103898217D01*
X101105379Y-104087557D01*
X101230272Y-104259459D01*
X101230276Y-104259464D01*
X101380535Y-104409723D01*
X101380540Y-104409727D01*
X101552444Y-104534622D01*
X101561495Y-104539234D01*
X101612292Y-104587208D01*
X101629087Y-104655029D01*
X101606550Y-104721164D01*
X101561499Y-104760202D01*
X101552182Y-104764949D01*
X101380213Y-104889890D01*
X101229890Y-105040213D01*
X101104951Y-105212179D01*
X101008444Y-105401585D01*
X100942753Y-105603760D01*
X100909500Y-105813713D01*
X100909500Y-106026286D01*
X100942753Y-106236239D01*
X101008444Y-106438414D01*
X101104951Y-106627820D01*
X101229890Y-106799786D01*
X101229896Y-106799792D01*
X101380208Y-106950104D01*
X101458384Y-107006902D01*
X101501051Y-107062231D01*
X101509500Y-107107220D01*
X101509500Y-114393918D01*
X101509500Y-114393920D01*
X101509499Y-114393920D01*
X101538340Y-114538907D01*
X101538343Y-114538917D01*
X101594912Y-114675488D01*
X101594914Y-114675492D01*
X101594916Y-114675495D01*
X101610660Y-114699057D01*
X101677051Y-114798420D01*
X101677052Y-114798421D01*
X106169824Y-119291191D01*
X106203309Y-119352514D01*
X106204616Y-119398270D01*
X106189500Y-119493707D01*
X106189500Y-119706286D01*
X106222753Y-119916239D01*
X106288444Y-120118414D01*
X106384951Y-120307820D01*
X106509890Y-120479786D01*
X106660213Y-120630109D01*
X106832179Y-120755048D01*
X106832181Y-120755049D01*
X106832184Y-120755051D01*
X107021588Y-120851557D01*
X107223757Y-120917246D01*
X107433713Y-120950500D01*
X107433714Y-120950500D01*
X107646286Y-120950500D01*
X107646287Y-120950500D01*
X107856243Y-120917246D01*
X108058412Y-120851557D01*
X108247816Y-120755051D01*
X108269789Y-120739086D01*
X108419786Y-120630109D01*
X108419788Y-120630106D01*
X108419792Y-120630104D01*
X108570104Y-120479792D01*
X108570106Y-120479788D01*
X108570109Y-120479786D01*
X108695048Y-120307820D01*
X108695051Y-120307816D01*
X108699793Y-120298508D01*
X108747763Y-120247711D01*
X108815583Y-120230911D01*
X108881719Y-120253445D01*
X108920763Y-120298500D01*
X108925377Y-120307555D01*
X109050272Y-120479459D01*
X109050276Y-120479464D01*
X109200535Y-120629723D01*
X109200540Y-120629727D01*
X109372442Y-120754620D01*
X109561782Y-120851095D01*
X109763871Y-120916757D01*
X109830000Y-120927231D01*
X109830000Y-120033012D01*
X109887007Y-120065925D01*
X110014174Y-120100000D01*
X110145826Y-120100000D01*
X110272993Y-120065925D01*
X110330000Y-120033012D01*
X110330000Y-120927230D01*
X110396126Y-120916757D01*
X110396129Y-120916757D01*
X110598217Y-120851095D01*
X110787557Y-120754620D01*
X110959459Y-120629727D01*
X110959464Y-120629723D01*
X111109723Y-120479464D01*
X111109727Y-120479459D01*
X111234620Y-120307558D01*
X111239232Y-120298507D01*
X111287205Y-120247709D01*
X111355025Y-120230912D01*
X111421161Y-120253447D01*
X111460204Y-120298504D01*
X111464949Y-120307817D01*
X111589890Y-120479786D01*
X111740213Y-120630109D01*
X111912179Y-120755048D01*
X111912181Y-120755049D01*
X111912184Y-120755051D01*
X112101588Y-120851557D01*
X112303757Y-120917246D01*
X112513713Y-120950500D01*
X112513714Y-120950500D01*
X112726286Y-120950500D01*
X112726287Y-120950500D01*
X112936243Y-120917246D01*
X113138412Y-120851557D01*
X113327816Y-120755051D01*
X113349789Y-120739086D01*
X113499786Y-120630109D01*
X113499788Y-120630106D01*
X113499792Y-120630104D01*
X113650104Y-120479792D01*
X113650106Y-120479788D01*
X113650109Y-120479786D01*
X113775048Y-120307820D01*
X113775047Y-120307820D01*
X113775051Y-120307816D01*
X113779514Y-120299054D01*
X113827488Y-120248259D01*
X113895308Y-120231463D01*
X113961444Y-120253999D01*
X114000486Y-120299056D01*
X114004951Y-120307820D01*
X114129890Y-120479786D01*
X114280213Y-120630109D01*
X114452179Y-120755048D01*
X114452181Y-120755049D01*
X114452184Y-120755051D01*
X114641588Y-120851557D01*
X114843757Y-120917246D01*
X115053713Y-120950500D01*
X115053714Y-120950500D01*
X115266286Y-120950500D01*
X115266287Y-120950500D01*
X115476243Y-120917246D01*
X115678412Y-120851557D01*
X115867816Y-120755051D01*
X115889789Y-120739086D01*
X116039786Y-120630109D01*
X116039788Y-120630106D01*
X116039792Y-120630104D01*
X116190104Y-120479792D01*
X116190106Y-120479788D01*
X116190109Y-120479786D01*
X116315048Y-120307820D01*
X116315047Y-120307820D01*
X116315051Y-120307816D01*
X116319514Y-120299054D01*
X116367488Y-120248259D01*
X116435308Y-120231463D01*
X116501444Y-120253999D01*
X116540486Y-120299056D01*
X116544951Y-120307820D01*
X116669890Y-120479786D01*
X116820213Y-120630109D01*
X116992179Y-120755048D01*
X116992181Y-120755049D01*
X116992184Y-120755051D01*
X117181588Y-120851557D01*
X117383757Y-120917246D01*
X117593713Y-120950500D01*
X117593714Y-120950500D01*
X117806286Y-120950500D01*
X117806287Y-120950500D01*
X118016243Y-120917246D01*
X118218412Y-120851557D01*
X118407816Y-120755051D01*
X118429789Y-120739086D01*
X118579786Y-120630109D01*
X118579788Y-120630106D01*
X118579792Y-120630104D01*
X118730104Y-120479792D01*
X118730106Y-120479788D01*
X118730109Y-120479786D01*
X118855048Y-120307820D01*
X118855047Y-120307820D01*
X118855051Y-120307816D01*
X118859514Y-120299054D01*
X118907488Y-120248259D01*
X118975308Y-120231463D01*
X119041444Y-120253999D01*
X119080486Y-120299056D01*
X119084951Y-120307820D01*
X119209890Y-120479786D01*
X119360213Y-120630109D01*
X119532179Y-120755048D01*
X119532181Y-120755049D01*
X119532184Y-120755051D01*
X119721588Y-120851557D01*
X119923757Y-120917246D01*
X120133713Y-120950500D01*
X120133714Y-120950500D01*
X120346286Y-120950500D01*
X120346287Y-120950500D01*
X120556243Y-120917246D01*
X120758412Y-120851557D01*
X120947816Y-120755051D01*
X120969789Y-120739086D01*
X121119786Y-120630109D01*
X121119788Y-120630106D01*
X121119792Y-120630104D01*
X121270104Y-120479792D01*
X121270106Y-120479788D01*
X121270109Y-120479786D01*
X121395048Y-120307820D01*
X121395047Y-120307820D01*
X121395051Y-120307816D01*
X121399514Y-120299054D01*
X121447488Y-120248259D01*
X121515308Y-120231463D01*
X121581444Y-120253999D01*
X121620486Y-120299056D01*
X121624951Y-120307820D01*
X121749890Y-120479786D01*
X121900213Y-120630109D01*
X122072179Y-120755048D01*
X122072181Y-120755049D01*
X122072184Y-120755051D01*
X122261588Y-120851557D01*
X122463757Y-120917246D01*
X122673713Y-120950500D01*
X122673714Y-120950500D01*
X122886286Y-120950500D01*
X122886287Y-120950500D01*
X123096243Y-120917246D01*
X123298412Y-120851557D01*
X123487816Y-120755051D01*
X123509789Y-120739086D01*
X123659786Y-120630109D01*
X123659788Y-120630106D01*
X123659792Y-120630104D01*
X123810104Y-120479792D01*
X123810106Y-120479788D01*
X123810109Y-120479786D01*
X123935048Y-120307820D01*
X123935047Y-120307820D01*
X123935051Y-120307816D01*
X123939514Y-120299054D01*
X123987488Y-120248259D01*
X124055308Y-120231463D01*
X124121444Y-120253999D01*
X124160486Y-120299056D01*
X124164951Y-120307820D01*
X124289890Y-120479786D01*
X124440213Y-120630109D01*
X124612179Y-120755048D01*
X124612181Y-120755049D01*
X124612184Y-120755051D01*
X124801588Y-120851557D01*
X125003757Y-120917246D01*
X125213713Y-120950500D01*
X125213714Y-120950500D01*
X125426286Y-120950500D01*
X125426287Y-120950500D01*
X125636243Y-120917246D01*
X125838412Y-120851557D01*
X126027816Y-120755051D01*
X126049789Y-120739086D01*
X126199786Y-120630109D01*
X126199788Y-120630106D01*
X126199792Y-120630104D01*
X126350104Y-120479792D01*
X126350106Y-120479788D01*
X126350109Y-120479786D01*
X126475048Y-120307820D01*
X126475047Y-120307820D01*
X126475051Y-120307816D01*
X126479514Y-120299054D01*
X126527488Y-120248259D01*
X126595308Y-120231463D01*
X126661444Y-120253999D01*
X126700486Y-120299056D01*
X126704951Y-120307820D01*
X126829890Y-120479786D01*
X126980213Y-120630109D01*
X127152179Y-120755048D01*
X127152181Y-120755049D01*
X127152184Y-120755051D01*
X127341588Y-120851557D01*
X127543757Y-120917246D01*
X127753713Y-120950500D01*
X127753714Y-120950500D01*
X127966286Y-120950500D01*
X127966287Y-120950500D01*
X128176243Y-120917246D01*
X128378412Y-120851557D01*
X128567816Y-120755051D01*
X128589789Y-120739086D01*
X128739786Y-120630109D01*
X128739788Y-120630106D01*
X128739792Y-120630104D01*
X128890104Y-120479792D01*
X128890106Y-120479788D01*
X128890109Y-120479786D01*
X129015048Y-120307820D01*
X129015047Y-120307820D01*
X129015051Y-120307816D01*
X129019514Y-120299054D01*
X129067488Y-120248259D01*
X129135308Y-120231463D01*
X129201444Y-120253999D01*
X129240486Y-120299056D01*
X129244951Y-120307820D01*
X129369890Y-120479786D01*
X129520213Y-120630109D01*
X129692179Y-120755048D01*
X129692181Y-120755049D01*
X129692184Y-120755051D01*
X129881588Y-120851557D01*
X130083757Y-120917246D01*
X130293713Y-120950500D01*
X130293714Y-120950500D01*
X130506286Y-120950500D01*
X130506287Y-120950500D01*
X130716243Y-120917246D01*
X130918412Y-120851557D01*
X131107816Y-120755051D01*
X131129789Y-120739086D01*
X131279786Y-120630109D01*
X131279788Y-120630106D01*
X131279792Y-120630104D01*
X131430104Y-120479792D01*
X131430106Y-120479788D01*
X131430109Y-120479786D01*
X131555048Y-120307820D01*
X131555047Y-120307820D01*
X131555051Y-120307816D01*
X131559514Y-120299054D01*
X131607488Y-120248259D01*
X131675308Y-120231463D01*
X131741444Y-120253999D01*
X131780486Y-120299056D01*
X131784951Y-120307820D01*
X131909890Y-120479786D01*
X132060213Y-120630109D01*
X132232179Y-120755048D01*
X132232181Y-120755049D01*
X132232184Y-120755051D01*
X132421588Y-120851557D01*
X132623757Y-120917246D01*
X132833713Y-120950500D01*
X132833714Y-120950500D01*
X133046286Y-120950500D01*
X133046287Y-120950500D01*
X133256243Y-120917246D01*
X133458412Y-120851557D01*
X133647816Y-120755051D01*
X133669789Y-120739086D01*
X133819786Y-120630109D01*
X133819788Y-120630106D01*
X133819792Y-120630104D01*
X133970104Y-120479792D01*
X133970106Y-120479788D01*
X133970109Y-120479786D01*
X134095048Y-120307820D01*
X134095047Y-120307820D01*
X134095051Y-120307816D01*
X134099514Y-120299054D01*
X134147488Y-120248259D01*
X134215308Y-120231463D01*
X134281444Y-120253999D01*
X134320486Y-120299056D01*
X134324951Y-120307820D01*
X134449890Y-120479786D01*
X134600213Y-120630109D01*
X134772179Y-120755048D01*
X134772181Y-120755049D01*
X134772184Y-120755051D01*
X134961588Y-120851557D01*
X135163757Y-120917246D01*
X135373713Y-120950500D01*
X135373714Y-120950500D01*
X135586286Y-120950500D01*
X135586287Y-120950500D01*
X135796243Y-120917246D01*
X135998412Y-120851557D01*
X136187816Y-120755051D01*
X136209789Y-120739086D01*
X136359786Y-120630109D01*
X136359788Y-120630106D01*
X136359792Y-120630104D01*
X136510104Y-120479792D01*
X136510106Y-120479788D01*
X136510109Y-120479786D01*
X136635048Y-120307820D01*
X136635047Y-120307820D01*
X136635051Y-120307816D01*
X136639514Y-120299054D01*
X136687488Y-120248259D01*
X136755308Y-120231463D01*
X136821444Y-120253999D01*
X136860486Y-120299056D01*
X136864951Y-120307820D01*
X136989890Y-120479786D01*
X137140213Y-120630109D01*
X137312179Y-120755048D01*
X137312181Y-120755049D01*
X137312184Y-120755051D01*
X137501588Y-120851557D01*
X137703757Y-120917246D01*
X137913713Y-120950500D01*
X137913714Y-120950500D01*
X138126286Y-120950500D01*
X138126287Y-120950500D01*
X138336243Y-120917246D01*
X138538412Y-120851557D01*
X138727816Y-120755051D01*
X138749789Y-120739086D01*
X138899786Y-120630109D01*
X138899788Y-120630106D01*
X138899792Y-120630104D01*
X139050104Y-120479792D01*
X139050106Y-120479788D01*
X139050109Y-120479786D01*
X139175048Y-120307820D01*
X139175047Y-120307820D01*
X139175051Y-120307816D01*
X139179514Y-120299054D01*
X139227488Y-120248259D01*
X139295308Y-120231463D01*
X139361444Y-120253999D01*
X139400486Y-120299056D01*
X139404951Y-120307820D01*
X139529890Y-120479786D01*
X139680213Y-120630109D01*
X139852179Y-120755048D01*
X139852181Y-120755049D01*
X139852184Y-120755051D01*
X140041588Y-120851557D01*
X140243757Y-120917246D01*
X140453713Y-120950500D01*
X140453714Y-120950500D01*
X140666286Y-120950500D01*
X140666287Y-120950500D01*
X140876243Y-120917246D01*
X141078412Y-120851557D01*
X141267816Y-120755051D01*
X141289789Y-120739086D01*
X141439786Y-120630109D01*
X141439788Y-120630106D01*
X141439792Y-120630104D01*
X141590104Y-120479792D01*
X141590106Y-120479788D01*
X141590109Y-120479786D01*
X141715048Y-120307820D01*
X141715047Y-120307820D01*
X141715051Y-120307816D01*
X141719514Y-120299054D01*
X141767488Y-120248259D01*
X141835308Y-120231463D01*
X141901444Y-120253999D01*
X141940486Y-120299056D01*
X141944951Y-120307820D01*
X142069890Y-120479786D01*
X142220213Y-120630109D01*
X142392179Y-120755048D01*
X142392181Y-120755049D01*
X142392184Y-120755051D01*
X142581588Y-120851557D01*
X142783757Y-120917246D01*
X142993713Y-120950500D01*
X142993714Y-120950500D01*
X143206286Y-120950500D01*
X143206287Y-120950500D01*
X143416243Y-120917246D01*
X143618412Y-120851557D01*
X143807816Y-120755051D01*
X143829789Y-120739086D01*
X143979786Y-120630109D01*
X143979788Y-120630106D01*
X143979792Y-120630104D01*
X144130104Y-120479792D01*
X144130106Y-120479788D01*
X144130109Y-120479786D01*
X144255048Y-120307820D01*
X144255047Y-120307820D01*
X144255051Y-120307816D01*
X144259514Y-120299054D01*
X144307488Y-120248259D01*
X144375308Y-120231463D01*
X144441444Y-120253999D01*
X144480486Y-120299056D01*
X144484951Y-120307820D01*
X144609890Y-120479786D01*
X144760213Y-120630109D01*
X144932179Y-120755048D01*
X144932181Y-120755049D01*
X144932184Y-120755051D01*
X145121588Y-120851557D01*
X145323757Y-120917246D01*
X145533713Y-120950500D01*
X145533714Y-120950500D01*
X145746286Y-120950500D01*
X145746287Y-120950500D01*
X145956243Y-120917246D01*
X146158412Y-120851557D01*
X146347816Y-120755051D01*
X146369789Y-120739086D01*
X146519786Y-120630109D01*
X146519788Y-120630106D01*
X146519792Y-120630104D01*
X146670104Y-120479792D01*
X146670106Y-120479788D01*
X146670109Y-120479786D01*
X146795048Y-120307820D01*
X146795047Y-120307820D01*
X146795051Y-120307816D01*
X146799514Y-120299054D01*
X146847488Y-120248259D01*
X146915308Y-120231463D01*
X146981444Y-120253999D01*
X147020486Y-120299056D01*
X147024951Y-120307820D01*
X147149890Y-120479786D01*
X147300213Y-120630109D01*
X147472179Y-120755048D01*
X147472181Y-120755049D01*
X147472184Y-120755051D01*
X147661588Y-120851557D01*
X147863757Y-120917246D01*
X148073713Y-120950500D01*
X148073714Y-120950500D01*
X148286286Y-120950500D01*
X148286287Y-120950500D01*
X148496243Y-120917246D01*
X148698412Y-120851557D01*
X148887816Y-120755051D01*
X148909789Y-120739086D01*
X149059786Y-120630109D01*
X149059788Y-120630106D01*
X149059792Y-120630104D01*
X149210104Y-120479792D01*
X149210106Y-120479788D01*
X149210109Y-120479786D01*
X149335048Y-120307820D01*
X149335047Y-120307820D01*
X149335051Y-120307816D01*
X149339514Y-120299054D01*
X149387488Y-120248259D01*
X149455308Y-120231463D01*
X149521444Y-120253999D01*
X149560486Y-120299056D01*
X149564951Y-120307820D01*
X149689890Y-120479786D01*
X149840213Y-120630109D01*
X150012179Y-120755048D01*
X150012181Y-120755049D01*
X150012184Y-120755051D01*
X150201588Y-120851557D01*
X150403757Y-120917246D01*
X150613713Y-120950500D01*
X150613714Y-120950500D01*
X150826286Y-120950500D01*
X150826287Y-120950500D01*
X151036243Y-120917246D01*
X151238412Y-120851557D01*
X151427816Y-120755051D01*
X151449789Y-120739086D01*
X151599786Y-120630109D01*
X151599788Y-120630106D01*
X151599792Y-120630104D01*
X151750104Y-120479792D01*
X151750106Y-120479788D01*
X151750109Y-120479786D01*
X151875048Y-120307820D01*
X151875047Y-120307820D01*
X151875051Y-120307816D01*
X151879514Y-120299054D01*
X151927488Y-120248259D01*
X151995308Y-120231463D01*
X152061444Y-120253999D01*
X152100486Y-120299056D01*
X152104951Y-120307820D01*
X152229890Y-120479786D01*
X152380213Y-120630109D01*
X152552179Y-120755048D01*
X152552181Y-120755049D01*
X152552184Y-120755051D01*
X152741588Y-120851557D01*
X152943757Y-120917246D01*
X153153713Y-120950500D01*
X153153714Y-120950500D01*
X153366286Y-120950500D01*
X153366287Y-120950500D01*
X153576243Y-120917246D01*
X153778412Y-120851557D01*
X153967816Y-120755051D01*
X153989789Y-120739086D01*
X154139786Y-120630109D01*
X154139788Y-120630106D01*
X154139792Y-120630104D01*
X154290104Y-120479792D01*
X154290106Y-120479788D01*
X154290109Y-120479786D01*
X154415048Y-120307820D01*
X154415047Y-120307820D01*
X154415051Y-120307816D01*
X154419514Y-120299054D01*
X154467488Y-120248259D01*
X154535308Y-120231463D01*
X154601444Y-120253999D01*
X154640486Y-120299056D01*
X154644951Y-120307820D01*
X154769890Y-120479786D01*
X154920213Y-120630109D01*
X155092179Y-120755048D01*
X155092181Y-120755049D01*
X155092184Y-120755051D01*
X155281588Y-120851557D01*
X155483757Y-120917246D01*
X155693713Y-120950500D01*
X155693714Y-120950500D01*
X155906286Y-120950500D01*
X155906287Y-120950500D01*
X156116243Y-120917246D01*
X156318412Y-120851557D01*
X156507816Y-120755051D01*
X156529789Y-120739086D01*
X156679786Y-120630109D01*
X156679788Y-120630106D01*
X156679792Y-120630104D01*
X156830104Y-120479792D01*
X156830106Y-120479788D01*
X156830109Y-120479786D01*
X156955048Y-120307820D01*
X156955047Y-120307820D01*
X156955051Y-120307816D01*
X156959514Y-120299054D01*
X157007488Y-120248259D01*
X157075308Y-120231463D01*
X157141444Y-120253999D01*
X157180486Y-120299056D01*
X157184951Y-120307820D01*
X157309890Y-120479786D01*
X157460213Y-120630109D01*
X157632179Y-120755048D01*
X157632181Y-120755049D01*
X157632184Y-120755051D01*
X157821588Y-120851557D01*
X158023757Y-120917246D01*
X158233713Y-120950500D01*
X158233714Y-120950500D01*
X158446286Y-120950500D01*
X158446287Y-120950500D01*
X158656243Y-120917246D01*
X158858412Y-120851557D01*
X159047816Y-120755051D01*
X159069789Y-120739086D01*
X159219786Y-120630109D01*
X159219788Y-120630106D01*
X159219792Y-120630104D01*
X159370104Y-120479792D01*
X159370106Y-120479788D01*
X159370109Y-120479786D01*
X159495048Y-120307820D01*
X159495047Y-120307820D01*
X159495051Y-120307816D01*
X159499514Y-120299054D01*
X159547488Y-120248259D01*
X159615308Y-120231463D01*
X159681444Y-120253999D01*
X159720486Y-120299056D01*
X159724951Y-120307820D01*
X159849890Y-120479786D01*
X160000213Y-120630109D01*
X160172179Y-120755048D01*
X160172181Y-120755049D01*
X160172184Y-120755051D01*
X160361588Y-120851557D01*
X160563757Y-120917246D01*
X160773713Y-120950500D01*
X160773714Y-120950500D01*
X160986286Y-120950500D01*
X160986287Y-120950500D01*
X161196243Y-120917246D01*
X161398412Y-120851557D01*
X161587816Y-120755051D01*
X161609789Y-120739086D01*
X161759786Y-120630109D01*
X161759788Y-120630106D01*
X161759792Y-120630104D01*
X161910104Y-120479792D01*
X161910106Y-120479788D01*
X161910109Y-120479786D01*
X162035048Y-120307820D01*
X162035047Y-120307820D01*
X162035051Y-120307816D01*
X162039514Y-120299054D01*
X162087488Y-120248259D01*
X162155308Y-120231463D01*
X162221444Y-120253999D01*
X162260486Y-120299056D01*
X162264951Y-120307820D01*
X162389890Y-120479786D01*
X162540213Y-120630109D01*
X162712179Y-120755048D01*
X162712181Y-120755049D01*
X162712184Y-120755051D01*
X162901588Y-120851557D01*
X163103757Y-120917246D01*
X163313713Y-120950500D01*
X163313714Y-120950500D01*
X163526286Y-120950500D01*
X163526287Y-120950500D01*
X163736243Y-120917246D01*
X163938412Y-120851557D01*
X164127816Y-120755051D01*
X164149789Y-120739086D01*
X164299786Y-120630109D01*
X164299788Y-120630106D01*
X164299792Y-120630104D01*
X164450104Y-120479792D01*
X164450106Y-120479788D01*
X164450109Y-120479786D01*
X164575048Y-120307820D01*
X164575047Y-120307820D01*
X164575051Y-120307816D01*
X164579514Y-120299054D01*
X164627488Y-120248259D01*
X164695308Y-120231463D01*
X164761444Y-120253999D01*
X164800486Y-120299056D01*
X164804951Y-120307820D01*
X164929890Y-120479786D01*
X165080213Y-120630109D01*
X165252179Y-120755048D01*
X165252181Y-120755049D01*
X165252184Y-120755051D01*
X165441588Y-120851557D01*
X165643757Y-120917246D01*
X165853713Y-120950500D01*
X165853714Y-120950500D01*
X166066286Y-120950500D01*
X166066287Y-120950500D01*
X166276243Y-120917246D01*
X166478412Y-120851557D01*
X166667816Y-120755051D01*
X166689789Y-120739086D01*
X166839786Y-120630109D01*
X166839788Y-120630106D01*
X166839792Y-120630104D01*
X166990104Y-120479792D01*
X166990106Y-120479788D01*
X166990109Y-120479786D01*
X167115048Y-120307820D01*
X167115051Y-120307816D01*
X167119793Y-120298508D01*
X167167763Y-120247711D01*
X167235583Y-120230911D01*
X167301719Y-120253445D01*
X167340763Y-120298500D01*
X167345377Y-120307555D01*
X167470272Y-120479459D01*
X167470276Y-120479464D01*
X167620535Y-120629723D01*
X167620540Y-120629727D01*
X167792442Y-120754620D01*
X167981782Y-120851095D01*
X168183871Y-120916757D01*
X168250000Y-120927231D01*
X168250000Y-120033012D01*
X168307007Y-120065925D01*
X168434174Y-120100000D01*
X168565826Y-120100000D01*
X168692993Y-120065925D01*
X168750000Y-120033012D01*
X168750000Y-120927230D01*
X168816126Y-120916757D01*
X168816129Y-120916757D01*
X169018217Y-120851095D01*
X169207557Y-120754620D01*
X169379459Y-120629727D01*
X169379464Y-120629723D01*
X169529723Y-120479464D01*
X169529727Y-120479459D01*
X169654620Y-120307557D01*
X169751095Y-120118217D01*
X169816757Y-119916129D01*
X169816757Y-119916126D01*
X169827231Y-119850000D01*
X168933012Y-119850000D01*
X168965925Y-119792993D01*
X169000000Y-119665826D01*
X169000000Y-119534174D01*
X168965925Y-119407007D01*
X168933012Y-119350000D01*
X169827231Y-119350000D01*
X169816757Y-119283873D01*
X169816757Y-119283870D01*
X169751095Y-119081782D01*
X169654620Y-118892442D01*
X169529727Y-118720540D01*
X169529723Y-118720535D01*
X169415665Y-118606477D01*
X169382180Y-118545154D01*
X169387164Y-118475462D01*
X169429036Y-118419529D01*
X169460013Y-118402614D01*
X169592086Y-118353354D01*
X169592093Y-118353350D01*
X169707187Y-118267190D01*
X169707190Y-118267187D01*
X169793350Y-118152093D01*
X169793354Y-118152086D01*
X169843596Y-118017379D01*
X169843598Y-118017372D01*
X169849999Y-117957844D01*
X169850000Y-117957827D01*
X169850000Y-117310000D01*
X168933012Y-117310000D01*
X168965925Y-117252993D01*
X169000000Y-117125826D01*
X169000000Y-116994174D01*
X168965925Y-116867007D01*
X168933012Y-116810000D01*
X169850000Y-116810000D01*
X169850000Y-116162172D01*
X169849999Y-116162155D01*
X169843598Y-116102627D01*
X169843596Y-116102620D01*
X169793354Y-115967913D01*
X169793350Y-115967906D01*
X169707190Y-115852812D01*
X169707187Y-115852809D01*
X169592093Y-115766649D01*
X169592086Y-115766645D01*
X169457379Y-115716403D01*
X169457372Y-115716401D01*
X169397844Y-115710000D01*
X168750000Y-115710000D01*
X168750000Y-116626988D01*
X168692993Y-116594075D01*
X168565826Y-116560000D01*
X168434174Y-116560000D01*
X168307007Y-116594075D01*
X168250000Y-116626988D01*
X168250000Y-115710000D01*
X168073500Y-115710000D01*
X168006461Y-115690315D01*
X167960706Y-115637511D01*
X167949500Y-115586000D01*
X167949500Y-104423336D01*
X167969185Y-104356297D01*
X167985814Y-104335660D01*
X170872819Y-101448655D01*
X170934137Y-101415174D01*
X171003829Y-101420158D01*
X171059762Y-101462030D01*
X171070980Y-101480046D01*
X171105377Y-101547555D01*
X171230272Y-101719459D01*
X171230276Y-101719464D01*
X171380535Y-101869723D01*
X171380540Y-101869727D01*
X171552444Y-101994622D01*
X171562048Y-101999516D01*
X171612844Y-102047491D01*
X171629638Y-102115312D01*
X171607100Y-102181447D01*
X171562048Y-102220484D01*
X171552444Y-102225377D01*
X171380540Y-102350272D01*
X171380535Y-102350276D01*
X171230276Y-102500535D01*
X171230272Y-102500540D01*
X171105379Y-102672442D01*
X171008904Y-102861782D01*
X170943242Y-103063870D01*
X170943242Y-103063873D01*
X170932769Y-103130000D01*
X171826988Y-103130000D01*
X171794075Y-103187007D01*
X171760000Y-103314174D01*
X171760000Y-103445826D01*
X171794075Y-103572993D01*
X171826988Y-103630000D01*
X170932769Y-103630000D01*
X170943242Y-103696126D01*
X170943242Y-103696129D01*
X171008904Y-103898217D01*
X171105379Y-104087557D01*
X171230272Y-104259459D01*
X171230276Y-104259464D01*
X171380535Y-104409723D01*
X171380540Y-104409727D01*
X171552444Y-104534622D01*
X171562048Y-104539516D01*
X171612844Y-104587491D01*
X171629638Y-104655312D01*
X171607100Y-104721447D01*
X171562048Y-104760484D01*
X171552444Y-104765377D01*
X171380540Y-104890272D01*
X171380535Y-104890276D01*
X171230276Y-105040535D01*
X171230272Y-105040540D01*
X171105379Y-105212442D01*
X171008904Y-105401782D01*
X170943242Y-105603870D01*
X170943242Y-105603873D01*
X170932769Y-105670000D01*
X171826988Y-105670000D01*
X171794075Y-105727007D01*
X171760000Y-105854174D01*
X171760000Y-105985826D01*
X171794075Y-106112993D01*
X171826988Y-106170000D01*
X170932769Y-106170000D01*
X170943242Y-106236126D01*
X170943242Y-106236129D01*
X171008904Y-106438217D01*
X171105379Y-106627557D01*
X171230272Y-106799459D01*
X171230276Y-106799464D01*
X171380535Y-106949723D01*
X171380540Y-106949727D01*
X171552442Y-107074620D01*
X171741782Y-107171095D01*
X171943871Y-107236757D01*
X172010000Y-107247231D01*
X172010000Y-106353012D01*
X172067007Y-106385925D01*
X172194174Y-106420000D01*
X172325826Y-106420000D01*
X172452993Y-106385925D01*
X172510000Y-106353012D01*
X172510000Y-107247230D01*
X172576126Y-107236757D01*
X172576129Y-107236757D01*
X172778217Y-107171095D01*
X172967557Y-107074620D01*
X173139459Y-106949727D01*
X173139464Y-106949723D01*
X173289723Y-106799464D01*
X173289727Y-106799459D01*
X173414620Y-106627558D01*
X173419232Y-106618507D01*
X173467205Y-106567709D01*
X173535025Y-106550912D01*
X173601161Y-106573447D01*
X173640204Y-106618504D01*
X173644949Y-106627817D01*
X173769890Y-106799786D01*
X173920213Y-106950109D01*
X174092179Y-107075048D01*
X174092181Y-107075049D01*
X174092184Y-107075051D01*
X174281588Y-107171557D01*
X174483757Y-107237246D01*
X174693713Y-107270500D01*
X174693714Y-107270500D01*
X174906286Y-107270500D01*
X174906287Y-107270500D01*
X175116243Y-107237246D01*
X175318412Y-107171557D01*
X175507816Y-107075051D01*
X175555811Y-107040181D01*
X175679786Y-106950109D01*
X175679788Y-106950106D01*
X175679792Y-106950104D01*
X175830104Y-106799792D01*
X175830106Y-106799788D01*
X175830109Y-106799786D01*
X175955048Y-106627820D01*
X175955050Y-106627817D01*
X175955051Y-106627816D01*
X176051557Y-106438412D01*
X176117246Y-106236243D01*
X176150500Y-106026287D01*
X176150500Y-105813713D01*
X176117246Y-105603757D01*
X176051557Y-105401588D01*
X175955051Y-105212184D01*
X175955049Y-105212181D01*
X175955048Y-105212179D01*
X175830109Y-105040213D01*
X175679786Y-104889890D01*
X175507817Y-104764949D01*
X175498504Y-104760204D01*
X175447707Y-104712230D01*
X175430912Y-104644409D01*
X175453449Y-104578274D01*
X175498507Y-104539232D01*
X175507558Y-104534620D01*
X175679459Y-104409727D01*
X175679464Y-104409723D01*
X175829723Y-104259464D01*
X175829727Y-104259459D01*
X175954620Y-104087557D01*
X176051095Y-103898217D01*
X176116757Y-103696129D01*
X176116757Y-103696126D01*
X176127231Y-103630000D01*
X175233012Y-103630000D01*
X175265925Y-103572993D01*
X175300000Y-103445826D01*
X175300000Y-103314174D01*
X175265925Y-103187007D01*
X175233012Y-103130000D01*
X176127231Y-103130000D01*
X176116757Y-103063873D01*
X176116757Y-103063870D01*
X176051095Y-102861782D01*
X175954620Y-102672442D01*
X175829727Y-102500540D01*
X175829723Y-102500535D01*
X175679464Y-102350276D01*
X175679459Y-102350272D01*
X175507555Y-102225377D01*
X175498500Y-102220763D01*
X175447706Y-102172788D01*
X175430912Y-102104966D01*
X175453451Y-102038832D01*
X175498508Y-101999793D01*
X175507816Y-101995051D01*
X175587007Y-101937515D01*
X175679786Y-101870109D01*
X175679788Y-101870106D01*
X175679792Y-101870104D01*
X175830104Y-101719792D01*
X175830106Y-101719788D01*
X175830109Y-101719786D01*
X175955048Y-101547820D01*
X175955050Y-101547817D01*
X175955051Y-101547816D01*
X176051557Y-101358412D01*
X176117246Y-101156243D01*
X176150500Y-100946287D01*
X176150500Y-100733713D01*
X176117246Y-100523757D01*
X176051557Y-100321588D01*
X175955051Y-100132184D01*
X175955049Y-100132181D01*
X175955048Y-100132179D01*
X175830109Y-99960213D01*
X175679786Y-99809890D01*
X175507820Y-99684951D01*
X175507115Y-99684591D01*
X175499054Y-99680485D01*
X175448259Y-99632512D01*
X175431463Y-99564692D01*
X175453999Y-99498556D01*
X175499054Y-99459515D01*
X175507816Y-99455051D01*
X175529789Y-99439086D01*
X175679786Y-99330109D01*
X175679788Y-99330106D01*
X175679792Y-99330104D01*
X175830104Y-99179792D01*
X175830106Y-99179788D01*
X175830109Y-99179786D01*
X175955048Y-99007820D01*
X175955047Y-99007820D01*
X175955051Y-99007816D01*
X176051557Y-98818412D01*
X176117246Y-98616243D01*
X176150500Y-98406287D01*
X176150500Y-98193713D01*
X176117246Y-97983757D01*
X176051557Y-97781588D01*
X175955051Y-97592184D01*
X175955049Y-97592181D01*
X175955048Y-97592179D01*
X175830109Y-97420213D01*
X175679786Y-97269890D01*
X175507820Y-97144951D01*
X175507115Y-97144591D01*
X175499054Y-97140485D01*
X175448259Y-97092512D01*
X175431463Y-97024692D01*
X175453999Y-96958556D01*
X175499054Y-96919515D01*
X175507816Y-96915051D01*
X175529789Y-96899086D01*
X175679786Y-96790109D01*
X175679788Y-96790106D01*
X175679792Y-96790104D01*
X175830104Y-96639792D01*
X175830106Y-96639788D01*
X175830109Y-96639786D01*
X175955048Y-96467820D01*
X175955047Y-96467820D01*
X175955051Y-96467816D01*
X176051557Y-96278412D01*
X176117246Y-96076243D01*
X176150500Y-95866287D01*
X176150500Y-95653713D01*
X176117246Y-95443757D01*
X176051557Y-95241588D01*
X175955051Y-95052184D01*
X175955049Y-95052181D01*
X175955048Y-95052179D01*
X175830109Y-94880213D01*
X175679786Y-94729890D01*
X175507820Y-94604951D01*
X175507115Y-94604591D01*
X175499054Y-94600485D01*
X175448259Y-94552512D01*
X175431463Y-94484692D01*
X175453999Y-94418556D01*
X175499054Y-94379515D01*
X175507816Y-94375051D01*
X175529789Y-94359086D01*
X175679786Y-94250109D01*
X175679788Y-94250106D01*
X175679792Y-94250104D01*
X175830104Y-94099792D01*
X175830106Y-94099788D01*
X175830109Y-94099786D01*
X175955048Y-93927820D01*
X175955047Y-93927820D01*
X175955051Y-93927816D01*
X176051557Y-93738412D01*
X176117246Y-93536243D01*
X176150500Y-93326287D01*
X176150500Y-93113713D01*
X176117246Y-92903757D01*
X176051557Y-92701588D01*
X175955051Y-92512184D01*
X175955049Y-92512181D01*
X175955048Y-92512179D01*
X175830109Y-92340213D01*
X175679786Y-92189890D01*
X175507820Y-92064951D01*
X175507115Y-92064591D01*
X175499054Y-92060485D01*
X175448259Y-92012512D01*
X175431463Y-91944692D01*
X175453999Y-91878556D01*
X175499054Y-91839515D01*
X175507816Y-91835051D01*
X175529789Y-91819086D01*
X175679786Y-91710109D01*
X175679788Y-91710106D01*
X175679792Y-91710104D01*
X175830104Y-91559792D01*
X175830106Y-91559788D01*
X175830109Y-91559786D01*
X175955048Y-91387820D01*
X175955047Y-91387820D01*
X175955051Y-91387816D01*
X176051557Y-91198412D01*
X176117246Y-90996243D01*
X176150500Y-90786287D01*
X176150500Y-90573713D01*
X176117246Y-90363757D01*
X176051557Y-90161588D01*
X175955051Y-89972184D01*
X175955049Y-89972181D01*
X175955048Y-89972179D01*
X175830109Y-89800213D01*
X175679786Y-89649890D01*
X175507820Y-89524951D01*
X175507115Y-89524591D01*
X175499054Y-89520485D01*
X175448259Y-89472512D01*
X175431463Y-89404692D01*
X175453999Y-89338556D01*
X175499054Y-89299515D01*
X175507816Y-89295051D01*
X175529789Y-89279086D01*
X175679786Y-89170109D01*
X175679788Y-89170106D01*
X175679792Y-89170104D01*
X175830104Y-89019792D01*
X175830106Y-89019788D01*
X175830109Y-89019786D01*
X175955048Y-88847820D01*
X175955047Y-88847820D01*
X175955051Y-88847816D01*
X176051557Y-88658412D01*
X176117246Y-88456243D01*
X176150500Y-88246287D01*
X176150500Y-88033713D01*
X176117246Y-87823757D01*
X176051557Y-87621588D01*
X175955051Y-87432184D01*
X175955049Y-87432181D01*
X175955048Y-87432179D01*
X175830109Y-87260213D01*
X175679786Y-87109890D01*
X175507820Y-86984951D01*
X175507115Y-86984591D01*
X175499054Y-86980485D01*
X175448259Y-86932512D01*
X175431463Y-86864692D01*
X175453999Y-86798556D01*
X175499054Y-86759515D01*
X175507816Y-86755051D01*
X175529789Y-86739086D01*
X175679786Y-86630109D01*
X175679788Y-86630106D01*
X175679792Y-86630104D01*
X175830104Y-86479792D01*
X175830106Y-86479788D01*
X175830109Y-86479786D01*
X175955048Y-86307820D01*
X175955047Y-86307820D01*
X175955051Y-86307816D01*
X176051557Y-86118412D01*
X176117246Y-85916243D01*
X176150500Y-85706287D01*
X176150500Y-85493713D01*
X176117246Y-85283757D01*
X176051557Y-85081588D01*
X175955051Y-84892184D01*
X175955049Y-84892181D01*
X175955048Y-84892179D01*
X175830109Y-84720213D01*
X175716569Y-84606673D01*
X175683084Y-84545350D01*
X175688068Y-84475658D01*
X175729940Y-84419725D01*
X175760915Y-84402810D01*
X175892331Y-84353796D01*
X176007546Y-84267546D01*
X176093796Y-84152331D01*
X176144091Y-84017483D01*
X176150500Y-83957873D01*
X176150499Y-82162128D01*
X176144091Y-82102517D01*
X176143147Y-82099987D01*
X176093797Y-81967671D01*
X176093793Y-81967664D01*
X176007547Y-81852455D01*
X176007544Y-81852452D01*
X175892335Y-81766206D01*
X175892328Y-81766202D01*
X175757482Y-81715908D01*
X175757483Y-81715908D01*
X175697883Y-81709501D01*
X175697881Y-81709500D01*
X175697873Y-81709500D01*
X175697865Y-81709500D01*
X174350097Y-81709500D01*
X174320656Y-81700855D01*
X174290670Y-81694332D01*
X174285654Y-81690577D01*
X174283058Y-81689815D01*
X174262416Y-81673181D01*
X174136590Y-81547355D01*
X174136588Y-81547352D01*
X174017717Y-81428481D01*
X174017716Y-81428480D01*
X173930904Y-81378360D01*
X173930904Y-81378359D01*
X173930900Y-81378358D01*
X173880785Y-81349423D01*
X173728057Y-81308499D01*
X173569943Y-81308499D01*
X173562347Y-81308499D01*
X173562331Y-81308500D01*
X171862297Y-81308500D01*
X171704182Y-81308500D01*
X171551455Y-81349423D01*
X171551454Y-81349423D01*
X171551452Y-81349424D01*
X171551449Y-81349425D01*
X171501336Y-81378359D01*
X171501335Y-81378360D01*
X171457929Y-81403420D01*
X171414525Y-81428479D01*
X171414522Y-81428481D01*
X148850479Y-103992524D01*
X148840182Y-104010361D01*
X148822826Y-104040423D01*
X148771423Y-104129455D01*
X148730499Y-104282183D01*
X148730499Y-104282185D01*
X148730499Y-104450286D01*
X148730500Y-104450299D01*
X148730500Y-115648197D01*
X148710815Y-115715236D01*
X148658011Y-115760991D01*
X148588853Y-115770935D01*
X148568183Y-115766128D01*
X148496244Y-115742754D01*
X148496240Y-115742753D01*
X148332421Y-115716807D01*
X148286287Y-115709500D01*
X148073713Y-115709500D01*
X148027579Y-115716807D01*
X147863760Y-115742753D01*
X147863757Y-115742754D01*
X147719501Y-115789626D01*
X147661582Y-115808445D01*
X147571794Y-115854194D01*
X147503125Y-115867090D01*
X147438385Y-115840813D01*
X147398128Y-115783707D01*
X147391500Y-115743709D01*
X147391500Y-100711945D01*
X147391500Y-100711943D01*
X147350577Y-100559216D01*
X147330105Y-100523757D01*
X147271524Y-100422290D01*
X147271521Y-100422286D01*
X147271520Y-100422284D01*
X147159716Y-100310480D01*
X147159715Y-100310479D01*
X147155385Y-100306149D01*
X147155374Y-100306139D01*
X142247590Y-95398355D01*
X142247588Y-95398352D01*
X142128717Y-95279481D01*
X142128716Y-95279480D01*
X142041904Y-95229360D01*
X142041904Y-95229359D01*
X142041900Y-95229358D01*
X141991785Y-95200423D01*
X141839057Y-95159499D01*
X141680943Y-95159499D01*
X141673347Y-95159499D01*
X141673331Y-95159500D01*
X141085719Y-95159500D01*
X141018680Y-95139815D01*
X140975235Y-95091795D01*
X140955052Y-95052185D01*
X140955051Y-95052184D01*
X140830109Y-94880213D01*
X140679786Y-94729890D01*
X140507820Y-94604951D01*
X140507115Y-94604591D01*
X140499054Y-94600485D01*
X140448259Y-94552512D01*
X140431463Y-94484692D01*
X140453999Y-94418556D01*
X140499054Y-94379515D01*
X140507816Y-94375051D01*
X140529789Y-94359086D01*
X140679786Y-94250109D01*
X140679788Y-94250106D01*
X140679792Y-94250104D01*
X140830104Y-94099792D01*
X140830106Y-94099788D01*
X140830109Y-94099786D01*
X140955048Y-93927820D01*
X140955047Y-93927820D01*
X140955051Y-93927816D01*
X141051557Y-93738412D01*
X141117246Y-93536243D01*
X141150500Y-93326287D01*
X141150500Y-93113713D01*
X141117246Y-92903757D01*
X141051557Y-92701588D01*
X140955051Y-92512184D01*
X140955049Y-92512181D01*
X140955048Y-92512179D01*
X140830109Y-92340213D01*
X140679786Y-92189890D01*
X140507820Y-92064951D01*
X140507115Y-92064591D01*
X140499054Y-92060485D01*
X140448259Y-92012512D01*
X140431463Y-91944692D01*
X140453999Y-91878556D01*
X140499054Y-91839515D01*
X140507816Y-91835051D01*
X140529789Y-91819086D01*
X140679786Y-91710109D01*
X140679788Y-91710106D01*
X140679792Y-91710104D01*
X140830104Y-91559792D01*
X140830106Y-91559788D01*
X140830109Y-91559786D01*
X140955048Y-91387820D01*
X140955047Y-91387820D01*
X140955051Y-91387816D01*
X141051557Y-91198412D01*
X141117246Y-90996243D01*
X141150500Y-90786287D01*
X141150500Y-90573713D01*
X141117246Y-90363757D01*
X141051557Y-90161588D01*
X140955051Y-89972184D01*
X140955049Y-89972181D01*
X140955048Y-89972179D01*
X140830109Y-89800213D01*
X140679786Y-89649890D01*
X140507820Y-89524951D01*
X140507115Y-89524591D01*
X140499054Y-89520485D01*
X140448259Y-89472512D01*
X140431463Y-89404692D01*
X140453999Y-89338556D01*
X140499054Y-89299515D01*
X140507816Y-89295051D01*
X140529789Y-89279086D01*
X140679786Y-89170109D01*
X140679788Y-89170106D01*
X140679792Y-89170104D01*
X140830104Y-89019792D01*
X140830106Y-89019788D01*
X140830109Y-89019786D01*
X140955048Y-88847820D01*
X140955047Y-88847820D01*
X140955051Y-88847816D01*
X141051557Y-88658412D01*
X141117246Y-88456243D01*
X141150500Y-88246287D01*
X141150500Y-88033713D01*
X141117246Y-87823757D01*
X141051557Y-87621588D01*
X140955051Y-87432184D01*
X140955049Y-87432181D01*
X140955048Y-87432179D01*
X140830109Y-87260213D01*
X140679786Y-87109890D01*
X140507820Y-86984951D01*
X140507115Y-86984591D01*
X140499054Y-86980485D01*
X140448259Y-86932512D01*
X140431463Y-86864692D01*
X140453999Y-86798556D01*
X140499054Y-86759515D01*
X140507816Y-86755051D01*
X140529789Y-86739086D01*
X140679786Y-86630109D01*
X140679788Y-86630106D01*
X140679792Y-86630104D01*
X140830104Y-86479792D01*
X140830106Y-86479788D01*
X140830109Y-86479786D01*
X140955048Y-86307820D01*
X140955047Y-86307820D01*
X140955051Y-86307816D01*
X141051557Y-86118412D01*
X141117246Y-85916243D01*
X141150500Y-85706287D01*
X141150500Y-85493713D01*
X141117246Y-85283757D01*
X141051557Y-85081588D01*
X140955051Y-84892184D01*
X140955049Y-84892181D01*
X140955048Y-84892179D01*
X140830109Y-84720213D01*
X140716181Y-84606285D01*
X140682696Y-84544962D01*
X140687680Y-84475270D01*
X140729552Y-84419337D01*
X140760529Y-84402422D01*
X140892086Y-84353354D01*
X140892093Y-84353350D01*
X141007187Y-84267190D01*
X141007190Y-84267187D01*
X141093350Y-84152093D01*
X141093354Y-84152086D01*
X141143596Y-84017379D01*
X141143598Y-84017372D01*
X141149999Y-83957844D01*
X141150000Y-83957827D01*
X141150000Y-83310000D01*
X140233012Y-83310000D01*
X140265925Y-83252993D01*
X140300000Y-83125826D01*
X140300000Y-82994174D01*
X140265925Y-82867007D01*
X140233012Y-82810000D01*
X141150000Y-82810000D01*
X141150000Y-82162172D01*
X141149999Y-82162155D01*
X141143598Y-82102627D01*
X141143596Y-82102620D01*
X141093354Y-81967913D01*
X141093350Y-81967906D01*
X141007190Y-81852812D01*
X141007187Y-81852809D01*
X140892093Y-81766649D01*
X140892086Y-81766645D01*
X140757379Y-81716403D01*
X140757372Y-81716401D01*
X140697844Y-81710000D01*
X140050000Y-81710000D01*
X140050000Y-82626988D01*
X139992993Y-82594075D01*
X139865826Y-82560000D01*
X139734174Y-82560000D01*
X139607007Y-82594075D01*
X139550000Y-82626988D01*
X139550000Y-81710000D01*
X138902155Y-81710000D01*
X138842627Y-81716401D01*
X138842620Y-81716403D01*
X138707913Y-81766645D01*
X138707906Y-81766649D01*
X138592812Y-81852809D01*
X138592809Y-81852812D01*
X138506649Y-81967906D01*
X138506646Y-81967911D01*
X138457385Y-82099987D01*
X138415513Y-82155920D01*
X138350049Y-82180337D01*
X138281776Y-82165485D01*
X138253522Y-82144334D01*
X138139464Y-82030276D01*
X138139459Y-82030272D01*
X137967557Y-81905379D01*
X137778215Y-81808903D01*
X137576124Y-81743241D01*
X137510000Y-81732768D01*
X137510000Y-82626988D01*
X137452993Y-82594075D01*
X137325826Y-82560000D01*
X137194174Y-82560000D01*
X137067007Y-82594075D01*
X137010000Y-82626988D01*
X137010000Y-81732768D01*
X137009999Y-81732768D01*
X136943875Y-81743241D01*
X136741784Y-81808903D01*
X136552442Y-81905379D01*
X136380540Y-82030272D01*
X136380535Y-82030276D01*
X136230276Y-82180535D01*
X136230272Y-82180540D01*
X136105379Y-82352442D01*
X136008904Y-82541782D01*
X135943242Y-82743870D01*
X135943242Y-82743873D01*
X135932769Y-82810000D01*
X136826988Y-82810000D01*
X136794075Y-82867007D01*
X136760000Y-82994174D01*
X136760000Y-83125826D01*
X136794075Y-83252993D01*
X136826988Y-83310000D01*
X135932769Y-83310000D01*
X135943242Y-83376126D01*
X135943242Y-83376129D01*
X136008904Y-83578217D01*
X136105379Y-83767557D01*
X136230272Y-83939459D01*
X136230276Y-83939464D01*
X136380535Y-84089723D01*
X136380540Y-84089727D01*
X136552444Y-84214622D01*
X136561495Y-84219234D01*
X136612292Y-84267208D01*
X136629087Y-84335029D01*
X136606550Y-84401164D01*
X136561499Y-84440202D01*
X136552182Y-84444949D01*
X136380213Y-84569890D01*
X136229890Y-84720213D01*
X136104948Y-84892184D01*
X136104947Y-84892185D01*
X136084765Y-84931795D01*
X136036791Y-84982591D01*
X135974281Y-84999500D01*
X133320941Y-84999500D01*
X133287066Y-85008576D01*
X133287067Y-85008577D01*
X133168214Y-85040423D01*
X133168209Y-85040426D01*
X133031290Y-85119475D01*
X133031282Y-85119481D01*
X128019481Y-90131282D01*
X128019480Y-90131284D01*
X127980108Y-90199480D01*
X127969361Y-90218094D01*
X127969359Y-90218096D01*
X127940425Y-90268209D01*
X127940424Y-90268210D01*
X127928882Y-90311286D01*
X127899499Y-90420943D01*
X127899499Y-90420945D01*
X127899499Y-90589046D01*
X127899500Y-90589059D01*
X127899500Y-107550902D01*
X127879815Y-107617941D01*
X127827011Y-107663696D01*
X127757853Y-107673640D01*
X127694297Y-107644615D01*
X127687819Y-107638583D01*
X106133757Y-86084522D01*
X106100272Y-86023199D01*
X106103507Y-85958523D01*
X106117246Y-85916243D01*
X106150500Y-85706287D01*
X106150500Y-85493713D01*
X106117246Y-85283757D01*
X106051557Y-85081588D01*
X105955051Y-84892184D01*
X105955049Y-84892181D01*
X105955048Y-84892179D01*
X105830109Y-84720213D01*
X105716181Y-84606285D01*
X105682696Y-84544962D01*
X105687680Y-84475270D01*
X105729552Y-84419337D01*
X105760529Y-84402422D01*
X105892086Y-84353354D01*
X105892093Y-84353350D01*
X106007187Y-84267190D01*
X106007190Y-84267187D01*
X106093350Y-84152093D01*
X106093354Y-84152086D01*
X106143596Y-84017379D01*
X106143598Y-84017372D01*
X106149999Y-83957844D01*
X106150000Y-83957827D01*
X106150000Y-83310000D01*
X105233012Y-83310000D01*
X105265925Y-83252993D01*
X105300000Y-83125826D01*
X105300000Y-82994174D01*
X105265925Y-82867007D01*
X105233012Y-82810000D01*
X106150000Y-82810000D01*
X106150000Y-82162172D01*
X106149999Y-82162155D01*
X106143598Y-82102627D01*
X106143596Y-82102620D01*
X106093354Y-81967913D01*
X106093350Y-81967906D01*
X106007190Y-81852812D01*
X106007187Y-81852809D01*
X105892093Y-81766649D01*
X105892086Y-81766645D01*
X105757379Y-81716403D01*
X105757372Y-81716401D01*
X105697844Y-81710000D01*
X105050000Y-81710000D01*
X105050000Y-82626988D01*
X104992993Y-82594075D01*
X104865826Y-82560000D01*
X104734174Y-82560000D01*
X104607007Y-82594075D01*
X104550000Y-82626988D01*
X104550000Y-81710000D01*
X103902155Y-81710000D01*
X103842627Y-81716401D01*
X103842620Y-81716403D01*
X103707913Y-81766645D01*
X103707906Y-81766649D01*
X103592812Y-81852809D01*
X103592809Y-81852812D01*
X103506649Y-81967906D01*
X103506646Y-81967911D01*
X103457385Y-82099987D01*
X103415513Y-82155920D01*
X103350049Y-82180337D01*
X103281776Y-82165485D01*
X103253522Y-82144334D01*
X103139464Y-82030276D01*
X103139459Y-82030272D01*
X102967557Y-81905379D01*
X102778215Y-81808903D01*
X102576124Y-81743241D01*
X102510000Y-81732768D01*
X102510000Y-82626988D01*
X102452993Y-82594075D01*
X102325826Y-82560000D01*
X102194174Y-82560000D01*
X102067007Y-82594075D01*
X102010000Y-82626988D01*
X102010000Y-81732768D01*
X102009999Y-81732768D01*
X101943875Y-81743241D01*
X101741784Y-81808903D01*
X101552442Y-81905379D01*
X101380540Y-82030272D01*
X101380535Y-82030276D01*
X101230276Y-82180535D01*
X101230272Y-82180540D01*
X101105379Y-82352442D01*
X101008904Y-82541782D01*
X100943242Y-82743870D01*
X100943242Y-82743873D01*
X100932769Y-82810000D01*
X101826988Y-82810000D01*
X101794075Y-82867007D01*
X101760000Y-82994174D01*
X101760000Y-83125826D01*
X101794075Y-83252993D01*
X101826988Y-83310000D01*
X100932769Y-83310000D01*
X100943242Y-83376126D01*
X100943242Y-83376129D01*
X101008904Y-83578217D01*
X101105379Y-83767557D01*
X101230272Y-83939459D01*
X101230276Y-83939464D01*
X101380535Y-84089723D01*
X101380540Y-84089727D01*
X101552444Y-84214622D01*
X101561495Y-84219234D01*
X101612292Y-84267208D01*
X101629087Y-84335029D01*
X101606550Y-84401164D01*
X101561499Y-84440202D01*
X101552182Y-84444949D01*
X101380213Y-84569890D01*
X101229890Y-84720213D01*
X101104951Y-84892179D01*
X101008444Y-85081585D01*
X100942753Y-85283760D01*
X100909500Y-85493713D01*
X94400500Y-85493713D01*
X94400500Y-83940544D01*
X94400504Y-83939511D01*
X94495637Y-72523464D01*
X94515880Y-72456594D01*
X94569063Y-72411280D01*
X94619633Y-72400500D01*
X100819000Y-72400500D01*
X100886039Y-72420185D01*
G37*
%TD.AperFunction*%
%TD*%
M02*
