%TF.GenerationSoftware,KiCad,Pcbnew,9.0.1*%
%TF.CreationDate,2025-04-24T12:51:30+03:00*%
%TF.ProjectId,acd_dac_board,6163645f-6461-4635-9f62-6f6172642e6b,rev?*%
%TF.SameCoordinates,Original*%
%TF.FileFunction,Legend,Top*%
%TF.FilePolarity,Positive*%
%FSLAX46Y46*%
G04 Gerber Fmt 4.6, Leading zero omitted, Abs format (unit mm)*
G04 Created by KiCad (PCBNEW 9.0.1) date 2025-04-24 12:51:30*
%MOMM*%
%LPD*%
G01*
G04 APERTURE LIST*
%ADD10C,0.150000*%
%ADD11C,0.120000*%
G04 APERTURE END LIST*
D10*
X170224819Y-123048333D02*
X170939104Y-123048333D01*
X170939104Y-123048333D02*
X171081961Y-123095952D01*
X171081961Y-123095952D02*
X171177200Y-123191190D01*
X171177200Y-123191190D02*
X171224819Y-123334047D01*
X171224819Y-123334047D02*
X171224819Y-123429285D01*
X170558152Y-122143571D02*
X171224819Y-122143571D01*
X170177200Y-122381666D02*
X170891485Y-122619761D01*
X170891485Y-122619761D02*
X170891485Y-122000714D01*
X173196666Y-79744819D02*
X173196666Y-80459104D01*
X173196666Y-80459104D02*
X173149047Y-80601961D01*
X173149047Y-80601961D02*
X173053809Y-80697200D01*
X173053809Y-80697200D02*
X172910952Y-80744819D01*
X172910952Y-80744819D02*
X172815714Y-80744819D01*
X173577619Y-79744819D02*
X174196666Y-79744819D01*
X174196666Y-79744819D02*
X173863333Y-80125771D01*
X173863333Y-80125771D02*
X174006190Y-80125771D01*
X174006190Y-80125771D02*
X174101428Y-80173390D01*
X174101428Y-80173390D02*
X174149047Y-80221009D01*
X174149047Y-80221009D02*
X174196666Y-80316247D01*
X174196666Y-80316247D02*
X174196666Y-80554342D01*
X174196666Y-80554342D02*
X174149047Y-80649580D01*
X174149047Y-80649580D02*
X174101428Y-80697200D01*
X174101428Y-80697200D02*
X174006190Y-80744819D01*
X174006190Y-80744819D02*
X173720476Y-80744819D01*
X173720476Y-80744819D02*
X173625238Y-80697200D01*
X173625238Y-80697200D02*
X173577619Y-80649580D01*
X103196666Y-79744819D02*
X103196666Y-80459104D01*
X103196666Y-80459104D02*
X103149047Y-80601961D01*
X103149047Y-80601961D02*
X103053809Y-80697200D01*
X103053809Y-80697200D02*
X102910952Y-80744819D01*
X102910952Y-80744819D02*
X102815714Y-80744819D01*
X104196666Y-80744819D02*
X103625238Y-80744819D01*
X103910952Y-80744819D02*
X103910952Y-79744819D01*
X103910952Y-79744819D02*
X103815714Y-79887676D01*
X103815714Y-79887676D02*
X103720476Y-79982914D01*
X103720476Y-79982914D02*
X103625238Y-80030533D01*
X138196666Y-79744819D02*
X138196666Y-80459104D01*
X138196666Y-80459104D02*
X138149047Y-80601961D01*
X138149047Y-80601961D02*
X138053809Y-80697200D01*
X138053809Y-80697200D02*
X137910952Y-80744819D01*
X137910952Y-80744819D02*
X137815714Y-80744819D01*
X138625238Y-79840057D02*
X138672857Y-79792438D01*
X138672857Y-79792438D02*
X138768095Y-79744819D01*
X138768095Y-79744819D02*
X139006190Y-79744819D01*
X139006190Y-79744819D02*
X139101428Y-79792438D01*
X139101428Y-79792438D02*
X139149047Y-79840057D01*
X139149047Y-79840057D02*
X139196666Y-79935295D01*
X139196666Y-79935295D02*
X139196666Y-80030533D01*
X139196666Y-80030533D02*
X139149047Y-80173390D01*
X139149047Y-80173390D02*
X138577619Y-80744819D01*
X138577619Y-80744819D02*
X139196666Y-80744819D01*
D11*
%TO.C,J4*%
X106210000Y-121040000D02*
X106210000Y-123700000D01*
X106210000Y-123700000D02*
X169830000Y-123700000D01*
X107160000Y-118102929D02*
X107160000Y-118557071D01*
X107160000Y-120642929D02*
X107160000Y-121040000D01*
X107160000Y-129700000D02*
X107160000Y-123700000D01*
X107920000Y-118102929D02*
X107920000Y-118557071D01*
X107920000Y-120642929D02*
X107920000Y-121040000D01*
X107920000Y-123700000D02*
X107920000Y-129700000D01*
X107920000Y-129700000D02*
X107160000Y-129700000D01*
X108810000Y-121040000D02*
X108810000Y-123700000D01*
X109700000Y-118102929D02*
X109700000Y-118557071D01*
X109700000Y-120642929D02*
X109700000Y-121040000D01*
X109700000Y-129700000D02*
X109700000Y-123700000D01*
X110460000Y-118102929D02*
X110460000Y-118557071D01*
X110460000Y-120642929D02*
X110460000Y-121040000D01*
X110460000Y-123700000D02*
X110460000Y-129700000D01*
X110460000Y-129700000D02*
X109700000Y-129700000D01*
X111350000Y-121040000D02*
X111350000Y-123700000D01*
X112240000Y-118102929D02*
X112240000Y-118557071D01*
X112240000Y-120642929D02*
X112240000Y-121040000D01*
X112240000Y-129700000D02*
X112240000Y-123700000D01*
X113000000Y-118102929D02*
X113000000Y-118557071D01*
X113000000Y-120642929D02*
X113000000Y-121040000D01*
X113000000Y-123700000D02*
X113000000Y-129700000D01*
X113000000Y-129700000D02*
X112240000Y-129700000D01*
X113890000Y-121040000D02*
X113890000Y-123700000D01*
X114780000Y-118102929D02*
X114780000Y-118557071D01*
X114780000Y-120642929D02*
X114780000Y-121040000D01*
X114780000Y-129700000D02*
X114780000Y-123700000D01*
X115540000Y-118102929D02*
X115540000Y-118557071D01*
X115540000Y-120642929D02*
X115540000Y-121040000D01*
X115540000Y-123700000D02*
X115540000Y-129700000D01*
X115540000Y-129700000D02*
X114780000Y-129700000D01*
X116430000Y-121040000D02*
X116430000Y-123700000D01*
X117320000Y-118102929D02*
X117320000Y-118557071D01*
X117320000Y-120642929D02*
X117320000Y-121040000D01*
X117320000Y-129700000D02*
X117320000Y-123700000D01*
X118080000Y-118102929D02*
X118080000Y-118557071D01*
X118080000Y-120642929D02*
X118080000Y-121040000D01*
X118080000Y-123700000D02*
X118080000Y-129700000D01*
X118080000Y-129700000D02*
X117320000Y-129700000D01*
X118970000Y-121040000D02*
X118970000Y-123700000D01*
X119860000Y-118102929D02*
X119860000Y-118557071D01*
X119860000Y-120642929D02*
X119860000Y-121040000D01*
X119860000Y-129700000D02*
X119860000Y-123700000D01*
X120620000Y-118102929D02*
X120620000Y-118557071D01*
X120620000Y-120642929D02*
X120620000Y-121040000D01*
X120620000Y-123700000D02*
X120620000Y-129700000D01*
X120620000Y-129700000D02*
X119860000Y-129700000D01*
X121510000Y-121040000D02*
X121510000Y-123700000D01*
X122400000Y-118102929D02*
X122400000Y-118557071D01*
X122400000Y-120642929D02*
X122400000Y-121040000D01*
X122400000Y-129700000D02*
X122400000Y-123700000D01*
X123160000Y-118102929D02*
X123160000Y-118557071D01*
X123160000Y-120642929D02*
X123160000Y-121040000D01*
X123160000Y-123700000D02*
X123160000Y-129700000D01*
X123160000Y-129700000D02*
X122400000Y-129700000D01*
X124050000Y-121040000D02*
X124050000Y-123700000D01*
X124940000Y-118102929D02*
X124940000Y-118557071D01*
X124940000Y-120642929D02*
X124940000Y-121040000D01*
X124940000Y-129700000D02*
X124940000Y-123700000D01*
X125700000Y-118102929D02*
X125700000Y-118557071D01*
X125700000Y-120642929D02*
X125700000Y-121040000D01*
X125700000Y-123700000D02*
X125700000Y-129700000D01*
X125700000Y-129700000D02*
X124940000Y-129700000D01*
X126590000Y-121040000D02*
X126590000Y-123700000D01*
X127480000Y-118102929D02*
X127480000Y-118557071D01*
X127480000Y-120642929D02*
X127480000Y-121040000D01*
X127480000Y-129700000D02*
X127480000Y-123700000D01*
X128240000Y-118102929D02*
X128240000Y-118557071D01*
X128240000Y-120642929D02*
X128240000Y-121040000D01*
X128240000Y-123700000D02*
X128240000Y-129700000D01*
X128240000Y-129700000D02*
X127480000Y-129700000D01*
X129130000Y-121040000D02*
X129130000Y-123700000D01*
X130020000Y-118102929D02*
X130020000Y-118557071D01*
X130020000Y-120642929D02*
X130020000Y-121040000D01*
X130020000Y-129700000D02*
X130020000Y-123700000D01*
X130780000Y-118102929D02*
X130780000Y-118557071D01*
X130780000Y-120642929D02*
X130780000Y-121040000D01*
X130780000Y-123700000D02*
X130780000Y-129700000D01*
X130780000Y-129700000D02*
X130020000Y-129700000D01*
X131670000Y-121040000D02*
X131670000Y-123700000D01*
X132560000Y-118102929D02*
X132560000Y-118557071D01*
X132560000Y-120642929D02*
X132560000Y-121040000D01*
X132560000Y-129700000D02*
X132560000Y-123700000D01*
X133320000Y-118102929D02*
X133320000Y-118557071D01*
X133320000Y-120642929D02*
X133320000Y-121040000D01*
X133320000Y-123700000D02*
X133320000Y-129700000D01*
X133320000Y-129700000D02*
X132560000Y-129700000D01*
X134210000Y-121040000D02*
X134210000Y-123700000D01*
X135100000Y-118102929D02*
X135100000Y-118557071D01*
X135100000Y-120642929D02*
X135100000Y-121040000D01*
X135100000Y-129700000D02*
X135100000Y-123700000D01*
X135860000Y-118102929D02*
X135860000Y-118557071D01*
X135860000Y-120642929D02*
X135860000Y-121040000D01*
X135860000Y-123700000D02*
X135860000Y-129700000D01*
X135860000Y-129700000D02*
X135100000Y-129700000D01*
X136750000Y-121040000D02*
X136750000Y-123700000D01*
X137640000Y-118102929D02*
X137640000Y-118557071D01*
X137640000Y-120642929D02*
X137640000Y-121040000D01*
X137640000Y-129700000D02*
X137640000Y-123700000D01*
X138400000Y-118102929D02*
X138400000Y-118557071D01*
X138400000Y-120642929D02*
X138400000Y-121040000D01*
X138400000Y-123700000D02*
X138400000Y-129700000D01*
X138400000Y-129700000D02*
X137640000Y-129700000D01*
X139290000Y-121040000D02*
X139290000Y-123700000D01*
X140180000Y-118102929D02*
X140180000Y-118557071D01*
X140180000Y-120642929D02*
X140180000Y-121040000D01*
X140180000Y-129700000D02*
X140180000Y-123700000D01*
X140940000Y-118102929D02*
X140940000Y-118557071D01*
X140940000Y-120642929D02*
X140940000Y-121040000D01*
X140940000Y-123700000D02*
X140940000Y-129700000D01*
X140940000Y-129700000D02*
X140180000Y-129700000D01*
X141830000Y-121040000D02*
X141830000Y-123700000D01*
X142720000Y-118102929D02*
X142720000Y-118557071D01*
X142720000Y-120642929D02*
X142720000Y-121040000D01*
X142720000Y-129700000D02*
X142720000Y-123700000D01*
X143480000Y-118102929D02*
X143480000Y-118557071D01*
X143480000Y-120642929D02*
X143480000Y-121040000D01*
X143480000Y-123700000D02*
X143480000Y-129700000D01*
X143480000Y-129700000D02*
X142720000Y-129700000D01*
X144370000Y-121040000D02*
X144370000Y-123700000D01*
X145260000Y-118102929D02*
X145260000Y-118557071D01*
X145260000Y-120642929D02*
X145260000Y-121040000D01*
X145260000Y-129700000D02*
X145260000Y-123700000D01*
X146020000Y-118102929D02*
X146020000Y-118557071D01*
X146020000Y-120642929D02*
X146020000Y-121040000D01*
X146020000Y-123700000D02*
X146020000Y-129700000D01*
X146020000Y-129700000D02*
X145260000Y-129700000D01*
X146910000Y-121040000D02*
X146910000Y-123700000D01*
X147800000Y-118102929D02*
X147800000Y-118557071D01*
X147800000Y-120642929D02*
X147800000Y-121040000D01*
X147800000Y-129700000D02*
X147800000Y-123700000D01*
X148560000Y-118102929D02*
X148560000Y-118557071D01*
X148560000Y-120642929D02*
X148560000Y-121040000D01*
X148560000Y-123700000D02*
X148560000Y-129700000D01*
X148560000Y-129700000D02*
X147800000Y-129700000D01*
X149450000Y-121040000D02*
X149450000Y-123700000D01*
X150340000Y-118102929D02*
X150340000Y-118557071D01*
X150340000Y-120642929D02*
X150340000Y-121040000D01*
X150340000Y-129700000D02*
X150340000Y-123700000D01*
X151100000Y-118102929D02*
X151100000Y-118557071D01*
X151100000Y-120642929D02*
X151100000Y-121040000D01*
X151100000Y-123700000D02*
X151100000Y-129700000D01*
X151100000Y-129700000D02*
X150340000Y-129700000D01*
X151990000Y-121040000D02*
X151990000Y-123700000D01*
X152880000Y-118102929D02*
X152880000Y-118557071D01*
X152880000Y-120642929D02*
X152880000Y-121040000D01*
X152880000Y-129700000D02*
X152880000Y-123700000D01*
X153640000Y-118102929D02*
X153640000Y-118557071D01*
X153640000Y-120642929D02*
X153640000Y-121040000D01*
X153640000Y-123700000D02*
X153640000Y-129700000D01*
X153640000Y-129700000D02*
X152880000Y-129700000D01*
X154530000Y-121040000D02*
X154530000Y-123700000D01*
X155420000Y-118102929D02*
X155420000Y-118557071D01*
X155420000Y-120642929D02*
X155420000Y-121040000D01*
X155420000Y-129700000D02*
X155420000Y-123700000D01*
X156180000Y-118102929D02*
X156180000Y-118557071D01*
X156180000Y-120642929D02*
X156180000Y-121040000D01*
X156180000Y-123700000D02*
X156180000Y-129700000D01*
X156180000Y-129700000D02*
X155420000Y-129700000D01*
X157070000Y-121040000D02*
X157070000Y-123700000D01*
X157960000Y-118102929D02*
X157960000Y-118557071D01*
X157960000Y-120642929D02*
X157960000Y-121040000D01*
X157960000Y-129700000D02*
X157960000Y-123700000D01*
X158720000Y-118102929D02*
X158720000Y-118557071D01*
X158720000Y-120642929D02*
X158720000Y-121040000D01*
X158720000Y-123700000D02*
X158720000Y-129700000D01*
X158720000Y-129700000D02*
X157960000Y-129700000D01*
X159610000Y-121040000D02*
X159610000Y-123700000D01*
X160500000Y-118102929D02*
X160500000Y-118557071D01*
X160500000Y-120642929D02*
X160500000Y-121040000D01*
X160500000Y-129700000D02*
X160500000Y-123700000D01*
X161260000Y-118102929D02*
X161260000Y-118557071D01*
X161260000Y-120642929D02*
X161260000Y-121040000D01*
X161260000Y-123700000D02*
X161260000Y-129700000D01*
X161260000Y-129700000D02*
X160500000Y-129700000D01*
X162150000Y-121040000D02*
X162150000Y-123700000D01*
X163040000Y-118102929D02*
X163040000Y-118557071D01*
X163040000Y-120642929D02*
X163040000Y-121040000D01*
X163040000Y-129700000D02*
X163040000Y-123700000D01*
X163800000Y-118102929D02*
X163800000Y-118557071D01*
X163800000Y-120642929D02*
X163800000Y-121040000D01*
X163800000Y-123700000D02*
X163800000Y-129700000D01*
X163800000Y-129700000D02*
X163040000Y-129700000D01*
X164690000Y-121040000D02*
X164690000Y-123700000D01*
X165580000Y-118102929D02*
X165580000Y-118557071D01*
X165580000Y-120642929D02*
X165580000Y-121040000D01*
X165580000Y-129700000D02*
X165580000Y-123700000D01*
X166340000Y-118102929D02*
X166340000Y-118557071D01*
X166340000Y-120642929D02*
X166340000Y-121040000D01*
X166340000Y-123700000D02*
X166340000Y-129700000D01*
X166340000Y-129700000D02*
X165580000Y-129700000D01*
X167230000Y-121040000D02*
X167230000Y-123700000D01*
X168120000Y-118170000D02*
X168120000Y-118557071D01*
X168120000Y-120642929D02*
X168120000Y-121040000D01*
X168120000Y-129700000D02*
X168120000Y-123700000D01*
X168220000Y-123700000D02*
X168220000Y-129700000D01*
X168340000Y-123700000D02*
X168340000Y-129700000D01*
X168460000Y-123700000D02*
X168460000Y-129700000D01*
X168500000Y-115790000D02*
X169770000Y-115790000D01*
X168580000Y-123700000D02*
X168580000Y-129700000D01*
X168700000Y-123700000D02*
X168700000Y-129700000D01*
X168820000Y-123700000D02*
X168820000Y-129700000D01*
X168880000Y-118170000D02*
X168880000Y-118557071D01*
X168880000Y-120642929D02*
X168880000Y-121040000D01*
X168880000Y-123700000D02*
X168880000Y-129700000D01*
X168880000Y-129700000D02*
X168120000Y-129700000D01*
X169770000Y-115790000D02*
X169770000Y-117060000D01*
X169830000Y-121040000D02*
X106210000Y-121040000D01*
X169830000Y-123700000D02*
X169830000Y-121040000D01*
%TO.C,J3*%
X170930000Y-81730000D02*
X170930000Y-107250000D01*
X170930000Y-81730000D02*
X173530000Y-81730000D01*
X170930000Y-107250000D02*
X176130000Y-107250000D01*
X173530000Y-81730000D02*
X173530000Y-84330000D01*
X173530000Y-84330000D02*
X176130000Y-84330000D01*
X174800000Y-81730000D02*
X176130000Y-81730000D01*
X176130000Y-81730000D02*
X176130000Y-83060000D01*
X176130000Y-84330000D02*
X176130000Y-107250000D01*
%TO.C,J1*%
X100930000Y-81730000D02*
X100930000Y-107250000D01*
X100930000Y-81730000D02*
X103530000Y-81730000D01*
X100930000Y-107250000D02*
X106130000Y-107250000D01*
X103530000Y-81730000D02*
X103530000Y-84330000D01*
X103530000Y-84330000D02*
X106130000Y-84330000D01*
X104800000Y-81730000D02*
X106130000Y-81730000D01*
X106130000Y-81730000D02*
X106130000Y-83060000D01*
X106130000Y-84330000D02*
X106130000Y-107250000D01*
%TO.C,J2*%
X135930000Y-81730000D02*
X135930000Y-107250000D01*
X135930000Y-81730000D02*
X138530000Y-81730000D01*
X135930000Y-107250000D02*
X141130000Y-107250000D01*
X138530000Y-81730000D02*
X138530000Y-84330000D01*
X138530000Y-84330000D02*
X141130000Y-84330000D01*
X139800000Y-81730000D02*
X141130000Y-81730000D01*
X141130000Y-81730000D02*
X141130000Y-83060000D01*
X141130000Y-84330000D02*
X141130000Y-107250000D01*
%TD*%
M02*
