M48
; DRILL file {KiCad 8.0.7-8.0.7-0~ubuntu24.10.1} date 2025-01-04T20:14:20+0200
; FORMAT={-:-/ absolute / inch / decimal}
; #@! TF.CreationDate,2025-01-04T20:14:20+02:00
; #@! TF.GenerationSoftware,Kicad,Pcbnew,8.0.7-8.0.7-0~ubuntu24.10.1
; #@! TF.FileFunction,NonPlated,1,2,NPTH
FMAT,2
INCH
; #@! TA.AperFunction,NonPlated,NPTH,ComponentDrill
T1C0.0500
; #@! TA.AperFunction,NonPlated,NPTH,ComponentDrill
T2C0.1181
; #@! TA.AperFunction,NonPlated,NPTH,ComponentDrill
T3C0.1260
%
G90
G05
T1
X6.1598Y-0.7677
X6.1598Y-1.122
T2
X1.1417Y-1.4173
X1.1417Y-5.2756
X1.438Y-3.7894
X1.438Y-5.315
X2.5787Y-3.7894
X2.5787Y-5.315
X2.9734Y-3.7894
X2.9734Y-5.315
X3.5039Y-1.4173
X3.5039Y-5.2756
X4.1142Y-3.7894
X4.1142Y-5.315
X4.5079Y-3.6614
X4.5079Y-5.315
X5.7283Y-3.6614
X5.7283Y-5.315
T3
X0.8465Y-0.5118
X0.8465Y-5.3543
X6.0827Y-0.5118
X6.0827Y-5.3543
M30
