M48
; DRILL file {KiCad 8.0.7-8.0.7-0~ubuntu24.10.1} date 2025-01-04T20:14:20+0200
; FORMAT={-:-/ absolute / inch / decimal}
; #@! TF.CreationDate,2025-01-04T20:14:20+02:00
; #@! TF.GenerationSoftware,Kicad,Pcbnew,8.0.7-8.0.7-0~ubuntu24.10.1
; #@! TF.FileFunction,Plated,1,2,PTH
FMAT,2
INCH
; #@! TA.AperFunction,Plated,PTH,ViaDrill
T1C0.0118
; #@! TA.AperFunction,Plated,PTH,ComponentDrill
T2C0.0280
; #@! TA.AperFunction,Plated,PTH,ComponentDrill
T3C0.0300
; #@! TA.AperFunction,Plated,PTH,ComponentDrill
T4C0.0315
; #@! TA.AperFunction,Plated,PTH,ComponentDrill
T5C0.0354
; #@! TA.AperFunction,Plated,PTH,ComponentDrill
T6C0.0394
; #@! TA.AperFunction,Plated,PTH,ComponentDrill
T7C0.0402
; #@! TA.AperFunction,Plated,PTH,ComponentDrill
T8C0.0413
; #@! TA.AperFunction,Plated,PTH,ComponentDrill
T9C0.0433
; #@! TA.AperFunction,Plated,PTH,ComponentDrill
T10C0.0472
%
G90
G05
T1
X0.7795Y-2.063
X0.8858Y-2.0118
X1.0787Y-1.1339
X1.2402Y-1.1496
X1.315Y-1.5787
X1.3701Y-1.6437
X1.4685Y-1.7756
X1.4882Y-1.7244
X1.5079Y-1.6161
X1.563Y-1.7618
X1.5906Y-1.7835
X1.6339Y-1.9094
X1.7205Y-1.9528
X1.7598Y-1.9961
X1.8228Y-1.9291
X1.8327Y-1.6988
X1.8425Y-1.8189
X2.002Y-1.5295
X2.0472Y-1.8189
X2.0709Y-2.0039
X2.0827Y-1.5315
X2.0866Y-1.002
X2.1634Y-2.1142
X2.1634Y-2.1575
X2.1811Y-1.5315
X2.2106Y-0.998
X2.2565Y-1.68
X2.2813Y-1.7024
X2.3362Y-1.002
X2.3386Y-1.8189
X2.4213Y-1.5197
X2.4291Y-1.6299
X2.5236Y-1.8189
X2.5394Y-1.0039
X2.5709Y-1.5315
X2.6575Y-1.0039
X2.6654Y-1.8189
X2.7795Y-1.7126
X2.811Y-1.5276
X2.9134Y-1.0
X3.0374Y-0.998
X3.1181Y-1.5276
X3.1496Y-1.0039
X3.1653Y-4.4448
X3.1693Y-4.4134
X3.2165Y-1.5276
X3.624Y-4.0945
X3.6732Y-1.0787
X3.6811Y-0.9646
X4.0756Y-5.0756
X4.2047Y-2.5276
X4.2417Y-3.9701
X4.248Y-1.6142
X4.248Y-2.2953
X4.248Y-4.5335
X4.248Y-5.0906
X4.2756Y-2.563
X4.311Y-2.6496
X4.3425Y-2.7205
X4.3937Y-2.1063
X4.4291Y-1.5157
X4.5669Y-2.5984
X4.6024Y-3.8031
X4.7087Y-3.8031
X4.8217Y-4.0052
X4.8976Y-3.7598
X4.8976Y-3.9764
X4.8976Y-4.3701
X4.8976Y-5.0
X4.8976Y-5.2165
X4.9016Y-4.1811
X4.9016Y-4.6063
X4.9016Y-4.8622
X5.0039Y-3.5827
X5.0276Y-3.6299
X5.6693Y-4.0768
X5.6693Y-4.2861
X5.6693Y-4.4954
X5.6693Y-4.7047
X5.7953Y-4.1592
X5.7953Y-4.5754
X5.7953Y-4.7835
X5.7992Y-4.3673
X5.8425Y-4.0551
X5.8425Y-4.2632
X5.8425Y-4.4713
X5.8425Y-4.6794
X5.9705Y-5.1299
T2
X5.1118Y-2.8543
X5.2118Y-2.8543
X5.3118Y-2.8543
X5.722Y-2.8543
X5.822Y-2.8543
X5.922Y-2.8543
T3
X4.9606Y-0.8268
X4.9606Y-1.0236
X5.1575Y-0.8268
X5.1575Y-1.0236
T4
X4.011Y-0.7874
X4.011Y-0.8874
X4.011Y-0.9874
X4.011Y-1.0874
X4.011Y-1.1874
X4.011Y-1.2874
X4.311Y-0.7874
X4.311Y-0.8874
X4.311Y-0.9874
X4.311Y-1.0874
X4.311Y-1.1874
X4.311Y-1.2874
X4.4638Y-0.7874
X4.4638Y-0.8874
X4.4638Y-0.9874
X4.4638Y-1.0874
X4.4638Y-1.1874
X4.4638Y-1.2874
X4.7638Y-0.7874
X4.7638Y-0.8874
X4.7638Y-0.9874
X4.7638Y-1.0874
X4.7638Y-1.1874
X4.7638Y-1.2874
X5.0724Y-1.4764
X5.1134Y-3.6732
X5.1134Y-3.7732
X5.1134Y-3.8732
X5.1134Y-3.9732
X5.1134Y-4.0732
X5.1134Y-4.1732
X5.1134Y-4.2732
X5.1134Y-4.3732
X5.1134Y-4.5063
X5.1134Y-4.6063
X5.1134Y-4.7063
X5.1134Y-4.8063
X5.1134Y-4.9063
X5.1134Y-5.0063
X5.1134Y-5.1063
X5.1134Y-5.2063
X5.2102Y-1.4764
X5.3268Y-1.1614
X5.4134Y-3.6732
X5.4134Y-3.7732
X5.4134Y-3.8732
X5.4134Y-3.9732
X5.4134Y-4.0732
X5.4134Y-4.1732
X5.4134Y-4.2732
X5.4134Y-4.3732
X5.4134Y-4.5063
X5.4134Y-4.6063
X5.4134Y-4.7063
X5.4134Y-4.8063
X5.4134Y-4.9063
X5.4134Y-5.0063
X5.4134Y-5.1063
X5.4134Y-5.2063
X5.4661Y-3.0512
X5.5646Y-3.0512
X5.8008Y-1.4764
X5.8268Y-1.1614
X5.9386Y-1.4764
X6.0236Y-3.4646
X6.122Y-3.4646
T5
X3.8346Y-1.6142
X3.8346Y-2.4016
X3.8346Y-3.189
X3.8346Y-3.8583
X3.8346Y-4.5374
X3.8346Y-5.2165
X3.9346Y-1.6142
X3.9346Y-2.4016
X3.9346Y-3.189
X3.9346Y-3.8583
X3.9346Y-4.5374
X3.9346Y-5.2165
T6
X1.1039Y-0.6835
X1.1039Y-0.7835
X1.1039Y-2.685
X1.1039Y-2.785
X1.2039Y-0.6835
X1.2039Y-0.7835
X1.2039Y-2.685
X1.2039Y-2.785
X1.3039Y-0.6835
X1.3039Y-0.7835
X1.3039Y-2.685
X1.3039Y-2.785
X1.3652Y-1.3612
X1.3652Y-1.4612
X1.4039Y-0.6835
X1.4039Y-0.7835
X1.4039Y-2.685
X1.4039Y-2.785
X1.4652Y-1.3612
X1.4652Y-1.4612
X1.5039Y-0.6835
X1.5039Y-0.7835
X1.5039Y-2.685
X1.5039Y-2.785
X1.5652Y-1.3612
X1.5652Y-1.4612
X1.6039Y-0.6835
X1.6039Y-0.7835
X1.6039Y-2.685
X1.6039Y-2.785
X1.6211Y-3.4614
X1.6211Y-3.5614
X1.6652Y-1.3612
X1.6652Y-1.4612
X1.7039Y-0.6835
X1.7039Y-0.7835
X1.7039Y-2.685
X1.7039Y-2.785
X1.7211Y-3.4614
X1.7211Y-3.5614
X1.7652Y-1.3612
X1.7652Y-1.4612
X1.8039Y-0.6835
X1.8039Y-0.7835
X1.8039Y-2.685
X1.8039Y-2.785
X1.8211Y-3.4614
X1.8211Y-3.5614
X1.8652Y-1.3612
X1.8652Y-1.4612
X1.9039Y-0.6835
X1.9039Y-0.7835
X1.9039Y-2.685
X1.9039Y-2.785
X1.9211Y-3.4614
X1.9211Y-3.5614
X1.9652Y-1.3612
X1.9652Y-1.4612
X2.0039Y-0.6835
X2.0039Y-0.7835
X2.0039Y-2.685
X2.0039Y-2.785
X2.0211Y-3.4614
X2.0211Y-3.5614
X2.0652Y-1.3612
X2.0652Y-1.4612
X2.1039Y-0.6835
X2.1039Y-0.7835
X2.1039Y-2.685
X2.1039Y-2.785
X2.1211Y-3.4614
X2.1211Y-3.5614
X2.1652Y-1.3612
X2.1652Y-1.4612
X2.2039Y-0.6835
X2.2039Y-0.7835
X2.2039Y-2.685
X2.2039Y-2.785
X2.2211Y-3.4614
X2.2211Y-3.5614
X2.2652Y-1.3612
X2.2652Y-1.4612
X2.3039Y-0.6835
X2.3039Y-0.7835
X2.3039Y-2.685
X2.3039Y-2.785
X2.3211Y-3.4614
X2.3211Y-3.5614
X2.3652Y-1.3612
X2.3652Y-1.4612
X2.4039Y-0.6835
X2.4039Y-0.7835
X2.4039Y-2.685
X2.4039Y-2.785
X2.4211Y-3.4614
X2.4211Y-3.5614
X2.4652Y-1.3612
X2.4652Y-1.4612
X2.5039Y-0.6835
X2.5039Y-0.7835
X2.5039Y-2.685
X2.5039Y-2.785
X2.5211Y-3.4614
X2.5211Y-3.5614
X2.5652Y-1.3612
X2.5652Y-1.4612
X2.6039Y-0.6835
X2.6039Y-0.7835
X2.6039Y-2.685
X2.6039Y-2.785
X2.6652Y-1.3612
X2.6652Y-1.4612
X2.7039Y-0.6835
X2.7039Y-0.7835
X2.7039Y-2.685
X2.7039Y-2.785
X2.7652Y-1.3612
X2.7652Y-1.4612
X2.8039Y-0.6835
X2.8039Y-0.7835
X2.8039Y-2.685
X2.8039Y-2.785
X2.8652Y-1.3612
X2.8652Y-1.4612
X2.9039Y-0.6835
X2.9039Y-0.7835
X2.9039Y-2.685
X2.9039Y-2.785
X2.9652Y-1.3612
X2.9652Y-1.4612
X3.0039Y-0.6835
X3.0039Y-0.7835
X3.0039Y-2.685
X3.0039Y-2.785
X3.0652Y-1.3612
X3.0652Y-1.4612
X3.1039Y-0.6835
X3.1039Y-0.7835
X3.1039Y-2.685
X3.1039Y-2.785
X3.1565Y-3.4614
X3.1565Y-3.5614
X3.1652Y-1.3612
X3.1652Y-1.4612
X3.2039Y-0.6835
X3.2039Y-0.7835
X3.2039Y-2.685
X3.2039Y-2.785
X3.2565Y-3.4614
X3.2565Y-3.5614
X3.2652Y-1.3612
X3.2652Y-1.4612
X3.3039Y-0.6835
X3.3039Y-0.7835
X3.3039Y-2.685
X3.3039Y-2.785
X3.3565Y-3.4614
X3.3565Y-3.5614
X3.4039Y-0.6835
X3.4039Y-0.7835
X3.4039Y-2.685
X3.4039Y-2.785
X3.4565Y-3.4614
X3.4565Y-3.5614
X3.5039Y-0.6835
X3.5039Y-0.7835
X3.5039Y-2.685
X3.5039Y-2.785
X3.5565Y-3.4614
X3.5565Y-3.5614
X3.6565Y-3.4614
X3.6565Y-3.5614
X3.7565Y-3.4614
X3.7565Y-3.5614
X3.8386Y-0.7252
X3.8386Y-0.8252
X3.8386Y-0.9252
X3.8386Y-1.0252
X3.8386Y-1.1252
X3.8386Y-1.2252
X3.8386Y-1.3252
X3.8386Y-1.4252
X3.8565Y-3.4614
X3.8565Y-3.5614
X3.9565Y-3.4614
X3.9565Y-3.5614
X4.0565Y-3.4614
X4.0565Y-3.5614
X4.6909Y-3.3827
X4.6909Y-3.4827
X4.7909Y-3.3827
X4.7909Y-3.4827
X4.8909Y-3.3827
X4.8909Y-3.4827
X4.9909Y-3.3827
X4.9909Y-3.4827
X5.0909Y-3.3827
X5.0909Y-3.4827
X5.1909Y-3.3827
X5.1909Y-3.4827
X5.2909Y-3.3827
X5.2909Y-3.4827
X5.3909Y-3.3827
X5.3909Y-3.4827
X5.4909Y-3.3827
X5.4909Y-3.4827
X5.5909Y-3.3827
X5.5909Y-3.4827
X6.1417Y-3.9685
X6.1417Y-4.0685
X6.1417Y-4.1685
X6.1417Y-4.2685
X6.1417Y-4.3685
X6.1417Y-4.4685
X6.1417Y-4.5685
X6.1417Y-4.6685
X6.1417Y-4.7685
X6.1417Y-4.8685
T7
X6.0827Y-0.8858
X6.0827Y-1.0039
T8
X5.3874Y-0.7283
X5.6827Y-0.689
T9
X3.8484Y-1.9193
X3.8484Y-2.0965
X3.8484Y-2.7067
X3.8484Y-2.8839
X3.8484Y-4.1093
X3.8484Y-4.2864
X3.8484Y-4.7884
X3.8484Y-4.9656
X4.1043Y-1.9193
X4.1043Y-2.0965
X4.1043Y-2.7067
X4.1043Y-2.8839
X4.1043Y-4.1093
X4.1043Y-4.2864
X4.1043Y-4.7884
X4.1043Y-4.9656
X4.5374Y-1.5059
X4.5374Y-1.6831
X4.5374Y-1.998
X4.5374Y-2.1752
X4.5374Y-2.4902
X4.5374Y-2.6673
X4.5374Y-2.9823
X4.5374Y-3.1594
X4.5374Y-4.1093
X4.5374Y-4.2864
X4.5374Y-4.7884
X4.5374Y-4.9656
X4.7933Y-1.5059
X4.7933Y-1.6831
X4.7933Y-1.998
X4.7933Y-2.1752
X4.7933Y-2.4902
X4.7933Y-2.6673
X4.7933Y-2.9823
X4.7933Y-3.1594
X4.7933Y-4.1093
X4.7933Y-4.2864
X4.7933Y-4.7884
X4.7933Y-4.9656
T10
X5.1118Y-2.6244
X5.4118Y-1.8244
X5.5118Y-2.6244
X5.6118Y-1.8244
X5.9118Y-1.8244
X5.9118Y-2.6244
M30
