%TF.GenerationSoftware,KiCad,Pcbnew,8.0.7-8.0.7-0~ubuntu24.10.1*%
%TF.CreationDate,2025-01-04T20:14:33+02:00*%
%TF.ProjectId,fpga_board,66706761-5f62-46f6-9172-642e6b696361,rev?*%
%TF.SameCoordinates,Original*%
%TF.FileFunction,Legend,Top*%
%TF.FilePolarity,Positive*%
%FSLAX46Y46*%
G04 Gerber Fmt 4.6, Leading zero omitted, Abs format (unit mm)*
G04 Created by KiCad (PCBNEW 8.0.7-8.0.7-0~ubuntu24.10.1) date 2025-01-04 20:14:33*
%MOMM*%
%LPD*%
G01*
G04 APERTURE LIST*
%ADD10C,0.150000*%
%ADD11C,0.120000*%
%ADD12C,0.127000*%
%ADD13C,0.200000*%
G04 APERTURE END LIST*
D10*
X147738095Y-131954819D02*
X147738095Y-132764342D01*
X147738095Y-132764342D02*
X147785714Y-132859580D01*
X147785714Y-132859580D02*
X147833333Y-132907200D01*
X147833333Y-132907200D02*
X147928571Y-132954819D01*
X147928571Y-132954819D02*
X148119047Y-132954819D01*
X148119047Y-132954819D02*
X148214285Y-132907200D01*
X148214285Y-132907200D02*
X148261904Y-132859580D01*
X148261904Y-132859580D02*
X148309523Y-132764342D01*
X148309523Y-132764342D02*
X148309523Y-131954819D01*
X149214285Y-132288152D02*
X149214285Y-132954819D01*
X148976190Y-131907200D02*
X148738095Y-132621485D01*
X148738095Y-132621485D02*
X149357142Y-132621485D01*
X143807142Y-105274819D02*
X143473809Y-104798628D01*
X143235714Y-105274819D02*
X143235714Y-104274819D01*
X143235714Y-104274819D02*
X143616666Y-104274819D01*
X143616666Y-104274819D02*
X143711904Y-104322438D01*
X143711904Y-104322438D02*
X143759523Y-104370057D01*
X143759523Y-104370057D02*
X143807142Y-104465295D01*
X143807142Y-104465295D02*
X143807142Y-104608152D01*
X143807142Y-104608152D02*
X143759523Y-104703390D01*
X143759523Y-104703390D02*
X143711904Y-104751009D01*
X143711904Y-104751009D02*
X143616666Y-104798628D01*
X143616666Y-104798628D02*
X143235714Y-104798628D01*
X144664285Y-104274819D02*
X144473809Y-104274819D01*
X144473809Y-104274819D02*
X144378571Y-104322438D01*
X144378571Y-104322438D02*
X144330952Y-104370057D01*
X144330952Y-104370057D02*
X144235714Y-104512914D01*
X144235714Y-104512914D02*
X144188095Y-104703390D01*
X144188095Y-104703390D02*
X144188095Y-105084342D01*
X144188095Y-105084342D02*
X144235714Y-105179580D01*
X144235714Y-105179580D02*
X144283333Y-105227200D01*
X144283333Y-105227200D02*
X144378571Y-105274819D01*
X144378571Y-105274819D02*
X144569047Y-105274819D01*
X144569047Y-105274819D02*
X144664285Y-105227200D01*
X144664285Y-105227200D02*
X144711904Y-105179580D01*
X144711904Y-105179580D02*
X144759523Y-105084342D01*
X144759523Y-105084342D02*
X144759523Y-104846247D01*
X144759523Y-104846247D02*
X144711904Y-104751009D01*
X144711904Y-104751009D02*
X144664285Y-104703390D01*
X144664285Y-104703390D02*
X144569047Y-104655771D01*
X144569047Y-104655771D02*
X144378571Y-104655771D01*
X144378571Y-104655771D02*
X144283333Y-104703390D01*
X144283333Y-104703390D02*
X144235714Y-104751009D01*
X144235714Y-104751009D02*
X144188095Y-104846247D01*
X145092857Y-104274819D02*
X145711904Y-104274819D01*
X145711904Y-104274819D02*
X145378571Y-104655771D01*
X145378571Y-104655771D02*
X145521428Y-104655771D01*
X145521428Y-104655771D02*
X145616666Y-104703390D01*
X145616666Y-104703390D02*
X145664285Y-104751009D01*
X145664285Y-104751009D02*
X145711904Y-104846247D01*
X145711904Y-104846247D02*
X145711904Y-105084342D01*
X145711904Y-105084342D02*
X145664285Y-105179580D01*
X145664285Y-105179580D02*
X145616666Y-105227200D01*
X145616666Y-105227200D02*
X145521428Y-105274819D01*
X145521428Y-105274819D02*
X145235714Y-105274819D01*
X145235714Y-105274819D02*
X145140476Y-105227200D01*
X145140476Y-105227200D02*
X145092857Y-105179580D01*
X149307142Y-101634819D02*
X148973809Y-101158628D01*
X148735714Y-101634819D02*
X148735714Y-100634819D01*
X148735714Y-100634819D02*
X149116666Y-100634819D01*
X149116666Y-100634819D02*
X149211904Y-100682438D01*
X149211904Y-100682438D02*
X149259523Y-100730057D01*
X149259523Y-100730057D02*
X149307142Y-100825295D01*
X149307142Y-100825295D02*
X149307142Y-100968152D01*
X149307142Y-100968152D02*
X149259523Y-101063390D01*
X149259523Y-101063390D02*
X149211904Y-101111009D01*
X149211904Y-101111009D02*
X149116666Y-101158628D01*
X149116666Y-101158628D02*
X148735714Y-101158628D01*
X150164285Y-100634819D02*
X149973809Y-100634819D01*
X149973809Y-100634819D02*
X149878571Y-100682438D01*
X149878571Y-100682438D02*
X149830952Y-100730057D01*
X149830952Y-100730057D02*
X149735714Y-100872914D01*
X149735714Y-100872914D02*
X149688095Y-101063390D01*
X149688095Y-101063390D02*
X149688095Y-101444342D01*
X149688095Y-101444342D02*
X149735714Y-101539580D01*
X149735714Y-101539580D02*
X149783333Y-101587200D01*
X149783333Y-101587200D02*
X149878571Y-101634819D01*
X149878571Y-101634819D02*
X150069047Y-101634819D01*
X150069047Y-101634819D02*
X150164285Y-101587200D01*
X150164285Y-101587200D02*
X150211904Y-101539580D01*
X150211904Y-101539580D02*
X150259523Y-101444342D01*
X150259523Y-101444342D02*
X150259523Y-101206247D01*
X150259523Y-101206247D02*
X150211904Y-101111009D01*
X150211904Y-101111009D02*
X150164285Y-101063390D01*
X150164285Y-101063390D02*
X150069047Y-101015771D01*
X150069047Y-101015771D02*
X149878571Y-101015771D01*
X149878571Y-101015771D02*
X149783333Y-101063390D01*
X149783333Y-101063390D02*
X149735714Y-101111009D01*
X149735714Y-101111009D02*
X149688095Y-101206247D01*
X150640476Y-100730057D02*
X150688095Y-100682438D01*
X150688095Y-100682438D02*
X150783333Y-100634819D01*
X150783333Y-100634819D02*
X151021428Y-100634819D01*
X151021428Y-100634819D02*
X151116666Y-100682438D01*
X151116666Y-100682438D02*
X151164285Y-100730057D01*
X151164285Y-100730057D02*
X151211904Y-100825295D01*
X151211904Y-100825295D02*
X151211904Y-100920533D01*
X151211904Y-100920533D02*
X151164285Y-101063390D01*
X151164285Y-101063390D02*
X150592857Y-101634819D01*
X150592857Y-101634819D02*
X151211904Y-101634819D01*
X143907142Y-123774819D02*
X143573809Y-123298628D01*
X143335714Y-123774819D02*
X143335714Y-122774819D01*
X143335714Y-122774819D02*
X143716666Y-122774819D01*
X143716666Y-122774819D02*
X143811904Y-122822438D01*
X143811904Y-122822438D02*
X143859523Y-122870057D01*
X143859523Y-122870057D02*
X143907142Y-122965295D01*
X143907142Y-122965295D02*
X143907142Y-123108152D01*
X143907142Y-123108152D02*
X143859523Y-123203390D01*
X143859523Y-123203390D02*
X143811904Y-123251009D01*
X143811904Y-123251009D02*
X143716666Y-123298628D01*
X143716666Y-123298628D02*
X143335714Y-123298628D01*
X144764285Y-122774819D02*
X144573809Y-122774819D01*
X144573809Y-122774819D02*
X144478571Y-122822438D01*
X144478571Y-122822438D02*
X144430952Y-122870057D01*
X144430952Y-122870057D02*
X144335714Y-123012914D01*
X144335714Y-123012914D02*
X144288095Y-123203390D01*
X144288095Y-123203390D02*
X144288095Y-123584342D01*
X144288095Y-123584342D02*
X144335714Y-123679580D01*
X144335714Y-123679580D02*
X144383333Y-123727200D01*
X144383333Y-123727200D02*
X144478571Y-123774819D01*
X144478571Y-123774819D02*
X144669047Y-123774819D01*
X144669047Y-123774819D02*
X144764285Y-123727200D01*
X144764285Y-123727200D02*
X144811904Y-123679580D01*
X144811904Y-123679580D02*
X144859523Y-123584342D01*
X144859523Y-123584342D02*
X144859523Y-123346247D01*
X144859523Y-123346247D02*
X144811904Y-123251009D01*
X144811904Y-123251009D02*
X144764285Y-123203390D01*
X144764285Y-123203390D02*
X144669047Y-123155771D01*
X144669047Y-123155771D02*
X144478571Y-123155771D01*
X144478571Y-123155771D02*
X144383333Y-123203390D01*
X144383333Y-123203390D02*
X144335714Y-123251009D01*
X144335714Y-123251009D02*
X144288095Y-123346247D01*
X145478571Y-122774819D02*
X145573809Y-122774819D01*
X145573809Y-122774819D02*
X145669047Y-122822438D01*
X145669047Y-122822438D02*
X145716666Y-122870057D01*
X145716666Y-122870057D02*
X145764285Y-122965295D01*
X145764285Y-122965295D02*
X145811904Y-123155771D01*
X145811904Y-123155771D02*
X145811904Y-123393866D01*
X145811904Y-123393866D02*
X145764285Y-123584342D01*
X145764285Y-123584342D02*
X145716666Y-123679580D01*
X145716666Y-123679580D02*
X145669047Y-123727200D01*
X145669047Y-123727200D02*
X145573809Y-123774819D01*
X145573809Y-123774819D02*
X145478571Y-123774819D01*
X145478571Y-123774819D02*
X145383333Y-123727200D01*
X145383333Y-123727200D02*
X145335714Y-123679580D01*
X145335714Y-123679580D02*
X145288095Y-123584342D01*
X145288095Y-123584342D02*
X145240476Y-123393866D01*
X145240476Y-123393866D02*
X145240476Y-123155771D01*
X145240476Y-123155771D02*
X145288095Y-122965295D01*
X145288095Y-122965295D02*
X145335714Y-122870057D01*
X145335714Y-122870057D02*
X145383333Y-122822438D01*
X145383333Y-122822438D02*
X145478571Y-122774819D01*
X149307142Y-120134819D02*
X148973809Y-119658628D01*
X148735714Y-120134819D02*
X148735714Y-119134819D01*
X148735714Y-119134819D02*
X149116666Y-119134819D01*
X149116666Y-119134819D02*
X149211904Y-119182438D01*
X149211904Y-119182438D02*
X149259523Y-119230057D01*
X149259523Y-119230057D02*
X149307142Y-119325295D01*
X149307142Y-119325295D02*
X149307142Y-119468152D01*
X149307142Y-119468152D02*
X149259523Y-119563390D01*
X149259523Y-119563390D02*
X149211904Y-119611009D01*
X149211904Y-119611009D02*
X149116666Y-119658628D01*
X149116666Y-119658628D02*
X148735714Y-119658628D01*
X150211904Y-119134819D02*
X149735714Y-119134819D01*
X149735714Y-119134819D02*
X149688095Y-119611009D01*
X149688095Y-119611009D02*
X149735714Y-119563390D01*
X149735714Y-119563390D02*
X149830952Y-119515771D01*
X149830952Y-119515771D02*
X150069047Y-119515771D01*
X150069047Y-119515771D02*
X150164285Y-119563390D01*
X150164285Y-119563390D02*
X150211904Y-119611009D01*
X150211904Y-119611009D02*
X150259523Y-119706247D01*
X150259523Y-119706247D02*
X150259523Y-119944342D01*
X150259523Y-119944342D02*
X150211904Y-120039580D01*
X150211904Y-120039580D02*
X150164285Y-120087200D01*
X150164285Y-120087200D02*
X150069047Y-120134819D01*
X150069047Y-120134819D02*
X149830952Y-120134819D01*
X149830952Y-120134819D02*
X149735714Y-120087200D01*
X149735714Y-120087200D02*
X149688095Y-120039580D01*
X150735714Y-120134819D02*
X150926190Y-120134819D01*
X150926190Y-120134819D02*
X151021428Y-120087200D01*
X151021428Y-120087200D02*
X151069047Y-120039580D01*
X151069047Y-120039580D02*
X151164285Y-119896723D01*
X151164285Y-119896723D02*
X151211904Y-119706247D01*
X151211904Y-119706247D02*
X151211904Y-119325295D01*
X151211904Y-119325295D02*
X151164285Y-119230057D01*
X151164285Y-119230057D02*
X151116666Y-119182438D01*
X151116666Y-119182438D02*
X151021428Y-119134819D01*
X151021428Y-119134819D02*
X150830952Y-119134819D01*
X150830952Y-119134819D02*
X150735714Y-119182438D01*
X150735714Y-119182438D02*
X150688095Y-119230057D01*
X150688095Y-119230057D02*
X150640476Y-119325295D01*
X150640476Y-119325295D02*
X150640476Y-119563390D01*
X150640476Y-119563390D02*
X150688095Y-119658628D01*
X150688095Y-119658628D02*
X150735714Y-119706247D01*
X150735714Y-119706247D02*
X150830952Y-119753866D01*
X150830952Y-119753866D02*
X151021428Y-119753866D01*
X151021428Y-119753866D02*
X151116666Y-119706247D01*
X151116666Y-119706247D02*
X151164285Y-119658628D01*
X151164285Y-119658628D02*
X151211904Y-119563390D01*
X143707142Y-107974819D02*
X143373809Y-107498628D01*
X143135714Y-107974819D02*
X143135714Y-106974819D01*
X143135714Y-106974819D02*
X143516666Y-106974819D01*
X143516666Y-106974819D02*
X143611904Y-107022438D01*
X143611904Y-107022438D02*
X143659523Y-107070057D01*
X143659523Y-107070057D02*
X143707142Y-107165295D01*
X143707142Y-107165295D02*
X143707142Y-107308152D01*
X143707142Y-107308152D02*
X143659523Y-107403390D01*
X143659523Y-107403390D02*
X143611904Y-107451009D01*
X143611904Y-107451009D02*
X143516666Y-107498628D01*
X143516666Y-107498628D02*
X143135714Y-107498628D01*
X144611904Y-106974819D02*
X144135714Y-106974819D01*
X144135714Y-106974819D02*
X144088095Y-107451009D01*
X144088095Y-107451009D02*
X144135714Y-107403390D01*
X144135714Y-107403390D02*
X144230952Y-107355771D01*
X144230952Y-107355771D02*
X144469047Y-107355771D01*
X144469047Y-107355771D02*
X144564285Y-107403390D01*
X144564285Y-107403390D02*
X144611904Y-107451009D01*
X144611904Y-107451009D02*
X144659523Y-107546247D01*
X144659523Y-107546247D02*
X144659523Y-107784342D01*
X144659523Y-107784342D02*
X144611904Y-107879580D01*
X144611904Y-107879580D02*
X144564285Y-107927200D01*
X144564285Y-107927200D02*
X144469047Y-107974819D01*
X144469047Y-107974819D02*
X144230952Y-107974819D01*
X144230952Y-107974819D02*
X144135714Y-107927200D01*
X144135714Y-107927200D02*
X144088095Y-107879580D01*
X144992857Y-106974819D02*
X145659523Y-106974819D01*
X145659523Y-106974819D02*
X145230952Y-107974819D01*
X149307142Y-104277676D02*
X148973809Y-103801485D01*
X148735714Y-104277676D02*
X148735714Y-103277676D01*
X148735714Y-103277676D02*
X149116666Y-103277676D01*
X149116666Y-103277676D02*
X149211904Y-103325295D01*
X149211904Y-103325295D02*
X149259523Y-103372914D01*
X149259523Y-103372914D02*
X149307142Y-103468152D01*
X149307142Y-103468152D02*
X149307142Y-103611009D01*
X149307142Y-103611009D02*
X149259523Y-103706247D01*
X149259523Y-103706247D02*
X149211904Y-103753866D01*
X149211904Y-103753866D02*
X149116666Y-103801485D01*
X149116666Y-103801485D02*
X148735714Y-103801485D01*
X150211904Y-103277676D02*
X149735714Y-103277676D01*
X149735714Y-103277676D02*
X149688095Y-103753866D01*
X149688095Y-103753866D02*
X149735714Y-103706247D01*
X149735714Y-103706247D02*
X149830952Y-103658628D01*
X149830952Y-103658628D02*
X150069047Y-103658628D01*
X150069047Y-103658628D02*
X150164285Y-103706247D01*
X150164285Y-103706247D02*
X150211904Y-103753866D01*
X150211904Y-103753866D02*
X150259523Y-103849104D01*
X150259523Y-103849104D02*
X150259523Y-104087199D01*
X150259523Y-104087199D02*
X150211904Y-104182437D01*
X150211904Y-104182437D02*
X150164285Y-104230057D01*
X150164285Y-104230057D02*
X150069047Y-104277676D01*
X150069047Y-104277676D02*
X149830952Y-104277676D01*
X149830952Y-104277676D02*
X149735714Y-104230057D01*
X149735714Y-104230057D02*
X149688095Y-104182437D01*
X151116666Y-103277676D02*
X150926190Y-103277676D01*
X150926190Y-103277676D02*
X150830952Y-103325295D01*
X150830952Y-103325295D02*
X150783333Y-103372914D01*
X150783333Y-103372914D02*
X150688095Y-103515771D01*
X150688095Y-103515771D02*
X150640476Y-103706247D01*
X150640476Y-103706247D02*
X150640476Y-104087199D01*
X150640476Y-104087199D02*
X150688095Y-104182437D01*
X150688095Y-104182437D02*
X150735714Y-104230057D01*
X150735714Y-104230057D02*
X150830952Y-104277676D01*
X150830952Y-104277676D02*
X151021428Y-104277676D01*
X151021428Y-104277676D02*
X151116666Y-104230057D01*
X151116666Y-104230057D02*
X151164285Y-104182437D01*
X151164285Y-104182437D02*
X151211904Y-104087199D01*
X151211904Y-104087199D02*
X151211904Y-103849104D01*
X151211904Y-103849104D02*
X151164285Y-103753866D01*
X151164285Y-103753866D02*
X151116666Y-103706247D01*
X151116666Y-103706247D02*
X151021428Y-103658628D01*
X151021428Y-103658628D02*
X150830952Y-103658628D01*
X150830952Y-103658628D02*
X150735714Y-103706247D01*
X150735714Y-103706247D02*
X150688095Y-103753866D01*
X150688095Y-103753866D02*
X150640476Y-103849104D01*
X143807142Y-110574819D02*
X143473809Y-110098628D01*
X143235714Y-110574819D02*
X143235714Y-109574819D01*
X143235714Y-109574819D02*
X143616666Y-109574819D01*
X143616666Y-109574819D02*
X143711904Y-109622438D01*
X143711904Y-109622438D02*
X143759523Y-109670057D01*
X143759523Y-109670057D02*
X143807142Y-109765295D01*
X143807142Y-109765295D02*
X143807142Y-109908152D01*
X143807142Y-109908152D02*
X143759523Y-110003390D01*
X143759523Y-110003390D02*
X143711904Y-110051009D01*
X143711904Y-110051009D02*
X143616666Y-110098628D01*
X143616666Y-110098628D02*
X143235714Y-110098628D01*
X144711904Y-109574819D02*
X144235714Y-109574819D01*
X144235714Y-109574819D02*
X144188095Y-110051009D01*
X144188095Y-110051009D02*
X144235714Y-110003390D01*
X144235714Y-110003390D02*
X144330952Y-109955771D01*
X144330952Y-109955771D02*
X144569047Y-109955771D01*
X144569047Y-109955771D02*
X144664285Y-110003390D01*
X144664285Y-110003390D02*
X144711904Y-110051009D01*
X144711904Y-110051009D02*
X144759523Y-110146247D01*
X144759523Y-110146247D02*
X144759523Y-110384342D01*
X144759523Y-110384342D02*
X144711904Y-110479580D01*
X144711904Y-110479580D02*
X144664285Y-110527200D01*
X144664285Y-110527200D02*
X144569047Y-110574819D01*
X144569047Y-110574819D02*
X144330952Y-110574819D01*
X144330952Y-110574819D02*
X144235714Y-110527200D01*
X144235714Y-110527200D02*
X144188095Y-110479580D01*
X145616666Y-109908152D02*
X145616666Y-110574819D01*
X145378571Y-109527200D02*
X145140476Y-110241485D01*
X145140476Y-110241485D02*
X145759523Y-110241485D01*
X149307142Y-106920533D02*
X148973809Y-106444342D01*
X148735714Y-106920533D02*
X148735714Y-105920533D01*
X148735714Y-105920533D02*
X149116666Y-105920533D01*
X149116666Y-105920533D02*
X149211904Y-105968152D01*
X149211904Y-105968152D02*
X149259523Y-106015771D01*
X149259523Y-106015771D02*
X149307142Y-106111009D01*
X149307142Y-106111009D02*
X149307142Y-106253866D01*
X149307142Y-106253866D02*
X149259523Y-106349104D01*
X149259523Y-106349104D02*
X149211904Y-106396723D01*
X149211904Y-106396723D02*
X149116666Y-106444342D01*
X149116666Y-106444342D02*
X148735714Y-106444342D01*
X150211904Y-105920533D02*
X149735714Y-105920533D01*
X149735714Y-105920533D02*
X149688095Y-106396723D01*
X149688095Y-106396723D02*
X149735714Y-106349104D01*
X149735714Y-106349104D02*
X149830952Y-106301485D01*
X149830952Y-106301485D02*
X150069047Y-106301485D01*
X150069047Y-106301485D02*
X150164285Y-106349104D01*
X150164285Y-106349104D02*
X150211904Y-106396723D01*
X150211904Y-106396723D02*
X150259523Y-106491961D01*
X150259523Y-106491961D02*
X150259523Y-106730056D01*
X150259523Y-106730056D02*
X150211904Y-106825294D01*
X150211904Y-106825294D02*
X150164285Y-106872914D01*
X150164285Y-106872914D02*
X150069047Y-106920533D01*
X150069047Y-106920533D02*
X149830952Y-106920533D01*
X149830952Y-106920533D02*
X149735714Y-106872914D01*
X149735714Y-106872914D02*
X149688095Y-106825294D01*
X150592857Y-105920533D02*
X151211904Y-105920533D01*
X151211904Y-105920533D02*
X150878571Y-106301485D01*
X150878571Y-106301485D02*
X151021428Y-106301485D01*
X151021428Y-106301485D02*
X151116666Y-106349104D01*
X151116666Y-106349104D02*
X151164285Y-106396723D01*
X151164285Y-106396723D02*
X151211904Y-106491961D01*
X151211904Y-106491961D02*
X151211904Y-106730056D01*
X151211904Y-106730056D02*
X151164285Y-106825294D01*
X151164285Y-106825294D02*
X151116666Y-106872914D01*
X151116666Y-106872914D02*
X151021428Y-106920533D01*
X151021428Y-106920533D02*
X150735714Y-106920533D01*
X150735714Y-106920533D02*
X150640476Y-106872914D01*
X150640476Y-106872914D02*
X150592857Y-106825294D01*
X143857142Y-113274819D02*
X143523809Y-112798628D01*
X143285714Y-113274819D02*
X143285714Y-112274819D01*
X143285714Y-112274819D02*
X143666666Y-112274819D01*
X143666666Y-112274819D02*
X143761904Y-112322438D01*
X143761904Y-112322438D02*
X143809523Y-112370057D01*
X143809523Y-112370057D02*
X143857142Y-112465295D01*
X143857142Y-112465295D02*
X143857142Y-112608152D01*
X143857142Y-112608152D02*
X143809523Y-112703390D01*
X143809523Y-112703390D02*
X143761904Y-112751009D01*
X143761904Y-112751009D02*
X143666666Y-112798628D01*
X143666666Y-112798628D02*
X143285714Y-112798628D01*
X144761904Y-112274819D02*
X144285714Y-112274819D01*
X144285714Y-112274819D02*
X144238095Y-112751009D01*
X144238095Y-112751009D02*
X144285714Y-112703390D01*
X144285714Y-112703390D02*
X144380952Y-112655771D01*
X144380952Y-112655771D02*
X144619047Y-112655771D01*
X144619047Y-112655771D02*
X144714285Y-112703390D01*
X144714285Y-112703390D02*
X144761904Y-112751009D01*
X144761904Y-112751009D02*
X144809523Y-112846247D01*
X144809523Y-112846247D02*
X144809523Y-113084342D01*
X144809523Y-113084342D02*
X144761904Y-113179580D01*
X144761904Y-113179580D02*
X144714285Y-113227200D01*
X144714285Y-113227200D02*
X144619047Y-113274819D01*
X144619047Y-113274819D02*
X144380952Y-113274819D01*
X144380952Y-113274819D02*
X144285714Y-113227200D01*
X144285714Y-113227200D02*
X144238095Y-113179580D01*
X145761904Y-113274819D02*
X145190476Y-113274819D01*
X145476190Y-113274819D02*
X145476190Y-112274819D01*
X145476190Y-112274819D02*
X145380952Y-112417676D01*
X145380952Y-112417676D02*
X145285714Y-112512914D01*
X145285714Y-112512914D02*
X145190476Y-112560533D01*
X149307142Y-109563390D02*
X148973809Y-109087199D01*
X148735714Y-109563390D02*
X148735714Y-108563390D01*
X148735714Y-108563390D02*
X149116666Y-108563390D01*
X149116666Y-108563390D02*
X149211904Y-108611009D01*
X149211904Y-108611009D02*
X149259523Y-108658628D01*
X149259523Y-108658628D02*
X149307142Y-108753866D01*
X149307142Y-108753866D02*
X149307142Y-108896723D01*
X149307142Y-108896723D02*
X149259523Y-108991961D01*
X149259523Y-108991961D02*
X149211904Y-109039580D01*
X149211904Y-109039580D02*
X149116666Y-109087199D01*
X149116666Y-109087199D02*
X148735714Y-109087199D01*
X150211904Y-108563390D02*
X149735714Y-108563390D01*
X149735714Y-108563390D02*
X149688095Y-109039580D01*
X149688095Y-109039580D02*
X149735714Y-108991961D01*
X149735714Y-108991961D02*
X149830952Y-108944342D01*
X149830952Y-108944342D02*
X150069047Y-108944342D01*
X150069047Y-108944342D02*
X150164285Y-108991961D01*
X150164285Y-108991961D02*
X150211904Y-109039580D01*
X150211904Y-109039580D02*
X150259523Y-109134818D01*
X150259523Y-109134818D02*
X150259523Y-109372913D01*
X150259523Y-109372913D02*
X150211904Y-109468151D01*
X150211904Y-109468151D02*
X150164285Y-109515771D01*
X150164285Y-109515771D02*
X150069047Y-109563390D01*
X150069047Y-109563390D02*
X149830952Y-109563390D01*
X149830952Y-109563390D02*
X149735714Y-109515771D01*
X149735714Y-109515771D02*
X149688095Y-109468151D01*
X150878571Y-108563390D02*
X150973809Y-108563390D01*
X150973809Y-108563390D02*
X151069047Y-108611009D01*
X151069047Y-108611009D02*
X151116666Y-108658628D01*
X151116666Y-108658628D02*
X151164285Y-108753866D01*
X151164285Y-108753866D02*
X151211904Y-108944342D01*
X151211904Y-108944342D02*
X151211904Y-109182437D01*
X151211904Y-109182437D02*
X151164285Y-109372913D01*
X151164285Y-109372913D02*
X151116666Y-109468151D01*
X151116666Y-109468151D02*
X151069047Y-109515771D01*
X151069047Y-109515771D02*
X150973809Y-109563390D01*
X150973809Y-109563390D02*
X150878571Y-109563390D01*
X150878571Y-109563390D02*
X150783333Y-109515771D01*
X150783333Y-109515771D02*
X150735714Y-109468151D01*
X150735714Y-109468151D02*
X150688095Y-109372913D01*
X150688095Y-109372913D02*
X150640476Y-109182437D01*
X150640476Y-109182437D02*
X150640476Y-108944342D01*
X150640476Y-108944342D02*
X150688095Y-108753866D01*
X150688095Y-108753866D02*
X150735714Y-108658628D01*
X150735714Y-108658628D02*
X150783333Y-108611009D01*
X150783333Y-108611009D02*
X150878571Y-108563390D01*
X143857142Y-115774819D02*
X143523809Y-115298628D01*
X143285714Y-115774819D02*
X143285714Y-114774819D01*
X143285714Y-114774819D02*
X143666666Y-114774819D01*
X143666666Y-114774819D02*
X143761904Y-114822438D01*
X143761904Y-114822438D02*
X143809523Y-114870057D01*
X143809523Y-114870057D02*
X143857142Y-114965295D01*
X143857142Y-114965295D02*
X143857142Y-115108152D01*
X143857142Y-115108152D02*
X143809523Y-115203390D01*
X143809523Y-115203390D02*
X143761904Y-115251009D01*
X143761904Y-115251009D02*
X143666666Y-115298628D01*
X143666666Y-115298628D02*
X143285714Y-115298628D01*
X144714285Y-115108152D02*
X144714285Y-115774819D01*
X144476190Y-114727200D02*
X144238095Y-115441485D01*
X144238095Y-115441485D02*
X144857142Y-115441485D01*
X145380952Y-115203390D02*
X145285714Y-115155771D01*
X145285714Y-115155771D02*
X145238095Y-115108152D01*
X145238095Y-115108152D02*
X145190476Y-115012914D01*
X145190476Y-115012914D02*
X145190476Y-114965295D01*
X145190476Y-114965295D02*
X145238095Y-114870057D01*
X145238095Y-114870057D02*
X145285714Y-114822438D01*
X145285714Y-114822438D02*
X145380952Y-114774819D01*
X145380952Y-114774819D02*
X145571428Y-114774819D01*
X145571428Y-114774819D02*
X145666666Y-114822438D01*
X145666666Y-114822438D02*
X145714285Y-114870057D01*
X145714285Y-114870057D02*
X145761904Y-114965295D01*
X145761904Y-114965295D02*
X145761904Y-115012914D01*
X145761904Y-115012914D02*
X145714285Y-115108152D01*
X145714285Y-115108152D02*
X145666666Y-115155771D01*
X145666666Y-115155771D02*
X145571428Y-115203390D01*
X145571428Y-115203390D02*
X145380952Y-115203390D01*
X145380952Y-115203390D02*
X145285714Y-115251009D01*
X145285714Y-115251009D02*
X145238095Y-115298628D01*
X145238095Y-115298628D02*
X145190476Y-115393866D01*
X145190476Y-115393866D02*
X145190476Y-115584342D01*
X145190476Y-115584342D02*
X145238095Y-115679580D01*
X145238095Y-115679580D02*
X145285714Y-115727200D01*
X145285714Y-115727200D02*
X145380952Y-115774819D01*
X145380952Y-115774819D02*
X145571428Y-115774819D01*
X145571428Y-115774819D02*
X145666666Y-115727200D01*
X145666666Y-115727200D02*
X145714285Y-115679580D01*
X145714285Y-115679580D02*
X145761904Y-115584342D01*
X145761904Y-115584342D02*
X145761904Y-115393866D01*
X145761904Y-115393866D02*
X145714285Y-115298628D01*
X145714285Y-115298628D02*
X145666666Y-115251009D01*
X145666666Y-115251009D02*
X145571428Y-115203390D01*
X149307142Y-112206247D02*
X148973809Y-111730056D01*
X148735714Y-112206247D02*
X148735714Y-111206247D01*
X148735714Y-111206247D02*
X149116666Y-111206247D01*
X149116666Y-111206247D02*
X149211904Y-111253866D01*
X149211904Y-111253866D02*
X149259523Y-111301485D01*
X149259523Y-111301485D02*
X149307142Y-111396723D01*
X149307142Y-111396723D02*
X149307142Y-111539580D01*
X149307142Y-111539580D02*
X149259523Y-111634818D01*
X149259523Y-111634818D02*
X149211904Y-111682437D01*
X149211904Y-111682437D02*
X149116666Y-111730056D01*
X149116666Y-111730056D02*
X148735714Y-111730056D01*
X150164285Y-111539580D02*
X150164285Y-112206247D01*
X149926190Y-111158628D02*
X149688095Y-111872913D01*
X149688095Y-111872913D02*
X150307142Y-111872913D01*
X150592857Y-111206247D02*
X151259523Y-111206247D01*
X151259523Y-111206247D02*
X150830952Y-112206247D01*
X143857142Y-118474819D02*
X143523809Y-117998628D01*
X143285714Y-118474819D02*
X143285714Y-117474819D01*
X143285714Y-117474819D02*
X143666666Y-117474819D01*
X143666666Y-117474819D02*
X143761904Y-117522438D01*
X143761904Y-117522438D02*
X143809523Y-117570057D01*
X143809523Y-117570057D02*
X143857142Y-117665295D01*
X143857142Y-117665295D02*
X143857142Y-117808152D01*
X143857142Y-117808152D02*
X143809523Y-117903390D01*
X143809523Y-117903390D02*
X143761904Y-117951009D01*
X143761904Y-117951009D02*
X143666666Y-117998628D01*
X143666666Y-117998628D02*
X143285714Y-117998628D01*
X144714285Y-117808152D02*
X144714285Y-118474819D01*
X144476190Y-117427200D02*
X144238095Y-118141485D01*
X144238095Y-118141485D02*
X144857142Y-118141485D01*
X145714285Y-117474819D02*
X145238095Y-117474819D01*
X145238095Y-117474819D02*
X145190476Y-117951009D01*
X145190476Y-117951009D02*
X145238095Y-117903390D01*
X145238095Y-117903390D02*
X145333333Y-117855771D01*
X145333333Y-117855771D02*
X145571428Y-117855771D01*
X145571428Y-117855771D02*
X145666666Y-117903390D01*
X145666666Y-117903390D02*
X145714285Y-117951009D01*
X145714285Y-117951009D02*
X145761904Y-118046247D01*
X145761904Y-118046247D02*
X145761904Y-118284342D01*
X145761904Y-118284342D02*
X145714285Y-118379580D01*
X145714285Y-118379580D02*
X145666666Y-118427200D01*
X145666666Y-118427200D02*
X145571428Y-118474819D01*
X145571428Y-118474819D02*
X145333333Y-118474819D01*
X145333333Y-118474819D02*
X145238095Y-118427200D01*
X145238095Y-118427200D02*
X145190476Y-118379580D01*
X143907142Y-121074819D02*
X143573809Y-120598628D01*
X143335714Y-121074819D02*
X143335714Y-120074819D01*
X143335714Y-120074819D02*
X143716666Y-120074819D01*
X143716666Y-120074819D02*
X143811904Y-120122438D01*
X143811904Y-120122438D02*
X143859523Y-120170057D01*
X143859523Y-120170057D02*
X143907142Y-120265295D01*
X143907142Y-120265295D02*
X143907142Y-120408152D01*
X143907142Y-120408152D02*
X143859523Y-120503390D01*
X143859523Y-120503390D02*
X143811904Y-120551009D01*
X143811904Y-120551009D02*
X143716666Y-120598628D01*
X143716666Y-120598628D02*
X143335714Y-120598628D01*
X144764285Y-120408152D02*
X144764285Y-121074819D01*
X144526190Y-120027200D02*
X144288095Y-120741485D01*
X144288095Y-120741485D02*
X144907142Y-120741485D01*
X145192857Y-120074819D02*
X145811904Y-120074819D01*
X145811904Y-120074819D02*
X145478571Y-120455771D01*
X145478571Y-120455771D02*
X145621428Y-120455771D01*
X145621428Y-120455771D02*
X145716666Y-120503390D01*
X145716666Y-120503390D02*
X145764285Y-120551009D01*
X145764285Y-120551009D02*
X145811904Y-120646247D01*
X145811904Y-120646247D02*
X145811904Y-120884342D01*
X145811904Y-120884342D02*
X145764285Y-120979580D01*
X145764285Y-120979580D02*
X145716666Y-121027200D01*
X145716666Y-121027200D02*
X145621428Y-121074819D01*
X145621428Y-121074819D02*
X145335714Y-121074819D01*
X145335714Y-121074819D02*
X145240476Y-121027200D01*
X145240476Y-121027200D02*
X145192857Y-120979580D01*
X149307142Y-117491961D02*
X148973809Y-117015770D01*
X148735714Y-117491961D02*
X148735714Y-116491961D01*
X148735714Y-116491961D02*
X149116666Y-116491961D01*
X149116666Y-116491961D02*
X149211904Y-116539580D01*
X149211904Y-116539580D02*
X149259523Y-116587199D01*
X149259523Y-116587199D02*
X149307142Y-116682437D01*
X149307142Y-116682437D02*
X149307142Y-116825294D01*
X149307142Y-116825294D02*
X149259523Y-116920532D01*
X149259523Y-116920532D02*
X149211904Y-116968151D01*
X149211904Y-116968151D02*
X149116666Y-117015770D01*
X149116666Y-117015770D02*
X148735714Y-117015770D01*
X150164285Y-116825294D02*
X150164285Y-117491961D01*
X149926190Y-116444342D02*
X149688095Y-117158627D01*
X149688095Y-117158627D02*
X150307142Y-117158627D01*
X150640476Y-116587199D02*
X150688095Y-116539580D01*
X150688095Y-116539580D02*
X150783333Y-116491961D01*
X150783333Y-116491961D02*
X151021428Y-116491961D01*
X151021428Y-116491961D02*
X151116666Y-116539580D01*
X151116666Y-116539580D02*
X151164285Y-116587199D01*
X151164285Y-116587199D02*
X151211904Y-116682437D01*
X151211904Y-116682437D02*
X151211904Y-116777675D01*
X151211904Y-116777675D02*
X151164285Y-116920532D01*
X151164285Y-116920532D02*
X150592857Y-117491961D01*
X150592857Y-117491961D02*
X151211904Y-117491961D01*
X97931905Y-58494819D02*
X97931905Y-57494819D01*
X97931905Y-57494819D02*
X98170000Y-57494819D01*
X98170000Y-57494819D02*
X98312857Y-57542438D01*
X98312857Y-57542438D02*
X98408095Y-57637676D01*
X98408095Y-57637676D02*
X98455714Y-57732914D01*
X98455714Y-57732914D02*
X98503333Y-57923390D01*
X98503333Y-57923390D02*
X98503333Y-58066247D01*
X98503333Y-58066247D02*
X98455714Y-58256723D01*
X98455714Y-58256723D02*
X98408095Y-58351961D01*
X98408095Y-58351961D02*
X98312857Y-58447200D01*
X98312857Y-58447200D02*
X98170000Y-58494819D01*
X98170000Y-58494819D02*
X97931905Y-58494819D01*
X98884286Y-57590057D02*
X98931905Y-57542438D01*
X98931905Y-57542438D02*
X99027143Y-57494819D01*
X99027143Y-57494819D02*
X99265238Y-57494819D01*
X99265238Y-57494819D02*
X99360476Y-57542438D01*
X99360476Y-57542438D02*
X99408095Y-57590057D01*
X99408095Y-57590057D02*
X99455714Y-57685295D01*
X99455714Y-57685295D02*
X99455714Y-57780533D01*
X99455714Y-57780533D02*
X99408095Y-57923390D01*
X99408095Y-57923390D02*
X98836667Y-58494819D01*
X98836667Y-58494819D02*
X99455714Y-58494819D01*
X61614819Y-27166666D02*
X61138628Y-27499999D01*
X61614819Y-27738094D02*
X60614819Y-27738094D01*
X60614819Y-27738094D02*
X60614819Y-27357142D01*
X60614819Y-27357142D02*
X60662438Y-27261904D01*
X60662438Y-27261904D02*
X60710057Y-27214285D01*
X60710057Y-27214285D02*
X60805295Y-27166666D01*
X60805295Y-27166666D02*
X60948152Y-27166666D01*
X60948152Y-27166666D02*
X61043390Y-27214285D01*
X61043390Y-27214285D02*
X61091009Y-27261904D01*
X61091009Y-27261904D02*
X61138628Y-27357142D01*
X61138628Y-27357142D02*
X61138628Y-27738094D01*
X60614819Y-26833332D02*
X60614819Y-26214285D01*
X60614819Y-26214285D02*
X60995771Y-26547618D01*
X60995771Y-26547618D02*
X60995771Y-26404761D01*
X60995771Y-26404761D02*
X61043390Y-26309523D01*
X61043390Y-26309523D02*
X61091009Y-26261904D01*
X61091009Y-26261904D02*
X61186247Y-26214285D01*
X61186247Y-26214285D02*
X61424342Y-26214285D01*
X61424342Y-26214285D02*
X61519580Y-26261904D01*
X61519580Y-26261904D02*
X61567200Y-26309523D01*
X61567200Y-26309523D02*
X61614819Y-26404761D01*
X61614819Y-26404761D02*
X61614819Y-26690475D01*
X61614819Y-26690475D02*
X61567200Y-26785713D01*
X61567200Y-26785713D02*
X61519580Y-26833332D01*
X148923333Y-43109580D02*
X148875714Y-43157200D01*
X148875714Y-43157200D02*
X148732857Y-43204819D01*
X148732857Y-43204819D02*
X148637619Y-43204819D01*
X148637619Y-43204819D02*
X148494762Y-43157200D01*
X148494762Y-43157200D02*
X148399524Y-43061961D01*
X148399524Y-43061961D02*
X148351905Y-42966723D01*
X148351905Y-42966723D02*
X148304286Y-42776247D01*
X148304286Y-42776247D02*
X148304286Y-42633390D01*
X148304286Y-42633390D02*
X148351905Y-42442914D01*
X148351905Y-42442914D02*
X148399524Y-42347676D01*
X148399524Y-42347676D02*
X148494762Y-42252438D01*
X148494762Y-42252438D02*
X148637619Y-42204819D01*
X148637619Y-42204819D02*
X148732857Y-42204819D01*
X148732857Y-42204819D02*
X148875714Y-42252438D01*
X148875714Y-42252438D02*
X148923333Y-42300057D01*
X149256667Y-42204819D02*
X149875714Y-42204819D01*
X149875714Y-42204819D02*
X149542381Y-42585771D01*
X149542381Y-42585771D02*
X149685238Y-42585771D01*
X149685238Y-42585771D02*
X149780476Y-42633390D01*
X149780476Y-42633390D02*
X149828095Y-42681009D01*
X149828095Y-42681009D02*
X149875714Y-42776247D01*
X149875714Y-42776247D02*
X149875714Y-43014342D01*
X149875714Y-43014342D02*
X149828095Y-43109580D01*
X149828095Y-43109580D02*
X149780476Y-43157200D01*
X149780476Y-43157200D02*
X149685238Y-43204819D01*
X149685238Y-43204819D02*
X149399524Y-43204819D01*
X149399524Y-43204819D02*
X149304286Y-43157200D01*
X149304286Y-43157200D02*
X149256667Y-43109580D01*
X54334819Y-45292857D02*
X53858628Y-45626190D01*
X54334819Y-45864285D02*
X53334819Y-45864285D01*
X53334819Y-45864285D02*
X53334819Y-45483333D01*
X53334819Y-45483333D02*
X53382438Y-45388095D01*
X53382438Y-45388095D02*
X53430057Y-45340476D01*
X53430057Y-45340476D02*
X53525295Y-45292857D01*
X53525295Y-45292857D02*
X53668152Y-45292857D01*
X53668152Y-45292857D02*
X53763390Y-45340476D01*
X53763390Y-45340476D02*
X53811009Y-45388095D01*
X53811009Y-45388095D02*
X53858628Y-45483333D01*
X53858628Y-45483333D02*
X53858628Y-45864285D01*
X54334819Y-44340476D02*
X54334819Y-44911904D01*
X54334819Y-44626190D02*
X53334819Y-44626190D01*
X53334819Y-44626190D02*
X53477676Y-44721428D01*
X53477676Y-44721428D02*
X53572914Y-44816666D01*
X53572914Y-44816666D02*
X53620533Y-44911904D01*
X53334819Y-43721428D02*
X53334819Y-43626190D01*
X53334819Y-43626190D02*
X53382438Y-43530952D01*
X53382438Y-43530952D02*
X53430057Y-43483333D01*
X53430057Y-43483333D02*
X53525295Y-43435714D01*
X53525295Y-43435714D02*
X53715771Y-43388095D01*
X53715771Y-43388095D02*
X53953866Y-43388095D01*
X53953866Y-43388095D02*
X54144342Y-43435714D01*
X54144342Y-43435714D02*
X54239580Y-43483333D01*
X54239580Y-43483333D02*
X54287200Y-43530952D01*
X54287200Y-43530952D02*
X54334819Y-43626190D01*
X54334819Y-43626190D02*
X54334819Y-43721428D01*
X54334819Y-43721428D02*
X54287200Y-43816666D01*
X54287200Y-43816666D02*
X54239580Y-43864285D01*
X54239580Y-43864285D02*
X54144342Y-43911904D01*
X54144342Y-43911904D02*
X53953866Y-43959523D01*
X53953866Y-43959523D02*
X53715771Y-43959523D01*
X53715771Y-43959523D02*
X53525295Y-43911904D01*
X53525295Y-43911904D02*
X53430057Y-43864285D01*
X53430057Y-43864285D02*
X53382438Y-43816666D01*
X53382438Y-43816666D02*
X53334819Y-43721428D01*
X50634819Y-44816666D02*
X50158628Y-45149999D01*
X50634819Y-45388094D02*
X49634819Y-45388094D01*
X49634819Y-45388094D02*
X49634819Y-45007142D01*
X49634819Y-45007142D02*
X49682438Y-44911904D01*
X49682438Y-44911904D02*
X49730057Y-44864285D01*
X49730057Y-44864285D02*
X49825295Y-44816666D01*
X49825295Y-44816666D02*
X49968152Y-44816666D01*
X49968152Y-44816666D02*
X50063390Y-44864285D01*
X50063390Y-44864285D02*
X50111009Y-44911904D01*
X50111009Y-44911904D02*
X50158628Y-45007142D01*
X50158628Y-45007142D02*
X50158628Y-45388094D01*
X50634819Y-44340475D02*
X50634819Y-44149999D01*
X50634819Y-44149999D02*
X50587200Y-44054761D01*
X50587200Y-44054761D02*
X50539580Y-44007142D01*
X50539580Y-44007142D02*
X50396723Y-43911904D01*
X50396723Y-43911904D02*
X50206247Y-43864285D01*
X50206247Y-43864285D02*
X49825295Y-43864285D01*
X49825295Y-43864285D02*
X49730057Y-43911904D01*
X49730057Y-43911904D02*
X49682438Y-43959523D01*
X49682438Y-43959523D02*
X49634819Y-44054761D01*
X49634819Y-44054761D02*
X49634819Y-44245237D01*
X49634819Y-44245237D02*
X49682438Y-44340475D01*
X49682438Y-44340475D02*
X49730057Y-44388094D01*
X49730057Y-44388094D02*
X49825295Y-44435713D01*
X49825295Y-44435713D02*
X50063390Y-44435713D01*
X50063390Y-44435713D02*
X50158628Y-44388094D01*
X50158628Y-44388094D02*
X50206247Y-44340475D01*
X50206247Y-44340475D02*
X50253866Y-44245237D01*
X50253866Y-44245237D02*
X50253866Y-44054761D01*
X50253866Y-44054761D02*
X50206247Y-43959523D01*
X50206247Y-43959523D02*
X50158628Y-43911904D01*
X50158628Y-43911904D02*
X50063390Y-43864285D01*
X120157142Y-98134819D02*
X119823809Y-97658628D01*
X119585714Y-98134819D02*
X119585714Y-97134819D01*
X119585714Y-97134819D02*
X119966666Y-97134819D01*
X119966666Y-97134819D02*
X120061904Y-97182438D01*
X120061904Y-97182438D02*
X120109523Y-97230057D01*
X120109523Y-97230057D02*
X120157142Y-97325295D01*
X120157142Y-97325295D02*
X120157142Y-97468152D01*
X120157142Y-97468152D02*
X120109523Y-97563390D01*
X120109523Y-97563390D02*
X120061904Y-97611009D01*
X120061904Y-97611009D02*
X119966666Y-97658628D01*
X119966666Y-97658628D02*
X119585714Y-97658628D01*
X120538095Y-97230057D02*
X120585714Y-97182438D01*
X120585714Y-97182438D02*
X120680952Y-97134819D01*
X120680952Y-97134819D02*
X120919047Y-97134819D01*
X120919047Y-97134819D02*
X121014285Y-97182438D01*
X121014285Y-97182438D02*
X121061904Y-97230057D01*
X121061904Y-97230057D02*
X121109523Y-97325295D01*
X121109523Y-97325295D02*
X121109523Y-97420533D01*
X121109523Y-97420533D02*
X121061904Y-97563390D01*
X121061904Y-97563390D02*
X120490476Y-98134819D01*
X120490476Y-98134819D02*
X121109523Y-98134819D01*
X121442857Y-97134819D02*
X122109523Y-97134819D01*
X122109523Y-97134819D02*
X121680952Y-98134819D01*
X133248207Y-14954819D02*
X132914874Y-14478628D01*
X132676779Y-14954819D02*
X132676779Y-13954819D01*
X132676779Y-13954819D02*
X133057731Y-13954819D01*
X133057731Y-13954819D02*
X133152969Y-14002438D01*
X133152969Y-14002438D02*
X133200588Y-14050057D01*
X133200588Y-14050057D02*
X133248207Y-14145295D01*
X133248207Y-14145295D02*
X133248207Y-14288152D01*
X133248207Y-14288152D02*
X133200588Y-14383390D01*
X133200588Y-14383390D02*
X133152969Y-14431009D01*
X133152969Y-14431009D02*
X133057731Y-14478628D01*
X133057731Y-14478628D02*
X132676779Y-14478628D01*
X133533922Y-13954819D02*
X133867255Y-14954819D01*
X133867255Y-14954819D02*
X134200588Y-13954819D01*
X135057731Y-14954819D02*
X134486303Y-14954819D01*
X134772017Y-14954819D02*
X134772017Y-13954819D01*
X134772017Y-13954819D02*
X134676779Y-14097676D01*
X134676779Y-14097676D02*
X134581541Y-14192914D01*
X134581541Y-14192914D02*
X134486303Y-14240533D01*
X116690476Y-120032200D02*
X116833333Y-120079819D01*
X116833333Y-120079819D02*
X117071428Y-120079819D01*
X117071428Y-120079819D02*
X117166666Y-120032200D01*
X117166666Y-120032200D02*
X117214285Y-119984580D01*
X117214285Y-119984580D02*
X117261904Y-119889342D01*
X117261904Y-119889342D02*
X117261904Y-119794104D01*
X117261904Y-119794104D02*
X117214285Y-119698866D01*
X117214285Y-119698866D02*
X117166666Y-119651247D01*
X117166666Y-119651247D02*
X117071428Y-119603628D01*
X117071428Y-119603628D02*
X116880952Y-119556009D01*
X116880952Y-119556009D02*
X116785714Y-119508390D01*
X116785714Y-119508390D02*
X116738095Y-119460771D01*
X116738095Y-119460771D02*
X116690476Y-119365533D01*
X116690476Y-119365533D02*
X116690476Y-119270295D01*
X116690476Y-119270295D02*
X116738095Y-119175057D01*
X116738095Y-119175057D02*
X116785714Y-119127438D01*
X116785714Y-119127438D02*
X116880952Y-119079819D01*
X116880952Y-119079819D02*
X117119047Y-119079819D01*
X117119047Y-119079819D02*
X117261904Y-119127438D01*
X117595238Y-119079819D02*
X117833333Y-120079819D01*
X117833333Y-120079819D02*
X118023809Y-119365533D01*
X118023809Y-119365533D02*
X118214285Y-120079819D01*
X118214285Y-120079819D02*
X118452381Y-119079819D01*
X119357142Y-120079819D02*
X118785714Y-120079819D01*
X119071428Y-120079819D02*
X119071428Y-119079819D01*
X119071428Y-119079819D02*
X118976190Y-119222676D01*
X118976190Y-119222676D02*
X118880952Y-119317914D01*
X118880952Y-119317914D02*
X118785714Y-119365533D01*
X119976190Y-119079819D02*
X120071428Y-119079819D01*
X120071428Y-119079819D02*
X120166666Y-119127438D01*
X120166666Y-119127438D02*
X120214285Y-119175057D01*
X120214285Y-119175057D02*
X120261904Y-119270295D01*
X120261904Y-119270295D02*
X120309523Y-119460771D01*
X120309523Y-119460771D02*
X120309523Y-119698866D01*
X120309523Y-119698866D02*
X120261904Y-119889342D01*
X120261904Y-119889342D02*
X120214285Y-119984580D01*
X120214285Y-119984580D02*
X120166666Y-120032200D01*
X120166666Y-120032200D02*
X120071428Y-120079819D01*
X120071428Y-120079819D02*
X119976190Y-120079819D01*
X119976190Y-120079819D02*
X119880952Y-120032200D01*
X119880952Y-120032200D02*
X119833333Y-119984580D01*
X119833333Y-119984580D02*
X119785714Y-119889342D01*
X119785714Y-119889342D02*
X119738095Y-119698866D01*
X119738095Y-119698866D02*
X119738095Y-119460771D01*
X119738095Y-119460771D02*
X119785714Y-119270295D01*
X119785714Y-119270295D02*
X119833333Y-119175057D01*
X119833333Y-119175057D02*
X119880952Y-119127438D01*
X119880952Y-119127438D02*
X119976190Y-119079819D01*
X133615053Y-76607381D02*
X133280292Y-76129151D01*
X133041177Y-76607381D02*
X133041177Y-75603098D01*
X133041177Y-75603098D02*
X133423761Y-75603098D01*
X133423761Y-75603098D02*
X133519407Y-75650921D01*
X133519407Y-75650921D02*
X133567230Y-75698744D01*
X133567230Y-75698744D02*
X133615053Y-75794390D01*
X133615053Y-75794390D02*
X133615053Y-75937859D01*
X133615053Y-75937859D02*
X133567230Y-76033505D01*
X133567230Y-76033505D02*
X133519407Y-76081328D01*
X133519407Y-76081328D02*
X133423761Y-76129151D01*
X133423761Y-76129151D02*
X133041177Y-76129151D01*
X133901991Y-75603098D02*
X134236752Y-76607381D01*
X134236752Y-76607381D02*
X134571513Y-75603098D01*
X134810628Y-75603098D02*
X135432327Y-75603098D01*
X135432327Y-75603098D02*
X135097566Y-75985682D01*
X135097566Y-75985682D02*
X135241035Y-75985682D01*
X135241035Y-75985682D02*
X135336681Y-76033505D01*
X135336681Y-76033505D02*
X135384504Y-76081328D01*
X135384504Y-76081328D02*
X135432327Y-76176974D01*
X135432327Y-76176974D02*
X135432327Y-76416089D01*
X135432327Y-76416089D02*
X135384504Y-76511735D01*
X135384504Y-76511735D02*
X135336681Y-76559558D01*
X135336681Y-76559558D02*
X135241035Y-76607381D01*
X135241035Y-76607381D02*
X134954097Y-76607381D01*
X134954097Y-76607381D02*
X134858451Y-76559558D01*
X134858451Y-76559558D02*
X134810628Y-76511735D01*
X117166667Y-102782200D02*
X117309524Y-102829819D01*
X117309524Y-102829819D02*
X117547619Y-102829819D01*
X117547619Y-102829819D02*
X117642857Y-102782200D01*
X117642857Y-102782200D02*
X117690476Y-102734580D01*
X117690476Y-102734580D02*
X117738095Y-102639342D01*
X117738095Y-102639342D02*
X117738095Y-102544104D01*
X117738095Y-102544104D02*
X117690476Y-102448866D01*
X117690476Y-102448866D02*
X117642857Y-102401247D01*
X117642857Y-102401247D02*
X117547619Y-102353628D01*
X117547619Y-102353628D02*
X117357143Y-102306009D01*
X117357143Y-102306009D02*
X117261905Y-102258390D01*
X117261905Y-102258390D02*
X117214286Y-102210771D01*
X117214286Y-102210771D02*
X117166667Y-102115533D01*
X117166667Y-102115533D02*
X117166667Y-102020295D01*
X117166667Y-102020295D02*
X117214286Y-101925057D01*
X117214286Y-101925057D02*
X117261905Y-101877438D01*
X117261905Y-101877438D02*
X117357143Y-101829819D01*
X117357143Y-101829819D02*
X117595238Y-101829819D01*
X117595238Y-101829819D02*
X117738095Y-101877438D01*
X118071429Y-101829819D02*
X118309524Y-102829819D01*
X118309524Y-102829819D02*
X118500000Y-102115533D01*
X118500000Y-102115533D02*
X118690476Y-102829819D01*
X118690476Y-102829819D02*
X118928572Y-101829819D01*
X119357143Y-102829819D02*
X119547619Y-102829819D01*
X119547619Y-102829819D02*
X119642857Y-102782200D01*
X119642857Y-102782200D02*
X119690476Y-102734580D01*
X119690476Y-102734580D02*
X119785714Y-102591723D01*
X119785714Y-102591723D02*
X119833333Y-102401247D01*
X119833333Y-102401247D02*
X119833333Y-102020295D01*
X119833333Y-102020295D02*
X119785714Y-101925057D01*
X119785714Y-101925057D02*
X119738095Y-101877438D01*
X119738095Y-101877438D02*
X119642857Y-101829819D01*
X119642857Y-101829819D02*
X119452381Y-101829819D01*
X119452381Y-101829819D02*
X119357143Y-101877438D01*
X119357143Y-101877438D02*
X119309524Y-101925057D01*
X119309524Y-101925057D02*
X119261905Y-102020295D01*
X119261905Y-102020295D02*
X119261905Y-102258390D01*
X119261905Y-102258390D02*
X119309524Y-102353628D01*
X119309524Y-102353628D02*
X119357143Y-102401247D01*
X119357143Y-102401247D02*
X119452381Y-102448866D01*
X119452381Y-102448866D02*
X119642857Y-102448866D01*
X119642857Y-102448866D02*
X119738095Y-102401247D01*
X119738095Y-102401247D02*
X119785714Y-102353628D01*
X119785714Y-102353628D02*
X119833333Y-102258390D01*
X117166667Y-61657200D02*
X117309524Y-61704819D01*
X117309524Y-61704819D02*
X117547619Y-61704819D01*
X117547619Y-61704819D02*
X117642857Y-61657200D01*
X117642857Y-61657200D02*
X117690476Y-61609580D01*
X117690476Y-61609580D02*
X117738095Y-61514342D01*
X117738095Y-61514342D02*
X117738095Y-61419104D01*
X117738095Y-61419104D02*
X117690476Y-61323866D01*
X117690476Y-61323866D02*
X117642857Y-61276247D01*
X117642857Y-61276247D02*
X117547619Y-61228628D01*
X117547619Y-61228628D02*
X117357143Y-61181009D01*
X117357143Y-61181009D02*
X117261905Y-61133390D01*
X117261905Y-61133390D02*
X117214286Y-61085771D01*
X117214286Y-61085771D02*
X117166667Y-60990533D01*
X117166667Y-60990533D02*
X117166667Y-60895295D01*
X117166667Y-60895295D02*
X117214286Y-60800057D01*
X117214286Y-60800057D02*
X117261905Y-60752438D01*
X117261905Y-60752438D02*
X117357143Y-60704819D01*
X117357143Y-60704819D02*
X117595238Y-60704819D01*
X117595238Y-60704819D02*
X117738095Y-60752438D01*
X118071429Y-60704819D02*
X118309524Y-61704819D01*
X118309524Y-61704819D02*
X118500000Y-60990533D01*
X118500000Y-60990533D02*
X118690476Y-61704819D01*
X118690476Y-61704819D02*
X118928572Y-60704819D01*
X119214286Y-60704819D02*
X119880952Y-60704819D01*
X119880952Y-60704819D02*
X119452381Y-61704819D01*
X132928095Y-134024819D02*
X132928095Y-134834342D01*
X132928095Y-134834342D02*
X132975714Y-134929580D01*
X132975714Y-134929580D02*
X133023333Y-134977200D01*
X133023333Y-134977200D02*
X133118571Y-135024819D01*
X133118571Y-135024819D02*
X133309047Y-135024819D01*
X133309047Y-135024819D02*
X133404285Y-134977200D01*
X133404285Y-134977200D02*
X133451904Y-134929580D01*
X133451904Y-134929580D02*
X133499523Y-134834342D01*
X133499523Y-134834342D02*
X133499523Y-134024819D01*
X133880476Y-134024819D02*
X134499523Y-134024819D01*
X134499523Y-134024819D02*
X134166190Y-134405771D01*
X134166190Y-134405771D02*
X134309047Y-134405771D01*
X134309047Y-134405771D02*
X134404285Y-134453390D01*
X134404285Y-134453390D02*
X134451904Y-134501009D01*
X134451904Y-134501009D02*
X134499523Y-134596247D01*
X134499523Y-134596247D02*
X134499523Y-134834342D01*
X134499523Y-134834342D02*
X134451904Y-134929580D01*
X134451904Y-134929580D02*
X134404285Y-134977200D01*
X134404285Y-134977200D02*
X134309047Y-135024819D01*
X134309047Y-135024819D02*
X134023333Y-135024819D01*
X134023333Y-135024819D02*
X133928095Y-134977200D01*
X133928095Y-134977200D02*
X133880476Y-134929580D01*
X130923333Y-84404819D02*
X130447143Y-84404819D01*
X130447143Y-84404819D02*
X130447143Y-83404819D01*
X131161429Y-83404819D02*
X131780476Y-83404819D01*
X131780476Y-83404819D02*
X131447143Y-83785771D01*
X131447143Y-83785771D02*
X131590000Y-83785771D01*
X131590000Y-83785771D02*
X131685238Y-83833390D01*
X131685238Y-83833390D02*
X131732857Y-83881009D01*
X131732857Y-83881009D02*
X131780476Y-83976247D01*
X131780476Y-83976247D02*
X131780476Y-84214342D01*
X131780476Y-84214342D02*
X131732857Y-84309580D01*
X131732857Y-84309580D02*
X131685238Y-84357200D01*
X131685238Y-84357200D02*
X131590000Y-84404819D01*
X131590000Y-84404819D02*
X131304286Y-84404819D01*
X131304286Y-84404819D02*
X131209048Y-84357200D01*
X131209048Y-84357200D02*
X131161429Y-84309580D01*
X99666667Y-67157200D02*
X99809524Y-67204819D01*
X99809524Y-67204819D02*
X100047619Y-67204819D01*
X100047619Y-67204819D02*
X100142857Y-67157200D01*
X100142857Y-67157200D02*
X100190476Y-67109580D01*
X100190476Y-67109580D02*
X100238095Y-67014342D01*
X100238095Y-67014342D02*
X100238095Y-66919104D01*
X100238095Y-66919104D02*
X100190476Y-66823866D01*
X100190476Y-66823866D02*
X100142857Y-66776247D01*
X100142857Y-66776247D02*
X100047619Y-66728628D01*
X100047619Y-66728628D02*
X99857143Y-66681009D01*
X99857143Y-66681009D02*
X99761905Y-66633390D01*
X99761905Y-66633390D02*
X99714286Y-66585771D01*
X99714286Y-66585771D02*
X99666667Y-66490533D01*
X99666667Y-66490533D02*
X99666667Y-66395295D01*
X99666667Y-66395295D02*
X99714286Y-66300057D01*
X99714286Y-66300057D02*
X99761905Y-66252438D01*
X99761905Y-66252438D02*
X99857143Y-66204819D01*
X99857143Y-66204819D02*
X100095238Y-66204819D01*
X100095238Y-66204819D02*
X100238095Y-66252438D01*
X100571429Y-66204819D02*
X100809524Y-67204819D01*
X100809524Y-67204819D02*
X101000000Y-66490533D01*
X101000000Y-66490533D02*
X101190476Y-67204819D01*
X101190476Y-67204819D02*
X101428572Y-66204819D01*
X101761905Y-66300057D02*
X101809524Y-66252438D01*
X101809524Y-66252438D02*
X101904762Y-66204819D01*
X101904762Y-66204819D02*
X102142857Y-66204819D01*
X102142857Y-66204819D02*
X102238095Y-66252438D01*
X102238095Y-66252438D02*
X102285714Y-66300057D01*
X102285714Y-66300057D02*
X102333333Y-66395295D01*
X102333333Y-66395295D02*
X102333333Y-66490533D01*
X102333333Y-66490533D02*
X102285714Y-66633390D01*
X102285714Y-66633390D02*
X101714286Y-67204819D01*
X101714286Y-67204819D02*
X102333333Y-67204819D01*
X55274819Y-27166666D02*
X54798628Y-27499999D01*
X55274819Y-27738094D02*
X54274819Y-27738094D01*
X54274819Y-27738094D02*
X54274819Y-27357142D01*
X54274819Y-27357142D02*
X54322438Y-27261904D01*
X54322438Y-27261904D02*
X54370057Y-27214285D01*
X54370057Y-27214285D02*
X54465295Y-27166666D01*
X54465295Y-27166666D02*
X54608152Y-27166666D01*
X54608152Y-27166666D02*
X54703390Y-27214285D01*
X54703390Y-27214285D02*
X54751009Y-27261904D01*
X54751009Y-27261904D02*
X54798628Y-27357142D01*
X54798628Y-27357142D02*
X54798628Y-27738094D01*
X55274819Y-26214285D02*
X55274819Y-26785713D01*
X55274819Y-26499999D02*
X54274819Y-26499999D01*
X54274819Y-26499999D02*
X54417676Y-26595237D01*
X54417676Y-26595237D02*
X54512914Y-26690475D01*
X54512914Y-26690475D02*
X54560533Y-26785713D01*
X120157142Y-45634819D02*
X119823809Y-45158628D01*
X119585714Y-45634819D02*
X119585714Y-44634819D01*
X119585714Y-44634819D02*
X119966666Y-44634819D01*
X119966666Y-44634819D02*
X120061904Y-44682438D01*
X120061904Y-44682438D02*
X120109523Y-44730057D01*
X120109523Y-44730057D02*
X120157142Y-44825295D01*
X120157142Y-44825295D02*
X120157142Y-44968152D01*
X120157142Y-44968152D02*
X120109523Y-45063390D01*
X120109523Y-45063390D02*
X120061904Y-45111009D01*
X120061904Y-45111009D02*
X119966666Y-45158628D01*
X119966666Y-45158628D02*
X119585714Y-45158628D01*
X120538095Y-44730057D02*
X120585714Y-44682438D01*
X120585714Y-44682438D02*
X120680952Y-44634819D01*
X120680952Y-44634819D02*
X120919047Y-44634819D01*
X120919047Y-44634819D02*
X121014285Y-44682438D01*
X121014285Y-44682438D02*
X121061904Y-44730057D01*
X121061904Y-44730057D02*
X121109523Y-44825295D01*
X121109523Y-44825295D02*
X121109523Y-44920533D01*
X121109523Y-44920533D02*
X121061904Y-45063390D01*
X121061904Y-45063390D02*
X120490476Y-45634819D01*
X120490476Y-45634819D02*
X121109523Y-45634819D01*
X121442857Y-44634819D02*
X122061904Y-44634819D01*
X122061904Y-44634819D02*
X121728571Y-45015771D01*
X121728571Y-45015771D02*
X121871428Y-45015771D01*
X121871428Y-45015771D02*
X121966666Y-45063390D01*
X121966666Y-45063390D02*
X122014285Y-45111009D01*
X122014285Y-45111009D02*
X122061904Y-45206247D01*
X122061904Y-45206247D02*
X122061904Y-45444342D01*
X122061904Y-45444342D02*
X122014285Y-45539580D01*
X122014285Y-45539580D02*
X121966666Y-45587200D01*
X121966666Y-45587200D02*
X121871428Y-45634819D01*
X121871428Y-45634819D02*
X121585714Y-45634819D01*
X121585714Y-45634819D02*
X121490476Y-45587200D01*
X121490476Y-45587200D02*
X121442857Y-45539580D01*
X89357142Y-120134819D02*
X89023809Y-119658628D01*
X88785714Y-120134819D02*
X88785714Y-119134819D01*
X88785714Y-119134819D02*
X89166666Y-119134819D01*
X89166666Y-119134819D02*
X89261904Y-119182438D01*
X89261904Y-119182438D02*
X89309523Y-119230057D01*
X89309523Y-119230057D02*
X89357142Y-119325295D01*
X89357142Y-119325295D02*
X89357142Y-119468152D01*
X89357142Y-119468152D02*
X89309523Y-119563390D01*
X89309523Y-119563390D02*
X89261904Y-119611009D01*
X89261904Y-119611009D02*
X89166666Y-119658628D01*
X89166666Y-119658628D02*
X88785714Y-119658628D01*
X89690476Y-119134819D02*
X90309523Y-119134819D01*
X90309523Y-119134819D02*
X89976190Y-119515771D01*
X89976190Y-119515771D02*
X90119047Y-119515771D01*
X90119047Y-119515771D02*
X90214285Y-119563390D01*
X90214285Y-119563390D02*
X90261904Y-119611009D01*
X90261904Y-119611009D02*
X90309523Y-119706247D01*
X90309523Y-119706247D02*
X90309523Y-119944342D01*
X90309523Y-119944342D02*
X90261904Y-120039580D01*
X90261904Y-120039580D02*
X90214285Y-120087200D01*
X90214285Y-120087200D02*
X90119047Y-120134819D01*
X90119047Y-120134819D02*
X89833333Y-120134819D01*
X89833333Y-120134819D02*
X89738095Y-120087200D01*
X89738095Y-120087200D02*
X89690476Y-120039580D01*
X90690476Y-119230057D02*
X90738095Y-119182438D01*
X90738095Y-119182438D02*
X90833333Y-119134819D01*
X90833333Y-119134819D02*
X91071428Y-119134819D01*
X91071428Y-119134819D02*
X91166666Y-119182438D01*
X91166666Y-119182438D02*
X91214285Y-119230057D01*
X91214285Y-119230057D02*
X91261904Y-119325295D01*
X91261904Y-119325295D02*
X91261904Y-119420533D01*
X91261904Y-119420533D02*
X91214285Y-119563390D01*
X91214285Y-119563390D02*
X90642857Y-120134819D01*
X90642857Y-120134819D02*
X91261904Y-120134819D01*
X66134819Y-27216666D02*
X65658628Y-27549999D01*
X66134819Y-27788094D02*
X65134819Y-27788094D01*
X65134819Y-27788094D02*
X65134819Y-27407142D01*
X65134819Y-27407142D02*
X65182438Y-27311904D01*
X65182438Y-27311904D02*
X65230057Y-27264285D01*
X65230057Y-27264285D02*
X65325295Y-27216666D01*
X65325295Y-27216666D02*
X65468152Y-27216666D01*
X65468152Y-27216666D02*
X65563390Y-27264285D01*
X65563390Y-27264285D02*
X65611009Y-27311904D01*
X65611009Y-27311904D02*
X65658628Y-27407142D01*
X65658628Y-27407142D02*
X65658628Y-27788094D01*
X65134819Y-26883332D02*
X65134819Y-26216666D01*
X65134819Y-26216666D02*
X66134819Y-26645237D01*
X117166667Y-49157200D02*
X117309524Y-49204819D01*
X117309524Y-49204819D02*
X117547619Y-49204819D01*
X117547619Y-49204819D02*
X117642857Y-49157200D01*
X117642857Y-49157200D02*
X117690476Y-49109580D01*
X117690476Y-49109580D02*
X117738095Y-49014342D01*
X117738095Y-49014342D02*
X117738095Y-48919104D01*
X117738095Y-48919104D02*
X117690476Y-48823866D01*
X117690476Y-48823866D02*
X117642857Y-48776247D01*
X117642857Y-48776247D02*
X117547619Y-48728628D01*
X117547619Y-48728628D02*
X117357143Y-48681009D01*
X117357143Y-48681009D02*
X117261905Y-48633390D01*
X117261905Y-48633390D02*
X117214286Y-48585771D01*
X117214286Y-48585771D02*
X117166667Y-48490533D01*
X117166667Y-48490533D02*
X117166667Y-48395295D01*
X117166667Y-48395295D02*
X117214286Y-48300057D01*
X117214286Y-48300057D02*
X117261905Y-48252438D01*
X117261905Y-48252438D02*
X117357143Y-48204819D01*
X117357143Y-48204819D02*
X117595238Y-48204819D01*
X117595238Y-48204819D02*
X117738095Y-48252438D01*
X118071429Y-48204819D02*
X118309524Y-49204819D01*
X118309524Y-49204819D02*
X118500000Y-48490533D01*
X118500000Y-48490533D02*
X118690476Y-49204819D01*
X118690476Y-49204819D02*
X118928572Y-48204819D01*
X119738095Y-48204819D02*
X119547619Y-48204819D01*
X119547619Y-48204819D02*
X119452381Y-48252438D01*
X119452381Y-48252438D02*
X119404762Y-48300057D01*
X119404762Y-48300057D02*
X119309524Y-48442914D01*
X119309524Y-48442914D02*
X119261905Y-48633390D01*
X119261905Y-48633390D02*
X119261905Y-49014342D01*
X119261905Y-49014342D02*
X119309524Y-49109580D01*
X119309524Y-49109580D02*
X119357143Y-49157200D01*
X119357143Y-49157200D02*
X119452381Y-49204819D01*
X119452381Y-49204819D02*
X119642857Y-49204819D01*
X119642857Y-49204819D02*
X119738095Y-49157200D01*
X119738095Y-49157200D02*
X119785714Y-49109580D01*
X119785714Y-49109580D02*
X119833333Y-49014342D01*
X119833333Y-49014342D02*
X119833333Y-48776247D01*
X119833333Y-48776247D02*
X119785714Y-48681009D01*
X119785714Y-48681009D02*
X119738095Y-48633390D01*
X119738095Y-48633390D02*
X119642857Y-48585771D01*
X119642857Y-48585771D02*
X119452381Y-48585771D01*
X119452381Y-48585771D02*
X119357143Y-48633390D01*
X119357143Y-48633390D02*
X119309524Y-48681009D01*
X119309524Y-48681009D02*
X119261905Y-48776247D01*
X117166667Y-74157200D02*
X117309524Y-74204819D01*
X117309524Y-74204819D02*
X117547619Y-74204819D01*
X117547619Y-74204819D02*
X117642857Y-74157200D01*
X117642857Y-74157200D02*
X117690476Y-74109580D01*
X117690476Y-74109580D02*
X117738095Y-74014342D01*
X117738095Y-74014342D02*
X117738095Y-73919104D01*
X117738095Y-73919104D02*
X117690476Y-73823866D01*
X117690476Y-73823866D02*
X117642857Y-73776247D01*
X117642857Y-73776247D02*
X117547619Y-73728628D01*
X117547619Y-73728628D02*
X117357143Y-73681009D01*
X117357143Y-73681009D02*
X117261905Y-73633390D01*
X117261905Y-73633390D02*
X117214286Y-73585771D01*
X117214286Y-73585771D02*
X117166667Y-73490533D01*
X117166667Y-73490533D02*
X117166667Y-73395295D01*
X117166667Y-73395295D02*
X117214286Y-73300057D01*
X117214286Y-73300057D02*
X117261905Y-73252438D01*
X117261905Y-73252438D02*
X117357143Y-73204819D01*
X117357143Y-73204819D02*
X117595238Y-73204819D01*
X117595238Y-73204819D02*
X117738095Y-73252438D01*
X118071429Y-73204819D02*
X118309524Y-74204819D01*
X118309524Y-74204819D02*
X118500000Y-73490533D01*
X118500000Y-73490533D02*
X118690476Y-74204819D01*
X118690476Y-74204819D02*
X118928572Y-73204819D01*
X119452381Y-73633390D02*
X119357143Y-73585771D01*
X119357143Y-73585771D02*
X119309524Y-73538152D01*
X119309524Y-73538152D02*
X119261905Y-73442914D01*
X119261905Y-73442914D02*
X119261905Y-73395295D01*
X119261905Y-73395295D02*
X119309524Y-73300057D01*
X119309524Y-73300057D02*
X119357143Y-73252438D01*
X119357143Y-73252438D02*
X119452381Y-73204819D01*
X119452381Y-73204819D02*
X119642857Y-73204819D01*
X119642857Y-73204819D02*
X119738095Y-73252438D01*
X119738095Y-73252438D02*
X119785714Y-73300057D01*
X119785714Y-73300057D02*
X119833333Y-73395295D01*
X119833333Y-73395295D02*
X119833333Y-73442914D01*
X119833333Y-73442914D02*
X119785714Y-73538152D01*
X119785714Y-73538152D02*
X119738095Y-73585771D01*
X119738095Y-73585771D02*
X119642857Y-73633390D01*
X119642857Y-73633390D02*
X119452381Y-73633390D01*
X119452381Y-73633390D02*
X119357143Y-73681009D01*
X119357143Y-73681009D02*
X119309524Y-73728628D01*
X119309524Y-73728628D02*
X119261905Y-73823866D01*
X119261905Y-73823866D02*
X119261905Y-74014342D01*
X119261905Y-74014342D02*
X119309524Y-74109580D01*
X119309524Y-74109580D02*
X119357143Y-74157200D01*
X119357143Y-74157200D02*
X119452381Y-74204819D01*
X119452381Y-74204819D02*
X119642857Y-74204819D01*
X119642857Y-74204819D02*
X119738095Y-74157200D01*
X119738095Y-74157200D02*
X119785714Y-74109580D01*
X119785714Y-74109580D02*
X119833333Y-74014342D01*
X119833333Y-74014342D02*
X119833333Y-73823866D01*
X119833333Y-73823866D02*
X119785714Y-73728628D01*
X119785714Y-73728628D02*
X119738095Y-73681009D01*
X119738095Y-73681009D02*
X119642857Y-73633390D01*
X91224819Y-18963333D02*
X91939104Y-18963333D01*
X91939104Y-18963333D02*
X92081961Y-19010952D01*
X92081961Y-19010952D02*
X92177200Y-19106190D01*
X92177200Y-19106190D02*
X92224819Y-19249047D01*
X92224819Y-19249047D02*
X92224819Y-19344285D01*
X91320057Y-18534761D02*
X91272438Y-18487142D01*
X91272438Y-18487142D02*
X91224819Y-18391904D01*
X91224819Y-18391904D02*
X91224819Y-18153809D01*
X91224819Y-18153809D02*
X91272438Y-18058571D01*
X91272438Y-18058571D02*
X91320057Y-18010952D01*
X91320057Y-18010952D02*
X91415295Y-17963333D01*
X91415295Y-17963333D02*
X91510533Y-17963333D01*
X91510533Y-17963333D02*
X91653390Y-18010952D01*
X91653390Y-18010952D02*
X92224819Y-18582380D01*
X92224819Y-18582380D02*
X92224819Y-17963333D01*
X20166666Y-132254819D02*
X19833333Y-131778628D01*
X19595238Y-132254819D02*
X19595238Y-131254819D01*
X19595238Y-131254819D02*
X19976190Y-131254819D01*
X19976190Y-131254819D02*
X20071428Y-131302438D01*
X20071428Y-131302438D02*
X20119047Y-131350057D01*
X20119047Y-131350057D02*
X20166666Y-131445295D01*
X20166666Y-131445295D02*
X20166666Y-131588152D01*
X20166666Y-131588152D02*
X20119047Y-131683390D01*
X20119047Y-131683390D02*
X20071428Y-131731009D01*
X20071428Y-131731009D02*
X19976190Y-131778628D01*
X19976190Y-131778628D02*
X19595238Y-131778628D01*
X20595238Y-131731009D02*
X20928571Y-131731009D01*
X21071428Y-132254819D02*
X20595238Y-132254819D01*
X20595238Y-132254819D02*
X20595238Y-131254819D01*
X20595238Y-131254819D02*
X21071428Y-131254819D01*
X21833333Y-131731009D02*
X21500000Y-131731009D01*
X21500000Y-132254819D02*
X21500000Y-131254819D01*
X21500000Y-131254819D02*
X21976190Y-131254819D01*
X22500000Y-131254819D02*
X22500000Y-131492914D01*
X22261905Y-131397676D02*
X22500000Y-131492914D01*
X22500000Y-131492914D02*
X22738095Y-131397676D01*
X22357143Y-131683390D02*
X22500000Y-131492914D01*
X22500000Y-131492914D02*
X22642857Y-131683390D01*
X23261905Y-131254819D02*
X23261905Y-131492914D01*
X23023810Y-131397676D02*
X23261905Y-131492914D01*
X23261905Y-131492914D02*
X23500000Y-131397676D01*
X23119048Y-131683390D02*
X23261905Y-131492914D01*
X23261905Y-131492914D02*
X23404762Y-131683390D01*
X89807142Y-61134819D02*
X89473809Y-60658628D01*
X89235714Y-61134819D02*
X89235714Y-60134819D01*
X89235714Y-60134819D02*
X89616666Y-60134819D01*
X89616666Y-60134819D02*
X89711904Y-60182438D01*
X89711904Y-60182438D02*
X89759523Y-60230057D01*
X89759523Y-60230057D02*
X89807142Y-60325295D01*
X89807142Y-60325295D02*
X89807142Y-60468152D01*
X89807142Y-60468152D02*
X89759523Y-60563390D01*
X89759523Y-60563390D02*
X89711904Y-60611009D01*
X89711904Y-60611009D02*
X89616666Y-60658628D01*
X89616666Y-60658628D02*
X89235714Y-60658628D01*
X90140476Y-60134819D02*
X90759523Y-60134819D01*
X90759523Y-60134819D02*
X90426190Y-60515771D01*
X90426190Y-60515771D02*
X90569047Y-60515771D01*
X90569047Y-60515771D02*
X90664285Y-60563390D01*
X90664285Y-60563390D02*
X90711904Y-60611009D01*
X90711904Y-60611009D02*
X90759523Y-60706247D01*
X90759523Y-60706247D02*
X90759523Y-60944342D01*
X90759523Y-60944342D02*
X90711904Y-61039580D01*
X90711904Y-61039580D02*
X90664285Y-61087200D01*
X90664285Y-61087200D02*
X90569047Y-61134819D01*
X90569047Y-61134819D02*
X90283333Y-61134819D01*
X90283333Y-61134819D02*
X90188095Y-61087200D01*
X90188095Y-61087200D02*
X90140476Y-61039580D01*
X91378571Y-60134819D02*
X91473809Y-60134819D01*
X91473809Y-60134819D02*
X91569047Y-60182438D01*
X91569047Y-60182438D02*
X91616666Y-60230057D01*
X91616666Y-60230057D02*
X91664285Y-60325295D01*
X91664285Y-60325295D02*
X91711904Y-60515771D01*
X91711904Y-60515771D02*
X91711904Y-60753866D01*
X91711904Y-60753866D02*
X91664285Y-60944342D01*
X91664285Y-60944342D02*
X91616666Y-61039580D01*
X91616666Y-61039580D02*
X91569047Y-61087200D01*
X91569047Y-61087200D02*
X91473809Y-61134819D01*
X91473809Y-61134819D02*
X91378571Y-61134819D01*
X91378571Y-61134819D02*
X91283333Y-61087200D01*
X91283333Y-61087200D02*
X91235714Y-61039580D01*
X91235714Y-61039580D02*
X91188095Y-60944342D01*
X91188095Y-60944342D02*
X91140476Y-60753866D01*
X91140476Y-60753866D02*
X91140476Y-60515771D01*
X91140476Y-60515771D02*
X91188095Y-60325295D01*
X91188095Y-60325295D02*
X91235714Y-60230057D01*
X91235714Y-60230057D02*
X91283333Y-60182438D01*
X91283333Y-60182438D02*
X91378571Y-60134819D01*
X117166667Y-36657200D02*
X117309524Y-36704819D01*
X117309524Y-36704819D02*
X117547619Y-36704819D01*
X117547619Y-36704819D02*
X117642857Y-36657200D01*
X117642857Y-36657200D02*
X117690476Y-36609580D01*
X117690476Y-36609580D02*
X117738095Y-36514342D01*
X117738095Y-36514342D02*
X117738095Y-36419104D01*
X117738095Y-36419104D02*
X117690476Y-36323866D01*
X117690476Y-36323866D02*
X117642857Y-36276247D01*
X117642857Y-36276247D02*
X117547619Y-36228628D01*
X117547619Y-36228628D02*
X117357143Y-36181009D01*
X117357143Y-36181009D02*
X117261905Y-36133390D01*
X117261905Y-36133390D02*
X117214286Y-36085771D01*
X117214286Y-36085771D02*
X117166667Y-35990533D01*
X117166667Y-35990533D02*
X117166667Y-35895295D01*
X117166667Y-35895295D02*
X117214286Y-35800057D01*
X117214286Y-35800057D02*
X117261905Y-35752438D01*
X117261905Y-35752438D02*
X117357143Y-35704819D01*
X117357143Y-35704819D02*
X117595238Y-35704819D01*
X117595238Y-35704819D02*
X117738095Y-35752438D01*
X118071429Y-35704819D02*
X118309524Y-36704819D01*
X118309524Y-36704819D02*
X118500000Y-35990533D01*
X118500000Y-35990533D02*
X118690476Y-36704819D01*
X118690476Y-36704819D02*
X118928572Y-35704819D01*
X119785714Y-35704819D02*
X119309524Y-35704819D01*
X119309524Y-35704819D02*
X119261905Y-36181009D01*
X119261905Y-36181009D02*
X119309524Y-36133390D01*
X119309524Y-36133390D02*
X119404762Y-36085771D01*
X119404762Y-36085771D02*
X119642857Y-36085771D01*
X119642857Y-36085771D02*
X119738095Y-36133390D01*
X119738095Y-36133390D02*
X119785714Y-36181009D01*
X119785714Y-36181009D02*
X119833333Y-36276247D01*
X119833333Y-36276247D02*
X119833333Y-36514342D01*
X119833333Y-36514342D02*
X119785714Y-36609580D01*
X119785714Y-36609580D02*
X119738095Y-36657200D01*
X119738095Y-36657200D02*
X119642857Y-36704819D01*
X119642857Y-36704819D02*
X119404762Y-36704819D01*
X119404762Y-36704819D02*
X119309524Y-36657200D01*
X119309524Y-36657200D02*
X119261905Y-36609580D01*
X141045180Y-55738095D02*
X140235657Y-55738095D01*
X140235657Y-55738095D02*
X140140419Y-55785714D01*
X140140419Y-55785714D02*
X140092800Y-55833333D01*
X140092800Y-55833333D02*
X140045180Y-55928571D01*
X140045180Y-55928571D02*
X140045180Y-56119047D01*
X140045180Y-56119047D02*
X140092800Y-56214285D01*
X140092800Y-56214285D02*
X140140419Y-56261904D01*
X140140419Y-56261904D02*
X140235657Y-56309523D01*
X140235657Y-56309523D02*
X141045180Y-56309523D01*
X140045180Y-57309523D02*
X140045180Y-56738095D01*
X140045180Y-57023809D02*
X141045180Y-57023809D01*
X141045180Y-57023809D02*
X140902323Y-56928571D01*
X140902323Y-56928571D02*
X140807085Y-56833333D01*
X140807085Y-56833333D02*
X140759466Y-56738095D01*
X63134819Y-27216666D02*
X62658628Y-27549999D01*
X63134819Y-27788094D02*
X62134819Y-27788094D01*
X62134819Y-27788094D02*
X62134819Y-27407142D01*
X62134819Y-27407142D02*
X62182438Y-27311904D01*
X62182438Y-27311904D02*
X62230057Y-27264285D01*
X62230057Y-27264285D02*
X62325295Y-27216666D01*
X62325295Y-27216666D02*
X62468152Y-27216666D01*
X62468152Y-27216666D02*
X62563390Y-27264285D01*
X62563390Y-27264285D02*
X62611009Y-27311904D01*
X62611009Y-27311904D02*
X62658628Y-27407142D01*
X62658628Y-27407142D02*
X62658628Y-27788094D01*
X62563390Y-26645237D02*
X62515771Y-26740475D01*
X62515771Y-26740475D02*
X62468152Y-26788094D01*
X62468152Y-26788094D02*
X62372914Y-26835713D01*
X62372914Y-26835713D02*
X62325295Y-26835713D01*
X62325295Y-26835713D02*
X62230057Y-26788094D01*
X62230057Y-26788094D02*
X62182438Y-26740475D01*
X62182438Y-26740475D02*
X62134819Y-26645237D01*
X62134819Y-26645237D02*
X62134819Y-26454761D01*
X62134819Y-26454761D02*
X62182438Y-26359523D01*
X62182438Y-26359523D02*
X62230057Y-26311904D01*
X62230057Y-26311904D02*
X62325295Y-26264285D01*
X62325295Y-26264285D02*
X62372914Y-26264285D01*
X62372914Y-26264285D02*
X62468152Y-26311904D01*
X62468152Y-26311904D02*
X62515771Y-26359523D01*
X62515771Y-26359523D02*
X62563390Y-26454761D01*
X62563390Y-26454761D02*
X62563390Y-26645237D01*
X62563390Y-26645237D02*
X62611009Y-26740475D01*
X62611009Y-26740475D02*
X62658628Y-26788094D01*
X62658628Y-26788094D02*
X62753866Y-26835713D01*
X62753866Y-26835713D02*
X62944342Y-26835713D01*
X62944342Y-26835713D02*
X63039580Y-26788094D01*
X63039580Y-26788094D02*
X63087200Y-26740475D01*
X63087200Y-26740475D02*
X63134819Y-26645237D01*
X63134819Y-26645237D02*
X63134819Y-26454761D01*
X63134819Y-26454761D02*
X63087200Y-26359523D01*
X63087200Y-26359523D02*
X63039580Y-26311904D01*
X63039580Y-26311904D02*
X62944342Y-26264285D01*
X62944342Y-26264285D02*
X62753866Y-26264285D01*
X62753866Y-26264285D02*
X62658628Y-26311904D01*
X62658628Y-26311904D02*
X62611009Y-26359523D01*
X62611009Y-26359523D02*
X62563390Y-26454761D01*
X58324819Y-27166666D02*
X57848628Y-27499999D01*
X58324819Y-27738094D02*
X57324819Y-27738094D01*
X57324819Y-27738094D02*
X57324819Y-27357142D01*
X57324819Y-27357142D02*
X57372438Y-27261904D01*
X57372438Y-27261904D02*
X57420057Y-27214285D01*
X57420057Y-27214285D02*
X57515295Y-27166666D01*
X57515295Y-27166666D02*
X57658152Y-27166666D01*
X57658152Y-27166666D02*
X57753390Y-27214285D01*
X57753390Y-27214285D02*
X57801009Y-27261904D01*
X57801009Y-27261904D02*
X57848628Y-27357142D01*
X57848628Y-27357142D02*
X57848628Y-27738094D01*
X57420057Y-26785713D02*
X57372438Y-26738094D01*
X57372438Y-26738094D02*
X57324819Y-26642856D01*
X57324819Y-26642856D02*
X57324819Y-26404761D01*
X57324819Y-26404761D02*
X57372438Y-26309523D01*
X57372438Y-26309523D02*
X57420057Y-26261904D01*
X57420057Y-26261904D02*
X57515295Y-26214285D01*
X57515295Y-26214285D02*
X57610533Y-26214285D01*
X57610533Y-26214285D02*
X57753390Y-26261904D01*
X57753390Y-26261904D02*
X58324819Y-26833332D01*
X58324819Y-26833332D02*
X58324819Y-26214285D01*
X97166666Y-15544819D02*
X97166666Y-16259104D01*
X97166666Y-16259104D02*
X97119047Y-16401961D01*
X97119047Y-16401961D02*
X97023809Y-16497200D01*
X97023809Y-16497200D02*
X96880952Y-16544819D01*
X96880952Y-16544819D02*
X96785714Y-16544819D01*
X98071428Y-15544819D02*
X97880952Y-15544819D01*
X97880952Y-15544819D02*
X97785714Y-15592438D01*
X97785714Y-15592438D02*
X97738095Y-15640057D01*
X97738095Y-15640057D02*
X97642857Y-15782914D01*
X97642857Y-15782914D02*
X97595238Y-15973390D01*
X97595238Y-15973390D02*
X97595238Y-16354342D01*
X97595238Y-16354342D02*
X97642857Y-16449580D01*
X97642857Y-16449580D02*
X97690476Y-16497200D01*
X97690476Y-16497200D02*
X97785714Y-16544819D01*
X97785714Y-16544819D02*
X97976190Y-16544819D01*
X97976190Y-16544819D02*
X98071428Y-16497200D01*
X98071428Y-16497200D02*
X98119047Y-16449580D01*
X98119047Y-16449580D02*
X98166666Y-16354342D01*
X98166666Y-16354342D02*
X98166666Y-16116247D01*
X98166666Y-16116247D02*
X98119047Y-16021009D01*
X98119047Y-16021009D02*
X98071428Y-15973390D01*
X98071428Y-15973390D02*
X97976190Y-15925771D01*
X97976190Y-15925771D02*
X97785714Y-15925771D01*
X97785714Y-15925771D02*
X97690476Y-15973390D01*
X97690476Y-15973390D02*
X97642857Y-16021009D01*
X97642857Y-16021009D02*
X97595238Y-16116247D01*
X99666667Y-120032200D02*
X99809524Y-120079819D01*
X99809524Y-120079819D02*
X100047619Y-120079819D01*
X100047619Y-120079819D02*
X100142857Y-120032200D01*
X100142857Y-120032200D02*
X100190476Y-119984580D01*
X100190476Y-119984580D02*
X100238095Y-119889342D01*
X100238095Y-119889342D02*
X100238095Y-119794104D01*
X100238095Y-119794104D02*
X100190476Y-119698866D01*
X100190476Y-119698866D02*
X100142857Y-119651247D01*
X100142857Y-119651247D02*
X100047619Y-119603628D01*
X100047619Y-119603628D02*
X99857143Y-119556009D01*
X99857143Y-119556009D02*
X99761905Y-119508390D01*
X99761905Y-119508390D02*
X99714286Y-119460771D01*
X99714286Y-119460771D02*
X99666667Y-119365533D01*
X99666667Y-119365533D02*
X99666667Y-119270295D01*
X99666667Y-119270295D02*
X99714286Y-119175057D01*
X99714286Y-119175057D02*
X99761905Y-119127438D01*
X99761905Y-119127438D02*
X99857143Y-119079819D01*
X99857143Y-119079819D02*
X100095238Y-119079819D01*
X100095238Y-119079819D02*
X100238095Y-119127438D01*
X100571429Y-119079819D02*
X100809524Y-120079819D01*
X100809524Y-120079819D02*
X101000000Y-119365533D01*
X101000000Y-119365533D02*
X101190476Y-120079819D01*
X101190476Y-120079819D02*
X101428572Y-119079819D01*
X102238095Y-119413152D02*
X102238095Y-120079819D01*
X102000000Y-119032200D02*
X101761905Y-119746485D01*
X101761905Y-119746485D02*
X102380952Y-119746485D01*
X99666667Y-102782200D02*
X99809524Y-102829819D01*
X99809524Y-102829819D02*
X100047619Y-102829819D01*
X100047619Y-102829819D02*
X100142857Y-102782200D01*
X100142857Y-102782200D02*
X100190476Y-102734580D01*
X100190476Y-102734580D02*
X100238095Y-102639342D01*
X100238095Y-102639342D02*
X100238095Y-102544104D01*
X100238095Y-102544104D02*
X100190476Y-102448866D01*
X100190476Y-102448866D02*
X100142857Y-102401247D01*
X100142857Y-102401247D02*
X100047619Y-102353628D01*
X100047619Y-102353628D02*
X99857143Y-102306009D01*
X99857143Y-102306009D02*
X99761905Y-102258390D01*
X99761905Y-102258390D02*
X99714286Y-102210771D01*
X99714286Y-102210771D02*
X99666667Y-102115533D01*
X99666667Y-102115533D02*
X99666667Y-102020295D01*
X99666667Y-102020295D02*
X99714286Y-101925057D01*
X99714286Y-101925057D02*
X99761905Y-101877438D01*
X99761905Y-101877438D02*
X99857143Y-101829819D01*
X99857143Y-101829819D02*
X100095238Y-101829819D01*
X100095238Y-101829819D02*
X100238095Y-101877438D01*
X100571429Y-101829819D02*
X100809524Y-102829819D01*
X100809524Y-102829819D02*
X101000000Y-102115533D01*
X101000000Y-102115533D02*
X101190476Y-102829819D01*
X101190476Y-102829819D02*
X101428572Y-101829819D01*
X101714286Y-101829819D02*
X102333333Y-101829819D01*
X102333333Y-101829819D02*
X102000000Y-102210771D01*
X102000000Y-102210771D02*
X102142857Y-102210771D01*
X102142857Y-102210771D02*
X102238095Y-102258390D01*
X102238095Y-102258390D02*
X102285714Y-102306009D01*
X102285714Y-102306009D02*
X102333333Y-102401247D01*
X102333333Y-102401247D02*
X102333333Y-102639342D01*
X102333333Y-102639342D02*
X102285714Y-102734580D01*
X102285714Y-102734580D02*
X102238095Y-102782200D01*
X102238095Y-102782200D02*
X102142857Y-102829819D01*
X102142857Y-102829819D02*
X101857143Y-102829819D01*
X101857143Y-102829819D02*
X101761905Y-102782200D01*
X101761905Y-102782200D02*
X101714286Y-102734580D01*
X120157142Y-73774819D02*
X119823809Y-73298628D01*
X119585714Y-73774819D02*
X119585714Y-72774819D01*
X119585714Y-72774819D02*
X119966666Y-72774819D01*
X119966666Y-72774819D02*
X120061904Y-72822438D01*
X120061904Y-72822438D02*
X120109523Y-72870057D01*
X120109523Y-72870057D02*
X120157142Y-72965295D01*
X120157142Y-72965295D02*
X120157142Y-73108152D01*
X120157142Y-73108152D02*
X120109523Y-73203390D01*
X120109523Y-73203390D02*
X120061904Y-73251009D01*
X120061904Y-73251009D02*
X119966666Y-73298628D01*
X119966666Y-73298628D02*
X119585714Y-73298628D01*
X120538095Y-72870057D02*
X120585714Y-72822438D01*
X120585714Y-72822438D02*
X120680952Y-72774819D01*
X120680952Y-72774819D02*
X120919047Y-72774819D01*
X120919047Y-72774819D02*
X121014285Y-72822438D01*
X121014285Y-72822438D02*
X121061904Y-72870057D01*
X121061904Y-72870057D02*
X121109523Y-72965295D01*
X121109523Y-72965295D02*
X121109523Y-73060533D01*
X121109523Y-73060533D02*
X121061904Y-73203390D01*
X121061904Y-73203390D02*
X120490476Y-73774819D01*
X120490476Y-73774819D02*
X121109523Y-73774819D01*
X122014285Y-72774819D02*
X121538095Y-72774819D01*
X121538095Y-72774819D02*
X121490476Y-73251009D01*
X121490476Y-73251009D02*
X121538095Y-73203390D01*
X121538095Y-73203390D02*
X121633333Y-73155771D01*
X121633333Y-73155771D02*
X121871428Y-73155771D01*
X121871428Y-73155771D02*
X121966666Y-73203390D01*
X121966666Y-73203390D02*
X122014285Y-73251009D01*
X122014285Y-73251009D02*
X122061904Y-73346247D01*
X122061904Y-73346247D02*
X122061904Y-73584342D01*
X122061904Y-73584342D02*
X122014285Y-73679580D01*
X122014285Y-73679580D02*
X121966666Y-73727200D01*
X121966666Y-73727200D02*
X121871428Y-73774819D01*
X121871428Y-73774819D02*
X121633333Y-73774819D01*
X121633333Y-73774819D02*
X121538095Y-73727200D01*
X121538095Y-73727200D02*
X121490476Y-73679580D01*
X108807142Y-74234819D02*
X108473809Y-73758628D01*
X108235714Y-74234819D02*
X108235714Y-73234819D01*
X108235714Y-73234819D02*
X108616666Y-73234819D01*
X108616666Y-73234819D02*
X108711904Y-73282438D01*
X108711904Y-73282438D02*
X108759523Y-73330057D01*
X108759523Y-73330057D02*
X108807142Y-73425295D01*
X108807142Y-73425295D02*
X108807142Y-73568152D01*
X108807142Y-73568152D02*
X108759523Y-73663390D01*
X108759523Y-73663390D02*
X108711904Y-73711009D01*
X108711904Y-73711009D02*
X108616666Y-73758628D01*
X108616666Y-73758628D02*
X108235714Y-73758628D01*
X109759523Y-74234819D02*
X109188095Y-74234819D01*
X109473809Y-74234819D02*
X109473809Y-73234819D01*
X109473809Y-73234819D02*
X109378571Y-73377676D01*
X109378571Y-73377676D02*
X109283333Y-73472914D01*
X109283333Y-73472914D02*
X109188095Y-73520533D01*
X110235714Y-74234819D02*
X110426190Y-74234819D01*
X110426190Y-74234819D02*
X110521428Y-74187200D01*
X110521428Y-74187200D02*
X110569047Y-74139580D01*
X110569047Y-74139580D02*
X110664285Y-73996723D01*
X110664285Y-73996723D02*
X110711904Y-73806247D01*
X110711904Y-73806247D02*
X110711904Y-73425295D01*
X110711904Y-73425295D02*
X110664285Y-73330057D01*
X110664285Y-73330057D02*
X110616666Y-73282438D01*
X110616666Y-73282438D02*
X110521428Y-73234819D01*
X110521428Y-73234819D02*
X110330952Y-73234819D01*
X110330952Y-73234819D02*
X110235714Y-73282438D01*
X110235714Y-73282438D02*
X110188095Y-73330057D01*
X110188095Y-73330057D02*
X110140476Y-73425295D01*
X110140476Y-73425295D02*
X110140476Y-73663390D01*
X110140476Y-73663390D02*
X110188095Y-73758628D01*
X110188095Y-73758628D02*
X110235714Y-73806247D01*
X110235714Y-73806247D02*
X110330952Y-73853866D01*
X110330952Y-73853866D02*
X110521428Y-73853866D01*
X110521428Y-73853866D02*
X110616666Y-73806247D01*
X110616666Y-73806247D02*
X110664285Y-73758628D01*
X110664285Y-73758628D02*
X110711904Y-73663390D01*
X79034819Y-45292857D02*
X78558628Y-45626190D01*
X79034819Y-45864285D02*
X78034819Y-45864285D01*
X78034819Y-45864285D02*
X78034819Y-45483333D01*
X78034819Y-45483333D02*
X78082438Y-45388095D01*
X78082438Y-45388095D02*
X78130057Y-45340476D01*
X78130057Y-45340476D02*
X78225295Y-45292857D01*
X78225295Y-45292857D02*
X78368152Y-45292857D01*
X78368152Y-45292857D02*
X78463390Y-45340476D01*
X78463390Y-45340476D02*
X78511009Y-45388095D01*
X78511009Y-45388095D02*
X78558628Y-45483333D01*
X78558628Y-45483333D02*
X78558628Y-45864285D01*
X79034819Y-44340476D02*
X79034819Y-44911904D01*
X79034819Y-44626190D02*
X78034819Y-44626190D01*
X78034819Y-44626190D02*
X78177676Y-44721428D01*
X78177676Y-44721428D02*
X78272914Y-44816666D01*
X78272914Y-44816666D02*
X78320533Y-44911904D01*
X78368152Y-43483333D02*
X79034819Y-43483333D01*
X77987200Y-43721428D02*
X78701485Y-43959523D01*
X78701485Y-43959523D02*
X78701485Y-43340476D01*
X89807142Y-46634819D02*
X89473809Y-46158628D01*
X89235714Y-46634819D02*
X89235714Y-45634819D01*
X89235714Y-45634819D02*
X89616666Y-45634819D01*
X89616666Y-45634819D02*
X89711904Y-45682438D01*
X89711904Y-45682438D02*
X89759523Y-45730057D01*
X89759523Y-45730057D02*
X89807142Y-45825295D01*
X89807142Y-45825295D02*
X89807142Y-45968152D01*
X89807142Y-45968152D02*
X89759523Y-46063390D01*
X89759523Y-46063390D02*
X89711904Y-46111009D01*
X89711904Y-46111009D02*
X89616666Y-46158628D01*
X89616666Y-46158628D02*
X89235714Y-46158628D01*
X90188095Y-45730057D02*
X90235714Y-45682438D01*
X90235714Y-45682438D02*
X90330952Y-45634819D01*
X90330952Y-45634819D02*
X90569047Y-45634819D01*
X90569047Y-45634819D02*
X90664285Y-45682438D01*
X90664285Y-45682438D02*
X90711904Y-45730057D01*
X90711904Y-45730057D02*
X90759523Y-45825295D01*
X90759523Y-45825295D02*
X90759523Y-45920533D01*
X90759523Y-45920533D02*
X90711904Y-46063390D01*
X90711904Y-46063390D02*
X90140476Y-46634819D01*
X90140476Y-46634819D02*
X90759523Y-46634819D01*
X91235714Y-46634819D02*
X91426190Y-46634819D01*
X91426190Y-46634819D02*
X91521428Y-46587200D01*
X91521428Y-46587200D02*
X91569047Y-46539580D01*
X91569047Y-46539580D02*
X91664285Y-46396723D01*
X91664285Y-46396723D02*
X91711904Y-46206247D01*
X91711904Y-46206247D02*
X91711904Y-45825295D01*
X91711904Y-45825295D02*
X91664285Y-45730057D01*
X91664285Y-45730057D02*
X91616666Y-45682438D01*
X91616666Y-45682438D02*
X91521428Y-45634819D01*
X91521428Y-45634819D02*
X91330952Y-45634819D01*
X91330952Y-45634819D02*
X91235714Y-45682438D01*
X91235714Y-45682438D02*
X91188095Y-45730057D01*
X91188095Y-45730057D02*
X91140476Y-45825295D01*
X91140476Y-45825295D02*
X91140476Y-46063390D01*
X91140476Y-46063390D02*
X91188095Y-46158628D01*
X91188095Y-46158628D02*
X91235714Y-46206247D01*
X91235714Y-46206247D02*
X91330952Y-46253866D01*
X91330952Y-46253866D02*
X91521428Y-46253866D01*
X91521428Y-46253866D02*
X91616666Y-46206247D01*
X91616666Y-46206247D02*
X91664285Y-46158628D01*
X91664285Y-46158628D02*
X91711904Y-46063390D01*
X71634819Y-45292857D02*
X71158628Y-45626190D01*
X71634819Y-45864285D02*
X70634819Y-45864285D01*
X70634819Y-45864285D02*
X70634819Y-45483333D01*
X70634819Y-45483333D02*
X70682438Y-45388095D01*
X70682438Y-45388095D02*
X70730057Y-45340476D01*
X70730057Y-45340476D02*
X70825295Y-45292857D01*
X70825295Y-45292857D02*
X70968152Y-45292857D01*
X70968152Y-45292857D02*
X71063390Y-45340476D01*
X71063390Y-45340476D02*
X71111009Y-45388095D01*
X71111009Y-45388095D02*
X71158628Y-45483333D01*
X71158628Y-45483333D02*
X71158628Y-45864285D01*
X71634819Y-44340476D02*
X71634819Y-44911904D01*
X71634819Y-44626190D02*
X70634819Y-44626190D01*
X70634819Y-44626190D02*
X70777676Y-44721428D01*
X70777676Y-44721428D02*
X70872914Y-44816666D01*
X70872914Y-44816666D02*
X70920533Y-44911904D01*
X70730057Y-43959523D02*
X70682438Y-43911904D01*
X70682438Y-43911904D02*
X70634819Y-43816666D01*
X70634819Y-43816666D02*
X70634819Y-43578571D01*
X70634819Y-43578571D02*
X70682438Y-43483333D01*
X70682438Y-43483333D02*
X70730057Y-43435714D01*
X70730057Y-43435714D02*
X70825295Y-43388095D01*
X70825295Y-43388095D02*
X70920533Y-43388095D01*
X70920533Y-43388095D02*
X71063390Y-43435714D01*
X71063390Y-43435714D02*
X71634819Y-44007142D01*
X71634819Y-44007142D02*
X71634819Y-43388095D01*
X141316666Y-32151009D02*
X140983333Y-32151009D01*
X140983333Y-32674819D02*
X140983333Y-31674819D01*
X140983333Y-31674819D02*
X141459523Y-31674819D01*
X142364285Y-32674819D02*
X141792857Y-32674819D01*
X142078571Y-32674819D02*
X142078571Y-31674819D01*
X142078571Y-31674819D02*
X141983333Y-31817676D01*
X141983333Y-31817676D02*
X141888095Y-31912914D01*
X141888095Y-31912914D02*
X141792857Y-31960533D01*
X20166666Y-9254819D02*
X19833333Y-8778628D01*
X19595238Y-9254819D02*
X19595238Y-8254819D01*
X19595238Y-8254819D02*
X19976190Y-8254819D01*
X19976190Y-8254819D02*
X20071428Y-8302438D01*
X20071428Y-8302438D02*
X20119047Y-8350057D01*
X20119047Y-8350057D02*
X20166666Y-8445295D01*
X20166666Y-8445295D02*
X20166666Y-8588152D01*
X20166666Y-8588152D02*
X20119047Y-8683390D01*
X20119047Y-8683390D02*
X20071428Y-8731009D01*
X20071428Y-8731009D02*
X19976190Y-8778628D01*
X19976190Y-8778628D02*
X19595238Y-8778628D01*
X20595238Y-8731009D02*
X20928571Y-8731009D01*
X21071428Y-9254819D02*
X20595238Y-9254819D01*
X20595238Y-9254819D02*
X20595238Y-8254819D01*
X20595238Y-8254819D02*
X21071428Y-8254819D01*
X21833333Y-8731009D02*
X21500000Y-8731009D01*
X21500000Y-9254819D02*
X21500000Y-8254819D01*
X21500000Y-8254819D02*
X21976190Y-8254819D01*
X22500000Y-8254819D02*
X22500000Y-8492914D01*
X22261905Y-8397676D02*
X22500000Y-8492914D01*
X22500000Y-8492914D02*
X22738095Y-8397676D01*
X22357143Y-8683390D02*
X22500000Y-8492914D01*
X22500000Y-8492914D02*
X22642857Y-8683390D01*
X23261905Y-8254819D02*
X23261905Y-8492914D01*
X23023810Y-8397676D02*
X23261905Y-8492914D01*
X23261905Y-8492914D02*
X23500000Y-8397676D01*
X23119048Y-8683390D02*
X23261905Y-8492914D01*
X23261905Y-8492914D02*
X23404762Y-8683390D01*
X147322213Y-76956801D02*
X146987452Y-76478571D01*
X146748337Y-76956801D02*
X146748337Y-75952518D01*
X146748337Y-75952518D02*
X147130921Y-75952518D01*
X147130921Y-75952518D02*
X147226567Y-76000341D01*
X147226567Y-76000341D02*
X147274390Y-76048164D01*
X147274390Y-76048164D02*
X147322213Y-76143810D01*
X147322213Y-76143810D02*
X147322213Y-76287279D01*
X147322213Y-76287279D02*
X147274390Y-76382925D01*
X147274390Y-76382925D02*
X147226567Y-76430748D01*
X147226567Y-76430748D02*
X147130921Y-76478571D01*
X147130921Y-76478571D02*
X146748337Y-76478571D01*
X147609151Y-75952518D02*
X147943912Y-76956801D01*
X147943912Y-76956801D02*
X148278673Y-75952518D01*
X148565611Y-76048164D02*
X148613434Y-76000341D01*
X148613434Y-76000341D02*
X148709080Y-75952518D01*
X148709080Y-75952518D02*
X148948195Y-75952518D01*
X148948195Y-75952518D02*
X149043841Y-76000341D01*
X149043841Y-76000341D02*
X149091664Y-76048164D01*
X149091664Y-76048164D02*
X149139487Y-76143810D01*
X149139487Y-76143810D02*
X149139487Y-76239456D01*
X149139487Y-76239456D02*
X149091664Y-76382925D01*
X149091664Y-76382925D02*
X148517788Y-76956801D01*
X148517788Y-76956801D02*
X149139487Y-76956801D01*
X97931905Y-95494819D02*
X97931905Y-94494819D01*
X97931905Y-94494819D02*
X98170000Y-94494819D01*
X98170000Y-94494819D02*
X98312857Y-94542438D01*
X98312857Y-94542438D02*
X98408095Y-94637676D01*
X98408095Y-94637676D02*
X98455714Y-94732914D01*
X98455714Y-94732914D02*
X98503333Y-94923390D01*
X98503333Y-94923390D02*
X98503333Y-95066247D01*
X98503333Y-95066247D02*
X98455714Y-95256723D01*
X98455714Y-95256723D02*
X98408095Y-95351961D01*
X98408095Y-95351961D02*
X98312857Y-95447200D01*
X98312857Y-95447200D02*
X98170000Y-95494819D01*
X98170000Y-95494819D02*
X97931905Y-95494819D01*
X99360476Y-94828152D02*
X99360476Y-95494819D01*
X99122381Y-94447200D02*
X98884286Y-95161485D01*
X98884286Y-95161485D02*
X99503333Y-95161485D01*
X154083333Y-83959580D02*
X154035714Y-84007200D01*
X154035714Y-84007200D02*
X153892857Y-84054819D01*
X153892857Y-84054819D02*
X153797619Y-84054819D01*
X153797619Y-84054819D02*
X153654762Y-84007200D01*
X153654762Y-84007200D02*
X153559524Y-83911961D01*
X153559524Y-83911961D02*
X153511905Y-83816723D01*
X153511905Y-83816723D02*
X153464286Y-83626247D01*
X153464286Y-83626247D02*
X153464286Y-83483390D01*
X153464286Y-83483390D02*
X153511905Y-83292914D01*
X153511905Y-83292914D02*
X153559524Y-83197676D01*
X153559524Y-83197676D02*
X153654762Y-83102438D01*
X153654762Y-83102438D02*
X153797619Y-83054819D01*
X153797619Y-83054819D02*
X153892857Y-83054819D01*
X153892857Y-83054819D02*
X154035714Y-83102438D01*
X154035714Y-83102438D02*
X154083333Y-83150057D01*
X154559524Y-84054819D02*
X154750000Y-84054819D01*
X154750000Y-84054819D02*
X154845238Y-84007200D01*
X154845238Y-84007200D02*
X154892857Y-83959580D01*
X154892857Y-83959580D02*
X154988095Y-83816723D01*
X154988095Y-83816723D02*
X155035714Y-83626247D01*
X155035714Y-83626247D02*
X155035714Y-83245295D01*
X155035714Y-83245295D02*
X154988095Y-83150057D01*
X154988095Y-83150057D02*
X154940476Y-83102438D01*
X154940476Y-83102438D02*
X154845238Y-83054819D01*
X154845238Y-83054819D02*
X154654762Y-83054819D01*
X154654762Y-83054819D02*
X154559524Y-83102438D01*
X154559524Y-83102438D02*
X154511905Y-83150057D01*
X154511905Y-83150057D02*
X154464286Y-83245295D01*
X154464286Y-83245295D02*
X154464286Y-83483390D01*
X154464286Y-83483390D02*
X154511905Y-83578628D01*
X154511905Y-83578628D02*
X154559524Y-83626247D01*
X154559524Y-83626247D02*
X154654762Y-83673866D01*
X154654762Y-83673866D02*
X154845238Y-83673866D01*
X154845238Y-83673866D02*
X154940476Y-83626247D01*
X154940476Y-83626247D02*
X154988095Y-83578628D01*
X154988095Y-83578628D02*
X155035714Y-83483390D01*
X97931905Y-112744819D02*
X97931905Y-111744819D01*
X97931905Y-111744819D02*
X98170000Y-111744819D01*
X98170000Y-111744819D02*
X98312857Y-111792438D01*
X98312857Y-111792438D02*
X98408095Y-111887676D01*
X98408095Y-111887676D02*
X98455714Y-111982914D01*
X98455714Y-111982914D02*
X98503333Y-112173390D01*
X98503333Y-112173390D02*
X98503333Y-112316247D01*
X98503333Y-112316247D02*
X98455714Y-112506723D01*
X98455714Y-112506723D02*
X98408095Y-112601961D01*
X98408095Y-112601961D02*
X98312857Y-112697200D01*
X98312857Y-112697200D02*
X98170000Y-112744819D01*
X98170000Y-112744819D02*
X97931905Y-112744819D01*
X99408095Y-111744819D02*
X98931905Y-111744819D01*
X98931905Y-111744819D02*
X98884286Y-112221009D01*
X98884286Y-112221009D02*
X98931905Y-112173390D01*
X98931905Y-112173390D02*
X99027143Y-112125771D01*
X99027143Y-112125771D02*
X99265238Y-112125771D01*
X99265238Y-112125771D02*
X99360476Y-112173390D01*
X99360476Y-112173390D02*
X99408095Y-112221009D01*
X99408095Y-112221009D02*
X99455714Y-112316247D01*
X99455714Y-112316247D02*
X99455714Y-112554342D01*
X99455714Y-112554342D02*
X99408095Y-112649580D01*
X99408095Y-112649580D02*
X99360476Y-112697200D01*
X99360476Y-112697200D02*
X99265238Y-112744819D01*
X99265238Y-112744819D02*
X99027143Y-112744819D01*
X99027143Y-112744819D02*
X98931905Y-112697200D01*
X98931905Y-112697200D02*
X98884286Y-112649580D01*
X154054819Y-18133333D02*
X154769104Y-18133333D01*
X154769104Y-18133333D02*
X154911961Y-18180952D01*
X154911961Y-18180952D02*
X155007200Y-18276190D01*
X155007200Y-18276190D02*
X155054819Y-18419047D01*
X155054819Y-18419047D02*
X155054819Y-18514285D01*
X154054819Y-17752380D02*
X154054819Y-17085714D01*
X154054819Y-17085714D02*
X155054819Y-17514285D01*
X75634819Y-27216666D02*
X75158628Y-27549999D01*
X75634819Y-27788094D02*
X74634819Y-27788094D01*
X74634819Y-27788094D02*
X74634819Y-27407142D01*
X74634819Y-27407142D02*
X74682438Y-27311904D01*
X74682438Y-27311904D02*
X74730057Y-27264285D01*
X74730057Y-27264285D02*
X74825295Y-27216666D01*
X74825295Y-27216666D02*
X74968152Y-27216666D01*
X74968152Y-27216666D02*
X75063390Y-27264285D01*
X75063390Y-27264285D02*
X75111009Y-27311904D01*
X75111009Y-27311904D02*
X75158628Y-27407142D01*
X75158628Y-27407142D02*
X75158628Y-27788094D01*
X74634819Y-26311904D02*
X74634819Y-26788094D01*
X74634819Y-26788094D02*
X75111009Y-26835713D01*
X75111009Y-26835713D02*
X75063390Y-26788094D01*
X75063390Y-26788094D02*
X75015771Y-26692856D01*
X75015771Y-26692856D02*
X75015771Y-26454761D01*
X75015771Y-26454761D02*
X75063390Y-26359523D01*
X75063390Y-26359523D02*
X75111009Y-26311904D01*
X75111009Y-26311904D02*
X75206247Y-26264285D01*
X75206247Y-26264285D02*
X75444342Y-26264285D01*
X75444342Y-26264285D02*
X75539580Y-26311904D01*
X75539580Y-26311904D02*
X75587200Y-26359523D01*
X75587200Y-26359523D02*
X75634819Y-26454761D01*
X75634819Y-26454761D02*
X75634819Y-26692856D01*
X75634819Y-26692856D02*
X75587200Y-26788094D01*
X75587200Y-26788094D02*
X75539580Y-26835713D01*
X58034819Y-45292857D02*
X57558628Y-45626190D01*
X58034819Y-45864285D02*
X57034819Y-45864285D01*
X57034819Y-45864285D02*
X57034819Y-45483333D01*
X57034819Y-45483333D02*
X57082438Y-45388095D01*
X57082438Y-45388095D02*
X57130057Y-45340476D01*
X57130057Y-45340476D02*
X57225295Y-45292857D01*
X57225295Y-45292857D02*
X57368152Y-45292857D01*
X57368152Y-45292857D02*
X57463390Y-45340476D01*
X57463390Y-45340476D02*
X57511009Y-45388095D01*
X57511009Y-45388095D02*
X57558628Y-45483333D01*
X57558628Y-45483333D02*
X57558628Y-45864285D01*
X58034819Y-44340476D02*
X58034819Y-44911904D01*
X58034819Y-44626190D02*
X57034819Y-44626190D01*
X57034819Y-44626190D02*
X57177676Y-44721428D01*
X57177676Y-44721428D02*
X57272914Y-44816666D01*
X57272914Y-44816666D02*
X57320533Y-44911904D01*
X58034819Y-43388095D02*
X58034819Y-43959523D01*
X58034819Y-43673809D02*
X57034819Y-43673809D01*
X57034819Y-43673809D02*
X57177676Y-43769047D01*
X57177676Y-43769047D02*
X57272914Y-43864285D01*
X57272914Y-43864285D02*
X57320533Y-43959523D01*
X31359819Y-36178333D02*
X32074104Y-36178333D01*
X32074104Y-36178333D02*
X32216961Y-36225952D01*
X32216961Y-36225952D02*
X32312200Y-36321190D01*
X32312200Y-36321190D02*
X32359819Y-36464047D01*
X32359819Y-36464047D02*
X32359819Y-36559285D01*
X32359819Y-35178333D02*
X32359819Y-35749761D01*
X32359819Y-35464047D02*
X31359819Y-35464047D01*
X31359819Y-35464047D02*
X31502676Y-35559285D01*
X31502676Y-35559285D02*
X31597914Y-35654523D01*
X31597914Y-35654523D02*
X31645533Y-35749761D01*
X108807142Y-99634819D02*
X108473809Y-99158628D01*
X108235714Y-99634819D02*
X108235714Y-98634819D01*
X108235714Y-98634819D02*
X108616666Y-98634819D01*
X108616666Y-98634819D02*
X108711904Y-98682438D01*
X108711904Y-98682438D02*
X108759523Y-98730057D01*
X108759523Y-98730057D02*
X108807142Y-98825295D01*
X108807142Y-98825295D02*
X108807142Y-98968152D01*
X108807142Y-98968152D02*
X108759523Y-99063390D01*
X108759523Y-99063390D02*
X108711904Y-99111009D01*
X108711904Y-99111009D02*
X108616666Y-99158628D01*
X108616666Y-99158628D02*
X108235714Y-99158628D01*
X109188095Y-98730057D02*
X109235714Y-98682438D01*
X109235714Y-98682438D02*
X109330952Y-98634819D01*
X109330952Y-98634819D02*
X109569047Y-98634819D01*
X109569047Y-98634819D02*
X109664285Y-98682438D01*
X109664285Y-98682438D02*
X109711904Y-98730057D01*
X109711904Y-98730057D02*
X109759523Y-98825295D01*
X109759523Y-98825295D02*
X109759523Y-98920533D01*
X109759523Y-98920533D02*
X109711904Y-99063390D01*
X109711904Y-99063390D02*
X109140476Y-99634819D01*
X109140476Y-99634819D02*
X109759523Y-99634819D01*
X110378571Y-98634819D02*
X110473809Y-98634819D01*
X110473809Y-98634819D02*
X110569047Y-98682438D01*
X110569047Y-98682438D02*
X110616666Y-98730057D01*
X110616666Y-98730057D02*
X110664285Y-98825295D01*
X110664285Y-98825295D02*
X110711904Y-99015771D01*
X110711904Y-99015771D02*
X110711904Y-99253866D01*
X110711904Y-99253866D02*
X110664285Y-99444342D01*
X110664285Y-99444342D02*
X110616666Y-99539580D01*
X110616666Y-99539580D02*
X110569047Y-99587200D01*
X110569047Y-99587200D02*
X110473809Y-99634819D01*
X110473809Y-99634819D02*
X110378571Y-99634819D01*
X110378571Y-99634819D02*
X110283333Y-99587200D01*
X110283333Y-99587200D02*
X110235714Y-99539580D01*
X110235714Y-99539580D02*
X110188095Y-99444342D01*
X110188095Y-99444342D02*
X110140476Y-99253866D01*
X110140476Y-99253866D02*
X110140476Y-99015771D01*
X110140476Y-99015771D02*
X110188095Y-98825295D01*
X110188095Y-98825295D02*
X110235714Y-98730057D01*
X110235714Y-98730057D02*
X110283333Y-98682438D01*
X110283333Y-98682438D02*
X110378571Y-98634819D01*
X97931905Y-38494819D02*
X97931905Y-37494819D01*
X97931905Y-37494819D02*
X98170000Y-37494819D01*
X98170000Y-37494819D02*
X98312857Y-37542438D01*
X98312857Y-37542438D02*
X98408095Y-37637676D01*
X98408095Y-37637676D02*
X98455714Y-37732914D01*
X98455714Y-37732914D02*
X98503333Y-37923390D01*
X98503333Y-37923390D02*
X98503333Y-38066247D01*
X98503333Y-38066247D02*
X98455714Y-38256723D01*
X98455714Y-38256723D02*
X98408095Y-38351961D01*
X98408095Y-38351961D02*
X98312857Y-38447200D01*
X98312857Y-38447200D02*
X98170000Y-38494819D01*
X98170000Y-38494819D02*
X97931905Y-38494819D01*
X99455714Y-38494819D02*
X98884286Y-38494819D01*
X99170000Y-38494819D02*
X99170000Y-37494819D01*
X99170000Y-37494819D02*
X99074762Y-37637676D01*
X99074762Y-37637676D02*
X98979524Y-37732914D01*
X98979524Y-37732914D02*
X98884286Y-37780533D01*
X75434819Y-45292857D02*
X74958628Y-45626190D01*
X75434819Y-45864285D02*
X74434819Y-45864285D01*
X74434819Y-45864285D02*
X74434819Y-45483333D01*
X74434819Y-45483333D02*
X74482438Y-45388095D01*
X74482438Y-45388095D02*
X74530057Y-45340476D01*
X74530057Y-45340476D02*
X74625295Y-45292857D01*
X74625295Y-45292857D02*
X74768152Y-45292857D01*
X74768152Y-45292857D02*
X74863390Y-45340476D01*
X74863390Y-45340476D02*
X74911009Y-45388095D01*
X74911009Y-45388095D02*
X74958628Y-45483333D01*
X74958628Y-45483333D02*
X74958628Y-45864285D01*
X75434819Y-44340476D02*
X75434819Y-44911904D01*
X75434819Y-44626190D02*
X74434819Y-44626190D01*
X74434819Y-44626190D02*
X74577676Y-44721428D01*
X74577676Y-44721428D02*
X74672914Y-44816666D01*
X74672914Y-44816666D02*
X74720533Y-44911904D01*
X74434819Y-44007142D02*
X74434819Y-43388095D01*
X74434819Y-43388095D02*
X74815771Y-43721428D01*
X74815771Y-43721428D02*
X74815771Y-43578571D01*
X74815771Y-43578571D02*
X74863390Y-43483333D01*
X74863390Y-43483333D02*
X74911009Y-43435714D01*
X74911009Y-43435714D02*
X75006247Y-43388095D01*
X75006247Y-43388095D02*
X75244342Y-43388095D01*
X75244342Y-43388095D02*
X75339580Y-43435714D01*
X75339580Y-43435714D02*
X75387200Y-43483333D01*
X75387200Y-43483333D02*
X75434819Y-43578571D01*
X75434819Y-43578571D02*
X75434819Y-43864285D01*
X75434819Y-43864285D02*
X75387200Y-43959523D01*
X75387200Y-43959523D02*
X75339580Y-44007142D01*
X115380476Y-16987200D02*
X115523333Y-17034819D01*
X115523333Y-17034819D02*
X115761428Y-17034819D01*
X115761428Y-17034819D02*
X115856666Y-16987200D01*
X115856666Y-16987200D02*
X115904285Y-16939580D01*
X115904285Y-16939580D02*
X115951904Y-16844342D01*
X115951904Y-16844342D02*
X115951904Y-16749104D01*
X115951904Y-16749104D02*
X115904285Y-16653866D01*
X115904285Y-16653866D02*
X115856666Y-16606247D01*
X115856666Y-16606247D02*
X115761428Y-16558628D01*
X115761428Y-16558628D02*
X115570952Y-16511009D01*
X115570952Y-16511009D02*
X115475714Y-16463390D01*
X115475714Y-16463390D02*
X115428095Y-16415771D01*
X115428095Y-16415771D02*
X115380476Y-16320533D01*
X115380476Y-16320533D02*
X115380476Y-16225295D01*
X115380476Y-16225295D02*
X115428095Y-16130057D01*
X115428095Y-16130057D02*
X115475714Y-16082438D01*
X115475714Y-16082438D02*
X115570952Y-16034819D01*
X115570952Y-16034819D02*
X115809047Y-16034819D01*
X115809047Y-16034819D02*
X115951904Y-16082438D01*
X116285238Y-16034819D02*
X116523333Y-17034819D01*
X116523333Y-17034819D02*
X116713809Y-16320533D01*
X116713809Y-16320533D02*
X116904285Y-17034819D01*
X116904285Y-17034819D02*
X117142381Y-16034819D01*
X118047142Y-17034819D02*
X117475714Y-17034819D01*
X117761428Y-17034819D02*
X117761428Y-16034819D01*
X117761428Y-16034819D02*
X117666190Y-16177676D01*
X117666190Y-16177676D02*
X117570952Y-16272914D01*
X117570952Y-16272914D02*
X117475714Y-16320533D01*
X118428095Y-16130057D02*
X118475714Y-16082438D01*
X118475714Y-16082438D02*
X118570952Y-16034819D01*
X118570952Y-16034819D02*
X118809047Y-16034819D01*
X118809047Y-16034819D02*
X118904285Y-16082438D01*
X118904285Y-16082438D02*
X118951904Y-16130057D01*
X118951904Y-16130057D02*
X118999523Y-16225295D01*
X118999523Y-16225295D02*
X118999523Y-16320533D01*
X118999523Y-16320533D02*
X118951904Y-16463390D01*
X118951904Y-16463390D02*
X118380476Y-17034819D01*
X118380476Y-17034819D02*
X118999523Y-17034819D01*
X72634819Y-27216666D02*
X72158628Y-27549999D01*
X72634819Y-27788094D02*
X71634819Y-27788094D01*
X71634819Y-27788094D02*
X71634819Y-27407142D01*
X71634819Y-27407142D02*
X71682438Y-27311904D01*
X71682438Y-27311904D02*
X71730057Y-27264285D01*
X71730057Y-27264285D02*
X71825295Y-27216666D01*
X71825295Y-27216666D02*
X71968152Y-27216666D01*
X71968152Y-27216666D02*
X72063390Y-27264285D01*
X72063390Y-27264285D02*
X72111009Y-27311904D01*
X72111009Y-27311904D02*
X72158628Y-27407142D01*
X72158628Y-27407142D02*
X72158628Y-27788094D01*
X71968152Y-26359523D02*
X72634819Y-26359523D01*
X71587200Y-26597618D02*
X72301485Y-26835713D01*
X72301485Y-26835713D02*
X72301485Y-26216666D01*
X128545180Y-23333333D02*
X128545180Y-22857143D01*
X128545180Y-22857143D02*
X129545180Y-22857143D01*
X128545180Y-24190476D02*
X128545180Y-23619048D01*
X128545180Y-23904762D02*
X129545180Y-23904762D01*
X129545180Y-23904762D02*
X129402323Y-23809524D01*
X129402323Y-23809524D02*
X129307085Y-23714286D01*
X129307085Y-23714286D02*
X129259466Y-23619048D01*
X108807142Y-39634819D02*
X108473809Y-39158628D01*
X108235714Y-39634819D02*
X108235714Y-38634819D01*
X108235714Y-38634819D02*
X108616666Y-38634819D01*
X108616666Y-38634819D02*
X108711904Y-38682438D01*
X108711904Y-38682438D02*
X108759523Y-38730057D01*
X108759523Y-38730057D02*
X108807142Y-38825295D01*
X108807142Y-38825295D02*
X108807142Y-38968152D01*
X108807142Y-38968152D02*
X108759523Y-39063390D01*
X108759523Y-39063390D02*
X108711904Y-39111009D01*
X108711904Y-39111009D02*
X108616666Y-39158628D01*
X108616666Y-39158628D02*
X108235714Y-39158628D01*
X109759523Y-39634819D02*
X109188095Y-39634819D01*
X109473809Y-39634819D02*
X109473809Y-38634819D01*
X109473809Y-38634819D02*
X109378571Y-38777676D01*
X109378571Y-38777676D02*
X109283333Y-38872914D01*
X109283333Y-38872914D02*
X109188095Y-38920533D01*
X110092857Y-38634819D02*
X110759523Y-38634819D01*
X110759523Y-38634819D02*
X110330952Y-39634819D01*
X97931905Y-129994819D02*
X97931905Y-128994819D01*
X97931905Y-128994819D02*
X98170000Y-128994819D01*
X98170000Y-128994819D02*
X98312857Y-129042438D01*
X98312857Y-129042438D02*
X98408095Y-129137676D01*
X98408095Y-129137676D02*
X98455714Y-129232914D01*
X98455714Y-129232914D02*
X98503333Y-129423390D01*
X98503333Y-129423390D02*
X98503333Y-129566247D01*
X98503333Y-129566247D02*
X98455714Y-129756723D01*
X98455714Y-129756723D02*
X98408095Y-129851961D01*
X98408095Y-129851961D02*
X98312857Y-129947200D01*
X98312857Y-129947200D02*
X98170000Y-129994819D01*
X98170000Y-129994819D02*
X97931905Y-129994819D01*
X99360476Y-128994819D02*
X99170000Y-128994819D01*
X99170000Y-128994819D02*
X99074762Y-129042438D01*
X99074762Y-129042438D02*
X99027143Y-129090057D01*
X99027143Y-129090057D02*
X98931905Y-129232914D01*
X98931905Y-129232914D02*
X98884286Y-129423390D01*
X98884286Y-129423390D02*
X98884286Y-129804342D01*
X98884286Y-129804342D02*
X98931905Y-129899580D01*
X98931905Y-129899580D02*
X98979524Y-129947200D01*
X98979524Y-129947200D02*
X99074762Y-129994819D01*
X99074762Y-129994819D02*
X99265238Y-129994819D01*
X99265238Y-129994819D02*
X99360476Y-129947200D01*
X99360476Y-129947200D02*
X99408095Y-129899580D01*
X99408095Y-129899580D02*
X99455714Y-129804342D01*
X99455714Y-129804342D02*
X99455714Y-129566247D01*
X99455714Y-129566247D02*
X99408095Y-129471009D01*
X99408095Y-129471009D02*
X99360476Y-129423390D01*
X99360476Y-129423390D02*
X99265238Y-129375771D01*
X99265238Y-129375771D02*
X99074762Y-129375771D01*
X99074762Y-129375771D02*
X98979524Y-129423390D01*
X98979524Y-129423390D02*
X98931905Y-129471009D01*
X98931905Y-129471009D02*
X98884286Y-129566247D01*
X136761905Y-21954819D02*
X136761905Y-20954819D01*
X136761905Y-20954819D02*
X137000000Y-20954819D01*
X137000000Y-20954819D02*
X137142857Y-21002438D01*
X137142857Y-21002438D02*
X137238095Y-21097676D01*
X137238095Y-21097676D02*
X137285714Y-21192914D01*
X137285714Y-21192914D02*
X137333333Y-21383390D01*
X137333333Y-21383390D02*
X137333333Y-21526247D01*
X137333333Y-21526247D02*
X137285714Y-21716723D01*
X137285714Y-21716723D02*
X137238095Y-21811961D01*
X137238095Y-21811961D02*
X137142857Y-21907200D01*
X137142857Y-21907200D02*
X137000000Y-21954819D01*
X137000000Y-21954819D02*
X136761905Y-21954819D01*
X137666667Y-20954819D02*
X138333333Y-20954819D01*
X138333333Y-20954819D02*
X137904762Y-21954819D01*
X132928095Y-112864819D02*
X132928095Y-113674342D01*
X132928095Y-113674342D02*
X132975714Y-113769580D01*
X132975714Y-113769580D02*
X133023333Y-113817200D01*
X133023333Y-113817200D02*
X133118571Y-113864819D01*
X133118571Y-113864819D02*
X133309047Y-113864819D01*
X133309047Y-113864819D02*
X133404285Y-113817200D01*
X133404285Y-113817200D02*
X133451904Y-113769580D01*
X133451904Y-113769580D02*
X133499523Y-113674342D01*
X133499523Y-113674342D02*
X133499523Y-112864819D01*
X133928095Y-112960057D02*
X133975714Y-112912438D01*
X133975714Y-112912438D02*
X134070952Y-112864819D01*
X134070952Y-112864819D02*
X134309047Y-112864819D01*
X134309047Y-112864819D02*
X134404285Y-112912438D01*
X134404285Y-112912438D02*
X134451904Y-112960057D01*
X134451904Y-112960057D02*
X134499523Y-113055295D01*
X134499523Y-113055295D02*
X134499523Y-113150533D01*
X134499523Y-113150533D02*
X134451904Y-113293390D01*
X134451904Y-113293390D02*
X133880476Y-113864819D01*
X133880476Y-113864819D02*
X134499523Y-113864819D01*
X120357142Y-113634819D02*
X120023809Y-113158628D01*
X119785714Y-113634819D02*
X119785714Y-112634819D01*
X119785714Y-112634819D02*
X120166666Y-112634819D01*
X120166666Y-112634819D02*
X120261904Y-112682438D01*
X120261904Y-112682438D02*
X120309523Y-112730057D01*
X120309523Y-112730057D02*
X120357142Y-112825295D01*
X120357142Y-112825295D02*
X120357142Y-112968152D01*
X120357142Y-112968152D02*
X120309523Y-113063390D01*
X120309523Y-113063390D02*
X120261904Y-113111009D01*
X120261904Y-113111009D02*
X120166666Y-113158628D01*
X120166666Y-113158628D02*
X119785714Y-113158628D01*
X120738095Y-112730057D02*
X120785714Y-112682438D01*
X120785714Y-112682438D02*
X120880952Y-112634819D01*
X120880952Y-112634819D02*
X121119047Y-112634819D01*
X121119047Y-112634819D02*
X121214285Y-112682438D01*
X121214285Y-112682438D02*
X121261904Y-112730057D01*
X121261904Y-112730057D02*
X121309523Y-112825295D01*
X121309523Y-112825295D02*
X121309523Y-112920533D01*
X121309523Y-112920533D02*
X121261904Y-113063390D01*
X121261904Y-113063390D02*
X120690476Y-113634819D01*
X120690476Y-113634819D02*
X121309523Y-113634819D01*
X121880952Y-113063390D02*
X121785714Y-113015771D01*
X121785714Y-113015771D02*
X121738095Y-112968152D01*
X121738095Y-112968152D02*
X121690476Y-112872914D01*
X121690476Y-112872914D02*
X121690476Y-112825295D01*
X121690476Y-112825295D02*
X121738095Y-112730057D01*
X121738095Y-112730057D02*
X121785714Y-112682438D01*
X121785714Y-112682438D02*
X121880952Y-112634819D01*
X121880952Y-112634819D02*
X122071428Y-112634819D01*
X122071428Y-112634819D02*
X122166666Y-112682438D01*
X122166666Y-112682438D02*
X122214285Y-112730057D01*
X122214285Y-112730057D02*
X122261904Y-112825295D01*
X122261904Y-112825295D02*
X122261904Y-112872914D01*
X122261904Y-112872914D02*
X122214285Y-112968152D01*
X122214285Y-112968152D02*
X122166666Y-113015771D01*
X122166666Y-113015771D02*
X122071428Y-113063390D01*
X122071428Y-113063390D02*
X121880952Y-113063390D01*
X121880952Y-113063390D02*
X121785714Y-113111009D01*
X121785714Y-113111009D02*
X121738095Y-113158628D01*
X121738095Y-113158628D02*
X121690476Y-113253866D01*
X121690476Y-113253866D02*
X121690476Y-113444342D01*
X121690476Y-113444342D02*
X121738095Y-113539580D01*
X121738095Y-113539580D02*
X121785714Y-113587200D01*
X121785714Y-113587200D02*
X121880952Y-113634819D01*
X121880952Y-113634819D02*
X122071428Y-113634819D01*
X122071428Y-113634819D02*
X122166666Y-113587200D01*
X122166666Y-113587200D02*
X122214285Y-113539580D01*
X122214285Y-113539580D02*
X122261904Y-113444342D01*
X122261904Y-113444342D02*
X122261904Y-113253866D01*
X122261904Y-113253866D02*
X122214285Y-113158628D01*
X122214285Y-113158628D02*
X122166666Y-113111009D01*
X122166666Y-113111009D02*
X122071428Y-113063390D01*
X103880476Y-16987200D02*
X104023333Y-17034819D01*
X104023333Y-17034819D02*
X104261428Y-17034819D01*
X104261428Y-17034819D02*
X104356666Y-16987200D01*
X104356666Y-16987200D02*
X104404285Y-16939580D01*
X104404285Y-16939580D02*
X104451904Y-16844342D01*
X104451904Y-16844342D02*
X104451904Y-16749104D01*
X104451904Y-16749104D02*
X104404285Y-16653866D01*
X104404285Y-16653866D02*
X104356666Y-16606247D01*
X104356666Y-16606247D02*
X104261428Y-16558628D01*
X104261428Y-16558628D02*
X104070952Y-16511009D01*
X104070952Y-16511009D02*
X103975714Y-16463390D01*
X103975714Y-16463390D02*
X103928095Y-16415771D01*
X103928095Y-16415771D02*
X103880476Y-16320533D01*
X103880476Y-16320533D02*
X103880476Y-16225295D01*
X103880476Y-16225295D02*
X103928095Y-16130057D01*
X103928095Y-16130057D02*
X103975714Y-16082438D01*
X103975714Y-16082438D02*
X104070952Y-16034819D01*
X104070952Y-16034819D02*
X104309047Y-16034819D01*
X104309047Y-16034819D02*
X104451904Y-16082438D01*
X104785238Y-16034819D02*
X105023333Y-17034819D01*
X105023333Y-17034819D02*
X105213809Y-16320533D01*
X105213809Y-16320533D02*
X105404285Y-17034819D01*
X105404285Y-17034819D02*
X105642381Y-16034819D01*
X106547142Y-17034819D02*
X105975714Y-17034819D01*
X106261428Y-17034819D02*
X106261428Y-16034819D01*
X106261428Y-16034819D02*
X106166190Y-16177676D01*
X106166190Y-16177676D02*
X106070952Y-16272914D01*
X106070952Y-16272914D02*
X105975714Y-16320533D01*
X107499523Y-17034819D02*
X106928095Y-17034819D01*
X107213809Y-17034819D02*
X107213809Y-16034819D01*
X107213809Y-16034819D02*
X107118571Y-16177676D01*
X107118571Y-16177676D02*
X107023333Y-16272914D01*
X107023333Y-16272914D02*
X106928095Y-16320533D01*
X108807142Y-113784819D02*
X108473809Y-113308628D01*
X108235714Y-113784819D02*
X108235714Y-112784819D01*
X108235714Y-112784819D02*
X108616666Y-112784819D01*
X108616666Y-112784819D02*
X108711904Y-112832438D01*
X108711904Y-112832438D02*
X108759523Y-112880057D01*
X108759523Y-112880057D02*
X108807142Y-112975295D01*
X108807142Y-112975295D02*
X108807142Y-113118152D01*
X108807142Y-113118152D02*
X108759523Y-113213390D01*
X108759523Y-113213390D02*
X108711904Y-113261009D01*
X108711904Y-113261009D02*
X108616666Y-113308628D01*
X108616666Y-113308628D02*
X108235714Y-113308628D01*
X109188095Y-112880057D02*
X109235714Y-112832438D01*
X109235714Y-112832438D02*
X109330952Y-112784819D01*
X109330952Y-112784819D02*
X109569047Y-112784819D01*
X109569047Y-112784819D02*
X109664285Y-112832438D01*
X109664285Y-112832438D02*
X109711904Y-112880057D01*
X109711904Y-112880057D02*
X109759523Y-112975295D01*
X109759523Y-112975295D02*
X109759523Y-113070533D01*
X109759523Y-113070533D02*
X109711904Y-113213390D01*
X109711904Y-113213390D02*
X109140476Y-113784819D01*
X109140476Y-113784819D02*
X109759523Y-113784819D01*
X110711904Y-113784819D02*
X110140476Y-113784819D01*
X110426190Y-113784819D02*
X110426190Y-112784819D01*
X110426190Y-112784819D02*
X110330952Y-112927676D01*
X110330952Y-112927676D02*
X110235714Y-113022914D01*
X110235714Y-113022914D02*
X110140476Y-113070533D01*
X89857142Y-102634819D02*
X89523809Y-102158628D01*
X89285714Y-102634819D02*
X89285714Y-101634819D01*
X89285714Y-101634819D02*
X89666666Y-101634819D01*
X89666666Y-101634819D02*
X89761904Y-101682438D01*
X89761904Y-101682438D02*
X89809523Y-101730057D01*
X89809523Y-101730057D02*
X89857142Y-101825295D01*
X89857142Y-101825295D02*
X89857142Y-101968152D01*
X89857142Y-101968152D02*
X89809523Y-102063390D01*
X89809523Y-102063390D02*
X89761904Y-102111009D01*
X89761904Y-102111009D02*
X89666666Y-102158628D01*
X89666666Y-102158628D02*
X89285714Y-102158628D01*
X90190476Y-101634819D02*
X90809523Y-101634819D01*
X90809523Y-101634819D02*
X90476190Y-102015771D01*
X90476190Y-102015771D02*
X90619047Y-102015771D01*
X90619047Y-102015771D02*
X90714285Y-102063390D01*
X90714285Y-102063390D02*
X90761904Y-102111009D01*
X90761904Y-102111009D02*
X90809523Y-102206247D01*
X90809523Y-102206247D02*
X90809523Y-102444342D01*
X90809523Y-102444342D02*
X90761904Y-102539580D01*
X90761904Y-102539580D02*
X90714285Y-102587200D01*
X90714285Y-102587200D02*
X90619047Y-102634819D01*
X90619047Y-102634819D02*
X90333333Y-102634819D01*
X90333333Y-102634819D02*
X90238095Y-102587200D01*
X90238095Y-102587200D02*
X90190476Y-102539580D01*
X91761904Y-102634819D02*
X91190476Y-102634819D01*
X91476190Y-102634819D02*
X91476190Y-101634819D01*
X91476190Y-101634819D02*
X91380952Y-101777676D01*
X91380952Y-101777676D02*
X91285714Y-101872914D01*
X91285714Y-101872914D02*
X91190476Y-101920533D01*
X78634819Y-27216666D02*
X78158628Y-27549999D01*
X78634819Y-27788094D02*
X77634819Y-27788094D01*
X77634819Y-27788094D02*
X77634819Y-27407142D01*
X77634819Y-27407142D02*
X77682438Y-27311904D01*
X77682438Y-27311904D02*
X77730057Y-27264285D01*
X77730057Y-27264285D02*
X77825295Y-27216666D01*
X77825295Y-27216666D02*
X77968152Y-27216666D01*
X77968152Y-27216666D02*
X78063390Y-27264285D01*
X78063390Y-27264285D02*
X78111009Y-27311904D01*
X78111009Y-27311904D02*
X78158628Y-27407142D01*
X78158628Y-27407142D02*
X78158628Y-27788094D01*
X77634819Y-26359523D02*
X77634819Y-26549999D01*
X77634819Y-26549999D02*
X77682438Y-26645237D01*
X77682438Y-26645237D02*
X77730057Y-26692856D01*
X77730057Y-26692856D02*
X77872914Y-26788094D01*
X77872914Y-26788094D02*
X78063390Y-26835713D01*
X78063390Y-26835713D02*
X78444342Y-26835713D01*
X78444342Y-26835713D02*
X78539580Y-26788094D01*
X78539580Y-26788094D02*
X78587200Y-26740475D01*
X78587200Y-26740475D02*
X78634819Y-26645237D01*
X78634819Y-26645237D02*
X78634819Y-26454761D01*
X78634819Y-26454761D02*
X78587200Y-26359523D01*
X78587200Y-26359523D02*
X78539580Y-26311904D01*
X78539580Y-26311904D02*
X78444342Y-26264285D01*
X78444342Y-26264285D02*
X78206247Y-26264285D01*
X78206247Y-26264285D02*
X78111009Y-26311904D01*
X78111009Y-26311904D02*
X78063390Y-26359523D01*
X78063390Y-26359523D02*
X78015771Y-26454761D01*
X78015771Y-26454761D02*
X78015771Y-26645237D01*
X78015771Y-26645237D02*
X78063390Y-26740475D01*
X78063390Y-26740475D02*
X78111009Y-26788094D01*
X78111009Y-26788094D02*
X78206247Y-26835713D01*
X124134819Y-79192857D02*
X123658628Y-79526190D01*
X124134819Y-79764285D02*
X123134819Y-79764285D01*
X123134819Y-79764285D02*
X123134819Y-79383333D01*
X123134819Y-79383333D02*
X123182438Y-79288095D01*
X123182438Y-79288095D02*
X123230057Y-79240476D01*
X123230057Y-79240476D02*
X123325295Y-79192857D01*
X123325295Y-79192857D02*
X123468152Y-79192857D01*
X123468152Y-79192857D02*
X123563390Y-79240476D01*
X123563390Y-79240476D02*
X123611009Y-79288095D01*
X123611009Y-79288095D02*
X123658628Y-79383333D01*
X123658628Y-79383333D02*
X123658628Y-79764285D01*
X123230057Y-78811904D02*
X123182438Y-78764285D01*
X123182438Y-78764285D02*
X123134819Y-78669047D01*
X123134819Y-78669047D02*
X123134819Y-78430952D01*
X123134819Y-78430952D02*
X123182438Y-78335714D01*
X123182438Y-78335714D02*
X123230057Y-78288095D01*
X123230057Y-78288095D02*
X123325295Y-78240476D01*
X123325295Y-78240476D02*
X123420533Y-78240476D01*
X123420533Y-78240476D02*
X123563390Y-78288095D01*
X123563390Y-78288095D02*
X124134819Y-78859523D01*
X124134819Y-78859523D02*
X124134819Y-78240476D01*
X123134819Y-77383333D02*
X123134819Y-77573809D01*
X123134819Y-77573809D02*
X123182438Y-77669047D01*
X123182438Y-77669047D02*
X123230057Y-77716666D01*
X123230057Y-77716666D02*
X123372914Y-77811904D01*
X123372914Y-77811904D02*
X123563390Y-77859523D01*
X123563390Y-77859523D02*
X123944342Y-77859523D01*
X123944342Y-77859523D02*
X124039580Y-77811904D01*
X124039580Y-77811904D02*
X124087200Y-77764285D01*
X124087200Y-77764285D02*
X124134819Y-77669047D01*
X124134819Y-77669047D02*
X124134819Y-77478571D01*
X124134819Y-77478571D02*
X124087200Y-77383333D01*
X124087200Y-77383333D02*
X124039580Y-77335714D01*
X124039580Y-77335714D02*
X123944342Y-77288095D01*
X123944342Y-77288095D02*
X123706247Y-77288095D01*
X123706247Y-77288095D02*
X123611009Y-77335714D01*
X123611009Y-77335714D02*
X123563390Y-77383333D01*
X123563390Y-77383333D02*
X123515771Y-77478571D01*
X123515771Y-77478571D02*
X123515771Y-77669047D01*
X123515771Y-77669047D02*
X123563390Y-77764285D01*
X123563390Y-77764285D02*
X123611009Y-77811904D01*
X123611009Y-77811904D02*
X123706247Y-77859523D01*
X153166666Y-132254819D02*
X152833333Y-131778628D01*
X152595238Y-132254819D02*
X152595238Y-131254819D01*
X152595238Y-131254819D02*
X152976190Y-131254819D01*
X152976190Y-131254819D02*
X153071428Y-131302438D01*
X153071428Y-131302438D02*
X153119047Y-131350057D01*
X153119047Y-131350057D02*
X153166666Y-131445295D01*
X153166666Y-131445295D02*
X153166666Y-131588152D01*
X153166666Y-131588152D02*
X153119047Y-131683390D01*
X153119047Y-131683390D02*
X153071428Y-131731009D01*
X153071428Y-131731009D02*
X152976190Y-131778628D01*
X152976190Y-131778628D02*
X152595238Y-131778628D01*
X153595238Y-131731009D02*
X153928571Y-131731009D01*
X154071428Y-132254819D02*
X153595238Y-132254819D01*
X153595238Y-132254819D02*
X153595238Y-131254819D01*
X153595238Y-131254819D02*
X154071428Y-131254819D01*
X154833333Y-131731009D02*
X154500000Y-131731009D01*
X154500000Y-132254819D02*
X154500000Y-131254819D01*
X154500000Y-131254819D02*
X154976190Y-131254819D01*
X155500000Y-131254819D02*
X155500000Y-131492914D01*
X155261905Y-131397676D02*
X155500000Y-131492914D01*
X155500000Y-131492914D02*
X155738095Y-131397676D01*
X155357143Y-131683390D02*
X155500000Y-131492914D01*
X155500000Y-131492914D02*
X155642857Y-131683390D01*
X156261905Y-131254819D02*
X156261905Y-131492914D01*
X156023810Y-131397676D02*
X156261905Y-131492914D01*
X156261905Y-131492914D02*
X156500000Y-131397676D01*
X156119048Y-131683390D02*
X156261905Y-131492914D01*
X156261905Y-131492914D02*
X156404762Y-131683390D01*
X66334819Y-45292857D02*
X65858628Y-45626190D01*
X66334819Y-45864285D02*
X65334819Y-45864285D01*
X65334819Y-45864285D02*
X65334819Y-45483333D01*
X65334819Y-45483333D02*
X65382438Y-45388095D01*
X65382438Y-45388095D02*
X65430057Y-45340476D01*
X65430057Y-45340476D02*
X65525295Y-45292857D01*
X65525295Y-45292857D02*
X65668152Y-45292857D01*
X65668152Y-45292857D02*
X65763390Y-45340476D01*
X65763390Y-45340476D02*
X65811009Y-45388095D01*
X65811009Y-45388095D02*
X65858628Y-45483333D01*
X65858628Y-45483333D02*
X65858628Y-45864285D01*
X66334819Y-44340476D02*
X66334819Y-44911904D01*
X66334819Y-44626190D02*
X65334819Y-44626190D01*
X65334819Y-44626190D02*
X65477676Y-44721428D01*
X65477676Y-44721428D02*
X65572914Y-44816666D01*
X65572914Y-44816666D02*
X65620533Y-44911904D01*
X65334819Y-43435714D02*
X65334819Y-43911904D01*
X65334819Y-43911904D02*
X65811009Y-43959523D01*
X65811009Y-43959523D02*
X65763390Y-43911904D01*
X65763390Y-43911904D02*
X65715771Y-43816666D01*
X65715771Y-43816666D02*
X65715771Y-43578571D01*
X65715771Y-43578571D02*
X65763390Y-43483333D01*
X65763390Y-43483333D02*
X65811009Y-43435714D01*
X65811009Y-43435714D02*
X65906247Y-43388095D01*
X65906247Y-43388095D02*
X66144342Y-43388095D01*
X66144342Y-43388095D02*
X66239580Y-43435714D01*
X66239580Y-43435714D02*
X66287200Y-43483333D01*
X66287200Y-43483333D02*
X66334819Y-43578571D01*
X66334819Y-43578571D02*
X66334819Y-43816666D01*
X66334819Y-43816666D02*
X66287200Y-43911904D01*
X66287200Y-43911904D02*
X66239580Y-43959523D01*
X149173333Y-75504819D02*
X148697143Y-75504819D01*
X148697143Y-75504819D02*
X148697143Y-74504819D01*
X149935238Y-74838152D02*
X149935238Y-75504819D01*
X149697143Y-74457200D02*
X149459048Y-75171485D01*
X149459048Y-75171485D02*
X150078095Y-75171485D01*
X153166666Y-9254819D02*
X152833333Y-8778628D01*
X152595238Y-9254819D02*
X152595238Y-8254819D01*
X152595238Y-8254819D02*
X152976190Y-8254819D01*
X152976190Y-8254819D02*
X153071428Y-8302438D01*
X153071428Y-8302438D02*
X153119047Y-8350057D01*
X153119047Y-8350057D02*
X153166666Y-8445295D01*
X153166666Y-8445295D02*
X153166666Y-8588152D01*
X153166666Y-8588152D02*
X153119047Y-8683390D01*
X153119047Y-8683390D02*
X153071428Y-8731009D01*
X153071428Y-8731009D02*
X152976190Y-8778628D01*
X152976190Y-8778628D02*
X152595238Y-8778628D01*
X153595238Y-8731009D02*
X153928571Y-8731009D01*
X154071428Y-9254819D02*
X153595238Y-9254819D01*
X153595238Y-9254819D02*
X153595238Y-8254819D01*
X153595238Y-8254819D02*
X154071428Y-8254819D01*
X154833333Y-8731009D02*
X154500000Y-8731009D01*
X154500000Y-9254819D02*
X154500000Y-8254819D01*
X154500000Y-8254819D02*
X154976190Y-8254819D01*
X155500000Y-8254819D02*
X155500000Y-8492914D01*
X155261905Y-8397676D02*
X155500000Y-8492914D01*
X155500000Y-8492914D02*
X155738095Y-8397676D01*
X155357143Y-8683390D02*
X155500000Y-8492914D01*
X155500000Y-8492914D02*
X155642857Y-8683390D01*
X156261905Y-8254819D02*
X156261905Y-8492914D01*
X156023810Y-8397676D02*
X156261905Y-8492914D01*
X156261905Y-8492914D02*
X156500000Y-8397676D01*
X156119048Y-8683390D02*
X156261905Y-8492914D01*
X156261905Y-8492914D02*
X156404762Y-8683390D01*
X62734819Y-45292857D02*
X62258628Y-45626190D01*
X62734819Y-45864285D02*
X61734819Y-45864285D01*
X61734819Y-45864285D02*
X61734819Y-45483333D01*
X61734819Y-45483333D02*
X61782438Y-45388095D01*
X61782438Y-45388095D02*
X61830057Y-45340476D01*
X61830057Y-45340476D02*
X61925295Y-45292857D01*
X61925295Y-45292857D02*
X62068152Y-45292857D01*
X62068152Y-45292857D02*
X62163390Y-45340476D01*
X62163390Y-45340476D02*
X62211009Y-45388095D01*
X62211009Y-45388095D02*
X62258628Y-45483333D01*
X62258628Y-45483333D02*
X62258628Y-45864285D01*
X62734819Y-44340476D02*
X62734819Y-44911904D01*
X62734819Y-44626190D02*
X61734819Y-44626190D01*
X61734819Y-44626190D02*
X61877676Y-44721428D01*
X61877676Y-44721428D02*
X61972914Y-44816666D01*
X61972914Y-44816666D02*
X62020533Y-44911904D01*
X61734819Y-43483333D02*
X61734819Y-43673809D01*
X61734819Y-43673809D02*
X61782438Y-43769047D01*
X61782438Y-43769047D02*
X61830057Y-43816666D01*
X61830057Y-43816666D02*
X61972914Y-43911904D01*
X61972914Y-43911904D02*
X62163390Y-43959523D01*
X62163390Y-43959523D02*
X62544342Y-43959523D01*
X62544342Y-43959523D02*
X62639580Y-43911904D01*
X62639580Y-43911904D02*
X62687200Y-43864285D01*
X62687200Y-43864285D02*
X62734819Y-43769047D01*
X62734819Y-43769047D02*
X62734819Y-43578571D01*
X62734819Y-43578571D02*
X62687200Y-43483333D01*
X62687200Y-43483333D02*
X62639580Y-43435714D01*
X62639580Y-43435714D02*
X62544342Y-43388095D01*
X62544342Y-43388095D02*
X62306247Y-43388095D01*
X62306247Y-43388095D02*
X62211009Y-43435714D01*
X62211009Y-43435714D02*
X62163390Y-43483333D01*
X62163390Y-43483333D02*
X62115771Y-43578571D01*
X62115771Y-43578571D02*
X62115771Y-43769047D01*
X62115771Y-43769047D02*
X62163390Y-43864285D01*
X62163390Y-43864285D02*
X62211009Y-43911904D01*
X62211009Y-43911904D02*
X62306247Y-43959523D01*
X119807142Y-59194819D02*
X119473809Y-58718628D01*
X119235714Y-59194819D02*
X119235714Y-58194819D01*
X119235714Y-58194819D02*
X119616666Y-58194819D01*
X119616666Y-58194819D02*
X119711904Y-58242438D01*
X119711904Y-58242438D02*
X119759523Y-58290057D01*
X119759523Y-58290057D02*
X119807142Y-58385295D01*
X119807142Y-58385295D02*
X119807142Y-58528152D01*
X119807142Y-58528152D02*
X119759523Y-58623390D01*
X119759523Y-58623390D02*
X119711904Y-58671009D01*
X119711904Y-58671009D02*
X119616666Y-58718628D01*
X119616666Y-58718628D02*
X119235714Y-58718628D01*
X120188095Y-58290057D02*
X120235714Y-58242438D01*
X120235714Y-58242438D02*
X120330952Y-58194819D01*
X120330952Y-58194819D02*
X120569047Y-58194819D01*
X120569047Y-58194819D02*
X120664285Y-58242438D01*
X120664285Y-58242438D02*
X120711904Y-58290057D01*
X120711904Y-58290057D02*
X120759523Y-58385295D01*
X120759523Y-58385295D02*
X120759523Y-58480533D01*
X120759523Y-58480533D02*
X120711904Y-58623390D01*
X120711904Y-58623390D02*
X120140476Y-59194819D01*
X120140476Y-59194819D02*
X120759523Y-59194819D01*
X121616666Y-58528152D02*
X121616666Y-59194819D01*
X121378571Y-58147200D02*
X121140476Y-58861485D01*
X121140476Y-58861485D02*
X121759523Y-58861485D01*
X108807142Y-56934819D02*
X108473809Y-56458628D01*
X108235714Y-56934819D02*
X108235714Y-55934819D01*
X108235714Y-55934819D02*
X108616666Y-55934819D01*
X108616666Y-55934819D02*
X108711904Y-55982438D01*
X108711904Y-55982438D02*
X108759523Y-56030057D01*
X108759523Y-56030057D02*
X108807142Y-56125295D01*
X108807142Y-56125295D02*
X108807142Y-56268152D01*
X108807142Y-56268152D02*
X108759523Y-56363390D01*
X108759523Y-56363390D02*
X108711904Y-56411009D01*
X108711904Y-56411009D02*
X108616666Y-56458628D01*
X108616666Y-56458628D02*
X108235714Y-56458628D01*
X109759523Y-56934819D02*
X109188095Y-56934819D01*
X109473809Y-56934819D02*
X109473809Y-55934819D01*
X109473809Y-55934819D02*
X109378571Y-56077676D01*
X109378571Y-56077676D02*
X109283333Y-56172914D01*
X109283333Y-56172914D02*
X109188095Y-56220533D01*
X110330952Y-56363390D02*
X110235714Y-56315771D01*
X110235714Y-56315771D02*
X110188095Y-56268152D01*
X110188095Y-56268152D02*
X110140476Y-56172914D01*
X110140476Y-56172914D02*
X110140476Y-56125295D01*
X110140476Y-56125295D02*
X110188095Y-56030057D01*
X110188095Y-56030057D02*
X110235714Y-55982438D01*
X110235714Y-55982438D02*
X110330952Y-55934819D01*
X110330952Y-55934819D02*
X110521428Y-55934819D01*
X110521428Y-55934819D02*
X110616666Y-55982438D01*
X110616666Y-55982438D02*
X110664285Y-56030057D01*
X110664285Y-56030057D02*
X110711904Y-56125295D01*
X110711904Y-56125295D02*
X110711904Y-56172914D01*
X110711904Y-56172914D02*
X110664285Y-56268152D01*
X110664285Y-56268152D02*
X110616666Y-56315771D01*
X110616666Y-56315771D02*
X110521428Y-56363390D01*
X110521428Y-56363390D02*
X110330952Y-56363390D01*
X110330952Y-56363390D02*
X110235714Y-56411009D01*
X110235714Y-56411009D02*
X110188095Y-56458628D01*
X110188095Y-56458628D02*
X110140476Y-56553866D01*
X110140476Y-56553866D02*
X110140476Y-56744342D01*
X110140476Y-56744342D02*
X110188095Y-56839580D01*
X110188095Y-56839580D02*
X110235714Y-56887200D01*
X110235714Y-56887200D02*
X110330952Y-56934819D01*
X110330952Y-56934819D02*
X110521428Y-56934819D01*
X110521428Y-56934819D02*
X110616666Y-56887200D01*
X110616666Y-56887200D02*
X110664285Y-56839580D01*
X110664285Y-56839580D02*
X110711904Y-56744342D01*
X110711904Y-56744342D02*
X110711904Y-56553866D01*
X110711904Y-56553866D02*
X110664285Y-56458628D01*
X110664285Y-56458628D02*
X110616666Y-56411009D01*
X110616666Y-56411009D02*
X110521428Y-56363390D01*
X130423333Y-43109580D02*
X130375714Y-43157200D01*
X130375714Y-43157200D02*
X130232857Y-43204819D01*
X130232857Y-43204819D02*
X130137619Y-43204819D01*
X130137619Y-43204819D02*
X129994762Y-43157200D01*
X129994762Y-43157200D02*
X129899524Y-43061961D01*
X129899524Y-43061961D02*
X129851905Y-42966723D01*
X129851905Y-42966723D02*
X129804286Y-42776247D01*
X129804286Y-42776247D02*
X129804286Y-42633390D01*
X129804286Y-42633390D02*
X129851905Y-42442914D01*
X129851905Y-42442914D02*
X129899524Y-42347676D01*
X129899524Y-42347676D02*
X129994762Y-42252438D01*
X129994762Y-42252438D02*
X130137619Y-42204819D01*
X130137619Y-42204819D02*
X130232857Y-42204819D01*
X130232857Y-42204819D02*
X130375714Y-42252438D01*
X130375714Y-42252438D02*
X130423333Y-42300057D01*
X131328095Y-42204819D02*
X130851905Y-42204819D01*
X130851905Y-42204819D02*
X130804286Y-42681009D01*
X130804286Y-42681009D02*
X130851905Y-42633390D01*
X130851905Y-42633390D02*
X130947143Y-42585771D01*
X130947143Y-42585771D02*
X131185238Y-42585771D01*
X131185238Y-42585771D02*
X131280476Y-42633390D01*
X131280476Y-42633390D02*
X131328095Y-42681009D01*
X131328095Y-42681009D02*
X131375714Y-42776247D01*
X131375714Y-42776247D02*
X131375714Y-43014342D01*
X131375714Y-43014342D02*
X131328095Y-43109580D01*
X131328095Y-43109580D02*
X131280476Y-43157200D01*
X131280476Y-43157200D02*
X131185238Y-43204819D01*
X131185238Y-43204819D02*
X130947143Y-43204819D01*
X130947143Y-43204819D02*
X130851905Y-43157200D01*
X130851905Y-43157200D02*
X130804286Y-43109580D01*
X97931905Y-78494819D02*
X97931905Y-77494819D01*
X97931905Y-77494819D02*
X98170000Y-77494819D01*
X98170000Y-77494819D02*
X98312857Y-77542438D01*
X98312857Y-77542438D02*
X98408095Y-77637676D01*
X98408095Y-77637676D02*
X98455714Y-77732914D01*
X98455714Y-77732914D02*
X98503333Y-77923390D01*
X98503333Y-77923390D02*
X98503333Y-78066247D01*
X98503333Y-78066247D02*
X98455714Y-78256723D01*
X98455714Y-78256723D02*
X98408095Y-78351961D01*
X98408095Y-78351961D02*
X98312857Y-78447200D01*
X98312857Y-78447200D02*
X98170000Y-78494819D01*
X98170000Y-78494819D02*
X97931905Y-78494819D01*
X98836667Y-77494819D02*
X99455714Y-77494819D01*
X99455714Y-77494819D02*
X99122381Y-77875771D01*
X99122381Y-77875771D02*
X99265238Y-77875771D01*
X99265238Y-77875771D02*
X99360476Y-77923390D01*
X99360476Y-77923390D02*
X99408095Y-77971009D01*
X99408095Y-77971009D02*
X99455714Y-78066247D01*
X99455714Y-78066247D02*
X99455714Y-78304342D01*
X99455714Y-78304342D02*
X99408095Y-78399580D01*
X99408095Y-78399580D02*
X99360476Y-78447200D01*
X99360476Y-78447200D02*
X99265238Y-78494819D01*
X99265238Y-78494819D02*
X98979524Y-78494819D01*
X98979524Y-78494819D02*
X98884286Y-78447200D01*
X98884286Y-78447200D02*
X98836667Y-78399580D01*
X139923333Y-73459580D02*
X139875714Y-73507200D01*
X139875714Y-73507200D02*
X139732857Y-73554819D01*
X139732857Y-73554819D02*
X139637619Y-73554819D01*
X139637619Y-73554819D02*
X139494762Y-73507200D01*
X139494762Y-73507200D02*
X139399524Y-73411961D01*
X139399524Y-73411961D02*
X139351905Y-73316723D01*
X139351905Y-73316723D02*
X139304286Y-73126247D01*
X139304286Y-73126247D02*
X139304286Y-72983390D01*
X139304286Y-72983390D02*
X139351905Y-72792914D01*
X139351905Y-72792914D02*
X139399524Y-72697676D01*
X139399524Y-72697676D02*
X139494762Y-72602438D01*
X139494762Y-72602438D02*
X139637619Y-72554819D01*
X139637619Y-72554819D02*
X139732857Y-72554819D01*
X139732857Y-72554819D02*
X139875714Y-72602438D01*
X139875714Y-72602438D02*
X139923333Y-72650057D01*
X140494762Y-72983390D02*
X140399524Y-72935771D01*
X140399524Y-72935771D02*
X140351905Y-72888152D01*
X140351905Y-72888152D02*
X140304286Y-72792914D01*
X140304286Y-72792914D02*
X140304286Y-72745295D01*
X140304286Y-72745295D02*
X140351905Y-72650057D01*
X140351905Y-72650057D02*
X140399524Y-72602438D01*
X140399524Y-72602438D02*
X140494762Y-72554819D01*
X140494762Y-72554819D02*
X140685238Y-72554819D01*
X140685238Y-72554819D02*
X140780476Y-72602438D01*
X140780476Y-72602438D02*
X140828095Y-72650057D01*
X140828095Y-72650057D02*
X140875714Y-72745295D01*
X140875714Y-72745295D02*
X140875714Y-72792914D01*
X140875714Y-72792914D02*
X140828095Y-72888152D01*
X140828095Y-72888152D02*
X140780476Y-72935771D01*
X140780476Y-72935771D02*
X140685238Y-72983390D01*
X140685238Y-72983390D02*
X140494762Y-72983390D01*
X140494762Y-72983390D02*
X140399524Y-73031009D01*
X140399524Y-73031009D02*
X140351905Y-73078628D01*
X140351905Y-73078628D02*
X140304286Y-73173866D01*
X140304286Y-73173866D02*
X140304286Y-73364342D01*
X140304286Y-73364342D02*
X140351905Y-73459580D01*
X140351905Y-73459580D02*
X140399524Y-73507200D01*
X140399524Y-73507200D02*
X140494762Y-73554819D01*
X140494762Y-73554819D02*
X140685238Y-73554819D01*
X140685238Y-73554819D02*
X140780476Y-73507200D01*
X140780476Y-73507200D02*
X140828095Y-73459580D01*
X140828095Y-73459580D02*
X140875714Y-73364342D01*
X140875714Y-73364342D02*
X140875714Y-73173866D01*
X140875714Y-73173866D02*
X140828095Y-73078628D01*
X140828095Y-73078628D02*
X140780476Y-73031009D01*
X140780476Y-73031009D02*
X140685238Y-72983390D01*
X149307142Y-114849104D02*
X148973809Y-114372913D01*
X148735714Y-114849104D02*
X148735714Y-113849104D01*
X148735714Y-113849104D02*
X149116666Y-113849104D01*
X149116666Y-113849104D02*
X149211904Y-113896723D01*
X149211904Y-113896723D02*
X149259523Y-113944342D01*
X149259523Y-113944342D02*
X149307142Y-114039580D01*
X149307142Y-114039580D02*
X149307142Y-114182437D01*
X149307142Y-114182437D02*
X149259523Y-114277675D01*
X149259523Y-114277675D02*
X149211904Y-114325294D01*
X149211904Y-114325294D02*
X149116666Y-114372913D01*
X149116666Y-114372913D02*
X148735714Y-114372913D01*
X150164285Y-114182437D02*
X150164285Y-114849104D01*
X149926190Y-113801485D02*
X149688095Y-114515770D01*
X149688095Y-114515770D02*
X150307142Y-114515770D01*
X151211904Y-114849104D02*
X150640476Y-114849104D01*
X150926190Y-114849104D02*
X150926190Y-113849104D01*
X150926190Y-113849104D02*
X150830952Y-113991961D01*
X150830952Y-113991961D02*
X150735714Y-114087199D01*
X150735714Y-114087199D02*
X150640476Y-114134818D01*
X140173333Y-42904819D02*
X139697143Y-42904819D01*
X139697143Y-42904819D02*
X139697143Y-41904819D01*
X140459048Y-42000057D02*
X140506667Y-41952438D01*
X140506667Y-41952438D02*
X140601905Y-41904819D01*
X140601905Y-41904819D02*
X140840000Y-41904819D01*
X140840000Y-41904819D02*
X140935238Y-41952438D01*
X140935238Y-41952438D02*
X140982857Y-42000057D01*
X140982857Y-42000057D02*
X141030476Y-42095295D01*
X141030476Y-42095295D02*
X141030476Y-42190533D01*
X141030476Y-42190533D02*
X140982857Y-42333390D01*
X140982857Y-42333390D02*
X140411429Y-42904819D01*
X140411429Y-42904819D02*
X141030476Y-42904819D01*
X108807142Y-127934819D02*
X108473809Y-127458628D01*
X108235714Y-127934819D02*
X108235714Y-126934819D01*
X108235714Y-126934819D02*
X108616666Y-126934819D01*
X108616666Y-126934819D02*
X108711904Y-126982438D01*
X108711904Y-126982438D02*
X108759523Y-127030057D01*
X108759523Y-127030057D02*
X108807142Y-127125295D01*
X108807142Y-127125295D02*
X108807142Y-127268152D01*
X108807142Y-127268152D02*
X108759523Y-127363390D01*
X108759523Y-127363390D02*
X108711904Y-127411009D01*
X108711904Y-127411009D02*
X108616666Y-127458628D01*
X108616666Y-127458628D02*
X108235714Y-127458628D01*
X109188095Y-127030057D02*
X109235714Y-126982438D01*
X109235714Y-126982438D02*
X109330952Y-126934819D01*
X109330952Y-126934819D02*
X109569047Y-126934819D01*
X109569047Y-126934819D02*
X109664285Y-126982438D01*
X109664285Y-126982438D02*
X109711904Y-127030057D01*
X109711904Y-127030057D02*
X109759523Y-127125295D01*
X109759523Y-127125295D02*
X109759523Y-127220533D01*
X109759523Y-127220533D02*
X109711904Y-127363390D01*
X109711904Y-127363390D02*
X109140476Y-127934819D01*
X109140476Y-127934819D02*
X109759523Y-127934819D01*
X110140476Y-127030057D02*
X110188095Y-126982438D01*
X110188095Y-126982438D02*
X110283333Y-126934819D01*
X110283333Y-126934819D02*
X110521428Y-126934819D01*
X110521428Y-126934819D02*
X110616666Y-126982438D01*
X110616666Y-126982438D02*
X110664285Y-127030057D01*
X110664285Y-127030057D02*
X110711904Y-127125295D01*
X110711904Y-127125295D02*
X110711904Y-127220533D01*
X110711904Y-127220533D02*
X110664285Y-127363390D01*
X110664285Y-127363390D02*
X110092857Y-127934819D01*
X110092857Y-127934819D02*
X110711904Y-127934819D01*
X99666667Y-47157200D02*
X99809524Y-47204819D01*
X99809524Y-47204819D02*
X100047619Y-47204819D01*
X100047619Y-47204819D02*
X100142857Y-47157200D01*
X100142857Y-47157200D02*
X100190476Y-47109580D01*
X100190476Y-47109580D02*
X100238095Y-47014342D01*
X100238095Y-47014342D02*
X100238095Y-46919104D01*
X100238095Y-46919104D02*
X100190476Y-46823866D01*
X100190476Y-46823866D02*
X100142857Y-46776247D01*
X100142857Y-46776247D02*
X100047619Y-46728628D01*
X100047619Y-46728628D02*
X99857143Y-46681009D01*
X99857143Y-46681009D02*
X99761905Y-46633390D01*
X99761905Y-46633390D02*
X99714286Y-46585771D01*
X99714286Y-46585771D02*
X99666667Y-46490533D01*
X99666667Y-46490533D02*
X99666667Y-46395295D01*
X99666667Y-46395295D02*
X99714286Y-46300057D01*
X99714286Y-46300057D02*
X99761905Y-46252438D01*
X99761905Y-46252438D02*
X99857143Y-46204819D01*
X99857143Y-46204819D02*
X100095238Y-46204819D01*
X100095238Y-46204819D02*
X100238095Y-46252438D01*
X100571429Y-46204819D02*
X100809524Y-47204819D01*
X100809524Y-47204819D02*
X101000000Y-46490533D01*
X101000000Y-46490533D02*
X101190476Y-47204819D01*
X101190476Y-47204819D02*
X101428572Y-46204819D01*
X102333333Y-47204819D02*
X101761905Y-47204819D01*
X102047619Y-47204819D02*
X102047619Y-46204819D01*
X102047619Y-46204819D02*
X101952381Y-46347676D01*
X101952381Y-46347676D02*
X101857143Y-46442914D01*
X101857143Y-46442914D02*
X101761905Y-46490533D01*
D11*
%TO.C,U4*%
X150350000Y-131410000D02*
X146590000Y-131410000D01*
X150350000Y-124590000D02*
X146590000Y-124590000D01*
X146590000Y-131410000D02*
X146590000Y-130150000D01*
X146590000Y-124590000D02*
X146590000Y-125850000D01*
X151870000Y-131640000D02*
X151390000Y-131640000D01*
X151630000Y-131310000D01*
X151870000Y-131640000D01*
G36*
X151870000Y-131640000D02*
G01*
X151390000Y-131640000D01*
X151630000Y-131310000D01*
X151870000Y-131640000D01*
G37*
%TO.C,R63*%
X145177064Y-103910000D02*
X143722936Y-103910000D01*
X145177064Y-102090000D02*
X143722936Y-102090000D01*
%TO.C,R62*%
X149222936Y-102090000D02*
X150677064Y-102090000D01*
X149222936Y-103910000D02*
X150677064Y-103910000D01*
%TO.C,R60*%
X145277064Y-122410000D02*
X143822936Y-122410000D01*
X145277064Y-120590000D02*
X143822936Y-120590000D01*
%TO.C,R59*%
X149222936Y-120590000D02*
X150677064Y-120590000D01*
X149222936Y-122410000D02*
X150677064Y-122410000D01*
%TO.C,R57*%
X145077064Y-106610000D02*
X143622936Y-106610000D01*
X145077064Y-104790000D02*
X143622936Y-104790000D01*
%TO.C,R56*%
X149222936Y-104732857D02*
X150677064Y-104732857D01*
X149222936Y-106552857D02*
X150677064Y-106552857D01*
%TO.C,R54*%
X145177064Y-109210000D02*
X143722936Y-109210000D01*
X145177064Y-107390000D02*
X143722936Y-107390000D01*
%TO.C,R53*%
X149222936Y-107375714D02*
X150677064Y-107375714D01*
X149222936Y-109195714D02*
X150677064Y-109195714D01*
%TO.C,R51*%
X145227064Y-111910000D02*
X143772936Y-111910000D01*
X145227064Y-110090000D02*
X143772936Y-110090000D01*
%TO.C,R50*%
X149222936Y-110018571D02*
X150677064Y-110018571D01*
X149222936Y-111838571D02*
X150677064Y-111838571D01*
%TO.C,R48*%
X145227064Y-114410000D02*
X143772936Y-114410000D01*
X145227064Y-112590000D02*
X143772936Y-112590000D01*
%TO.C,R47*%
X149222936Y-112661428D02*
X150677064Y-112661428D01*
X149222936Y-114481428D02*
X150677064Y-114481428D01*
%TO.C,R45*%
X145227064Y-117110000D02*
X143772936Y-117110000D01*
X145227064Y-115290000D02*
X143772936Y-115290000D01*
%TO.C,R43*%
X145277064Y-119710000D02*
X143822936Y-119710000D01*
X145277064Y-117890000D02*
X143822936Y-117890000D01*
%TO.C,R42*%
X149222936Y-117947142D02*
X150677064Y-117947142D01*
X149222936Y-119767142D02*
X150677064Y-119767142D01*
%TO.C,D2*%
X97110000Y-59764000D02*
X97110000Y-59920000D01*
X97110000Y-62080000D02*
X97110000Y-62236000D01*
X97110000Y-59764484D02*
G75*
G02*
X100341397Y-59919939I1560000J-1235516D01*
G01*
X97629039Y-59920000D02*
G75*
G02*
X99710910Y-59919951I1040961J-1080000D01*
G01*
X99710910Y-62080049D02*
G75*
G02*
X97629039Y-62080000I-1040910J1080049D01*
G01*
X100341397Y-62080061D02*
G75*
G02*
X97110000Y-62235516I-1671397J1080061D01*
G01*
%TO.C,R3*%
X58430000Y-26272936D02*
X58430000Y-27727064D01*
X60250000Y-26272936D02*
X60250000Y-27727064D01*
%TO.C,C3*%
X145009000Y-38033000D02*
X145009000Y-36967000D01*
X145049000Y-38268000D02*
X145049000Y-36732000D01*
X145089000Y-38448000D02*
X145089000Y-36552000D01*
X145129000Y-38598000D02*
X145129000Y-36402000D01*
X145169000Y-38729000D02*
X145169000Y-36271000D01*
X145209000Y-38846000D02*
X145209000Y-36154000D01*
X145249000Y-38953000D02*
X145249000Y-36047000D01*
X145289000Y-39052000D02*
X145289000Y-35948000D01*
X145329000Y-39145000D02*
X145329000Y-35855000D01*
X145369000Y-39231000D02*
X145369000Y-35769000D01*
X145409000Y-39313000D02*
X145409000Y-35687000D01*
X145449000Y-39390000D02*
X145449000Y-35610000D01*
X145489000Y-39464000D02*
X145489000Y-35536000D01*
X145529000Y-39534000D02*
X145529000Y-35466000D01*
X145569000Y-39602000D02*
X145569000Y-35398000D01*
X145609000Y-39666000D02*
X145609000Y-35334000D01*
X145649000Y-39728000D02*
X145649000Y-35272000D01*
X145689000Y-39787000D02*
X145689000Y-35213000D01*
X145729000Y-39845000D02*
X145729000Y-35155000D01*
X145769000Y-39900000D02*
X145769000Y-35100000D01*
X145809000Y-39954000D02*
X145809000Y-35046000D01*
X145849000Y-40005000D02*
X145849000Y-34995000D01*
X145889000Y-40056000D02*
X145889000Y-34944000D01*
X145929000Y-40104000D02*
X145929000Y-34896000D01*
X145969000Y-40151000D02*
X145969000Y-34849000D01*
X146009000Y-40197000D02*
X146009000Y-34803000D01*
X146049000Y-40241000D02*
X146049000Y-34759000D01*
X146089000Y-40284000D02*
X146089000Y-34716000D01*
X146129000Y-40326000D02*
X146129000Y-34674000D01*
X146169000Y-40367000D02*
X146169000Y-34633000D01*
X146209000Y-40407000D02*
X146209000Y-34593000D01*
X146249000Y-40445000D02*
X146249000Y-34555000D01*
X146289000Y-40483000D02*
X146289000Y-34517000D01*
X146329000Y-36460000D02*
X146329000Y-34481000D01*
X146329000Y-40519000D02*
X146329000Y-38540000D01*
X146369000Y-36460000D02*
X146369000Y-34445000D01*
X146369000Y-40555000D02*
X146369000Y-38540000D01*
X146409000Y-36460000D02*
X146409000Y-34410000D01*
X146409000Y-40590000D02*
X146409000Y-38540000D01*
X146449000Y-36460000D02*
X146449000Y-34376000D01*
X146449000Y-40624000D02*
X146449000Y-38540000D01*
X146489000Y-36460000D02*
X146489000Y-34344000D01*
X146489000Y-40656000D02*
X146489000Y-38540000D01*
X146529000Y-36460000D02*
X146529000Y-34311000D01*
X146529000Y-40689000D02*
X146529000Y-38540000D01*
X146569000Y-36460000D02*
X146569000Y-34280000D01*
X146569000Y-40720000D02*
X146569000Y-38540000D01*
X146609000Y-36460000D02*
X146609000Y-34250000D01*
X146609000Y-40750000D02*
X146609000Y-38540000D01*
X146649000Y-36460000D02*
X146649000Y-34220000D01*
X146649000Y-40780000D02*
X146649000Y-38540000D01*
X146689000Y-36460000D02*
X146689000Y-34191000D01*
X146689000Y-40809000D02*
X146689000Y-38540000D01*
X146729000Y-36460000D02*
X146729000Y-34162000D01*
X146729000Y-40838000D02*
X146729000Y-38540000D01*
X146769000Y-36460000D02*
X146769000Y-34135000D01*
X146769000Y-40865000D02*
X146769000Y-38540000D01*
X146809000Y-36460000D02*
X146809000Y-34108000D01*
X146809000Y-40892000D02*
X146809000Y-38540000D01*
X146849000Y-36460000D02*
X146849000Y-34082000D01*
X146849000Y-40918000D02*
X146849000Y-38540000D01*
X146889000Y-36460000D02*
X146889000Y-34056000D01*
X146889000Y-40944000D02*
X146889000Y-38540000D01*
X146929000Y-36460000D02*
X146929000Y-34031000D01*
X146929000Y-40969000D02*
X146929000Y-38540000D01*
X146969000Y-36460000D02*
X146969000Y-34007000D01*
X146969000Y-40993000D02*
X146969000Y-38540000D01*
X147009000Y-36460000D02*
X147009000Y-33983000D01*
X147009000Y-41017000D02*
X147009000Y-38540000D01*
X147049000Y-36460000D02*
X147049000Y-33960000D01*
X147049000Y-41040000D02*
X147049000Y-38540000D01*
X147089000Y-36460000D02*
X147089000Y-33938000D01*
X147089000Y-41062000D02*
X147089000Y-38540000D01*
X147129000Y-36460000D02*
X147129000Y-33916000D01*
X147129000Y-41084000D02*
X147129000Y-38540000D01*
X147169000Y-36460000D02*
X147169000Y-33894000D01*
X147169000Y-41106000D02*
X147169000Y-38540000D01*
X147209000Y-36460000D02*
X147209000Y-33873000D01*
X147209000Y-41127000D02*
X147209000Y-38540000D01*
X147249000Y-36460000D02*
X147249000Y-33853000D01*
X147249000Y-41147000D02*
X147249000Y-38540000D01*
X147289000Y-36460000D02*
X147289000Y-33834000D01*
X147289000Y-41166000D02*
X147289000Y-38540000D01*
X147329000Y-36460000D02*
X147329000Y-33814000D01*
X147329000Y-41186000D02*
X147329000Y-38540000D01*
X147369000Y-36460000D02*
X147369000Y-33796000D01*
X147369000Y-41204000D02*
X147369000Y-38540000D01*
X147409000Y-36460000D02*
X147409000Y-33778000D01*
X147409000Y-41222000D02*
X147409000Y-38540000D01*
X147449000Y-36460000D02*
X147449000Y-33760000D01*
X147449000Y-41240000D02*
X147449000Y-38540000D01*
X147489000Y-36460000D02*
X147489000Y-33743000D01*
X147489000Y-41257000D02*
X147489000Y-38540000D01*
X147529000Y-36460000D02*
X147529000Y-33726000D01*
X147529000Y-41274000D02*
X147529000Y-38540000D01*
X147569000Y-36460000D02*
X147569000Y-33710000D01*
X147569000Y-41290000D02*
X147569000Y-38540000D01*
X147609000Y-36460000D02*
X147609000Y-33695000D01*
X147609000Y-41305000D02*
X147609000Y-38540000D01*
X147649000Y-36460000D02*
X147649000Y-33679000D01*
X147649000Y-41321000D02*
X147649000Y-38540000D01*
X147689000Y-36460000D02*
X147689000Y-33665000D01*
X147689000Y-41335000D02*
X147689000Y-38540000D01*
X147729000Y-36460000D02*
X147729000Y-33650000D01*
X147729000Y-41350000D02*
X147729000Y-38540000D01*
X147769000Y-36460000D02*
X147769000Y-33637000D01*
X147769000Y-41363000D02*
X147769000Y-38540000D01*
X147809000Y-36460000D02*
X147809000Y-33623000D01*
X147809000Y-41377000D02*
X147809000Y-38540000D01*
X147849000Y-36460000D02*
X147849000Y-33611000D01*
X147849000Y-41389000D02*
X147849000Y-38540000D01*
X147889000Y-36460000D02*
X147889000Y-33598000D01*
X147889000Y-41402000D02*
X147889000Y-38540000D01*
X147929000Y-36460000D02*
X147929000Y-33586000D01*
X147929000Y-41414000D02*
X147929000Y-38540000D01*
X147969000Y-36460000D02*
X147969000Y-33575000D01*
X147969000Y-41425000D02*
X147969000Y-38540000D01*
X148009000Y-36460000D02*
X148009000Y-33564000D01*
X148009000Y-41436000D02*
X148009000Y-38540000D01*
X148049000Y-36460000D02*
X148049000Y-33553000D01*
X148049000Y-41447000D02*
X148049000Y-38540000D01*
X148089000Y-36460000D02*
X148089000Y-33543000D01*
X148089000Y-41457000D02*
X148089000Y-38540000D01*
X148129000Y-36460000D02*
X148129000Y-33533000D01*
X148129000Y-41467000D02*
X148129000Y-38540000D01*
X148169000Y-36460000D02*
X148169000Y-33524000D01*
X148169000Y-41476000D02*
X148169000Y-38540000D01*
X148209000Y-36460000D02*
X148209000Y-33515000D01*
X148209000Y-41485000D02*
X148209000Y-38540000D01*
X148249000Y-36460000D02*
X148249000Y-33506000D01*
X148249000Y-41494000D02*
X148249000Y-38540000D01*
X148289000Y-36460000D02*
X148289000Y-33498000D01*
X148289000Y-41502000D02*
X148289000Y-38540000D01*
X148329000Y-36460000D02*
X148329000Y-33490000D01*
X148329000Y-41510000D02*
X148329000Y-38540000D01*
X148369000Y-36460000D02*
X148369000Y-33483000D01*
X148369000Y-41517000D02*
X148369000Y-38540000D01*
X148410000Y-41524000D02*
X148410000Y-33476000D01*
X148450000Y-41530000D02*
X148450000Y-33470000D01*
X148490000Y-41537000D02*
X148490000Y-33463000D01*
X148530000Y-41542000D02*
X148530000Y-33458000D01*
X148570000Y-41548000D02*
X148570000Y-33452000D01*
X148610000Y-41552000D02*
X148610000Y-33448000D01*
X148650000Y-41557000D02*
X148650000Y-33443000D01*
X148690000Y-41561000D02*
X148690000Y-33439000D01*
X148730000Y-41565000D02*
X148730000Y-33435000D01*
X148770000Y-41568000D02*
X148770000Y-33432000D01*
X148810000Y-41571000D02*
X148810000Y-33429000D01*
X148850000Y-41574000D02*
X148850000Y-33426000D01*
X148890000Y-41576000D02*
X148890000Y-33424000D01*
X148930000Y-41577000D02*
X148930000Y-33423000D01*
X148970000Y-41579000D02*
X148970000Y-33421000D01*
X149010000Y-41580000D02*
X149010000Y-33420000D01*
X149050000Y-41580000D02*
X149050000Y-33420000D01*
X149090000Y-41580000D02*
X149090000Y-33420000D01*
X153099698Y-40215000D02*
X153099698Y-39415000D01*
X153499698Y-39815000D02*
X152699698Y-39815000D01*
X153210000Y-37500000D02*
G75*
G02*
X144970000Y-37500000I-4120000J0D01*
G01*
X144970000Y-37500000D02*
G75*
G02*
X153210000Y-37500000I4120000J0D01*
G01*
%TO.C,R10*%
X54790000Y-45377064D02*
X54790000Y-43922936D01*
X56610000Y-45377064D02*
X56610000Y-43922936D01*
%TO.C,R9*%
X51090000Y-45377064D02*
X51090000Y-43922936D01*
X52910000Y-45377064D02*
X52910000Y-43922936D01*
%TO.C,R27*%
X120072936Y-98590000D02*
X121527064Y-98590000D01*
X120072936Y-100410000D02*
X121527064Y-100410000D01*
D10*
%TO.C,RV1*%
X132340000Y-15300000D02*
X148840000Y-15300000D01*
X132340000Y-20700000D02*
X132340000Y-15300000D01*
X132340000Y-20700000D02*
X148840000Y-20700000D01*
X148840000Y-20700000D02*
X148840000Y-15300000D01*
D11*
%TO.C,SW10*%
X115000000Y-123125000D02*
X115000000Y-124625000D01*
X116250000Y-127125000D02*
X120750000Y-127125000D01*
X120750000Y-120625000D02*
X116250000Y-120625000D01*
X122000000Y-124625000D02*
X122000000Y-123125000D01*
D12*
%TO.C,RV3*%
X127615000Y-70090000D02*
X137145000Y-70090000D01*
X127615000Y-74920000D02*
X127615000Y-70090000D01*
X137145000Y-70090000D02*
X137145000Y-74920000D01*
X137145000Y-74920000D02*
X127615000Y-74920000D01*
D13*
X137730000Y-72500000D02*
G75*
G02*
X137530000Y-72500000I-100000J0D01*
G01*
X137530000Y-72500000D02*
G75*
G02*
X137730000Y-72500000I100000J0D01*
G01*
D11*
%TO.C,SW9*%
X115000000Y-105875000D02*
X115000000Y-107375000D01*
X116250000Y-109875000D02*
X120750000Y-109875000D01*
X120750000Y-103375000D02*
X116250000Y-103375000D01*
X122000000Y-107375000D02*
X122000000Y-105875000D01*
%TO.C,SW7*%
X115000000Y-64750000D02*
X115000000Y-66250000D01*
X116250000Y-68750000D02*
X120750000Y-68750000D01*
X120750000Y-62250000D02*
X116250000Y-62250000D01*
X122000000Y-66250000D02*
X122000000Y-64750000D01*
%TO.C,U3*%
X132690000Y-133570000D02*
G75*
G02*
X134690000Y-133570000I1000000J0D01*
G01*
X136340000Y-133570000D02*
X136340000Y-113130000D01*
X136340000Y-113130000D02*
X131040000Y-113130000D01*
X134690000Y-133570000D02*
X136340000Y-133570000D01*
X131040000Y-133570000D02*
X132690000Y-133570000D01*
X131040000Y-113130000D02*
X131040000Y-133570000D01*
%TO.C,L3*%
X127790000Y-76300000D02*
X134390000Y-76300000D01*
X127790000Y-78000000D02*
X127790000Y-76300000D01*
X127790000Y-82700000D02*
X127790000Y-81000000D01*
X134390000Y-76300000D02*
X134390000Y-78000000D01*
X134390000Y-81000000D02*
X134390000Y-82700000D01*
X134390000Y-82700000D02*
X127790000Y-82700000D01*
%TO.C,SW2*%
X97500000Y-70250000D02*
X97500000Y-71750000D01*
X98750000Y-74250000D02*
X103250000Y-74250000D01*
X103250000Y-67750000D02*
X98750000Y-67750000D01*
X104500000Y-71750000D02*
X104500000Y-70250000D01*
%TO.C,R1*%
X52090000Y-26272936D02*
X52090000Y-27727064D01*
X53910000Y-26272936D02*
X53910000Y-27727064D01*
%TO.C,R23*%
X120072936Y-46090000D02*
X121527064Y-46090000D01*
X120072936Y-47910000D02*
X121527064Y-47910000D01*
%TO.C,R32*%
X89272936Y-120590000D02*
X90727064Y-120590000D01*
X89272936Y-122410000D02*
X90727064Y-122410000D01*
%TO.C,R7*%
X66590000Y-27777064D02*
X66590000Y-26322936D01*
X68410000Y-27777064D02*
X68410000Y-26322936D01*
%TO.C,SW6*%
X115000000Y-52250000D02*
X115000000Y-53750000D01*
X116250000Y-56250000D02*
X120750000Y-56250000D01*
X120750000Y-49750000D02*
X116250000Y-49750000D01*
X122000000Y-53750000D02*
X122000000Y-52250000D01*
%TO.C,SW8*%
X115000000Y-77250000D02*
X115000000Y-78750000D01*
X116250000Y-81250000D02*
X120750000Y-81250000D01*
X120750000Y-74750000D02*
X116250000Y-74750000D01*
X122000000Y-78750000D02*
X122000000Y-77250000D01*
%TO.C,J2*%
X26710000Y-16030000D02*
X26710000Y-21230000D01*
X26710000Y-66870000D02*
X26710000Y-72070000D01*
X87730000Y-18630000D02*
X87730000Y-21230000D01*
X87730000Y-21230000D02*
X26710000Y-21230000D01*
X87730000Y-69470000D02*
X87730000Y-72070000D01*
X87730000Y-72070000D02*
X26710000Y-72070000D01*
X90330000Y-16030000D02*
X26710000Y-16030000D01*
X90330000Y-16030000D02*
X90330000Y-18630000D01*
X90330000Y-18630000D02*
X87730000Y-18630000D01*
X90330000Y-19900000D02*
X90330000Y-21230000D01*
X90330000Y-21230000D02*
X89000000Y-21230000D01*
X90330000Y-66870000D02*
X26710000Y-66870000D01*
X90330000Y-66870000D02*
X90330000Y-69470000D01*
X90330000Y-69470000D02*
X87730000Y-69470000D01*
X90330000Y-70740000D02*
X90330000Y-72070000D01*
X90330000Y-72070000D02*
X89000000Y-72070000D01*
%TO.C,R30*%
X89722936Y-61590000D02*
X91177064Y-61590000D01*
X89722936Y-63410000D02*
X91177064Y-63410000D01*
%TO.C,SW5*%
X115000000Y-39750000D02*
X115000000Y-41250000D01*
X116250000Y-43750000D02*
X120750000Y-43750000D01*
X120750000Y-37250000D02*
X116250000Y-37250000D01*
X122000000Y-41250000D02*
X122000000Y-39750000D01*
%TO.C,U1*%
X152700000Y-43800000D02*
X127300000Y-43800000D01*
X127300000Y-69200000D01*
X152700000Y-69200000D01*
X152700000Y-43800000D01*
%TO.C,R8*%
X63590000Y-27777064D02*
X63590000Y-26322936D01*
X65410000Y-27777064D02*
X65410000Y-26322936D01*
%TO.C,R2*%
X55140000Y-26272936D02*
X55140000Y-27727064D01*
X56960000Y-26272936D02*
X56960000Y-27727064D01*
%TO.C,J6*%
X96170000Y-17090000D02*
X97500000Y-17090000D01*
X96170000Y-18420000D02*
X96170000Y-17090000D01*
X96170000Y-19690000D02*
X96170000Y-37530000D01*
X96170000Y-19690000D02*
X98830000Y-19690000D01*
X96170000Y-37530000D02*
X98830000Y-37530000D01*
X98830000Y-19690000D02*
X98830000Y-37530000D01*
%TO.C,SW4*%
X97500000Y-123125000D02*
X97500000Y-124625000D01*
X98750000Y-127125000D02*
X103250000Y-127125000D01*
X103250000Y-120625000D02*
X98750000Y-120625000D01*
X104500000Y-124625000D02*
X104500000Y-123125000D01*
%TO.C,SW3*%
X97500000Y-105875000D02*
X97500000Y-107375000D01*
X98750000Y-109875000D02*
X103250000Y-109875000D01*
X103250000Y-103375000D02*
X98750000Y-103375000D01*
X104500000Y-107375000D02*
X104500000Y-105875000D01*
%TO.C,R25*%
X121527064Y-70590000D02*
X120072936Y-70590000D01*
X121527064Y-72410000D02*
X120072936Y-72410000D01*
%TO.C,R19*%
X108722936Y-74690000D02*
X110177064Y-74690000D01*
X108722936Y-76510000D02*
X110177064Y-76510000D01*
%TO.C,R14*%
X79490000Y-45377064D02*
X79490000Y-43922936D01*
X81310000Y-45377064D02*
X81310000Y-43922936D01*
%TO.C,R29*%
X89722936Y-47090000D02*
X91177064Y-47090000D01*
X89722936Y-48910000D02*
X91177064Y-48910000D01*
%TO.C,R12*%
X72090000Y-45377064D02*
X72090000Y-43922936D01*
X73910000Y-45377064D02*
X73910000Y-43922936D01*
%TO.C,F1*%
X136340000Y-29500000D02*
X137030000Y-29500000D01*
X137030000Y-27780000D02*
X137030000Y-31220000D01*
X137030000Y-31220000D02*
X146270000Y-31220000D01*
X146270000Y-27780000D02*
X137030000Y-27780000D01*
X146270000Y-31220000D02*
X146270000Y-27780000D01*
X146960000Y-29500000D02*
X146270000Y-29500000D01*
D12*
%TO.C,RV2*%
X143115000Y-70080000D02*
X152645000Y-70080000D01*
X143115000Y-74910000D02*
X143115000Y-70080000D01*
X152645000Y-70080000D02*
X152645000Y-74910000D01*
X152645000Y-74910000D02*
X143115000Y-74910000D01*
D13*
X142730000Y-72500000D02*
G75*
G02*
X142530000Y-72500000I-100000J0D01*
G01*
X142530000Y-72500000D02*
G75*
G02*
X142730000Y-72500000I100000J0D01*
G01*
D11*
%TO.C,D4*%
X97110000Y-96764000D02*
X97110000Y-96920000D01*
X97110000Y-99080000D02*
X97110000Y-99236000D01*
X97110000Y-96764484D02*
G75*
G02*
X100341397Y-96919939I1560000J-1235516D01*
G01*
X97629039Y-96920000D02*
G75*
G02*
X99710910Y-96919951I1040961J-1080000D01*
G01*
X99710910Y-99080049D02*
G75*
G02*
X97629039Y-99080000I-1040910J1080049D01*
G01*
X100341397Y-99080061D02*
G75*
G02*
X97110000Y-99235516I-1671397J1080061D01*
G01*
%TO.C,C9*%
X150749759Y-86161000D02*
X151379759Y-86161000D01*
X151064759Y-85846000D02*
X151064759Y-86476000D01*
X154250000Y-84770000D02*
X154250000Y-91230000D01*
X154290000Y-84770000D02*
X154290000Y-91230000D01*
X154330000Y-84770000D02*
X154330000Y-91230000D01*
X154370000Y-84772000D02*
X154370000Y-91228000D01*
X154410000Y-84773000D02*
X154410000Y-91227000D01*
X154450000Y-84776000D02*
X154450000Y-91224000D01*
X154490000Y-84778000D02*
X154490000Y-86960000D01*
X154490000Y-89040000D02*
X154490000Y-91222000D01*
X154530000Y-84782000D02*
X154530000Y-86960000D01*
X154530000Y-89040000D02*
X154530000Y-91218000D01*
X154570000Y-84785000D02*
X154570000Y-86960000D01*
X154570000Y-89040000D02*
X154570000Y-91215000D01*
X154610000Y-84789000D02*
X154610000Y-86960000D01*
X154610000Y-89040000D02*
X154610000Y-91211000D01*
X154650000Y-84794000D02*
X154650000Y-86960000D01*
X154650000Y-89040000D02*
X154650000Y-91206000D01*
X154690000Y-84799000D02*
X154690000Y-86960000D01*
X154690000Y-89040000D02*
X154690000Y-91201000D01*
X154730000Y-84805000D02*
X154730000Y-86960000D01*
X154730000Y-89040000D02*
X154730000Y-91195000D01*
X154770000Y-84811000D02*
X154770000Y-86960000D01*
X154770000Y-89040000D02*
X154770000Y-91189000D01*
X154810000Y-84818000D02*
X154810000Y-86960000D01*
X154810000Y-89040000D02*
X154810000Y-91182000D01*
X154850000Y-84825000D02*
X154850000Y-86960000D01*
X154850000Y-89040000D02*
X154850000Y-91175000D01*
X154890000Y-84833000D02*
X154890000Y-86960000D01*
X154890000Y-89040000D02*
X154890000Y-91167000D01*
X154930000Y-84841000D02*
X154930000Y-86960000D01*
X154930000Y-89040000D02*
X154930000Y-91159000D01*
X154971000Y-84850000D02*
X154971000Y-86960000D01*
X154971000Y-89040000D02*
X154971000Y-91150000D01*
X155011000Y-84859000D02*
X155011000Y-86960000D01*
X155011000Y-89040000D02*
X155011000Y-91141000D01*
X155051000Y-84869000D02*
X155051000Y-86960000D01*
X155051000Y-89040000D02*
X155051000Y-91131000D01*
X155091000Y-84879000D02*
X155091000Y-86960000D01*
X155091000Y-89040000D02*
X155091000Y-91121000D01*
X155131000Y-84890000D02*
X155131000Y-86960000D01*
X155131000Y-89040000D02*
X155131000Y-91110000D01*
X155171000Y-84902000D02*
X155171000Y-86960000D01*
X155171000Y-89040000D02*
X155171000Y-91098000D01*
X155211000Y-84914000D02*
X155211000Y-86960000D01*
X155211000Y-89040000D02*
X155211000Y-91086000D01*
X155251000Y-84926000D02*
X155251000Y-86960000D01*
X155251000Y-89040000D02*
X155251000Y-91074000D01*
X155291000Y-84939000D02*
X155291000Y-86960000D01*
X155291000Y-89040000D02*
X155291000Y-91061000D01*
X155331000Y-84953000D02*
X155331000Y-86960000D01*
X155331000Y-89040000D02*
X155331000Y-91047000D01*
X155371000Y-84967000D02*
X155371000Y-86960000D01*
X155371000Y-89040000D02*
X155371000Y-91033000D01*
X155411000Y-84982000D02*
X155411000Y-86960000D01*
X155411000Y-89040000D02*
X155411000Y-91018000D01*
X155451000Y-84998000D02*
X155451000Y-86960000D01*
X155451000Y-89040000D02*
X155451000Y-91002000D01*
X155491000Y-85014000D02*
X155491000Y-86960000D01*
X155491000Y-89040000D02*
X155491000Y-90986000D01*
X155531000Y-85030000D02*
X155531000Y-86960000D01*
X155531000Y-89040000D02*
X155531000Y-90970000D01*
X155571000Y-85048000D02*
X155571000Y-86960000D01*
X155571000Y-89040000D02*
X155571000Y-90952000D01*
X155611000Y-85066000D02*
X155611000Y-86960000D01*
X155611000Y-89040000D02*
X155611000Y-90934000D01*
X155651000Y-85084000D02*
X155651000Y-86960000D01*
X155651000Y-89040000D02*
X155651000Y-90916000D01*
X155691000Y-85104000D02*
X155691000Y-86960000D01*
X155691000Y-89040000D02*
X155691000Y-90896000D01*
X155731000Y-85124000D02*
X155731000Y-86960000D01*
X155731000Y-89040000D02*
X155731000Y-90876000D01*
X155771000Y-85144000D02*
X155771000Y-86960000D01*
X155771000Y-89040000D02*
X155771000Y-90856000D01*
X155811000Y-85166000D02*
X155811000Y-86960000D01*
X155811000Y-89040000D02*
X155811000Y-90834000D01*
X155851000Y-85188000D02*
X155851000Y-86960000D01*
X155851000Y-89040000D02*
X155851000Y-90812000D01*
X155891000Y-85210000D02*
X155891000Y-86960000D01*
X155891000Y-89040000D02*
X155891000Y-90790000D01*
X155931000Y-85234000D02*
X155931000Y-86960000D01*
X155931000Y-89040000D02*
X155931000Y-90766000D01*
X155971000Y-85258000D02*
X155971000Y-86960000D01*
X155971000Y-89040000D02*
X155971000Y-90742000D01*
X156011000Y-85284000D02*
X156011000Y-86960000D01*
X156011000Y-89040000D02*
X156011000Y-90716000D01*
X156051000Y-85310000D02*
X156051000Y-86960000D01*
X156051000Y-89040000D02*
X156051000Y-90690000D01*
X156091000Y-85336000D02*
X156091000Y-86960000D01*
X156091000Y-89040000D02*
X156091000Y-90664000D01*
X156131000Y-85364000D02*
X156131000Y-86960000D01*
X156131000Y-89040000D02*
X156131000Y-90636000D01*
X156171000Y-85393000D02*
X156171000Y-86960000D01*
X156171000Y-89040000D02*
X156171000Y-90607000D01*
X156211000Y-85422000D02*
X156211000Y-86960000D01*
X156211000Y-89040000D02*
X156211000Y-90578000D01*
X156251000Y-85452000D02*
X156251000Y-86960000D01*
X156251000Y-89040000D02*
X156251000Y-90548000D01*
X156291000Y-85484000D02*
X156291000Y-86960000D01*
X156291000Y-89040000D02*
X156291000Y-90516000D01*
X156331000Y-85516000D02*
X156331000Y-86960000D01*
X156331000Y-89040000D02*
X156331000Y-90484000D01*
X156371000Y-85550000D02*
X156371000Y-86960000D01*
X156371000Y-89040000D02*
X156371000Y-90450000D01*
X156411000Y-85584000D02*
X156411000Y-86960000D01*
X156411000Y-89040000D02*
X156411000Y-90416000D01*
X156451000Y-85620000D02*
X156451000Y-86960000D01*
X156451000Y-89040000D02*
X156451000Y-90380000D01*
X156491000Y-85657000D02*
X156491000Y-86960000D01*
X156491000Y-89040000D02*
X156491000Y-90343000D01*
X156531000Y-85695000D02*
X156531000Y-86960000D01*
X156531000Y-89040000D02*
X156531000Y-90305000D01*
X156571000Y-85735000D02*
X156571000Y-90265000D01*
X156611000Y-85776000D02*
X156611000Y-90224000D01*
X156651000Y-85818000D02*
X156651000Y-90182000D01*
X156691000Y-85863000D02*
X156691000Y-90137000D01*
X156731000Y-85908000D02*
X156731000Y-90092000D01*
X156771000Y-85956000D02*
X156771000Y-90044000D01*
X156811000Y-86005000D02*
X156811000Y-89995000D01*
X156851000Y-86056000D02*
X156851000Y-89944000D01*
X156891000Y-86110000D02*
X156891000Y-89890000D01*
X156931000Y-86166000D02*
X156931000Y-89834000D01*
X156971000Y-86224000D02*
X156971000Y-89776000D01*
X157011000Y-86286000D02*
X157011000Y-89714000D01*
X157051000Y-86350000D02*
X157051000Y-89650000D01*
X157091000Y-86419000D02*
X157091000Y-89581000D01*
X157131000Y-86491000D02*
X157131000Y-89509000D01*
X157171000Y-86568000D02*
X157171000Y-89432000D01*
X157211000Y-86650000D02*
X157211000Y-89350000D01*
X157251000Y-86738000D02*
X157251000Y-89262000D01*
X157291000Y-86835000D02*
X157291000Y-89165000D01*
X157331000Y-86941000D02*
X157331000Y-89059000D01*
X157371000Y-87060000D02*
X157371000Y-88940000D01*
X157411000Y-87198000D02*
X157411000Y-88802000D01*
X157451000Y-87367000D02*
X157451000Y-88633000D01*
X157491000Y-87598000D02*
X157491000Y-88402000D01*
X157520000Y-88000000D02*
G75*
G02*
X150980000Y-88000000I-3270000J0D01*
G01*
X150980000Y-88000000D02*
G75*
G02*
X157520000Y-88000000I3270000J0D01*
G01*
%TO.C,D5*%
X97110000Y-114014000D02*
X97110000Y-114170000D01*
X97110000Y-116330000D02*
X97110000Y-116486000D01*
X97110000Y-114014484D02*
G75*
G02*
X100341397Y-114169939I1560000J-1235516D01*
G01*
X97629039Y-114170000D02*
G75*
G02*
X99710910Y-114169951I1040961J-1080000D01*
G01*
X99710910Y-116330049D02*
G75*
G02*
X97629039Y-116330000I-1040910J1080049D01*
G01*
X100341397Y-116330061D02*
G75*
G02*
X97110000Y-116485516I-1671397J1080061D01*
G01*
%TO.C,J7*%
X157080000Y-27515000D02*
X157080000Y-27495000D01*
X157080000Y-20505000D02*
X157080000Y-20485000D01*
X157080000Y-20485000D02*
X156580000Y-20485000D01*
X156580000Y-27515000D02*
X157080000Y-27515000D01*
X156580000Y-20485000D02*
X156580000Y-27515000D01*
X155565000Y-19065000D02*
X152490000Y-19065000D01*
X152490000Y-28935000D02*
X155565000Y-28935000D01*
X152490000Y-19065000D02*
X152490000Y-28935000D01*
%TO.C,R5*%
X76090000Y-27777064D02*
X76090000Y-26322936D01*
X77910000Y-27777064D02*
X77910000Y-26322936D01*
%TO.C,R11*%
X58490000Y-45377064D02*
X58490000Y-43922936D01*
X60310000Y-45377064D02*
X60310000Y-43922936D01*
%TO.C,J1*%
X84265000Y-38445000D02*
X84265000Y-33245000D01*
X35945000Y-35845000D02*
X35945000Y-33245000D01*
X35945000Y-33245000D02*
X84265000Y-33245000D01*
X33345000Y-38445000D02*
X84265000Y-38445000D01*
X33345000Y-38445000D02*
X33345000Y-35845000D01*
X33345000Y-35845000D02*
X35945000Y-35845000D01*
X33345000Y-34575000D02*
X33345000Y-33245000D01*
X33345000Y-33245000D02*
X34675000Y-33245000D01*
%TO.C,R20*%
X108722936Y-100090000D02*
X110177064Y-100090000D01*
X108722936Y-101910000D02*
X110177064Y-101910000D01*
%TO.C,D1*%
X97110000Y-39764000D02*
X97110000Y-39920000D01*
X97110000Y-42080000D02*
X97110000Y-42236000D01*
X97110000Y-39764484D02*
G75*
G02*
X100341397Y-39919939I1560000J-1235516D01*
G01*
X97629039Y-39920000D02*
G75*
G02*
X99710910Y-39919951I1040961J-1080000D01*
G01*
X99710910Y-42080049D02*
G75*
G02*
X97629039Y-42080000I-1040910J1080049D01*
G01*
X100341397Y-42080061D02*
G75*
G02*
X97110000Y-42235516I-1671397J1080061D01*
G01*
%TO.C,R13*%
X75890000Y-45377064D02*
X75890000Y-43922936D01*
X77710000Y-45377064D02*
X77710000Y-43922936D01*
%TO.C,SW12*%
X122140000Y-17580000D02*
X122140000Y-35120000D01*
X119220000Y-33335000D02*
X119220000Y-32065000D01*
X119220000Y-32065000D02*
X115160000Y-32065000D01*
X119220000Y-30795000D02*
X119220000Y-29525000D01*
X119220000Y-29525000D02*
X115160000Y-29525000D01*
X119220000Y-28255000D02*
X119220000Y-26985000D01*
X119220000Y-26985000D02*
X115160000Y-26985000D01*
X119220000Y-25715000D02*
X119220000Y-24445000D01*
X119220000Y-24445000D02*
X115160000Y-24445000D01*
X119220000Y-23175000D02*
X119220000Y-21905000D01*
X119220000Y-21905000D02*
X115160000Y-21905000D01*
X119220000Y-20635000D02*
X119220000Y-19365000D01*
X119220000Y-19365000D02*
X115160000Y-19365000D01*
X116513333Y-32065000D02*
X116513333Y-33335000D01*
X116513333Y-29525000D02*
X116513333Y-30795000D01*
X116513333Y-26985000D02*
X116513333Y-28255000D01*
X116513333Y-24445000D02*
X116513333Y-25715000D01*
X116513333Y-21905000D02*
X116513333Y-23175000D01*
X116513333Y-19365000D02*
X116513333Y-20635000D01*
X115160000Y-33335000D02*
X119220000Y-33335000D01*
X115160000Y-33265000D02*
X116513333Y-33265000D01*
X115160000Y-33145000D02*
X116513333Y-33145000D01*
X115160000Y-33025000D02*
X116513333Y-33025000D01*
X115160000Y-32905000D02*
X116513333Y-32905000D01*
X115160000Y-32785000D02*
X116513333Y-32785000D01*
X115160000Y-32665000D02*
X116513333Y-32665000D01*
X115160000Y-32545000D02*
X116513333Y-32545000D01*
X115160000Y-32425000D02*
X116513333Y-32425000D01*
X115160000Y-32305000D02*
X116513333Y-32305000D01*
X115160000Y-32185000D02*
X116513333Y-32185000D01*
X115160000Y-32065000D02*
X115160000Y-33335000D01*
X115160000Y-30795000D02*
X119220000Y-30795000D01*
X115160000Y-30725000D02*
X116513333Y-30725000D01*
X115160000Y-30605000D02*
X116513333Y-30605000D01*
X115160000Y-30485000D02*
X116513333Y-30485000D01*
X115160000Y-30365000D02*
X116513333Y-30365000D01*
X115160000Y-30245000D02*
X116513333Y-30245000D01*
X115160000Y-30125000D02*
X116513333Y-30125000D01*
X115160000Y-30005000D02*
X116513333Y-30005000D01*
X115160000Y-29885000D02*
X116513333Y-29885000D01*
X115160000Y-29765000D02*
X116513333Y-29765000D01*
X115160000Y-29645000D02*
X116513333Y-29645000D01*
X115160000Y-29525000D02*
X115160000Y-30795000D01*
X115160000Y-28255000D02*
X119220000Y-28255000D01*
X115160000Y-28185000D02*
X116513333Y-28185000D01*
X115160000Y-28065000D02*
X116513333Y-28065000D01*
X115160000Y-27945000D02*
X116513333Y-27945000D01*
X115160000Y-27825000D02*
X116513333Y-27825000D01*
X115160000Y-27705000D02*
X116513333Y-27705000D01*
X115160000Y-27585000D02*
X116513333Y-27585000D01*
X115160000Y-27465000D02*
X116513333Y-27465000D01*
X115160000Y-27345000D02*
X116513333Y-27345000D01*
X115160000Y-27225000D02*
X116513333Y-27225000D01*
X115160000Y-27105000D02*
X116513333Y-27105000D01*
X115160000Y-26985000D02*
X115160000Y-28255000D01*
X115160000Y-25715000D02*
X119220000Y-25715000D01*
X115160000Y-25645000D02*
X116513333Y-25645000D01*
X115160000Y-25525000D02*
X116513333Y-25525000D01*
X115160000Y-25405000D02*
X116513333Y-25405000D01*
X115160000Y-25285000D02*
X116513333Y-25285000D01*
X115160000Y-25165000D02*
X116513333Y-25165000D01*
X115160000Y-25045000D02*
X116513333Y-25045000D01*
X115160000Y-24925000D02*
X116513333Y-24925000D01*
X115160000Y-24805000D02*
X116513333Y-24805000D01*
X115160000Y-24685000D02*
X116513333Y-24685000D01*
X115160000Y-24565000D02*
X116513333Y-24565000D01*
X115160000Y-24445000D02*
X115160000Y-25715000D01*
X115160000Y-23175000D02*
X119220000Y-23175000D01*
X115160000Y-23105000D02*
X116513333Y-23105000D01*
X115160000Y-22985000D02*
X116513333Y-22985000D01*
X115160000Y-22865000D02*
X116513333Y-22865000D01*
X115160000Y-22745000D02*
X116513333Y-22745000D01*
X115160000Y-22625000D02*
X116513333Y-22625000D01*
X115160000Y-22505000D02*
X116513333Y-22505000D01*
X115160000Y-22385000D02*
X116513333Y-22385000D01*
X115160000Y-22265000D02*
X116513333Y-22265000D01*
X115160000Y-22145000D02*
X116513333Y-22145000D01*
X115160000Y-22025000D02*
X116513333Y-22025000D01*
X115160000Y-21905000D02*
X115160000Y-23175000D01*
X115160000Y-20635000D02*
X119220000Y-20635000D01*
X115160000Y-20565000D02*
X116513333Y-20565000D01*
X115160000Y-20445000D02*
X116513333Y-20445000D01*
X115160000Y-20325000D02*
X116513333Y-20325000D01*
X115160000Y-20205000D02*
X116513333Y-20205000D01*
X115160000Y-20085000D02*
X116513333Y-20085000D01*
X115160000Y-19965000D02*
X116513333Y-19965000D01*
X115160000Y-19845000D02*
X116513333Y-19845000D01*
X115160000Y-19725000D02*
X116513333Y-19725000D01*
X115160000Y-19605000D02*
X116513333Y-19605000D01*
X115160000Y-19485000D02*
X116513333Y-19485000D01*
X115160000Y-19365000D02*
X115160000Y-20635000D01*
X112240000Y-35120000D02*
X122140000Y-35120000D01*
X112240000Y-17580000D02*
X122140000Y-17580000D01*
X112240000Y-17580000D02*
X112240000Y-35120000D01*
X112000000Y-17340000D02*
X113384000Y-17340000D01*
X112000000Y-17340000D02*
X112000000Y-18723000D01*
%TO.C,R4*%
X73090000Y-27777064D02*
X73090000Y-26322936D01*
X74910000Y-27777064D02*
X74910000Y-26322936D01*
%TO.C,L1*%
X131500000Y-15500000D02*
X125500000Y-15500000D01*
X125500000Y-31500000D01*
X131500000Y-31500000D01*
X131500000Y-15500000D01*
%TO.C,R17*%
X108722936Y-40090000D02*
X110177064Y-40090000D01*
X108722936Y-41910000D02*
X110177064Y-41910000D01*
%TO.C,D6*%
X97110000Y-131264000D02*
X97110000Y-131420000D01*
X97110000Y-133580000D02*
X97110000Y-133736000D01*
X97110000Y-131264484D02*
G75*
G02*
X100341397Y-131419939I1560000J-1235516D01*
G01*
X97629039Y-131420000D02*
G75*
G02*
X99710910Y-131419951I1040961J-1080000D01*
G01*
X99710910Y-133580049D02*
G75*
G02*
X97629039Y-133580000I-1040910J1080049D01*
G01*
X100341397Y-133580061D02*
G75*
G02*
X97110000Y-133735516I-1671397J1080061D01*
G01*
%TO.C,D7*%
X133990000Y-22350000D02*
X133990000Y-25650000D01*
X133990000Y-22350000D02*
X139500000Y-22350000D01*
X133990000Y-25650000D02*
X139500000Y-25650000D01*
%TO.C,U2*%
X132690000Y-112410000D02*
G75*
G02*
X134690000Y-112410000I1000000J0D01*
G01*
X136340000Y-112410000D02*
X136340000Y-91970000D01*
X136340000Y-91970000D02*
X131040000Y-91970000D01*
X134690000Y-112410000D02*
X136340000Y-112410000D01*
X131040000Y-112410000D02*
X132690000Y-112410000D01*
X131040000Y-91970000D02*
X131040000Y-112410000D01*
%TO.C,R28*%
X120272936Y-114090000D02*
X121727064Y-114090000D01*
X120272936Y-115910000D02*
X121727064Y-115910000D01*
%TO.C,SW11*%
X100500000Y-17340000D02*
X100500000Y-18723000D01*
X100500000Y-17340000D02*
X101884000Y-17340000D01*
X100740000Y-17580000D02*
X100740000Y-35120000D01*
X100740000Y-17580000D02*
X110640000Y-17580000D01*
X100740000Y-35120000D02*
X110640000Y-35120000D01*
X103660000Y-19365000D02*
X103660000Y-20635000D01*
X103660000Y-19485000D02*
X105013333Y-19485000D01*
X103660000Y-19605000D02*
X105013333Y-19605000D01*
X103660000Y-19725000D02*
X105013333Y-19725000D01*
X103660000Y-19845000D02*
X105013333Y-19845000D01*
X103660000Y-19965000D02*
X105013333Y-19965000D01*
X103660000Y-20085000D02*
X105013333Y-20085000D01*
X103660000Y-20205000D02*
X105013333Y-20205000D01*
X103660000Y-20325000D02*
X105013333Y-20325000D01*
X103660000Y-20445000D02*
X105013333Y-20445000D01*
X103660000Y-20565000D02*
X105013333Y-20565000D01*
X103660000Y-20635000D02*
X107720000Y-20635000D01*
X103660000Y-21905000D02*
X103660000Y-23175000D01*
X103660000Y-22025000D02*
X105013333Y-22025000D01*
X103660000Y-22145000D02*
X105013333Y-22145000D01*
X103660000Y-22265000D02*
X105013333Y-22265000D01*
X103660000Y-22385000D02*
X105013333Y-22385000D01*
X103660000Y-22505000D02*
X105013333Y-22505000D01*
X103660000Y-22625000D02*
X105013333Y-22625000D01*
X103660000Y-22745000D02*
X105013333Y-22745000D01*
X103660000Y-22865000D02*
X105013333Y-22865000D01*
X103660000Y-22985000D02*
X105013333Y-22985000D01*
X103660000Y-23105000D02*
X105013333Y-23105000D01*
X103660000Y-23175000D02*
X107720000Y-23175000D01*
X103660000Y-24445000D02*
X103660000Y-25715000D01*
X103660000Y-24565000D02*
X105013333Y-24565000D01*
X103660000Y-24685000D02*
X105013333Y-24685000D01*
X103660000Y-24805000D02*
X105013333Y-24805000D01*
X103660000Y-24925000D02*
X105013333Y-24925000D01*
X103660000Y-25045000D02*
X105013333Y-25045000D01*
X103660000Y-25165000D02*
X105013333Y-25165000D01*
X103660000Y-25285000D02*
X105013333Y-25285000D01*
X103660000Y-25405000D02*
X105013333Y-25405000D01*
X103660000Y-25525000D02*
X105013333Y-25525000D01*
X103660000Y-25645000D02*
X105013333Y-25645000D01*
X103660000Y-25715000D02*
X107720000Y-25715000D01*
X103660000Y-26985000D02*
X103660000Y-28255000D01*
X103660000Y-27105000D02*
X105013333Y-27105000D01*
X103660000Y-27225000D02*
X105013333Y-27225000D01*
X103660000Y-27345000D02*
X105013333Y-27345000D01*
X103660000Y-27465000D02*
X105013333Y-27465000D01*
X103660000Y-27585000D02*
X105013333Y-27585000D01*
X103660000Y-27705000D02*
X105013333Y-27705000D01*
X103660000Y-27825000D02*
X105013333Y-27825000D01*
X103660000Y-27945000D02*
X105013333Y-27945000D01*
X103660000Y-28065000D02*
X105013333Y-28065000D01*
X103660000Y-28185000D02*
X105013333Y-28185000D01*
X103660000Y-28255000D02*
X107720000Y-28255000D01*
X103660000Y-29525000D02*
X103660000Y-30795000D01*
X103660000Y-29645000D02*
X105013333Y-29645000D01*
X103660000Y-29765000D02*
X105013333Y-29765000D01*
X103660000Y-29885000D02*
X105013333Y-29885000D01*
X103660000Y-30005000D02*
X105013333Y-30005000D01*
X103660000Y-30125000D02*
X105013333Y-30125000D01*
X103660000Y-30245000D02*
X105013333Y-30245000D01*
X103660000Y-30365000D02*
X105013333Y-30365000D01*
X103660000Y-30485000D02*
X105013333Y-30485000D01*
X103660000Y-30605000D02*
X105013333Y-30605000D01*
X103660000Y-30725000D02*
X105013333Y-30725000D01*
X103660000Y-30795000D02*
X107720000Y-30795000D01*
X103660000Y-32065000D02*
X103660000Y-33335000D01*
X103660000Y-32185000D02*
X105013333Y-32185000D01*
X103660000Y-32305000D02*
X105013333Y-32305000D01*
X103660000Y-32425000D02*
X105013333Y-32425000D01*
X103660000Y-32545000D02*
X105013333Y-32545000D01*
X103660000Y-32665000D02*
X105013333Y-32665000D01*
X103660000Y-32785000D02*
X105013333Y-32785000D01*
X103660000Y-32905000D02*
X105013333Y-32905000D01*
X103660000Y-33025000D02*
X105013333Y-33025000D01*
X103660000Y-33145000D02*
X105013333Y-33145000D01*
X103660000Y-33265000D02*
X105013333Y-33265000D01*
X103660000Y-33335000D02*
X107720000Y-33335000D01*
X105013333Y-19365000D02*
X105013333Y-20635000D01*
X105013333Y-21905000D02*
X105013333Y-23175000D01*
X105013333Y-24445000D02*
X105013333Y-25715000D01*
X105013333Y-26985000D02*
X105013333Y-28255000D01*
X105013333Y-29525000D02*
X105013333Y-30795000D01*
X105013333Y-32065000D02*
X105013333Y-33335000D01*
X107720000Y-19365000D02*
X103660000Y-19365000D01*
X107720000Y-20635000D02*
X107720000Y-19365000D01*
X107720000Y-21905000D02*
X103660000Y-21905000D01*
X107720000Y-23175000D02*
X107720000Y-21905000D01*
X107720000Y-24445000D02*
X103660000Y-24445000D01*
X107720000Y-25715000D02*
X107720000Y-24445000D01*
X107720000Y-26985000D02*
X103660000Y-26985000D01*
X107720000Y-28255000D02*
X107720000Y-26985000D01*
X107720000Y-29525000D02*
X103660000Y-29525000D01*
X107720000Y-30795000D02*
X107720000Y-29525000D01*
X107720000Y-32065000D02*
X103660000Y-32065000D01*
X107720000Y-33335000D02*
X107720000Y-32065000D01*
X110640000Y-17580000D02*
X110640000Y-35120000D01*
%TO.C,R21*%
X108722936Y-114240000D02*
X110177064Y-114240000D01*
X108722936Y-116060000D02*
X110177064Y-116060000D01*
%TO.C,R31*%
X89772936Y-103090000D02*
X91227064Y-103090000D01*
X89772936Y-104910000D02*
X91227064Y-104910000D01*
%TO.C,R6*%
X79090000Y-27777064D02*
X79090000Y-26322936D01*
X80910000Y-27777064D02*
X80910000Y-26322936D01*
%TO.C,R26*%
X124590000Y-79277064D02*
X124590000Y-77822936D01*
X126410000Y-79277064D02*
X126410000Y-77822936D01*
%TO.C,R15*%
X66790000Y-45377064D02*
X66790000Y-43922936D01*
X68610000Y-45377064D02*
X68610000Y-43922936D01*
%TO.C,L4*%
X146040000Y-76300000D02*
X152640000Y-76300000D01*
X146040000Y-78000000D02*
X146040000Y-76300000D01*
X146040000Y-82700000D02*
X146040000Y-81000000D01*
X152640000Y-76300000D02*
X152640000Y-78000000D01*
X152640000Y-81000000D02*
X152640000Y-82700000D01*
X152640000Y-82700000D02*
X146040000Y-82700000D01*
%TO.C,R16*%
X63190000Y-45377064D02*
X63190000Y-43922936D01*
X65010000Y-45377064D02*
X65010000Y-43922936D01*
%TO.C,R24*%
X121527064Y-58090000D02*
X120072936Y-58090000D01*
X121527064Y-59910000D02*
X120072936Y-59910000D01*
%TO.C,R18*%
X108722936Y-57390000D02*
X110177064Y-57390000D01*
X108722936Y-59210000D02*
X110177064Y-59210000D01*
%TO.C,C5*%
X126509000Y-38033000D02*
X126509000Y-36967000D01*
X126549000Y-38268000D02*
X126549000Y-36732000D01*
X126589000Y-38448000D02*
X126589000Y-36552000D01*
X126629000Y-38598000D02*
X126629000Y-36402000D01*
X126669000Y-38729000D02*
X126669000Y-36271000D01*
X126709000Y-38846000D02*
X126709000Y-36154000D01*
X126749000Y-38953000D02*
X126749000Y-36047000D01*
X126789000Y-39052000D02*
X126789000Y-35948000D01*
X126829000Y-39145000D02*
X126829000Y-35855000D01*
X126869000Y-39231000D02*
X126869000Y-35769000D01*
X126909000Y-39313000D02*
X126909000Y-35687000D01*
X126949000Y-39390000D02*
X126949000Y-35610000D01*
X126989000Y-39464000D02*
X126989000Y-35536000D01*
X127029000Y-39534000D02*
X127029000Y-35466000D01*
X127069000Y-39602000D02*
X127069000Y-35398000D01*
X127109000Y-39666000D02*
X127109000Y-35334000D01*
X127149000Y-39728000D02*
X127149000Y-35272000D01*
X127189000Y-39787000D02*
X127189000Y-35213000D01*
X127229000Y-39845000D02*
X127229000Y-35155000D01*
X127269000Y-39900000D02*
X127269000Y-35100000D01*
X127309000Y-39954000D02*
X127309000Y-35046000D01*
X127349000Y-40005000D02*
X127349000Y-34995000D01*
X127389000Y-40056000D02*
X127389000Y-34944000D01*
X127429000Y-40104000D02*
X127429000Y-34896000D01*
X127469000Y-40151000D02*
X127469000Y-34849000D01*
X127509000Y-40197000D02*
X127509000Y-34803000D01*
X127549000Y-40241000D02*
X127549000Y-34759000D01*
X127589000Y-40284000D02*
X127589000Y-34716000D01*
X127629000Y-40326000D02*
X127629000Y-34674000D01*
X127669000Y-40367000D02*
X127669000Y-34633000D01*
X127709000Y-40407000D02*
X127709000Y-34593000D01*
X127749000Y-40445000D02*
X127749000Y-34555000D01*
X127789000Y-40483000D02*
X127789000Y-34517000D01*
X127829000Y-36460000D02*
X127829000Y-34481000D01*
X127829000Y-40519000D02*
X127829000Y-38540000D01*
X127869000Y-36460000D02*
X127869000Y-34445000D01*
X127869000Y-40555000D02*
X127869000Y-38540000D01*
X127909000Y-36460000D02*
X127909000Y-34410000D01*
X127909000Y-40590000D02*
X127909000Y-38540000D01*
X127949000Y-36460000D02*
X127949000Y-34376000D01*
X127949000Y-40624000D02*
X127949000Y-38540000D01*
X127989000Y-36460000D02*
X127989000Y-34344000D01*
X127989000Y-40656000D02*
X127989000Y-38540000D01*
X128029000Y-36460000D02*
X128029000Y-34311000D01*
X128029000Y-40689000D02*
X128029000Y-38540000D01*
X128069000Y-36460000D02*
X128069000Y-34280000D01*
X128069000Y-40720000D02*
X128069000Y-38540000D01*
X128109000Y-36460000D02*
X128109000Y-34250000D01*
X128109000Y-40750000D02*
X128109000Y-38540000D01*
X128149000Y-36460000D02*
X128149000Y-34220000D01*
X128149000Y-40780000D02*
X128149000Y-38540000D01*
X128189000Y-36460000D02*
X128189000Y-34191000D01*
X128189000Y-40809000D02*
X128189000Y-38540000D01*
X128229000Y-36460000D02*
X128229000Y-34162000D01*
X128229000Y-40838000D02*
X128229000Y-38540000D01*
X128269000Y-36460000D02*
X128269000Y-34135000D01*
X128269000Y-40865000D02*
X128269000Y-38540000D01*
X128309000Y-36460000D02*
X128309000Y-34108000D01*
X128309000Y-40892000D02*
X128309000Y-38540000D01*
X128349000Y-36460000D02*
X128349000Y-34082000D01*
X128349000Y-40918000D02*
X128349000Y-38540000D01*
X128389000Y-36460000D02*
X128389000Y-34056000D01*
X128389000Y-40944000D02*
X128389000Y-38540000D01*
X128429000Y-36460000D02*
X128429000Y-34031000D01*
X128429000Y-40969000D02*
X128429000Y-38540000D01*
X128469000Y-36460000D02*
X128469000Y-34007000D01*
X128469000Y-40993000D02*
X128469000Y-38540000D01*
X128509000Y-36460000D02*
X128509000Y-33983000D01*
X128509000Y-41017000D02*
X128509000Y-38540000D01*
X128549000Y-36460000D02*
X128549000Y-33960000D01*
X128549000Y-41040000D02*
X128549000Y-38540000D01*
X128589000Y-36460000D02*
X128589000Y-33938000D01*
X128589000Y-41062000D02*
X128589000Y-38540000D01*
X128629000Y-36460000D02*
X128629000Y-33916000D01*
X128629000Y-41084000D02*
X128629000Y-38540000D01*
X128669000Y-36460000D02*
X128669000Y-33894000D01*
X128669000Y-41106000D02*
X128669000Y-38540000D01*
X128709000Y-36460000D02*
X128709000Y-33873000D01*
X128709000Y-41127000D02*
X128709000Y-38540000D01*
X128749000Y-36460000D02*
X128749000Y-33853000D01*
X128749000Y-41147000D02*
X128749000Y-38540000D01*
X128789000Y-36460000D02*
X128789000Y-33834000D01*
X128789000Y-41166000D02*
X128789000Y-38540000D01*
X128829000Y-36460000D02*
X128829000Y-33814000D01*
X128829000Y-41186000D02*
X128829000Y-38540000D01*
X128869000Y-36460000D02*
X128869000Y-33796000D01*
X128869000Y-41204000D02*
X128869000Y-38540000D01*
X128909000Y-36460000D02*
X128909000Y-33778000D01*
X128909000Y-41222000D02*
X128909000Y-38540000D01*
X128949000Y-36460000D02*
X128949000Y-33760000D01*
X128949000Y-41240000D02*
X128949000Y-38540000D01*
X128989000Y-36460000D02*
X128989000Y-33743000D01*
X128989000Y-41257000D02*
X128989000Y-38540000D01*
X129029000Y-36460000D02*
X129029000Y-33726000D01*
X129029000Y-41274000D02*
X129029000Y-38540000D01*
X129069000Y-36460000D02*
X129069000Y-33710000D01*
X129069000Y-41290000D02*
X129069000Y-38540000D01*
X129109000Y-36460000D02*
X129109000Y-33695000D01*
X129109000Y-41305000D02*
X129109000Y-38540000D01*
X129149000Y-36460000D02*
X129149000Y-33679000D01*
X129149000Y-41321000D02*
X129149000Y-38540000D01*
X129189000Y-36460000D02*
X129189000Y-33665000D01*
X129189000Y-41335000D02*
X129189000Y-38540000D01*
X129229000Y-36460000D02*
X129229000Y-33650000D01*
X129229000Y-41350000D02*
X129229000Y-38540000D01*
X129269000Y-36460000D02*
X129269000Y-33637000D01*
X129269000Y-41363000D02*
X129269000Y-38540000D01*
X129309000Y-36460000D02*
X129309000Y-33623000D01*
X129309000Y-41377000D02*
X129309000Y-38540000D01*
X129349000Y-36460000D02*
X129349000Y-33611000D01*
X129349000Y-41389000D02*
X129349000Y-38540000D01*
X129389000Y-36460000D02*
X129389000Y-33598000D01*
X129389000Y-41402000D02*
X129389000Y-38540000D01*
X129429000Y-36460000D02*
X129429000Y-33586000D01*
X129429000Y-41414000D02*
X129429000Y-38540000D01*
X129469000Y-36460000D02*
X129469000Y-33575000D01*
X129469000Y-41425000D02*
X129469000Y-38540000D01*
X129509000Y-36460000D02*
X129509000Y-33564000D01*
X129509000Y-41436000D02*
X129509000Y-38540000D01*
X129549000Y-36460000D02*
X129549000Y-33553000D01*
X129549000Y-41447000D02*
X129549000Y-38540000D01*
X129589000Y-36460000D02*
X129589000Y-33543000D01*
X129589000Y-41457000D02*
X129589000Y-38540000D01*
X129629000Y-36460000D02*
X129629000Y-33533000D01*
X129629000Y-41467000D02*
X129629000Y-38540000D01*
X129669000Y-36460000D02*
X129669000Y-33524000D01*
X129669000Y-41476000D02*
X129669000Y-38540000D01*
X129709000Y-36460000D02*
X129709000Y-33515000D01*
X129709000Y-41485000D02*
X129709000Y-38540000D01*
X129749000Y-36460000D02*
X129749000Y-33506000D01*
X129749000Y-41494000D02*
X129749000Y-38540000D01*
X129789000Y-36460000D02*
X129789000Y-33498000D01*
X129789000Y-41502000D02*
X129789000Y-38540000D01*
X129829000Y-36460000D02*
X129829000Y-33490000D01*
X129829000Y-41510000D02*
X129829000Y-38540000D01*
X129869000Y-36460000D02*
X129869000Y-33483000D01*
X129869000Y-41517000D02*
X129869000Y-38540000D01*
X129910000Y-41524000D02*
X129910000Y-33476000D01*
X129950000Y-41530000D02*
X129950000Y-33470000D01*
X129990000Y-41537000D02*
X129990000Y-33463000D01*
X130030000Y-41542000D02*
X130030000Y-33458000D01*
X130070000Y-41548000D02*
X130070000Y-33452000D01*
X130110000Y-41552000D02*
X130110000Y-33448000D01*
X130150000Y-41557000D02*
X130150000Y-33443000D01*
X130190000Y-41561000D02*
X130190000Y-33439000D01*
X130230000Y-41565000D02*
X130230000Y-33435000D01*
X130270000Y-41568000D02*
X130270000Y-33432000D01*
X130310000Y-41571000D02*
X130310000Y-33429000D01*
X130350000Y-41574000D02*
X130350000Y-33426000D01*
X130390000Y-41576000D02*
X130390000Y-33424000D01*
X130430000Y-41577000D02*
X130430000Y-33423000D01*
X130470000Y-41579000D02*
X130470000Y-33421000D01*
X130510000Y-41580000D02*
X130510000Y-33420000D01*
X130550000Y-41580000D02*
X130550000Y-33420000D01*
X130590000Y-41580000D02*
X130590000Y-33420000D01*
X134599698Y-40215000D02*
X134599698Y-39415000D01*
X134999698Y-39815000D02*
X134199698Y-39815000D01*
X134710000Y-37500000D02*
G75*
G02*
X126470000Y-37500000I-4120000J0D01*
G01*
X126470000Y-37500000D02*
G75*
G02*
X134710000Y-37500000I4120000J0D01*
G01*
%TO.C,D3*%
X97110000Y-79764000D02*
X97110000Y-79920000D01*
X97110000Y-82080000D02*
X97110000Y-82236000D01*
X97110000Y-79764484D02*
G75*
G02*
X100341397Y-79919939I1560000J-1235516D01*
G01*
X97629039Y-79920000D02*
G75*
G02*
X99710910Y-79919951I1040961J-1080000D01*
G01*
X99710910Y-82080049D02*
G75*
G02*
X97629039Y-82080000I-1040910J1080049D01*
G01*
X100341397Y-82080061D02*
G75*
G02*
X97110000Y-82235516I-1671397J1080061D01*
G01*
%TO.C,C8*%
X136589759Y-75661000D02*
X137219759Y-75661000D01*
X136904759Y-75346000D02*
X136904759Y-75976000D01*
X140090000Y-74270000D02*
X140090000Y-80730000D01*
X140130000Y-74270000D02*
X140130000Y-80730000D01*
X140170000Y-74270000D02*
X140170000Y-80730000D01*
X140210000Y-74272000D02*
X140210000Y-80728000D01*
X140250000Y-74273000D02*
X140250000Y-80727000D01*
X140290000Y-74276000D02*
X140290000Y-80724000D01*
X140330000Y-74278000D02*
X140330000Y-76460000D01*
X140330000Y-78540000D02*
X140330000Y-80722000D01*
X140370000Y-74282000D02*
X140370000Y-76460000D01*
X140370000Y-78540000D02*
X140370000Y-80718000D01*
X140410000Y-74285000D02*
X140410000Y-76460000D01*
X140410000Y-78540000D02*
X140410000Y-80715000D01*
X140450000Y-74289000D02*
X140450000Y-76460000D01*
X140450000Y-78540000D02*
X140450000Y-80711000D01*
X140490000Y-74294000D02*
X140490000Y-76460000D01*
X140490000Y-78540000D02*
X140490000Y-80706000D01*
X140530000Y-74299000D02*
X140530000Y-76460000D01*
X140530000Y-78540000D02*
X140530000Y-80701000D01*
X140570000Y-74305000D02*
X140570000Y-76460000D01*
X140570000Y-78540000D02*
X140570000Y-80695000D01*
X140610000Y-74311000D02*
X140610000Y-76460000D01*
X140610000Y-78540000D02*
X140610000Y-80689000D01*
X140650000Y-74318000D02*
X140650000Y-76460000D01*
X140650000Y-78540000D02*
X140650000Y-80682000D01*
X140690000Y-74325000D02*
X140690000Y-76460000D01*
X140690000Y-78540000D02*
X140690000Y-80675000D01*
X140730000Y-74333000D02*
X140730000Y-76460000D01*
X140730000Y-78540000D02*
X140730000Y-80667000D01*
X140770000Y-74341000D02*
X140770000Y-76460000D01*
X140770000Y-78540000D02*
X140770000Y-80659000D01*
X140811000Y-74350000D02*
X140811000Y-76460000D01*
X140811000Y-78540000D02*
X140811000Y-80650000D01*
X140851000Y-74359000D02*
X140851000Y-76460000D01*
X140851000Y-78540000D02*
X140851000Y-80641000D01*
X140891000Y-74369000D02*
X140891000Y-76460000D01*
X140891000Y-78540000D02*
X140891000Y-80631000D01*
X140931000Y-74379000D02*
X140931000Y-76460000D01*
X140931000Y-78540000D02*
X140931000Y-80621000D01*
X140971000Y-74390000D02*
X140971000Y-76460000D01*
X140971000Y-78540000D02*
X140971000Y-80610000D01*
X141011000Y-74402000D02*
X141011000Y-76460000D01*
X141011000Y-78540000D02*
X141011000Y-80598000D01*
X141051000Y-74414000D02*
X141051000Y-76460000D01*
X141051000Y-78540000D02*
X141051000Y-80586000D01*
X141091000Y-74426000D02*
X141091000Y-76460000D01*
X141091000Y-78540000D02*
X141091000Y-80574000D01*
X141131000Y-74439000D02*
X141131000Y-76460000D01*
X141131000Y-78540000D02*
X141131000Y-80561000D01*
X141171000Y-74453000D02*
X141171000Y-76460000D01*
X141171000Y-78540000D02*
X141171000Y-80547000D01*
X141211000Y-74467000D02*
X141211000Y-76460000D01*
X141211000Y-78540000D02*
X141211000Y-80533000D01*
X141251000Y-74482000D02*
X141251000Y-76460000D01*
X141251000Y-78540000D02*
X141251000Y-80518000D01*
X141291000Y-74498000D02*
X141291000Y-76460000D01*
X141291000Y-78540000D02*
X141291000Y-80502000D01*
X141331000Y-74514000D02*
X141331000Y-76460000D01*
X141331000Y-78540000D02*
X141331000Y-80486000D01*
X141371000Y-74530000D02*
X141371000Y-76460000D01*
X141371000Y-78540000D02*
X141371000Y-80470000D01*
X141411000Y-74548000D02*
X141411000Y-76460000D01*
X141411000Y-78540000D02*
X141411000Y-80452000D01*
X141451000Y-74566000D02*
X141451000Y-76460000D01*
X141451000Y-78540000D02*
X141451000Y-80434000D01*
X141491000Y-74584000D02*
X141491000Y-76460000D01*
X141491000Y-78540000D02*
X141491000Y-80416000D01*
X141531000Y-74604000D02*
X141531000Y-76460000D01*
X141531000Y-78540000D02*
X141531000Y-80396000D01*
X141571000Y-74624000D02*
X141571000Y-76460000D01*
X141571000Y-78540000D02*
X141571000Y-80376000D01*
X141611000Y-74644000D02*
X141611000Y-76460000D01*
X141611000Y-78540000D02*
X141611000Y-80356000D01*
X141651000Y-74666000D02*
X141651000Y-76460000D01*
X141651000Y-78540000D02*
X141651000Y-80334000D01*
X141691000Y-74688000D02*
X141691000Y-76460000D01*
X141691000Y-78540000D02*
X141691000Y-80312000D01*
X141731000Y-74710000D02*
X141731000Y-76460000D01*
X141731000Y-78540000D02*
X141731000Y-80290000D01*
X141771000Y-74734000D02*
X141771000Y-76460000D01*
X141771000Y-78540000D02*
X141771000Y-80266000D01*
X141811000Y-74758000D02*
X141811000Y-76460000D01*
X141811000Y-78540000D02*
X141811000Y-80242000D01*
X141851000Y-74784000D02*
X141851000Y-76460000D01*
X141851000Y-78540000D02*
X141851000Y-80216000D01*
X141891000Y-74810000D02*
X141891000Y-76460000D01*
X141891000Y-78540000D02*
X141891000Y-80190000D01*
X141931000Y-74836000D02*
X141931000Y-76460000D01*
X141931000Y-78540000D02*
X141931000Y-80164000D01*
X141971000Y-74864000D02*
X141971000Y-76460000D01*
X141971000Y-78540000D02*
X141971000Y-80136000D01*
X142011000Y-74893000D02*
X142011000Y-76460000D01*
X142011000Y-78540000D02*
X142011000Y-80107000D01*
X142051000Y-74922000D02*
X142051000Y-76460000D01*
X142051000Y-78540000D02*
X142051000Y-80078000D01*
X142091000Y-74952000D02*
X142091000Y-76460000D01*
X142091000Y-78540000D02*
X142091000Y-80048000D01*
X142131000Y-74984000D02*
X142131000Y-76460000D01*
X142131000Y-78540000D02*
X142131000Y-80016000D01*
X142171000Y-75016000D02*
X142171000Y-76460000D01*
X142171000Y-78540000D02*
X142171000Y-79984000D01*
X142211000Y-75050000D02*
X142211000Y-76460000D01*
X142211000Y-78540000D02*
X142211000Y-79950000D01*
X142251000Y-75084000D02*
X142251000Y-76460000D01*
X142251000Y-78540000D02*
X142251000Y-79916000D01*
X142291000Y-75120000D02*
X142291000Y-76460000D01*
X142291000Y-78540000D02*
X142291000Y-79880000D01*
X142331000Y-75157000D02*
X142331000Y-76460000D01*
X142331000Y-78540000D02*
X142331000Y-79843000D01*
X142371000Y-75195000D02*
X142371000Y-76460000D01*
X142371000Y-78540000D02*
X142371000Y-79805000D01*
X142411000Y-75235000D02*
X142411000Y-79765000D01*
X142451000Y-75276000D02*
X142451000Y-79724000D01*
X142491000Y-75318000D02*
X142491000Y-79682000D01*
X142531000Y-75363000D02*
X142531000Y-79637000D01*
X142571000Y-75408000D02*
X142571000Y-79592000D01*
X142611000Y-75456000D02*
X142611000Y-79544000D01*
X142651000Y-75505000D02*
X142651000Y-79495000D01*
X142691000Y-75556000D02*
X142691000Y-79444000D01*
X142731000Y-75610000D02*
X142731000Y-79390000D01*
X142771000Y-75666000D02*
X142771000Y-79334000D01*
X142811000Y-75724000D02*
X142811000Y-79276000D01*
X142851000Y-75786000D02*
X142851000Y-79214000D01*
X142891000Y-75850000D02*
X142891000Y-79150000D01*
X142931000Y-75919000D02*
X142931000Y-79081000D01*
X142971000Y-75991000D02*
X142971000Y-79009000D01*
X143011000Y-76068000D02*
X143011000Y-78932000D01*
X143051000Y-76150000D02*
X143051000Y-78850000D01*
X143091000Y-76238000D02*
X143091000Y-78762000D01*
X143131000Y-76335000D02*
X143131000Y-78665000D01*
X143171000Y-76441000D02*
X143171000Y-78559000D01*
X143211000Y-76560000D02*
X143211000Y-78440000D01*
X143251000Y-76698000D02*
X143251000Y-78302000D01*
X143291000Y-76867000D02*
X143291000Y-78133000D01*
X143331000Y-77098000D02*
X143331000Y-77902000D01*
X143360000Y-77500000D02*
G75*
G02*
X136820000Y-77500000I-3270000J0D01*
G01*
X136820000Y-77500000D02*
G75*
G02*
X143360000Y-77500000I3270000J0D01*
G01*
%TO.C,R41*%
X149222936Y-115304285D02*
X150677064Y-115304285D01*
X149222936Y-117124285D02*
X150677064Y-117124285D01*
%TO.C,L2*%
X137040000Y-34800000D02*
X143640000Y-34800000D01*
X137040000Y-36500000D02*
X137040000Y-34800000D01*
X137040000Y-41200000D02*
X137040000Y-39500000D01*
X143640000Y-34800000D02*
X143640000Y-36500000D01*
X143640000Y-39500000D02*
X143640000Y-41200000D01*
X143640000Y-41200000D02*
X137040000Y-41200000D01*
%TO.C,R22*%
X108722936Y-128390000D02*
X110177064Y-128390000D01*
X108722936Y-130210000D02*
X110177064Y-130210000D01*
%TO.C,SW1*%
X97500000Y-50250000D02*
X97500000Y-51750000D01*
X98750000Y-54250000D02*
X103250000Y-54250000D01*
X103250000Y-47750000D02*
X98750000Y-47750000D01*
X104500000Y-51750000D02*
X104500000Y-50250000D01*
%TD*%
M02*
