%TF.GenerationSoftware,KiCad,Pcbnew,8.0.7-8.0.7-0~ubuntu24.10.1*%
%TF.CreationDate,2025-01-04T20:14:33+02:00*%
%TF.ProjectId,fpga_board,66706761-5f62-46f6-9172-642e6b696361,rev?*%
%TF.SameCoordinates,Original*%
%TF.FileFunction,Paste,Bot*%
%TF.FilePolarity,Positive*%
%FSLAX46Y46*%
G04 Gerber Fmt 4.6, Leading zero omitted, Abs format (unit mm)*
G04 Created by KiCad (PCBNEW 8.0.7-8.0.7-0~ubuntu24.10.1) date 2025-01-04 20:14:33*
%MOMM*%
%LPD*%
G01*
G04 APERTURE LIST*
G04 Aperture macros list*
%AMRoundRect*
0 Rectangle with rounded corners*
0 $1 Rounding radius*
0 $2 $3 $4 $5 $6 $7 $8 $9 X,Y pos of 4 corners*
0 Add a 4 corners polygon primitive as box body*
4,1,4,$2,$3,$4,$5,$6,$7,$8,$9,$2,$3,0*
0 Add four circle primitives for the rounded corners*
1,1,$1+$1,$2,$3*
1,1,$1+$1,$4,$5*
1,1,$1+$1,$6,$7*
1,1,$1+$1,$8,$9*
0 Add four rect primitives between the rounded corners*
20,1,$1+$1,$2,$3,$4,$5,0*
20,1,$1+$1,$4,$5,$6,$7,0*
20,1,$1+$1,$6,$7,$8,$9,0*
20,1,$1+$1,$8,$9,$2,$3,0*%
G04 Aperture macros list end*
%ADD10RoundRect,0.250000X0.625000X-0.400000X0.625000X0.400000X-0.625000X0.400000X-0.625000X-0.400000X0*%
%ADD11RoundRect,0.250000X-0.625000X0.400000X-0.625000X-0.400000X0.625000X-0.400000X0.625000X0.400000X0*%
%ADD12RoundRect,0.150000X-0.587500X-0.150000X0.587500X-0.150000X0.587500X0.150000X-0.587500X0.150000X0*%
%ADD13RoundRect,0.250000X-0.400000X-0.625000X0.400000X-0.625000X0.400000X0.625000X-0.400000X0.625000X0*%
%ADD14RoundRect,0.250000X0.412500X0.650000X-0.412500X0.650000X-0.412500X-0.650000X0.412500X-0.650000X0*%
%ADD15RoundRect,0.250000X-0.412500X-0.650000X0.412500X-0.650000X0.412500X0.650000X-0.412500X0.650000X0*%
G04 APERTURE END LIST*
D10*
%TO.C,R64*%
X145900000Y-99700000D03*
X145900000Y-96600000D03*
%TD*%
D11*
%TO.C,R61*%
X145900000Y-125400000D03*
X145900000Y-128500000D03*
%TD*%
%TO.C,R58*%
X140800000Y-94900000D03*
X140800000Y-98000000D03*
%TD*%
%TO.C,R55*%
X140800000Y-100770000D03*
X140800000Y-103870000D03*
%TD*%
%TO.C,R52*%
X140800000Y-106640000D03*
X140800000Y-109740000D03*
%TD*%
D10*
%TO.C,R49*%
X140800000Y-115610000D03*
X140800000Y-112510000D03*
%TD*%
D11*
%TO.C,R46*%
X140800000Y-118380000D03*
X140800000Y-121480000D03*
%TD*%
%TO.C,R44*%
X140800000Y-124250000D03*
X140800000Y-127350000D03*
%TD*%
D12*
%TO.C,Q8*%
X148625000Y-102950000D03*
X148625000Y-101050000D03*
X150500000Y-102000000D03*
%TD*%
%TO.C,Q7*%
X144000000Y-121400000D03*
X144000000Y-119500000D03*
X145875000Y-120450000D03*
%TD*%
%TO.C,Q6*%
X144000000Y-105450000D03*
X144000000Y-103550000D03*
X145875000Y-104500000D03*
%TD*%
%TO.C,Q5*%
X148625000Y-108283333D03*
X148625000Y-106383333D03*
X150500000Y-107333333D03*
%TD*%
%TO.C,Q4*%
X144000000Y-110766666D03*
X144000000Y-108866666D03*
X145875000Y-109816666D03*
%TD*%
%TO.C,Q3*%
X148625000Y-113616666D03*
X148625000Y-111716666D03*
X150500000Y-112666666D03*
%TD*%
%TO.C,Q2*%
X144000000Y-116083332D03*
X144000000Y-114183332D03*
X145875000Y-115133332D03*
%TD*%
%TO.C,Q1*%
X148625000Y-118950000D03*
X148625000Y-117050000D03*
X150500000Y-118000000D03*
%TD*%
D13*
%TO.C,R40*%
X124500000Y-117000000D03*
X127600000Y-117000000D03*
%TD*%
%TO.C,R37*%
X124400000Y-132500000D03*
X127500000Y-132500000D03*
%TD*%
%TO.C,R33*%
X124400000Y-111000000D03*
X127500000Y-111000000D03*
%TD*%
%TO.C,R38*%
X124400000Y-127000000D03*
X127500000Y-127000000D03*
%TD*%
%TO.C,R39*%
X124500000Y-123500000D03*
X127600000Y-123500000D03*
%TD*%
%TO.C,R34*%
X124400000Y-106000000D03*
X127500000Y-106000000D03*
%TD*%
%TO.C,R36*%
X124400000Y-95500000D03*
X127500000Y-95500000D03*
%TD*%
%TO.C,R35*%
X124400000Y-101000000D03*
X127500000Y-101000000D03*
%TD*%
D14*
%TO.C,C6*%
X132200000Y-40100000D03*
X129075000Y-40100000D03*
%TD*%
%TO.C,C4*%
X150700000Y-40000000D03*
X147575000Y-40000000D03*
%TD*%
D15*
%TO.C,C10*%
X152875000Y-90500000D03*
X156000000Y-90500000D03*
%TD*%
%TO.C,C7*%
X144840000Y-56500000D03*
X147965000Y-56500000D03*
%TD*%
M02*
