%TF.GenerationSoftware,KiCad,Pcbnew,8.0.7-8.0.7-0~ubuntu24.10.1*%
%TF.CreationDate,2025-01-04T20:14:33+02:00*%
%TF.ProjectId,fpga_board,66706761-5f62-46f6-9172-642e6b696361,rev?*%
%TF.SameCoordinates,Original*%
%TF.FileFunction,Legend,Bot*%
%TF.FilePolarity,Positive*%
%FSLAX46Y46*%
G04 Gerber Fmt 4.6, Leading zero omitted, Abs format (unit mm)*
G04 Created by KiCad (PCBNEW 8.0.7-8.0.7-0~ubuntu24.10.1) date 2025-01-04 20:14:33*
%MOMM*%
%LPD*%
G01*
G04 APERTURE LIST*
%ADD10C,0.150000*%
%ADD11C,0.120000*%
G04 APERTURE END LIST*
D10*
X156333333Y-125444819D02*
X156333333Y-126159104D01*
X156333333Y-126159104D02*
X156380952Y-126301961D01*
X156380952Y-126301961D02*
X156476190Y-126397200D01*
X156476190Y-126397200D02*
X156619047Y-126444819D01*
X156619047Y-126444819D02*
X156714285Y-126444819D01*
X155809523Y-126444819D02*
X155619047Y-126444819D01*
X155619047Y-126444819D02*
X155523809Y-126397200D01*
X155523809Y-126397200D02*
X155476190Y-126349580D01*
X155476190Y-126349580D02*
X155380952Y-126206723D01*
X155380952Y-126206723D02*
X155333333Y-126016247D01*
X155333333Y-126016247D02*
X155333333Y-125635295D01*
X155333333Y-125635295D02*
X155380952Y-125540057D01*
X155380952Y-125540057D02*
X155428571Y-125492438D01*
X155428571Y-125492438D02*
X155523809Y-125444819D01*
X155523809Y-125444819D02*
X155714285Y-125444819D01*
X155714285Y-125444819D02*
X155809523Y-125492438D01*
X155809523Y-125492438D02*
X155857142Y-125540057D01*
X155857142Y-125540057D02*
X155904761Y-125635295D01*
X155904761Y-125635295D02*
X155904761Y-125873390D01*
X155904761Y-125873390D02*
X155857142Y-125968628D01*
X155857142Y-125968628D02*
X155809523Y-126016247D01*
X155809523Y-126016247D02*
X155714285Y-126063866D01*
X155714285Y-126063866D02*
X155523809Y-126063866D01*
X155523809Y-126063866D02*
X155428571Y-126016247D01*
X155428571Y-126016247D02*
X155380952Y-125968628D01*
X155380952Y-125968628D02*
X155333333Y-125873390D01*
X148174819Y-97507142D02*
X147698628Y-97173809D01*
X148174819Y-96935714D02*
X147174819Y-96935714D01*
X147174819Y-96935714D02*
X147174819Y-97316666D01*
X147174819Y-97316666D02*
X147222438Y-97411904D01*
X147222438Y-97411904D02*
X147270057Y-97459523D01*
X147270057Y-97459523D02*
X147365295Y-97507142D01*
X147365295Y-97507142D02*
X147508152Y-97507142D01*
X147508152Y-97507142D02*
X147603390Y-97459523D01*
X147603390Y-97459523D02*
X147651009Y-97411904D01*
X147651009Y-97411904D02*
X147698628Y-97316666D01*
X147698628Y-97316666D02*
X147698628Y-96935714D01*
X147174819Y-98364285D02*
X147174819Y-98173809D01*
X147174819Y-98173809D02*
X147222438Y-98078571D01*
X147222438Y-98078571D02*
X147270057Y-98030952D01*
X147270057Y-98030952D02*
X147412914Y-97935714D01*
X147412914Y-97935714D02*
X147603390Y-97888095D01*
X147603390Y-97888095D02*
X147984342Y-97888095D01*
X147984342Y-97888095D02*
X148079580Y-97935714D01*
X148079580Y-97935714D02*
X148127200Y-97983333D01*
X148127200Y-97983333D02*
X148174819Y-98078571D01*
X148174819Y-98078571D02*
X148174819Y-98269047D01*
X148174819Y-98269047D02*
X148127200Y-98364285D01*
X148127200Y-98364285D02*
X148079580Y-98411904D01*
X148079580Y-98411904D02*
X147984342Y-98459523D01*
X147984342Y-98459523D02*
X147746247Y-98459523D01*
X147746247Y-98459523D02*
X147651009Y-98411904D01*
X147651009Y-98411904D02*
X147603390Y-98364285D01*
X147603390Y-98364285D02*
X147555771Y-98269047D01*
X147555771Y-98269047D02*
X147555771Y-98078571D01*
X147555771Y-98078571D02*
X147603390Y-97983333D01*
X147603390Y-97983333D02*
X147651009Y-97935714D01*
X147651009Y-97935714D02*
X147746247Y-97888095D01*
X147508152Y-99316666D02*
X148174819Y-99316666D01*
X147127200Y-99078571D02*
X147841485Y-98840476D01*
X147841485Y-98840476D02*
X147841485Y-99459523D01*
X144534819Y-126307142D02*
X144058628Y-125973809D01*
X144534819Y-125735714D02*
X143534819Y-125735714D01*
X143534819Y-125735714D02*
X143534819Y-126116666D01*
X143534819Y-126116666D02*
X143582438Y-126211904D01*
X143582438Y-126211904D02*
X143630057Y-126259523D01*
X143630057Y-126259523D02*
X143725295Y-126307142D01*
X143725295Y-126307142D02*
X143868152Y-126307142D01*
X143868152Y-126307142D02*
X143963390Y-126259523D01*
X143963390Y-126259523D02*
X144011009Y-126211904D01*
X144011009Y-126211904D02*
X144058628Y-126116666D01*
X144058628Y-126116666D02*
X144058628Y-125735714D01*
X143534819Y-127164285D02*
X143534819Y-126973809D01*
X143534819Y-126973809D02*
X143582438Y-126878571D01*
X143582438Y-126878571D02*
X143630057Y-126830952D01*
X143630057Y-126830952D02*
X143772914Y-126735714D01*
X143772914Y-126735714D02*
X143963390Y-126688095D01*
X143963390Y-126688095D02*
X144344342Y-126688095D01*
X144344342Y-126688095D02*
X144439580Y-126735714D01*
X144439580Y-126735714D02*
X144487200Y-126783333D01*
X144487200Y-126783333D02*
X144534819Y-126878571D01*
X144534819Y-126878571D02*
X144534819Y-127069047D01*
X144534819Y-127069047D02*
X144487200Y-127164285D01*
X144487200Y-127164285D02*
X144439580Y-127211904D01*
X144439580Y-127211904D02*
X144344342Y-127259523D01*
X144344342Y-127259523D02*
X144106247Y-127259523D01*
X144106247Y-127259523D02*
X144011009Y-127211904D01*
X144011009Y-127211904D02*
X143963390Y-127164285D01*
X143963390Y-127164285D02*
X143915771Y-127069047D01*
X143915771Y-127069047D02*
X143915771Y-126878571D01*
X143915771Y-126878571D02*
X143963390Y-126783333D01*
X143963390Y-126783333D02*
X144011009Y-126735714D01*
X144011009Y-126735714D02*
X144106247Y-126688095D01*
X144534819Y-128211904D02*
X144534819Y-127640476D01*
X144534819Y-127926190D02*
X143534819Y-127926190D01*
X143534819Y-127926190D02*
X143677676Y-127830952D01*
X143677676Y-127830952D02*
X143772914Y-127735714D01*
X143772914Y-127735714D02*
X143820533Y-127640476D01*
X139434819Y-95807142D02*
X138958628Y-95473809D01*
X139434819Y-95235714D02*
X138434819Y-95235714D01*
X138434819Y-95235714D02*
X138434819Y-95616666D01*
X138434819Y-95616666D02*
X138482438Y-95711904D01*
X138482438Y-95711904D02*
X138530057Y-95759523D01*
X138530057Y-95759523D02*
X138625295Y-95807142D01*
X138625295Y-95807142D02*
X138768152Y-95807142D01*
X138768152Y-95807142D02*
X138863390Y-95759523D01*
X138863390Y-95759523D02*
X138911009Y-95711904D01*
X138911009Y-95711904D02*
X138958628Y-95616666D01*
X138958628Y-95616666D02*
X138958628Y-95235714D01*
X138434819Y-96711904D02*
X138434819Y-96235714D01*
X138434819Y-96235714D02*
X138911009Y-96188095D01*
X138911009Y-96188095D02*
X138863390Y-96235714D01*
X138863390Y-96235714D02*
X138815771Y-96330952D01*
X138815771Y-96330952D02*
X138815771Y-96569047D01*
X138815771Y-96569047D02*
X138863390Y-96664285D01*
X138863390Y-96664285D02*
X138911009Y-96711904D01*
X138911009Y-96711904D02*
X139006247Y-96759523D01*
X139006247Y-96759523D02*
X139244342Y-96759523D01*
X139244342Y-96759523D02*
X139339580Y-96711904D01*
X139339580Y-96711904D02*
X139387200Y-96664285D01*
X139387200Y-96664285D02*
X139434819Y-96569047D01*
X139434819Y-96569047D02*
X139434819Y-96330952D01*
X139434819Y-96330952D02*
X139387200Y-96235714D01*
X139387200Y-96235714D02*
X139339580Y-96188095D01*
X138863390Y-97330952D02*
X138815771Y-97235714D01*
X138815771Y-97235714D02*
X138768152Y-97188095D01*
X138768152Y-97188095D02*
X138672914Y-97140476D01*
X138672914Y-97140476D02*
X138625295Y-97140476D01*
X138625295Y-97140476D02*
X138530057Y-97188095D01*
X138530057Y-97188095D02*
X138482438Y-97235714D01*
X138482438Y-97235714D02*
X138434819Y-97330952D01*
X138434819Y-97330952D02*
X138434819Y-97521428D01*
X138434819Y-97521428D02*
X138482438Y-97616666D01*
X138482438Y-97616666D02*
X138530057Y-97664285D01*
X138530057Y-97664285D02*
X138625295Y-97711904D01*
X138625295Y-97711904D02*
X138672914Y-97711904D01*
X138672914Y-97711904D02*
X138768152Y-97664285D01*
X138768152Y-97664285D02*
X138815771Y-97616666D01*
X138815771Y-97616666D02*
X138863390Y-97521428D01*
X138863390Y-97521428D02*
X138863390Y-97330952D01*
X138863390Y-97330952D02*
X138911009Y-97235714D01*
X138911009Y-97235714D02*
X138958628Y-97188095D01*
X138958628Y-97188095D02*
X139053866Y-97140476D01*
X139053866Y-97140476D02*
X139244342Y-97140476D01*
X139244342Y-97140476D02*
X139339580Y-97188095D01*
X139339580Y-97188095D02*
X139387200Y-97235714D01*
X139387200Y-97235714D02*
X139434819Y-97330952D01*
X139434819Y-97330952D02*
X139434819Y-97521428D01*
X139434819Y-97521428D02*
X139387200Y-97616666D01*
X139387200Y-97616666D02*
X139339580Y-97664285D01*
X139339580Y-97664285D02*
X139244342Y-97711904D01*
X139244342Y-97711904D02*
X139053866Y-97711904D01*
X139053866Y-97711904D02*
X138958628Y-97664285D01*
X138958628Y-97664285D02*
X138911009Y-97616666D01*
X138911009Y-97616666D02*
X138863390Y-97521428D01*
X139434819Y-101677142D02*
X138958628Y-101343809D01*
X139434819Y-101105714D02*
X138434819Y-101105714D01*
X138434819Y-101105714D02*
X138434819Y-101486666D01*
X138434819Y-101486666D02*
X138482438Y-101581904D01*
X138482438Y-101581904D02*
X138530057Y-101629523D01*
X138530057Y-101629523D02*
X138625295Y-101677142D01*
X138625295Y-101677142D02*
X138768152Y-101677142D01*
X138768152Y-101677142D02*
X138863390Y-101629523D01*
X138863390Y-101629523D02*
X138911009Y-101581904D01*
X138911009Y-101581904D02*
X138958628Y-101486666D01*
X138958628Y-101486666D02*
X138958628Y-101105714D01*
X138434819Y-102581904D02*
X138434819Y-102105714D01*
X138434819Y-102105714D02*
X138911009Y-102058095D01*
X138911009Y-102058095D02*
X138863390Y-102105714D01*
X138863390Y-102105714D02*
X138815771Y-102200952D01*
X138815771Y-102200952D02*
X138815771Y-102439047D01*
X138815771Y-102439047D02*
X138863390Y-102534285D01*
X138863390Y-102534285D02*
X138911009Y-102581904D01*
X138911009Y-102581904D02*
X139006247Y-102629523D01*
X139006247Y-102629523D02*
X139244342Y-102629523D01*
X139244342Y-102629523D02*
X139339580Y-102581904D01*
X139339580Y-102581904D02*
X139387200Y-102534285D01*
X139387200Y-102534285D02*
X139434819Y-102439047D01*
X139434819Y-102439047D02*
X139434819Y-102200952D01*
X139434819Y-102200952D02*
X139387200Y-102105714D01*
X139387200Y-102105714D02*
X139339580Y-102058095D01*
X138434819Y-103534285D02*
X138434819Y-103058095D01*
X138434819Y-103058095D02*
X138911009Y-103010476D01*
X138911009Y-103010476D02*
X138863390Y-103058095D01*
X138863390Y-103058095D02*
X138815771Y-103153333D01*
X138815771Y-103153333D02*
X138815771Y-103391428D01*
X138815771Y-103391428D02*
X138863390Y-103486666D01*
X138863390Y-103486666D02*
X138911009Y-103534285D01*
X138911009Y-103534285D02*
X139006247Y-103581904D01*
X139006247Y-103581904D02*
X139244342Y-103581904D01*
X139244342Y-103581904D02*
X139339580Y-103534285D01*
X139339580Y-103534285D02*
X139387200Y-103486666D01*
X139387200Y-103486666D02*
X139434819Y-103391428D01*
X139434819Y-103391428D02*
X139434819Y-103153333D01*
X139434819Y-103153333D02*
X139387200Y-103058095D01*
X139387200Y-103058095D02*
X139339580Y-103010476D01*
X139434819Y-107547142D02*
X138958628Y-107213809D01*
X139434819Y-106975714D02*
X138434819Y-106975714D01*
X138434819Y-106975714D02*
X138434819Y-107356666D01*
X138434819Y-107356666D02*
X138482438Y-107451904D01*
X138482438Y-107451904D02*
X138530057Y-107499523D01*
X138530057Y-107499523D02*
X138625295Y-107547142D01*
X138625295Y-107547142D02*
X138768152Y-107547142D01*
X138768152Y-107547142D02*
X138863390Y-107499523D01*
X138863390Y-107499523D02*
X138911009Y-107451904D01*
X138911009Y-107451904D02*
X138958628Y-107356666D01*
X138958628Y-107356666D02*
X138958628Y-106975714D01*
X138434819Y-108451904D02*
X138434819Y-107975714D01*
X138434819Y-107975714D02*
X138911009Y-107928095D01*
X138911009Y-107928095D02*
X138863390Y-107975714D01*
X138863390Y-107975714D02*
X138815771Y-108070952D01*
X138815771Y-108070952D02*
X138815771Y-108309047D01*
X138815771Y-108309047D02*
X138863390Y-108404285D01*
X138863390Y-108404285D02*
X138911009Y-108451904D01*
X138911009Y-108451904D02*
X139006247Y-108499523D01*
X139006247Y-108499523D02*
X139244342Y-108499523D01*
X139244342Y-108499523D02*
X139339580Y-108451904D01*
X139339580Y-108451904D02*
X139387200Y-108404285D01*
X139387200Y-108404285D02*
X139434819Y-108309047D01*
X139434819Y-108309047D02*
X139434819Y-108070952D01*
X139434819Y-108070952D02*
X139387200Y-107975714D01*
X139387200Y-107975714D02*
X139339580Y-107928095D01*
X138530057Y-108880476D02*
X138482438Y-108928095D01*
X138482438Y-108928095D02*
X138434819Y-109023333D01*
X138434819Y-109023333D02*
X138434819Y-109261428D01*
X138434819Y-109261428D02*
X138482438Y-109356666D01*
X138482438Y-109356666D02*
X138530057Y-109404285D01*
X138530057Y-109404285D02*
X138625295Y-109451904D01*
X138625295Y-109451904D02*
X138720533Y-109451904D01*
X138720533Y-109451904D02*
X138863390Y-109404285D01*
X138863390Y-109404285D02*
X139434819Y-108832857D01*
X139434819Y-108832857D02*
X139434819Y-109451904D01*
X143074819Y-113417142D02*
X142598628Y-113083809D01*
X143074819Y-112845714D02*
X142074819Y-112845714D01*
X142074819Y-112845714D02*
X142074819Y-113226666D01*
X142074819Y-113226666D02*
X142122438Y-113321904D01*
X142122438Y-113321904D02*
X142170057Y-113369523D01*
X142170057Y-113369523D02*
X142265295Y-113417142D01*
X142265295Y-113417142D02*
X142408152Y-113417142D01*
X142408152Y-113417142D02*
X142503390Y-113369523D01*
X142503390Y-113369523D02*
X142551009Y-113321904D01*
X142551009Y-113321904D02*
X142598628Y-113226666D01*
X142598628Y-113226666D02*
X142598628Y-112845714D01*
X142408152Y-114274285D02*
X143074819Y-114274285D01*
X142027200Y-114036190D02*
X142741485Y-113798095D01*
X142741485Y-113798095D02*
X142741485Y-114417142D01*
X143074819Y-114845714D02*
X143074819Y-115036190D01*
X143074819Y-115036190D02*
X143027200Y-115131428D01*
X143027200Y-115131428D02*
X142979580Y-115179047D01*
X142979580Y-115179047D02*
X142836723Y-115274285D01*
X142836723Y-115274285D02*
X142646247Y-115321904D01*
X142646247Y-115321904D02*
X142265295Y-115321904D01*
X142265295Y-115321904D02*
X142170057Y-115274285D01*
X142170057Y-115274285D02*
X142122438Y-115226666D01*
X142122438Y-115226666D02*
X142074819Y-115131428D01*
X142074819Y-115131428D02*
X142074819Y-114940952D01*
X142074819Y-114940952D02*
X142122438Y-114845714D01*
X142122438Y-114845714D02*
X142170057Y-114798095D01*
X142170057Y-114798095D02*
X142265295Y-114750476D01*
X142265295Y-114750476D02*
X142503390Y-114750476D01*
X142503390Y-114750476D02*
X142598628Y-114798095D01*
X142598628Y-114798095D02*
X142646247Y-114845714D01*
X142646247Y-114845714D02*
X142693866Y-114940952D01*
X142693866Y-114940952D02*
X142693866Y-115131428D01*
X142693866Y-115131428D02*
X142646247Y-115226666D01*
X142646247Y-115226666D02*
X142598628Y-115274285D01*
X142598628Y-115274285D02*
X142503390Y-115321904D01*
X139434819Y-119287142D02*
X138958628Y-118953809D01*
X139434819Y-118715714D02*
X138434819Y-118715714D01*
X138434819Y-118715714D02*
X138434819Y-119096666D01*
X138434819Y-119096666D02*
X138482438Y-119191904D01*
X138482438Y-119191904D02*
X138530057Y-119239523D01*
X138530057Y-119239523D02*
X138625295Y-119287142D01*
X138625295Y-119287142D02*
X138768152Y-119287142D01*
X138768152Y-119287142D02*
X138863390Y-119239523D01*
X138863390Y-119239523D02*
X138911009Y-119191904D01*
X138911009Y-119191904D02*
X138958628Y-119096666D01*
X138958628Y-119096666D02*
X138958628Y-118715714D01*
X138768152Y-120144285D02*
X139434819Y-120144285D01*
X138387200Y-119906190D02*
X139101485Y-119668095D01*
X139101485Y-119668095D02*
X139101485Y-120287142D01*
X138434819Y-121096666D02*
X138434819Y-120906190D01*
X138434819Y-120906190D02*
X138482438Y-120810952D01*
X138482438Y-120810952D02*
X138530057Y-120763333D01*
X138530057Y-120763333D02*
X138672914Y-120668095D01*
X138672914Y-120668095D02*
X138863390Y-120620476D01*
X138863390Y-120620476D02*
X139244342Y-120620476D01*
X139244342Y-120620476D02*
X139339580Y-120668095D01*
X139339580Y-120668095D02*
X139387200Y-120715714D01*
X139387200Y-120715714D02*
X139434819Y-120810952D01*
X139434819Y-120810952D02*
X139434819Y-121001428D01*
X139434819Y-121001428D02*
X139387200Y-121096666D01*
X139387200Y-121096666D02*
X139339580Y-121144285D01*
X139339580Y-121144285D02*
X139244342Y-121191904D01*
X139244342Y-121191904D02*
X139006247Y-121191904D01*
X139006247Y-121191904D02*
X138911009Y-121144285D01*
X138911009Y-121144285D02*
X138863390Y-121096666D01*
X138863390Y-121096666D02*
X138815771Y-121001428D01*
X138815771Y-121001428D02*
X138815771Y-120810952D01*
X138815771Y-120810952D02*
X138863390Y-120715714D01*
X138863390Y-120715714D02*
X138911009Y-120668095D01*
X138911009Y-120668095D02*
X139006247Y-120620476D01*
X139434819Y-125157142D02*
X138958628Y-124823809D01*
X139434819Y-124585714D02*
X138434819Y-124585714D01*
X138434819Y-124585714D02*
X138434819Y-124966666D01*
X138434819Y-124966666D02*
X138482438Y-125061904D01*
X138482438Y-125061904D02*
X138530057Y-125109523D01*
X138530057Y-125109523D02*
X138625295Y-125157142D01*
X138625295Y-125157142D02*
X138768152Y-125157142D01*
X138768152Y-125157142D02*
X138863390Y-125109523D01*
X138863390Y-125109523D02*
X138911009Y-125061904D01*
X138911009Y-125061904D02*
X138958628Y-124966666D01*
X138958628Y-124966666D02*
X138958628Y-124585714D01*
X138768152Y-126014285D02*
X139434819Y-126014285D01*
X138387200Y-125776190D02*
X139101485Y-125538095D01*
X139101485Y-125538095D02*
X139101485Y-126157142D01*
X138768152Y-126966666D02*
X139434819Y-126966666D01*
X138387200Y-126728571D02*
X139101485Y-126490476D01*
X139101485Y-126490476D02*
X139101485Y-127109523D01*
X149657738Y-104950057D02*
X149752976Y-104902438D01*
X149752976Y-104902438D02*
X149848214Y-104807200D01*
X149848214Y-104807200D02*
X149991071Y-104664342D01*
X149991071Y-104664342D02*
X150086309Y-104616723D01*
X150086309Y-104616723D02*
X150181547Y-104616723D01*
X150133928Y-104854819D02*
X150229166Y-104807200D01*
X150229166Y-104807200D02*
X150324404Y-104711961D01*
X150324404Y-104711961D02*
X150372023Y-104521485D01*
X150372023Y-104521485D02*
X150372023Y-104188152D01*
X150372023Y-104188152D02*
X150324404Y-103997676D01*
X150324404Y-103997676D02*
X150229166Y-103902438D01*
X150229166Y-103902438D02*
X150133928Y-103854819D01*
X150133928Y-103854819D02*
X149943452Y-103854819D01*
X149943452Y-103854819D02*
X149848214Y-103902438D01*
X149848214Y-103902438D02*
X149752976Y-103997676D01*
X149752976Y-103997676D02*
X149705357Y-104188152D01*
X149705357Y-104188152D02*
X149705357Y-104521485D01*
X149705357Y-104521485D02*
X149752976Y-104711961D01*
X149752976Y-104711961D02*
X149848214Y-104807200D01*
X149848214Y-104807200D02*
X149943452Y-104854819D01*
X149943452Y-104854819D02*
X150133928Y-104854819D01*
X149133928Y-104283390D02*
X149229166Y-104235771D01*
X149229166Y-104235771D02*
X149276785Y-104188152D01*
X149276785Y-104188152D02*
X149324404Y-104092914D01*
X149324404Y-104092914D02*
X149324404Y-104045295D01*
X149324404Y-104045295D02*
X149276785Y-103950057D01*
X149276785Y-103950057D02*
X149229166Y-103902438D01*
X149229166Y-103902438D02*
X149133928Y-103854819D01*
X149133928Y-103854819D02*
X148943452Y-103854819D01*
X148943452Y-103854819D02*
X148848214Y-103902438D01*
X148848214Y-103902438D02*
X148800595Y-103950057D01*
X148800595Y-103950057D02*
X148752976Y-104045295D01*
X148752976Y-104045295D02*
X148752976Y-104092914D01*
X148752976Y-104092914D02*
X148800595Y-104188152D01*
X148800595Y-104188152D02*
X148848214Y-104235771D01*
X148848214Y-104235771D02*
X148943452Y-104283390D01*
X148943452Y-104283390D02*
X149133928Y-104283390D01*
X149133928Y-104283390D02*
X149229166Y-104331009D01*
X149229166Y-104331009D02*
X149276785Y-104378628D01*
X149276785Y-104378628D02*
X149324404Y-104473866D01*
X149324404Y-104473866D02*
X149324404Y-104664342D01*
X149324404Y-104664342D02*
X149276785Y-104759580D01*
X149276785Y-104759580D02*
X149229166Y-104807200D01*
X149229166Y-104807200D02*
X149133928Y-104854819D01*
X149133928Y-104854819D02*
X148943452Y-104854819D01*
X148943452Y-104854819D02*
X148848214Y-104807200D01*
X148848214Y-104807200D02*
X148800595Y-104759580D01*
X148800595Y-104759580D02*
X148752976Y-104664342D01*
X148752976Y-104664342D02*
X148752976Y-104473866D01*
X148752976Y-104473866D02*
X148800595Y-104378628D01*
X148800595Y-104378628D02*
X148848214Y-104331009D01*
X148848214Y-104331009D02*
X148943452Y-104283390D01*
X145032738Y-123400057D02*
X145127976Y-123352438D01*
X145127976Y-123352438D02*
X145223214Y-123257200D01*
X145223214Y-123257200D02*
X145366071Y-123114342D01*
X145366071Y-123114342D02*
X145461309Y-123066723D01*
X145461309Y-123066723D02*
X145556547Y-123066723D01*
X145508928Y-123304819D02*
X145604166Y-123257200D01*
X145604166Y-123257200D02*
X145699404Y-123161961D01*
X145699404Y-123161961D02*
X145747023Y-122971485D01*
X145747023Y-122971485D02*
X145747023Y-122638152D01*
X145747023Y-122638152D02*
X145699404Y-122447676D01*
X145699404Y-122447676D02*
X145604166Y-122352438D01*
X145604166Y-122352438D02*
X145508928Y-122304819D01*
X145508928Y-122304819D02*
X145318452Y-122304819D01*
X145318452Y-122304819D02*
X145223214Y-122352438D01*
X145223214Y-122352438D02*
X145127976Y-122447676D01*
X145127976Y-122447676D02*
X145080357Y-122638152D01*
X145080357Y-122638152D02*
X145080357Y-122971485D01*
X145080357Y-122971485D02*
X145127976Y-123161961D01*
X145127976Y-123161961D02*
X145223214Y-123257200D01*
X145223214Y-123257200D02*
X145318452Y-123304819D01*
X145318452Y-123304819D02*
X145508928Y-123304819D01*
X144747023Y-122304819D02*
X144080357Y-122304819D01*
X144080357Y-122304819D02*
X144508928Y-123304819D01*
X145032738Y-107450057D02*
X145127976Y-107402438D01*
X145127976Y-107402438D02*
X145223214Y-107307200D01*
X145223214Y-107307200D02*
X145366071Y-107164342D01*
X145366071Y-107164342D02*
X145461309Y-107116723D01*
X145461309Y-107116723D02*
X145556547Y-107116723D01*
X145508928Y-107354819D02*
X145604166Y-107307200D01*
X145604166Y-107307200D02*
X145699404Y-107211961D01*
X145699404Y-107211961D02*
X145747023Y-107021485D01*
X145747023Y-107021485D02*
X145747023Y-106688152D01*
X145747023Y-106688152D02*
X145699404Y-106497676D01*
X145699404Y-106497676D02*
X145604166Y-106402438D01*
X145604166Y-106402438D02*
X145508928Y-106354819D01*
X145508928Y-106354819D02*
X145318452Y-106354819D01*
X145318452Y-106354819D02*
X145223214Y-106402438D01*
X145223214Y-106402438D02*
X145127976Y-106497676D01*
X145127976Y-106497676D02*
X145080357Y-106688152D01*
X145080357Y-106688152D02*
X145080357Y-107021485D01*
X145080357Y-107021485D02*
X145127976Y-107211961D01*
X145127976Y-107211961D02*
X145223214Y-107307200D01*
X145223214Y-107307200D02*
X145318452Y-107354819D01*
X145318452Y-107354819D02*
X145508928Y-107354819D01*
X144223214Y-106354819D02*
X144413690Y-106354819D01*
X144413690Y-106354819D02*
X144508928Y-106402438D01*
X144508928Y-106402438D02*
X144556547Y-106450057D01*
X144556547Y-106450057D02*
X144651785Y-106592914D01*
X144651785Y-106592914D02*
X144699404Y-106783390D01*
X144699404Y-106783390D02*
X144699404Y-107164342D01*
X144699404Y-107164342D02*
X144651785Y-107259580D01*
X144651785Y-107259580D02*
X144604166Y-107307200D01*
X144604166Y-107307200D02*
X144508928Y-107354819D01*
X144508928Y-107354819D02*
X144318452Y-107354819D01*
X144318452Y-107354819D02*
X144223214Y-107307200D01*
X144223214Y-107307200D02*
X144175595Y-107259580D01*
X144175595Y-107259580D02*
X144127976Y-107164342D01*
X144127976Y-107164342D02*
X144127976Y-106926247D01*
X144127976Y-106926247D02*
X144175595Y-106831009D01*
X144175595Y-106831009D02*
X144223214Y-106783390D01*
X144223214Y-106783390D02*
X144318452Y-106735771D01*
X144318452Y-106735771D02*
X144508928Y-106735771D01*
X144508928Y-106735771D02*
X144604166Y-106783390D01*
X144604166Y-106783390D02*
X144651785Y-106831009D01*
X144651785Y-106831009D02*
X144699404Y-106926247D01*
X149657738Y-110283390D02*
X149752976Y-110235771D01*
X149752976Y-110235771D02*
X149848214Y-110140533D01*
X149848214Y-110140533D02*
X149991071Y-109997675D01*
X149991071Y-109997675D02*
X150086309Y-109950056D01*
X150086309Y-109950056D02*
X150181547Y-109950056D01*
X150133928Y-110188152D02*
X150229166Y-110140533D01*
X150229166Y-110140533D02*
X150324404Y-110045294D01*
X150324404Y-110045294D02*
X150372023Y-109854818D01*
X150372023Y-109854818D02*
X150372023Y-109521485D01*
X150372023Y-109521485D02*
X150324404Y-109331009D01*
X150324404Y-109331009D02*
X150229166Y-109235771D01*
X150229166Y-109235771D02*
X150133928Y-109188152D01*
X150133928Y-109188152D02*
X149943452Y-109188152D01*
X149943452Y-109188152D02*
X149848214Y-109235771D01*
X149848214Y-109235771D02*
X149752976Y-109331009D01*
X149752976Y-109331009D02*
X149705357Y-109521485D01*
X149705357Y-109521485D02*
X149705357Y-109854818D01*
X149705357Y-109854818D02*
X149752976Y-110045294D01*
X149752976Y-110045294D02*
X149848214Y-110140533D01*
X149848214Y-110140533D02*
X149943452Y-110188152D01*
X149943452Y-110188152D02*
X150133928Y-110188152D01*
X148800595Y-109188152D02*
X149276785Y-109188152D01*
X149276785Y-109188152D02*
X149324404Y-109664342D01*
X149324404Y-109664342D02*
X149276785Y-109616723D01*
X149276785Y-109616723D02*
X149181547Y-109569104D01*
X149181547Y-109569104D02*
X148943452Y-109569104D01*
X148943452Y-109569104D02*
X148848214Y-109616723D01*
X148848214Y-109616723D02*
X148800595Y-109664342D01*
X148800595Y-109664342D02*
X148752976Y-109759580D01*
X148752976Y-109759580D02*
X148752976Y-109997675D01*
X148752976Y-109997675D02*
X148800595Y-110092913D01*
X148800595Y-110092913D02*
X148848214Y-110140533D01*
X148848214Y-110140533D02*
X148943452Y-110188152D01*
X148943452Y-110188152D02*
X149181547Y-110188152D01*
X149181547Y-110188152D02*
X149276785Y-110140533D01*
X149276785Y-110140533D02*
X149324404Y-110092913D01*
X145032738Y-112766723D02*
X145127976Y-112719104D01*
X145127976Y-112719104D02*
X145223214Y-112623866D01*
X145223214Y-112623866D02*
X145366071Y-112481008D01*
X145366071Y-112481008D02*
X145461309Y-112433389D01*
X145461309Y-112433389D02*
X145556547Y-112433389D01*
X145508928Y-112671485D02*
X145604166Y-112623866D01*
X145604166Y-112623866D02*
X145699404Y-112528627D01*
X145699404Y-112528627D02*
X145747023Y-112338151D01*
X145747023Y-112338151D02*
X145747023Y-112004818D01*
X145747023Y-112004818D02*
X145699404Y-111814342D01*
X145699404Y-111814342D02*
X145604166Y-111719104D01*
X145604166Y-111719104D02*
X145508928Y-111671485D01*
X145508928Y-111671485D02*
X145318452Y-111671485D01*
X145318452Y-111671485D02*
X145223214Y-111719104D01*
X145223214Y-111719104D02*
X145127976Y-111814342D01*
X145127976Y-111814342D02*
X145080357Y-112004818D01*
X145080357Y-112004818D02*
X145080357Y-112338151D01*
X145080357Y-112338151D02*
X145127976Y-112528627D01*
X145127976Y-112528627D02*
X145223214Y-112623866D01*
X145223214Y-112623866D02*
X145318452Y-112671485D01*
X145318452Y-112671485D02*
X145508928Y-112671485D01*
X144223214Y-112004818D02*
X144223214Y-112671485D01*
X144461309Y-111623866D02*
X144699404Y-112338151D01*
X144699404Y-112338151D02*
X144080357Y-112338151D01*
X149657738Y-115616723D02*
X149752976Y-115569104D01*
X149752976Y-115569104D02*
X149848214Y-115473866D01*
X149848214Y-115473866D02*
X149991071Y-115331008D01*
X149991071Y-115331008D02*
X150086309Y-115283389D01*
X150086309Y-115283389D02*
X150181547Y-115283389D01*
X150133928Y-115521485D02*
X150229166Y-115473866D01*
X150229166Y-115473866D02*
X150324404Y-115378627D01*
X150324404Y-115378627D02*
X150372023Y-115188151D01*
X150372023Y-115188151D02*
X150372023Y-114854818D01*
X150372023Y-114854818D02*
X150324404Y-114664342D01*
X150324404Y-114664342D02*
X150229166Y-114569104D01*
X150229166Y-114569104D02*
X150133928Y-114521485D01*
X150133928Y-114521485D02*
X149943452Y-114521485D01*
X149943452Y-114521485D02*
X149848214Y-114569104D01*
X149848214Y-114569104D02*
X149752976Y-114664342D01*
X149752976Y-114664342D02*
X149705357Y-114854818D01*
X149705357Y-114854818D02*
X149705357Y-115188151D01*
X149705357Y-115188151D02*
X149752976Y-115378627D01*
X149752976Y-115378627D02*
X149848214Y-115473866D01*
X149848214Y-115473866D02*
X149943452Y-115521485D01*
X149943452Y-115521485D02*
X150133928Y-115521485D01*
X149372023Y-114521485D02*
X148752976Y-114521485D01*
X148752976Y-114521485D02*
X149086309Y-114902437D01*
X149086309Y-114902437D02*
X148943452Y-114902437D01*
X148943452Y-114902437D02*
X148848214Y-114950056D01*
X148848214Y-114950056D02*
X148800595Y-114997675D01*
X148800595Y-114997675D02*
X148752976Y-115092913D01*
X148752976Y-115092913D02*
X148752976Y-115331008D01*
X148752976Y-115331008D02*
X148800595Y-115426246D01*
X148800595Y-115426246D02*
X148848214Y-115473866D01*
X148848214Y-115473866D02*
X148943452Y-115521485D01*
X148943452Y-115521485D02*
X149229166Y-115521485D01*
X149229166Y-115521485D02*
X149324404Y-115473866D01*
X149324404Y-115473866D02*
X149372023Y-115426246D01*
X145032738Y-118083389D02*
X145127976Y-118035770D01*
X145127976Y-118035770D02*
X145223214Y-117940532D01*
X145223214Y-117940532D02*
X145366071Y-117797674D01*
X145366071Y-117797674D02*
X145461309Y-117750055D01*
X145461309Y-117750055D02*
X145556547Y-117750055D01*
X145508928Y-117988151D02*
X145604166Y-117940532D01*
X145604166Y-117940532D02*
X145699404Y-117845293D01*
X145699404Y-117845293D02*
X145747023Y-117654817D01*
X145747023Y-117654817D02*
X145747023Y-117321484D01*
X145747023Y-117321484D02*
X145699404Y-117131008D01*
X145699404Y-117131008D02*
X145604166Y-117035770D01*
X145604166Y-117035770D02*
X145508928Y-116988151D01*
X145508928Y-116988151D02*
X145318452Y-116988151D01*
X145318452Y-116988151D02*
X145223214Y-117035770D01*
X145223214Y-117035770D02*
X145127976Y-117131008D01*
X145127976Y-117131008D02*
X145080357Y-117321484D01*
X145080357Y-117321484D02*
X145080357Y-117654817D01*
X145080357Y-117654817D02*
X145127976Y-117845293D01*
X145127976Y-117845293D02*
X145223214Y-117940532D01*
X145223214Y-117940532D02*
X145318452Y-117988151D01*
X145318452Y-117988151D02*
X145508928Y-117988151D01*
X144699404Y-117083389D02*
X144651785Y-117035770D01*
X144651785Y-117035770D02*
X144556547Y-116988151D01*
X144556547Y-116988151D02*
X144318452Y-116988151D01*
X144318452Y-116988151D02*
X144223214Y-117035770D01*
X144223214Y-117035770D02*
X144175595Y-117083389D01*
X144175595Y-117083389D02*
X144127976Y-117178627D01*
X144127976Y-117178627D02*
X144127976Y-117273865D01*
X144127976Y-117273865D02*
X144175595Y-117416722D01*
X144175595Y-117416722D02*
X144747023Y-117988151D01*
X144747023Y-117988151D02*
X144127976Y-117988151D01*
X149657738Y-120950057D02*
X149752976Y-120902438D01*
X149752976Y-120902438D02*
X149848214Y-120807200D01*
X149848214Y-120807200D02*
X149991071Y-120664342D01*
X149991071Y-120664342D02*
X150086309Y-120616723D01*
X150086309Y-120616723D02*
X150181547Y-120616723D01*
X150133928Y-120854819D02*
X150229166Y-120807200D01*
X150229166Y-120807200D02*
X150324404Y-120711961D01*
X150324404Y-120711961D02*
X150372023Y-120521485D01*
X150372023Y-120521485D02*
X150372023Y-120188152D01*
X150372023Y-120188152D02*
X150324404Y-119997676D01*
X150324404Y-119997676D02*
X150229166Y-119902438D01*
X150229166Y-119902438D02*
X150133928Y-119854819D01*
X150133928Y-119854819D02*
X149943452Y-119854819D01*
X149943452Y-119854819D02*
X149848214Y-119902438D01*
X149848214Y-119902438D02*
X149752976Y-119997676D01*
X149752976Y-119997676D02*
X149705357Y-120188152D01*
X149705357Y-120188152D02*
X149705357Y-120521485D01*
X149705357Y-120521485D02*
X149752976Y-120711961D01*
X149752976Y-120711961D02*
X149848214Y-120807200D01*
X149848214Y-120807200D02*
X149943452Y-120854819D01*
X149943452Y-120854819D02*
X150133928Y-120854819D01*
X148752976Y-120854819D02*
X149324404Y-120854819D01*
X149038690Y-120854819D02*
X149038690Y-119854819D01*
X149038690Y-119854819D02*
X149133928Y-119997676D01*
X149133928Y-119997676D02*
X149229166Y-120092914D01*
X149229166Y-120092914D02*
X149324404Y-120140533D01*
X126692857Y-119274819D02*
X127026190Y-118798628D01*
X127264285Y-119274819D02*
X127264285Y-118274819D01*
X127264285Y-118274819D02*
X126883333Y-118274819D01*
X126883333Y-118274819D02*
X126788095Y-118322438D01*
X126788095Y-118322438D02*
X126740476Y-118370057D01*
X126740476Y-118370057D02*
X126692857Y-118465295D01*
X126692857Y-118465295D02*
X126692857Y-118608152D01*
X126692857Y-118608152D02*
X126740476Y-118703390D01*
X126740476Y-118703390D02*
X126788095Y-118751009D01*
X126788095Y-118751009D02*
X126883333Y-118798628D01*
X126883333Y-118798628D02*
X127264285Y-118798628D01*
X125835714Y-118608152D02*
X125835714Y-119274819D01*
X126073809Y-118227200D02*
X126311904Y-118941485D01*
X126311904Y-118941485D02*
X125692857Y-118941485D01*
X125121428Y-118274819D02*
X125026190Y-118274819D01*
X125026190Y-118274819D02*
X124930952Y-118322438D01*
X124930952Y-118322438D02*
X124883333Y-118370057D01*
X124883333Y-118370057D02*
X124835714Y-118465295D01*
X124835714Y-118465295D02*
X124788095Y-118655771D01*
X124788095Y-118655771D02*
X124788095Y-118893866D01*
X124788095Y-118893866D02*
X124835714Y-119084342D01*
X124835714Y-119084342D02*
X124883333Y-119179580D01*
X124883333Y-119179580D02*
X124930952Y-119227200D01*
X124930952Y-119227200D02*
X125026190Y-119274819D01*
X125026190Y-119274819D02*
X125121428Y-119274819D01*
X125121428Y-119274819D02*
X125216666Y-119227200D01*
X125216666Y-119227200D02*
X125264285Y-119179580D01*
X125264285Y-119179580D02*
X125311904Y-119084342D01*
X125311904Y-119084342D02*
X125359523Y-118893866D01*
X125359523Y-118893866D02*
X125359523Y-118655771D01*
X125359523Y-118655771D02*
X125311904Y-118465295D01*
X125311904Y-118465295D02*
X125264285Y-118370057D01*
X125264285Y-118370057D02*
X125216666Y-118322438D01*
X125216666Y-118322438D02*
X125121428Y-118274819D01*
X126592857Y-134774819D02*
X126926190Y-134298628D01*
X127164285Y-134774819D02*
X127164285Y-133774819D01*
X127164285Y-133774819D02*
X126783333Y-133774819D01*
X126783333Y-133774819D02*
X126688095Y-133822438D01*
X126688095Y-133822438D02*
X126640476Y-133870057D01*
X126640476Y-133870057D02*
X126592857Y-133965295D01*
X126592857Y-133965295D02*
X126592857Y-134108152D01*
X126592857Y-134108152D02*
X126640476Y-134203390D01*
X126640476Y-134203390D02*
X126688095Y-134251009D01*
X126688095Y-134251009D02*
X126783333Y-134298628D01*
X126783333Y-134298628D02*
X127164285Y-134298628D01*
X126259523Y-133774819D02*
X125640476Y-133774819D01*
X125640476Y-133774819D02*
X125973809Y-134155771D01*
X125973809Y-134155771D02*
X125830952Y-134155771D01*
X125830952Y-134155771D02*
X125735714Y-134203390D01*
X125735714Y-134203390D02*
X125688095Y-134251009D01*
X125688095Y-134251009D02*
X125640476Y-134346247D01*
X125640476Y-134346247D02*
X125640476Y-134584342D01*
X125640476Y-134584342D02*
X125688095Y-134679580D01*
X125688095Y-134679580D02*
X125735714Y-134727200D01*
X125735714Y-134727200D02*
X125830952Y-134774819D01*
X125830952Y-134774819D02*
X126116666Y-134774819D01*
X126116666Y-134774819D02*
X126211904Y-134727200D01*
X126211904Y-134727200D02*
X126259523Y-134679580D01*
X125307142Y-133774819D02*
X124640476Y-133774819D01*
X124640476Y-133774819D02*
X125069047Y-134774819D01*
X126592857Y-113274819D02*
X126926190Y-112798628D01*
X127164285Y-113274819D02*
X127164285Y-112274819D01*
X127164285Y-112274819D02*
X126783333Y-112274819D01*
X126783333Y-112274819D02*
X126688095Y-112322438D01*
X126688095Y-112322438D02*
X126640476Y-112370057D01*
X126640476Y-112370057D02*
X126592857Y-112465295D01*
X126592857Y-112465295D02*
X126592857Y-112608152D01*
X126592857Y-112608152D02*
X126640476Y-112703390D01*
X126640476Y-112703390D02*
X126688095Y-112751009D01*
X126688095Y-112751009D02*
X126783333Y-112798628D01*
X126783333Y-112798628D02*
X127164285Y-112798628D01*
X126259523Y-112274819D02*
X125640476Y-112274819D01*
X125640476Y-112274819D02*
X125973809Y-112655771D01*
X125973809Y-112655771D02*
X125830952Y-112655771D01*
X125830952Y-112655771D02*
X125735714Y-112703390D01*
X125735714Y-112703390D02*
X125688095Y-112751009D01*
X125688095Y-112751009D02*
X125640476Y-112846247D01*
X125640476Y-112846247D02*
X125640476Y-113084342D01*
X125640476Y-113084342D02*
X125688095Y-113179580D01*
X125688095Y-113179580D02*
X125735714Y-113227200D01*
X125735714Y-113227200D02*
X125830952Y-113274819D01*
X125830952Y-113274819D02*
X126116666Y-113274819D01*
X126116666Y-113274819D02*
X126211904Y-113227200D01*
X126211904Y-113227200D02*
X126259523Y-113179580D01*
X125307142Y-112274819D02*
X124688095Y-112274819D01*
X124688095Y-112274819D02*
X125021428Y-112655771D01*
X125021428Y-112655771D02*
X124878571Y-112655771D01*
X124878571Y-112655771D02*
X124783333Y-112703390D01*
X124783333Y-112703390D02*
X124735714Y-112751009D01*
X124735714Y-112751009D02*
X124688095Y-112846247D01*
X124688095Y-112846247D02*
X124688095Y-113084342D01*
X124688095Y-113084342D02*
X124735714Y-113179580D01*
X124735714Y-113179580D02*
X124783333Y-113227200D01*
X124783333Y-113227200D02*
X124878571Y-113274819D01*
X124878571Y-113274819D02*
X125164285Y-113274819D01*
X125164285Y-113274819D02*
X125259523Y-113227200D01*
X125259523Y-113227200D02*
X125307142Y-113179580D01*
X126592857Y-129274819D02*
X126926190Y-128798628D01*
X127164285Y-129274819D02*
X127164285Y-128274819D01*
X127164285Y-128274819D02*
X126783333Y-128274819D01*
X126783333Y-128274819D02*
X126688095Y-128322438D01*
X126688095Y-128322438D02*
X126640476Y-128370057D01*
X126640476Y-128370057D02*
X126592857Y-128465295D01*
X126592857Y-128465295D02*
X126592857Y-128608152D01*
X126592857Y-128608152D02*
X126640476Y-128703390D01*
X126640476Y-128703390D02*
X126688095Y-128751009D01*
X126688095Y-128751009D02*
X126783333Y-128798628D01*
X126783333Y-128798628D02*
X127164285Y-128798628D01*
X126259523Y-128274819D02*
X125640476Y-128274819D01*
X125640476Y-128274819D02*
X125973809Y-128655771D01*
X125973809Y-128655771D02*
X125830952Y-128655771D01*
X125830952Y-128655771D02*
X125735714Y-128703390D01*
X125735714Y-128703390D02*
X125688095Y-128751009D01*
X125688095Y-128751009D02*
X125640476Y-128846247D01*
X125640476Y-128846247D02*
X125640476Y-129084342D01*
X125640476Y-129084342D02*
X125688095Y-129179580D01*
X125688095Y-129179580D02*
X125735714Y-129227200D01*
X125735714Y-129227200D02*
X125830952Y-129274819D01*
X125830952Y-129274819D02*
X126116666Y-129274819D01*
X126116666Y-129274819D02*
X126211904Y-129227200D01*
X126211904Y-129227200D02*
X126259523Y-129179580D01*
X125069047Y-128703390D02*
X125164285Y-128655771D01*
X125164285Y-128655771D02*
X125211904Y-128608152D01*
X125211904Y-128608152D02*
X125259523Y-128512914D01*
X125259523Y-128512914D02*
X125259523Y-128465295D01*
X125259523Y-128465295D02*
X125211904Y-128370057D01*
X125211904Y-128370057D02*
X125164285Y-128322438D01*
X125164285Y-128322438D02*
X125069047Y-128274819D01*
X125069047Y-128274819D02*
X124878571Y-128274819D01*
X124878571Y-128274819D02*
X124783333Y-128322438D01*
X124783333Y-128322438D02*
X124735714Y-128370057D01*
X124735714Y-128370057D02*
X124688095Y-128465295D01*
X124688095Y-128465295D02*
X124688095Y-128512914D01*
X124688095Y-128512914D02*
X124735714Y-128608152D01*
X124735714Y-128608152D02*
X124783333Y-128655771D01*
X124783333Y-128655771D02*
X124878571Y-128703390D01*
X124878571Y-128703390D02*
X125069047Y-128703390D01*
X125069047Y-128703390D02*
X125164285Y-128751009D01*
X125164285Y-128751009D02*
X125211904Y-128798628D01*
X125211904Y-128798628D02*
X125259523Y-128893866D01*
X125259523Y-128893866D02*
X125259523Y-129084342D01*
X125259523Y-129084342D02*
X125211904Y-129179580D01*
X125211904Y-129179580D02*
X125164285Y-129227200D01*
X125164285Y-129227200D02*
X125069047Y-129274819D01*
X125069047Y-129274819D02*
X124878571Y-129274819D01*
X124878571Y-129274819D02*
X124783333Y-129227200D01*
X124783333Y-129227200D02*
X124735714Y-129179580D01*
X124735714Y-129179580D02*
X124688095Y-129084342D01*
X124688095Y-129084342D02*
X124688095Y-128893866D01*
X124688095Y-128893866D02*
X124735714Y-128798628D01*
X124735714Y-128798628D02*
X124783333Y-128751009D01*
X124783333Y-128751009D02*
X124878571Y-128703390D01*
X126692857Y-125774819D02*
X127026190Y-125298628D01*
X127264285Y-125774819D02*
X127264285Y-124774819D01*
X127264285Y-124774819D02*
X126883333Y-124774819D01*
X126883333Y-124774819D02*
X126788095Y-124822438D01*
X126788095Y-124822438D02*
X126740476Y-124870057D01*
X126740476Y-124870057D02*
X126692857Y-124965295D01*
X126692857Y-124965295D02*
X126692857Y-125108152D01*
X126692857Y-125108152D02*
X126740476Y-125203390D01*
X126740476Y-125203390D02*
X126788095Y-125251009D01*
X126788095Y-125251009D02*
X126883333Y-125298628D01*
X126883333Y-125298628D02*
X127264285Y-125298628D01*
X126359523Y-124774819D02*
X125740476Y-124774819D01*
X125740476Y-124774819D02*
X126073809Y-125155771D01*
X126073809Y-125155771D02*
X125930952Y-125155771D01*
X125930952Y-125155771D02*
X125835714Y-125203390D01*
X125835714Y-125203390D02*
X125788095Y-125251009D01*
X125788095Y-125251009D02*
X125740476Y-125346247D01*
X125740476Y-125346247D02*
X125740476Y-125584342D01*
X125740476Y-125584342D02*
X125788095Y-125679580D01*
X125788095Y-125679580D02*
X125835714Y-125727200D01*
X125835714Y-125727200D02*
X125930952Y-125774819D01*
X125930952Y-125774819D02*
X126216666Y-125774819D01*
X126216666Y-125774819D02*
X126311904Y-125727200D01*
X126311904Y-125727200D02*
X126359523Y-125679580D01*
X125264285Y-125774819D02*
X125073809Y-125774819D01*
X125073809Y-125774819D02*
X124978571Y-125727200D01*
X124978571Y-125727200D02*
X124930952Y-125679580D01*
X124930952Y-125679580D02*
X124835714Y-125536723D01*
X124835714Y-125536723D02*
X124788095Y-125346247D01*
X124788095Y-125346247D02*
X124788095Y-124965295D01*
X124788095Y-124965295D02*
X124835714Y-124870057D01*
X124835714Y-124870057D02*
X124883333Y-124822438D01*
X124883333Y-124822438D02*
X124978571Y-124774819D01*
X124978571Y-124774819D02*
X125169047Y-124774819D01*
X125169047Y-124774819D02*
X125264285Y-124822438D01*
X125264285Y-124822438D02*
X125311904Y-124870057D01*
X125311904Y-124870057D02*
X125359523Y-124965295D01*
X125359523Y-124965295D02*
X125359523Y-125203390D01*
X125359523Y-125203390D02*
X125311904Y-125298628D01*
X125311904Y-125298628D02*
X125264285Y-125346247D01*
X125264285Y-125346247D02*
X125169047Y-125393866D01*
X125169047Y-125393866D02*
X124978571Y-125393866D01*
X124978571Y-125393866D02*
X124883333Y-125346247D01*
X124883333Y-125346247D02*
X124835714Y-125298628D01*
X124835714Y-125298628D02*
X124788095Y-125203390D01*
X126592857Y-108274819D02*
X126926190Y-107798628D01*
X127164285Y-108274819D02*
X127164285Y-107274819D01*
X127164285Y-107274819D02*
X126783333Y-107274819D01*
X126783333Y-107274819D02*
X126688095Y-107322438D01*
X126688095Y-107322438D02*
X126640476Y-107370057D01*
X126640476Y-107370057D02*
X126592857Y-107465295D01*
X126592857Y-107465295D02*
X126592857Y-107608152D01*
X126592857Y-107608152D02*
X126640476Y-107703390D01*
X126640476Y-107703390D02*
X126688095Y-107751009D01*
X126688095Y-107751009D02*
X126783333Y-107798628D01*
X126783333Y-107798628D02*
X127164285Y-107798628D01*
X126259523Y-107274819D02*
X125640476Y-107274819D01*
X125640476Y-107274819D02*
X125973809Y-107655771D01*
X125973809Y-107655771D02*
X125830952Y-107655771D01*
X125830952Y-107655771D02*
X125735714Y-107703390D01*
X125735714Y-107703390D02*
X125688095Y-107751009D01*
X125688095Y-107751009D02*
X125640476Y-107846247D01*
X125640476Y-107846247D02*
X125640476Y-108084342D01*
X125640476Y-108084342D02*
X125688095Y-108179580D01*
X125688095Y-108179580D02*
X125735714Y-108227200D01*
X125735714Y-108227200D02*
X125830952Y-108274819D01*
X125830952Y-108274819D02*
X126116666Y-108274819D01*
X126116666Y-108274819D02*
X126211904Y-108227200D01*
X126211904Y-108227200D02*
X126259523Y-108179580D01*
X124783333Y-107608152D02*
X124783333Y-108274819D01*
X125021428Y-107227200D02*
X125259523Y-107941485D01*
X125259523Y-107941485D02*
X124640476Y-107941485D01*
X126592857Y-97774819D02*
X126926190Y-97298628D01*
X127164285Y-97774819D02*
X127164285Y-96774819D01*
X127164285Y-96774819D02*
X126783333Y-96774819D01*
X126783333Y-96774819D02*
X126688095Y-96822438D01*
X126688095Y-96822438D02*
X126640476Y-96870057D01*
X126640476Y-96870057D02*
X126592857Y-96965295D01*
X126592857Y-96965295D02*
X126592857Y-97108152D01*
X126592857Y-97108152D02*
X126640476Y-97203390D01*
X126640476Y-97203390D02*
X126688095Y-97251009D01*
X126688095Y-97251009D02*
X126783333Y-97298628D01*
X126783333Y-97298628D02*
X127164285Y-97298628D01*
X126259523Y-96774819D02*
X125640476Y-96774819D01*
X125640476Y-96774819D02*
X125973809Y-97155771D01*
X125973809Y-97155771D02*
X125830952Y-97155771D01*
X125830952Y-97155771D02*
X125735714Y-97203390D01*
X125735714Y-97203390D02*
X125688095Y-97251009D01*
X125688095Y-97251009D02*
X125640476Y-97346247D01*
X125640476Y-97346247D02*
X125640476Y-97584342D01*
X125640476Y-97584342D02*
X125688095Y-97679580D01*
X125688095Y-97679580D02*
X125735714Y-97727200D01*
X125735714Y-97727200D02*
X125830952Y-97774819D01*
X125830952Y-97774819D02*
X126116666Y-97774819D01*
X126116666Y-97774819D02*
X126211904Y-97727200D01*
X126211904Y-97727200D02*
X126259523Y-97679580D01*
X124783333Y-96774819D02*
X124973809Y-96774819D01*
X124973809Y-96774819D02*
X125069047Y-96822438D01*
X125069047Y-96822438D02*
X125116666Y-96870057D01*
X125116666Y-96870057D02*
X125211904Y-97012914D01*
X125211904Y-97012914D02*
X125259523Y-97203390D01*
X125259523Y-97203390D02*
X125259523Y-97584342D01*
X125259523Y-97584342D02*
X125211904Y-97679580D01*
X125211904Y-97679580D02*
X125164285Y-97727200D01*
X125164285Y-97727200D02*
X125069047Y-97774819D01*
X125069047Y-97774819D02*
X124878571Y-97774819D01*
X124878571Y-97774819D02*
X124783333Y-97727200D01*
X124783333Y-97727200D02*
X124735714Y-97679580D01*
X124735714Y-97679580D02*
X124688095Y-97584342D01*
X124688095Y-97584342D02*
X124688095Y-97346247D01*
X124688095Y-97346247D02*
X124735714Y-97251009D01*
X124735714Y-97251009D02*
X124783333Y-97203390D01*
X124783333Y-97203390D02*
X124878571Y-97155771D01*
X124878571Y-97155771D02*
X125069047Y-97155771D01*
X125069047Y-97155771D02*
X125164285Y-97203390D01*
X125164285Y-97203390D02*
X125211904Y-97251009D01*
X125211904Y-97251009D02*
X125259523Y-97346247D01*
X126592857Y-103274819D02*
X126926190Y-102798628D01*
X127164285Y-103274819D02*
X127164285Y-102274819D01*
X127164285Y-102274819D02*
X126783333Y-102274819D01*
X126783333Y-102274819D02*
X126688095Y-102322438D01*
X126688095Y-102322438D02*
X126640476Y-102370057D01*
X126640476Y-102370057D02*
X126592857Y-102465295D01*
X126592857Y-102465295D02*
X126592857Y-102608152D01*
X126592857Y-102608152D02*
X126640476Y-102703390D01*
X126640476Y-102703390D02*
X126688095Y-102751009D01*
X126688095Y-102751009D02*
X126783333Y-102798628D01*
X126783333Y-102798628D02*
X127164285Y-102798628D01*
X126259523Y-102274819D02*
X125640476Y-102274819D01*
X125640476Y-102274819D02*
X125973809Y-102655771D01*
X125973809Y-102655771D02*
X125830952Y-102655771D01*
X125830952Y-102655771D02*
X125735714Y-102703390D01*
X125735714Y-102703390D02*
X125688095Y-102751009D01*
X125688095Y-102751009D02*
X125640476Y-102846247D01*
X125640476Y-102846247D02*
X125640476Y-103084342D01*
X125640476Y-103084342D02*
X125688095Y-103179580D01*
X125688095Y-103179580D02*
X125735714Y-103227200D01*
X125735714Y-103227200D02*
X125830952Y-103274819D01*
X125830952Y-103274819D02*
X126116666Y-103274819D01*
X126116666Y-103274819D02*
X126211904Y-103227200D01*
X126211904Y-103227200D02*
X126259523Y-103179580D01*
X124735714Y-102274819D02*
X125211904Y-102274819D01*
X125211904Y-102274819D02*
X125259523Y-102751009D01*
X125259523Y-102751009D02*
X125211904Y-102703390D01*
X125211904Y-102703390D02*
X125116666Y-102655771D01*
X125116666Y-102655771D02*
X124878571Y-102655771D01*
X124878571Y-102655771D02*
X124783333Y-102703390D01*
X124783333Y-102703390D02*
X124735714Y-102751009D01*
X124735714Y-102751009D02*
X124688095Y-102846247D01*
X124688095Y-102846247D02*
X124688095Y-103084342D01*
X124688095Y-103084342D02*
X124735714Y-103179580D01*
X124735714Y-103179580D02*
X124783333Y-103227200D01*
X124783333Y-103227200D02*
X124878571Y-103274819D01*
X124878571Y-103274819D02*
X125116666Y-103274819D01*
X125116666Y-103274819D02*
X125211904Y-103227200D01*
X125211904Y-103227200D02*
X125259523Y-103179580D01*
X77299819Y-88856666D02*
X78014104Y-88856666D01*
X78014104Y-88856666D02*
X78156961Y-88809047D01*
X78156961Y-88809047D02*
X78252200Y-88713809D01*
X78252200Y-88713809D02*
X78299819Y-88570952D01*
X78299819Y-88570952D02*
X78299819Y-88475714D01*
X77633152Y-89761428D02*
X78299819Y-89761428D01*
X77252200Y-89523333D02*
X77966485Y-89285238D01*
X77966485Y-89285238D02*
X77966485Y-89904285D01*
X130804166Y-38609580D02*
X130851785Y-38657200D01*
X130851785Y-38657200D02*
X130994642Y-38704819D01*
X130994642Y-38704819D02*
X131089880Y-38704819D01*
X131089880Y-38704819D02*
X131232737Y-38657200D01*
X131232737Y-38657200D02*
X131327975Y-38561961D01*
X131327975Y-38561961D02*
X131375594Y-38466723D01*
X131375594Y-38466723D02*
X131423213Y-38276247D01*
X131423213Y-38276247D02*
X131423213Y-38133390D01*
X131423213Y-38133390D02*
X131375594Y-37942914D01*
X131375594Y-37942914D02*
X131327975Y-37847676D01*
X131327975Y-37847676D02*
X131232737Y-37752438D01*
X131232737Y-37752438D02*
X131089880Y-37704819D01*
X131089880Y-37704819D02*
X130994642Y-37704819D01*
X130994642Y-37704819D02*
X130851785Y-37752438D01*
X130851785Y-37752438D02*
X130804166Y-37800057D01*
X129947023Y-37704819D02*
X130137499Y-37704819D01*
X130137499Y-37704819D02*
X130232737Y-37752438D01*
X130232737Y-37752438D02*
X130280356Y-37800057D01*
X130280356Y-37800057D02*
X130375594Y-37942914D01*
X130375594Y-37942914D02*
X130423213Y-38133390D01*
X130423213Y-38133390D02*
X130423213Y-38514342D01*
X130423213Y-38514342D02*
X130375594Y-38609580D01*
X130375594Y-38609580D02*
X130327975Y-38657200D01*
X130327975Y-38657200D02*
X130232737Y-38704819D01*
X130232737Y-38704819D02*
X130042261Y-38704819D01*
X130042261Y-38704819D02*
X129947023Y-38657200D01*
X129947023Y-38657200D02*
X129899404Y-38609580D01*
X129899404Y-38609580D02*
X129851785Y-38514342D01*
X129851785Y-38514342D02*
X129851785Y-38276247D01*
X129851785Y-38276247D02*
X129899404Y-38181009D01*
X129899404Y-38181009D02*
X129947023Y-38133390D01*
X129947023Y-38133390D02*
X130042261Y-38085771D01*
X130042261Y-38085771D02*
X130232737Y-38085771D01*
X130232737Y-38085771D02*
X130327975Y-38133390D01*
X130327975Y-38133390D02*
X130375594Y-38181009D01*
X130375594Y-38181009D02*
X130423213Y-38276247D01*
X116274819Y-86856666D02*
X116989104Y-86856666D01*
X116989104Y-86856666D02*
X117131961Y-86809047D01*
X117131961Y-86809047D02*
X117227200Y-86713809D01*
X117227200Y-86713809D02*
X117274819Y-86570952D01*
X117274819Y-86570952D02*
X117274819Y-86475714D01*
X116274819Y-87237619D02*
X116274819Y-87856666D01*
X116274819Y-87856666D02*
X116655771Y-87523333D01*
X116655771Y-87523333D02*
X116655771Y-87666190D01*
X116655771Y-87666190D02*
X116703390Y-87761428D01*
X116703390Y-87761428D02*
X116751009Y-87809047D01*
X116751009Y-87809047D02*
X116846247Y-87856666D01*
X116846247Y-87856666D02*
X117084342Y-87856666D01*
X117084342Y-87856666D02*
X117179580Y-87809047D01*
X117179580Y-87809047D02*
X117227200Y-87761428D01*
X117227200Y-87761428D02*
X117274819Y-87666190D01*
X117274819Y-87666190D02*
X117274819Y-87380476D01*
X117274819Y-87380476D02*
X117227200Y-87285238D01*
X117227200Y-87285238D02*
X117179580Y-87237619D01*
X38299819Y-88856666D02*
X39014104Y-88856666D01*
X39014104Y-88856666D02*
X39156961Y-88809047D01*
X39156961Y-88809047D02*
X39252200Y-88713809D01*
X39252200Y-88713809D02*
X39299819Y-88570952D01*
X39299819Y-88570952D02*
X39299819Y-88475714D01*
X38299819Y-89809047D02*
X38299819Y-89332857D01*
X38299819Y-89332857D02*
X38776009Y-89285238D01*
X38776009Y-89285238D02*
X38728390Y-89332857D01*
X38728390Y-89332857D02*
X38680771Y-89428095D01*
X38680771Y-89428095D02*
X38680771Y-89666190D01*
X38680771Y-89666190D02*
X38728390Y-89761428D01*
X38728390Y-89761428D02*
X38776009Y-89809047D01*
X38776009Y-89809047D02*
X38871247Y-89856666D01*
X38871247Y-89856666D02*
X39109342Y-89856666D01*
X39109342Y-89856666D02*
X39204580Y-89809047D01*
X39204580Y-89809047D02*
X39252200Y-89761428D01*
X39252200Y-89761428D02*
X39299819Y-89666190D01*
X39299819Y-89666190D02*
X39299819Y-89428095D01*
X39299819Y-89428095D02*
X39252200Y-89332857D01*
X39252200Y-89332857D02*
X39204580Y-89285238D01*
X149304166Y-38509580D02*
X149351785Y-38557200D01*
X149351785Y-38557200D02*
X149494642Y-38604819D01*
X149494642Y-38604819D02*
X149589880Y-38604819D01*
X149589880Y-38604819D02*
X149732737Y-38557200D01*
X149732737Y-38557200D02*
X149827975Y-38461961D01*
X149827975Y-38461961D02*
X149875594Y-38366723D01*
X149875594Y-38366723D02*
X149923213Y-38176247D01*
X149923213Y-38176247D02*
X149923213Y-38033390D01*
X149923213Y-38033390D02*
X149875594Y-37842914D01*
X149875594Y-37842914D02*
X149827975Y-37747676D01*
X149827975Y-37747676D02*
X149732737Y-37652438D01*
X149732737Y-37652438D02*
X149589880Y-37604819D01*
X149589880Y-37604819D02*
X149494642Y-37604819D01*
X149494642Y-37604819D02*
X149351785Y-37652438D01*
X149351785Y-37652438D02*
X149304166Y-37700057D01*
X148447023Y-37938152D02*
X148447023Y-38604819D01*
X148685118Y-37557200D02*
X148923213Y-38271485D01*
X148923213Y-38271485D02*
X148304166Y-38271485D01*
X155080357Y-92709580D02*
X155127976Y-92757200D01*
X155127976Y-92757200D02*
X155270833Y-92804819D01*
X155270833Y-92804819D02*
X155366071Y-92804819D01*
X155366071Y-92804819D02*
X155508928Y-92757200D01*
X155508928Y-92757200D02*
X155604166Y-92661961D01*
X155604166Y-92661961D02*
X155651785Y-92566723D01*
X155651785Y-92566723D02*
X155699404Y-92376247D01*
X155699404Y-92376247D02*
X155699404Y-92233390D01*
X155699404Y-92233390D02*
X155651785Y-92042914D01*
X155651785Y-92042914D02*
X155604166Y-91947676D01*
X155604166Y-91947676D02*
X155508928Y-91852438D01*
X155508928Y-91852438D02*
X155366071Y-91804819D01*
X155366071Y-91804819D02*
X155270833Y-91804819D01*
X155270833Y-91804819D02*
X155127976Y-91852438D01*
X155127976Y-91852438D02*
X155080357Y-91900057D01*
X154127976Y-92804819D02*
X154699404Y-92804819D01*
X154413690Y-92804819D02*
X154413690Y-91804819D01*
X154413690Y-91804819D02*
X154508928Y-91947676D01*
X154508928Y-91947676D02*
X154604166Y-92042914D01*
X154604166Y-92042914D02*
X154699404Y-92090533D01*
X153508928Y-91804819D02*
X153413690Y-91804819D01*
X153413690Y-91804819D02*
X153318452Y-91852438D01*
X153318452Y-91852438D02*
X153270833Y-91900057D01*
X153270833Y-91900057D02*
X153223214Y-91995295D01*
X153223214Y-91995295D02*
X153175595Y-92185771D01*
X153175595Y-92185771D02*
X153175595Y-92423866D01*
X153175595Y-92423866D02*
X153223214Y-92614342D01*
X153223214Y-92614342D02*
X153270833Y-92709580D01*
X153270833Y-92709580D02*
X153318452Y-92757200D01*
X153318452Y-92757200D02*
X153413690Y-92804819D01*
X153413690Y-92804819D02*
X153508928Y-92804819D01*
X153508928Y-92804819D02*
X153604166Y-92757200D01*
X153604166Y-92757200D02*
X153651785Y-92709580D01*
X153651785Y-92709580D02*
X153699404Y-92614342D01*
X153699404Y-92614342D02*
X153747023Y-92423866D01*
X153747023Y-92423866D02*
X153747023Y-92185771D01*
X153747023Y-92185771D02*
X153699404Y-91995295D01*
X153699404Y-91995295D02*
X153651785Y-91900057D01*
X153651785Y-91900057D02*
X153604166Y-91852438D01*
X153604166Y-91852438D02*
X153508928Y-91804819D01*
X146569166Y-58709580D02*
X146616785Y-58757200D01*
X146616785Y-58757200D02*
X146759642Y-58804819D01*
X146759642Y-58804819D02*
X146854880Y-58804819D01*
X146854880Y-58804819D02*
X146997737Y-58757200D01*
X146997737Y-58757200D02*
X147092975Y-58661961D01*
X147092975Y-58661961D02*
X147140594Y-58566723D01*
X147140594Y-58566723D02*
X147188213Y-58376247D01*
X147188213Y-58376247D02*
X147188213Y-58233390D01*
X147188213Y-58233390D02*
X147140594Y-58042914D01*
X147140594Y-58042914D02*
X147092975Y-57947676D01*
X147092975Y-57947676D02*
X146997737Y-57852438D01*
X146997737Y-57852438D02*
X146854880Y-57804819D01*
X146854880Y-57804819D02*
X146759642Y-57804819D01*
X146759642Y-57804819D02*
X146616785Y-57852438D01*
X146616785Y-57852438D02*
X146569166Y-57900057D01*
X146235832Y-57804819D02*
X145569166Y-57804819D01*
X145569166Y-57804819D02*
X145997737Y-58804819D01*
D11*
%TO.C,J9*%
X156000000Y-124990000D02*
X154670000Y-124990000D01*
X154670000Y-124990000D02*
X154670000Y-123660000D01*
X154670000Y-99470000D02*
X154670000Y-122390000D01*
X157330000Y-122390000D02*
X154670000Y-122390000D01*
X157330000Y-99470000D02*
X154670000Y-99470000D01*
X157330000Y-99470000D02*
X157330000Y-122390000D01*
%TO.C,R64*%
X146810000Y-97422936D02*
X146810000Y-98877064D01*
X144990000Y-97422936D02*
X144990000Y-98877064D01*
%TO.C,R61*%
X144990000Y-127677064D02*
X144990000Y-126222936D01*
X146810000Y-127677064D02*
X146810000Y-126222936D01*
%TO.C,R58*%
X139890000Y-97177064D02*
X139890000Y-95722936D01*
X141710000Y-97177064D02*
X141710000Y-95722936D01*
%TO.C,R55*%
X139890000Y-103047064D02*
X139890000Y-101592936D01*
X141710000Y-103047064D02*
X141710000Y-101592936D01*
%TO.C,R52*%
X139890000Y-108917064D02*
X139890000Y-107462936D01*
X141710000Y-108917064D02*
X141710000Y-107462936D01*
%TO.C,R49*%
X141710000Y-113332936D02*
X141710000Y-114787064D01*
X139890000Y-113332936D02*
X139890000Y-114787064D01*
%TO.C,R46*%
X139890000Y-120657064D02*
X139890000Y-119202936D01*
X141710000Y-120657064D02*
X141710000Y-119202936D01*
%TO.C,R44*%
X139890000Y-126527064D02*
X139890000Y-125072936D01*
X141710000Y-126527064D02*
X141710000Y-125072936D01*
%TO.C,Q8*%
X148912500Y-103560000D02*
X149562500Y-103560000D01*
X150212500Y-103560000D02*
X149562500Y-103560000D01*
X148912500Y-100440000D02*
X149562500Y-100440000D01*
X150212500Y-100440000D02*
X149562500Y-100440000D01*
X148640000Y-103840000D02*
X148160000Y-103840000D01*
X148400000Y-103510000D01*
X148640000Y-103840000D01*
G36*
X148640000Y-103840000D02*
G01*
X148160000Y-103840000D01*
X148400000Y-103510000D01*
X148640000Y-103840000D01*
G37*
%TO.C,Q7*%
X144287500Y-122010000D02*
X144937500Y-122010000D01*
X145587500Y-122010000D02*
X144937500Y-122010000D01*
X144287500Y-118890000D02*
X144937500Y-118890000D01*
X145587500Y-118890000D02*
X144937500Y-118890000D01*
X144015000Y-122290000D02*
X143535000Y-122290000D01*
X143775000Y-121960000D01*
X144015000Y-122290000D01*
G36*
X144015000Y-122290000D02*
G01*
X143535000Y-122290000D01*
X143775000Y-121960000D01*
X144015000Y-122290000D01*
G37*
%TO.C,Q6*%
X144287500Y-106060000D02*
X144937500Y-106060000D01*
X145587500Y-106060000D02*
X144937500Y-106060000D01*
X144287500Y-102940000D02*
X144937500Y-102940000D01*
X145587500Y-102940000D02*
X144937500Y-102940000D01*
X144015000Y-106340000D02*
X143535000Y-106340000D01*
X143775000Y-106010000D01*
X144015000Y-106340000D01*
G36*
X144015000Y-106340000D02*
G01*
X143535000Y-106340000D01*
X143775000Y-106010000D01*
X144015000Y-106340000D01*
G37*
%TO.C,Q5*%
X148912500Y-108893333D02*
X149562500Y-108893333D01*
X150212500Y-108893333D02*
X149562500Y-108893333D01*
X148912500Y-105773333D02*
X149562500Y-105773333D01*
X150212500Y-105773333D02*
X149562500Y-105773333D01*
X148640000Y-109173333D02*
X148160000Y-109173333D01*
X148400000Y-108843333D01*
X148640000Y-109173333D01*
G36*
X148640000Y-109173333D02*
G01*
X148160000Y-109173333D01*
X148400000Y-108843333D01*
X148640000Y-109173333D01*
G37*
%TO.C,Q4*%
X144287500Y-111376666D02*
X144937500Y-111376666D01*
X145587500Y-111376666D02*
X144937500Y-111376666D01*
X144287500Y-108256666D02*
X144937500Y-108256666D01*
X145587500Y-108256666D02*
X144937500Y-108256666D01*
X144015000Y-111656666D02*
X143535000Y-111656666D01*
X143775000Y-111326666D01*
X144015000Y-111656666D01*
G36*
X144015000Y-111656666D02*
G01*
X143535000Y-111656666D01*
X143775000Y-111326666D01*
X144015000Y-111656666D01*
G37*
%TO.C,Q3*%
X148912500Y-114226666D02*
X149562500Y-114226666D01*
X150212500Y-114226666D02*
X149562500Y-114226666D01*
X148912500Y-111106666D02*
X149562500Y-111106666D01*
X150212500Y-111106666D02*
X149562500Y-111106666D01*
X148640000Y-114506666D02*
X148160000Y-114506666D01*
X148400000Y-114176666D01*
X148640000Y-114506666D01*
G36*
X148640000Y-114506666D02*
G01*
X148160000Y-114506666D01*
X148400000Y-114176666D01*
X148640000Y-114506666D01*
G37*
%TO.C,Q2*%
X144287500Y-116693332D02*
X144937500Y-116693332D01*
X145587500Y-116693332D02*
X144937500Y-116693332D01*
X144287500Y-113573332D02*
X144937500Y-113573332D01*
X145587500Y-113573332D02*
X144937500Y-113573332D01*
X144015000Y-116973332D02*
X143535000Y-116973332D01*
X143775000Y-116643332D01*
X144015000Y-116973332D01*
G36*
X144015000Y-116973332D02*
G01*
X143535000Y-116973332D01*
X143775000Y-116643332D01*
X144015000Y-116973332D01*
G37*
%TO.C,Q1*%
X148912500Y-119560000D02*
X149562500Y-119560000D01*
X150212500Y-119560000D02*
X149562500Y-119560000D01*
X148912500Y-116440000D02*
X149562500Y-116440000D01*
X150212500Y-116440000D02*
X149562500Y-116440000D01*
X148640000Y-119840000D02*
X148160000Y-119840000D01*
X148400000Y-119510000D01*
X148640000Y-119840000D01*
G36*
X148640000Y-119840000D02*
G01*
X148160000Y-119840000D01*
X148400000Y-119510000D01*
X148640000Y-119840000D01*
G37*
%TO.C,R40*%
X126777064Y-117910000D02*
X125322936Y-117910000D01*
X126777064Y-116090000D02*
X125322936Y-116090000D01*
%TO.C,R37*%
X126677064Y-133410000D02*
X125222936Y-133410000D01*
X126677064Y-131590000D02*
X125222936Y-131590000D01*
%TO.C,R33*%
X126677064Y-111910000D02*
X125222936Y-111910000D01*
X126677064Y-110090000D02*
X125222936Y-110090000D01*
%TO.C,R38*%
X126677064Y-127910000D02*
X125222936Y-127910000D01*
X126677064Y-126090000D02*
X125222936Y-126090000D01*
%TO.C,R39*%
X126777064Y-124410000D02*
X125322936Y-124410000D01*
X126777064Y-122590000D02*
X125322936Y-122590000D01*
%TO.C,R34*%
X126677064Y-106910000D02*
X125222936Y-106910000D01*
X126677064Y-105090000D02*
X125222936Y-105090000D01*
%TO.C,R36*%
X126677064Y-96410000D02*
X125222936Y-96410000D01*
X126677064Y-94590000D02*
X125222936Y-94590000D01*
%TO.C,R35*%
X126677064Y-101910000D02*
X125222936Y-101910000D01*
X126677064Y-100090000D02*
X125222936Y-100090000D01*
%TO.C,J4*%
X78845000Y-86590000D02*
X80175000Y-86590000D01*
X78845000Y-87920000D02*
X78845000Y-86590000D01*
X78845000Y-89190000D02*
X81445000Y-89190000D01*
X78845000Y-91790000D02*
X78845000Y-89190000D01*
X81445000Y-89190000D02*
X81445000Y-86590000D01*
X104365000Y-86590000D02*
X81445000Y-86590000D01*
X104365000Y-91790000D02*
X78845000Y-91790000D01*
X104365000Y-91790000D02*
X104365000Y-86590000D01*
%TO.C,C6*%
X129926248Y-39190000D02*
X131348752Y-39190000D01*
X129926248Y-41010000D02*
X131348752Y-41010000D01*
%TO.C,J3*%
X117820000Y-84590000D02*
X119150000Y-84590000D01*
X117820000Y-85920000D02*
X117820000Y-84590000D01*
X117820000Y-87190000D02*
X120420000Y-87190000D01*
X117820000Y-89790000D02*
X117820000Y-87190000D01*
X120420000Y-87190000D02*
X120420000Y-84590000D01*
X143340000Y-84590000D02*
X120420000Y-84590000D01*
X143340000Y-89790000D02*
X117820000Y-89790000D01*
X143340000Y-89790000D02*
X143340000Y-84590000D01*
%TO.C,J5*%
X65365000Y-91790000D02*
X65365000Y-86590000D01*
X65365000Y-91790000D02*
X39845000Y-91790000D01*
X65365000Y-86590000D02*
X42445000Y-86590000D01*
X42445000Y-89190000D02*
X42445000Y-86590000D01*
X39845000Y-91790000D02*
X39845000Y-89190000D01*
X39845000Y-89190000D02*
X42445000Y-89190000D01*
X39845000Y-87920000D02*
X39845000Y-86590000D01*
X39845000Y-86590000D02*
X41175000Y-86590000D01*
%TO.C,C4*%
X148426248Y-39090000D02*
X149848752Y-39090000D01*
X148426248Y-40910000D02*
X149848752Y-40910000D01*
%TO.C,C10*%
X155148752Y-89590000D02*
X153726248Y-89590000D01*
X155148752Y-91410000D02*
X153726248Y-91410000D01*
%TO.C,C7*%
X147113752Y-55590000D02*
X145691248Y-55590000D01*
X147113752Y-57410000D02*
X145691248Y-57410000D01*
%TD*%
M02*
