%TF.GenerationSoftware,KiCad,Pcbnew,8.0.7-8.0.7-0~ubuntu24.10.1*%
%TF.CreationDate,2025-01-04T20:14:21+02:00*%
%TF.ProjectId,fpga_board,66706761-5f62-46f6-9172-642e6b696361,rev?*%
%TF.SameCoordinates,Original*%
%TF.FileFunction,Drillmap*%
%TF.FilePolarity,Positive*%
%FSLAX45Y45*%
G04 Gerber Fmt 4.5, Leading zero omitted, Abs format (unit mm)*
G04 Created by KiCad (PCBNEW 8.0.7-8.0.7-0~ubuntu24.10.1) date 2025-01-04 20:14:21*
%MOMM*%
%LPD*%
G01*
G04 APERTURE LIST*
%ADD10C,0.100000*%
%ADD11C,0.200000*%
%ADD12C,0.127000*%
%ADD13C,0.300000*%
%ADD14C,0.320000*%
G04 APERTURE END LIST*
D10*
X1810000Y-960000D02*
X15810000Y-960000D01*
X15810000Y-13960000D01*
X1810000Y-13960000D01*
X1810000Y-960000D01*
D11*
D12*
X15582500Y-1886500D02*
X15709500Y-2013500D01*
X15709500Y-1886500D02*
X15582500Y-2013500D01*
X15582500Y-2786500D02*
X15709500Y-2913500D01*
X15709500Y-2786500D02*
X15582500Y-2913500D01*
D13*
X3050000Y-3600000D02*
G75*
G02*
X2750000Y-3600000I-150000J0D01*
G01*
X2750000Y-3600000D02*
G75*
G02*
X3050000Y-3600000I150000J0D01*
G01*
X3050000Y-13400000D02*
G75*
G02*
X2750000Y-13400000I-150000J0D01*
G01*
X2750000Y-13400000D02*
G75*
G02*
X3050000Y-13400000I150000J0D01*
G01*
X3802500Y-9625000D02*
G75*
G02*
X3502500Y-9625000I-150000J0D01*
G01*
X3502500Y-9625000D02*
G75*
G02*
X3802500Y-9625000I150000J0D01*
G01*
X3802500Y-13500000D02*
G75*
G02*
X3502500Y-13500000I-150000J0D01*
G01*
X3502500Y-13500000D02*
G75*
G02*
X3802500Y-13500000I150000J0D01*
G01*
X6700000Y-9625000D02*
G75*
G02*
X6400000Y-9625000I-150000J0D01*
G01*
X6400000Y-9625000D02*
G75*
G02*
X6700000Y-9625000I150000J0D01*
G01*
X6700000Y-13500000D02*
G75*
G02*
X6400000Y-13500000I-150000J0D01*
G01*
X6400000Y-13500000D02*
G75*
G02*
X6700000Y-13500000I150000J0D01*
G01*
X7702500Y-9625000D02*
G75*
G02*
X7402500Y-9625000I-150000J0D01*
G01*
X7402500Y-9625000D02*
G75*
G02*
X7702500Y-9625000I150000J0D01*
G01*
X7702500Y-13500000D02*
G75*
G02*
X7402500Y-13500000I-150000J0D01*
G01*
X7402500Y-13500000D02*
G75*
G02*
X7702500Y-13500000I150000J0D01*
G01*
X9050000Y-3600000D02*
G75*
G02*
X8750000Y-3600000I-150000J0D01*
G01*
X8750000Y-3600000D02*
G75*
G02*
X9050000Y-3600000I150000J0D01*
G01*
X9050000Y-13400000D02*
G75*
G02*
X8750000Y-13400000I-150000J0D01*
G01*
X8750000Y-13400000D02*
G75*
G02*
X9050000Y-13400000I150000J0D01*
G01*
X10600000Y-9625000D02*
G75*
G02*
X10300000Y-9625000I-150000J0D01*
G01*
X10300000Y-9625000D02*
G75*
G02*
X10600000Y-9625000I150000J0D01*
G01*
X10600000Y-13500000D02*
G75*
G02*
X10300000Y-13500000I-150000J0D01*
G01*
X10300000Y-13500000D02*
G75*
G02*
X10600000Y-13500000I150000J0D01*
G01*
X11600000Y-9300000D02*
G75*
G02*
X11300000Y-9300000I-150000J0D01*
G01*
X11300000Y-9300000D02*
G75*
G02*
X11600000Y-9300000I150000J0D01*
G01*
X11600000Y-13500000D02*
G75*
G02*
X11300000Y-13500000I-150000J0D01*
G01*
X11300000Y-13500000D02*
G75*
G02*
X11600000Y-13500000I150000J0D01*
G01*
X14700000Y-9300000D02*
G75*
G02*
X14400000Y-9300000I-150000J0D01*
G01*
X14400000Y-9300000D02*
G75*
G02*
X14700000Y-9300000I150000J0D01*
G01*
X14700000Y-13500000D02*
G75*
G02*
X14400000Y-13500000I-150000J0D01*
G01*
X14400000Y-13500000D02*
G75*
G02*
X14700000Y-13500000I150000J0D01*
G01*
D14*
X2150000Y-1140000D02*
X2150000Y-1460000D01*
X1990000Y-1300000D02*
X2310000Y-1300000D01*
X2150000Y-13440000D02*
X2150000Y-13760000D01*
X1990000Y-13600000D02*
X2310000Y-13600000D01*
X15450000Y-1140000D02*
X15450000Y-1460000D01*
X15290000Y-1300000D02*
X15610000Y-1300000D01*
X15450000Y-13440000D02*
X15450000Y-13760000D01*
X15290000Y-13600000D02*
X15610000Y-13600000D01*
D11*
X2065777Y-14276484D02*
X2065777Y-14076484D01*
X2065777Y-14076484D02*
X2113396Y-14076484D01*
X2113396Y-14076484D02*
X2141967Y-14086008D01*
X2141967Y-14086008D02*
X2161015Y-14105055D01*
X2161015Y-14105055D02*
X2170539Y-14124103D01*
X2170539Y-14124103D02*
X2180063Y-14162198D01*
X2180063Y-14162198D02*
X2180063Y-14190769D01*
X2180063Y-14190769D02*
X2170539Y-14228865D01*
X2170539Y-14228865D02*
X2161015Y-14247912D01*
X2161015Y-14247912D02*
X2141967Y-14266960D01*
X2141967Y-14266960D02*
X2113396Y-14276484D01*
X2113396Y-14276484D02*
X2065777Y-14276484D01*
X2265777Y-14276484D02*
X2265777Y-14143150D01*
X2265777Y-14181246D02*
X2275301Y-14162198D01*
X2275301Y-14162198D02*
X2284824Y-14152674D01*
X2284824Y-14152674D02*
X2303872Y-14143150D01*
X2303872Y-14143150D02*
X2322920Y-14143150D01*
X2389586Y-14276484D02*
X2389586Y-14143150D01*
X2389586Y-14076484D02*
X2380063Y-14086008D01*
X2380063Y-14086008D02*
X2389586Y-14095531D01*
X2389586Y-14095531D02*
X2399110Y-14086008D01*
X2399110Y-14086008D02*
X2389586Y-14076484D01*
X2389586Y-14076484D02*
X2389586Y-14095531D01*
X2513396Y-14276484D02*
X2494348Y-14266960D01*
X2494348Y-14266960D02*
X2484824Y-14247912D01*
X2484824Y-14247912D02*
X2484824Y-14076484D01*
X2618158Y-14276484D02*
X2599110Y-14266960D01*
X2599110Y-14266960D02*
X2589586Y-14247912D01*
X2589586Y-14247912D02*
X2589586Y-14076484D01*
X2846729Y-14276484D02*
X2846729Y-14076484D01*
X2846729Y-14076484D02*
X2913396Y-14219341D01*
X2913396Y-14219341D02*
X2980062Y-14076484D01*
X2980062Y-14076484D02*
X2980062Y-14276484D01*
X3161015Y-14276484D02*
X3161015Y-14171722D01*
X3161015Y-14171722D02*
X3151491Y-14152674D01*
X3151491Y-14152674D02*
X3132443Y-14143150D01*
X3132443Y-14143150D02*
X3094348Y-14143150D01*
X3094348Y-14143150D02*
X3075301Y-14152674D01*
X3161015Y-14266960D02*
X3141967Y-14276484D01*
X3141967Y-14276484D02*
X3094348Y-14276484D01*
X3094348Y-14276484D02*
X3075301Y-14266960D01*
X3075301Y-14266960D02*
X3065777Y-14247912D01*
X3065777Y-14247912D02*
X3065777Y-14228865D01*
X3065777Y-14228865D02*
X3075301Y-14209817D01*
X3075301Y-14209817D02*
X3094348Y-14200293D01*
X3094348Y-14200293D02*
X3141967Y-14200293D01*
X3141967Y-14200293D02*
X3161015Y-14190769D01*
X3256253Y-14143150D02*
X3256253Y-14343150D01*
X3256253Y-14152674D02*
X3275301Y-14143150D01*
X3275301Y-14143150D02*
X3313396Y-14143150D01*
X3313396Y-14143150D02*
X3332443Y-14152674D01*
X3332443Y-14152674D02*
X3341967Y-14162198D01*
X3341967Y-14162198D02*
X3351491Y-14181246D01*
X3351491Y-14181246D02*
X3351491Y-14238388D01*
X3351491Y-14238388D02*
X3341967Y-14257436D01*
X3341967Y-14257436D02*
X3332443Y-14266960D01*
X3332443Y-14266960D02*
X3313396Y-14276484D01*
X3313396Y-14276484D02*
X3275301Y-14276484D01*
X3275301Y-14276484D02*
X3256253Y-14266960D01*
X3437205Y-14257436D02*
X3446729Y-14266960D01*
X3446729Y-14266960D02*
X3437205Y-14276484D01*
X3437205Y-14276484D02*
X3427682Y-14266960D01*
X3427682Y-14266960D02*
X3437205Y-14257436D01*
X3437205Y-14257436D02*
X3437205Y-14276484D01*
X3437205Y-14152674D02*
X3446729Y-14162198D01*
X3446729Y-14162198D02*
X3437205Y-14171722D01*
X3437205Y-14171722D02*
X3427682Y-14162198D01*
X3427682Y-14162198D02*
X3437205Y-14152674D01*
X3437205Y-14152674D02*
X3437205Y-14171722D01*
D12*
X1678000Y-14541500D02*
X1805000Y-14668500D01*
X1805000Y-14541500D02*
X1678000Y-14668500D01*
D11*
X2170539Y-14696484D02*
X2056253Y-14696484D01*
X2113396Y-14696484D02*
X2113396Y-14496484D01*
X2113396Y-14496484D02*
X2094348Y-14525055D01*
X2094348Y-14525055D02*
X2075301Y-14544103D01*
X2075301Y-14544103D02*
X2056253Y-14553627D01*
X2256253Y-14677436D02*
X2265777Y-14686960D01*
X2265777Y-14686960D02*
X2256253Y-14696484D01*
X2256253Y-14696484D02*
X2246729Y-14686960D01*
X2246729Y-14686960D02*
X2256253Y-14677436D01*
X2256253Y-14677436D02*
X2256253Y-14696484D01*
X2341967Y-14515531D02*
X2351491Y-14506008D01*
X2351491Y-14506008D02*
X2370539Y-14496484D01*
X2370539Y-14496484D02*
X2418158Y-14496484D01*
X2418158Y-14496484D02*
X2437205Y-14506008D01*
X2437205Y-14506008D02*
X2446729Y-14515531D01*
X2446729Y-14515531D02*
X2456253Y-14534579D01*
X2456253Y-14534579D02*
X2456253Y-14553627D01*
X2456253Y-14553627D02*
X2446729Y-14582198D01*
X2446729Y-14582198D02*
X2332444Y-14696484D01*
X2332444Y-14696484D02*
X2456253Y-14696484D01*
X2522920Y-14496484D02*
X2656253Y-14496484D01*
X2656253Y-14496484D02*
X2570539Y-14696484D01*
X2770539Y-14496484D02*
X2789586Y-14496484D01*
X2789586Y-14496484D02*
X2808634Y-14506008D01*
X2808634Y-14506008D02*
X2818158Y-14515531D01*
X2818158Y-14515531D02*
X2827682Y-14534579D01*
X2827682Y-14534579D02*
X2837205Y-14572674D01*
X2837205Y-14572674D02*
X2837205Y-14620293D01*
X2837205Y-14620293D02*
X2827682Y-14658388D01*
X2827682Y-14658388D02*
X2818158Y-14677436D01*
X2818158Y-14677436D02*
X2808634Y-14686960D01*
X2808634Y-14686960D02*
X2789586Y-14696484D01*
X2789586Y-14696484D02*
X2770539Y-14696484D01*
X2770539Y-14696484D02*
X2751491Y-14686960D01*
X2751491Y-14686960D02*
X2741967Y-14677436D01*
X2741967Y-14677436D02*
X2732444Y-14658388D01*
X2732444Y-14658388D02*
X2722920Y-14620293D01*
X2722920Y-14620293D02*
X2722920Y-14572674D01*
X2722920Y-14572674D02*
X2732444Y-14534579D01*
X2732444Y-14534579D02*
X2741967Y-14515531D01*
X2741967Y-14515531D02*
X2751491Y-14506008D01*
X2751491Y-14506008D02*
X2770539Y-14496484D01*
X2922920Y-14696484D02*
X2922920Y-14563150D01*
X2922920Y-14582198D02*
X2932443Y-14572674D01*
X2932443Y-14572674D02*
X2951491Y-14563150D01*
X2951491Y-14563150D02*
X2980063Y-14563150D01*
X2980063Y-14563150D02*
X2999110Y-14572674D01*
X2999110Y-14572674D02*
X3008634Y-14591722D01*
X3008634Y-14591722D02*
X3008634Y-14696484D01*
X3008634Y-14591722D02*
X3018158Y-14572674D01*
X3018158Y-14572674D02*
X3037205Y-14563150D01*
X3037205Y-14563150D02*
X3065777Y-14563150D01*
X3065777Y-14563150D02*
X3084824Y-14572674D01*
X3084824Y-14572674D02*
X3094348Y-14591722D01*
X3094348Y-14591722D02*
X3094348Y-14696484D01*
X3189586Y-14696484D02*
X3189586Y-14563150D01*
X3189586Y-14582198D02*
X3199110Y-14572674D01*
X3199110Y-14572674D02*
X3218158Y-14563150D01*
X3218158Y-14563150D02*
X3246729Y-14563150D01*
X3246729Y-14563150D02*
X3265777Y-14572674D01*
X3265777Y-14572674D02*
X3275301Y-14591722D01*
X3275301Y-14591722D02*
X3275301Y-14696484D01*
X3275301Y-14591722D02*
X3284824Y-14572674D01*
X3284824Y-14572674D02*
X3303872Y-14563150D01*
X3303872Y-14563150D02*
X3332443Y-14563150D01*
X3332443Y-14563150D02*
X3351491Y-14572674D01*
X3351491Y-14572674D02*
X3361015Y-14591722D01*
X3361015Y-14591722D02*
X3361015Y-14696484D01*
X3751491Y-14486960D02*
X3580063Y-14744103D01*
X4008634Y-14496484D02*
X4027682Y-14496484D01*
X4027682Y-14496484D02*
X4046729Y-14506008D01*
X4046729Y-14506008D02*
X4056253Y-14515531D01*
X4056253Y-14515531D02*
X4065777Y-14534579D01*
X4065777Y-14534579D02*
X4075301Y-14572674D01*
X4075301Y-14572674D02*
X4075301Y-14620293D01*
X4075301Y-14620293D02*
X4065777Y-14658388D01*
X4065777Y-14658388D02*
X4056253Y-14677436D01*
X4056253Y-14677436D02*
X4046729Y-14686960D01*
X4046729Y-14686960D02*
X4027682Y-14696484D01*
X4027682Y-14696484D02*
X4008634Y-14696484D01*
X4008634Y-14696484D02*
X3989586Y-14686960D01*
X3989586Y-14686960D02*
X3980063Y-14677436D01*
X3980063Y-14677436D02*
X3970539Y-14658388D01*
X3970539Y-14658388D02*
X3961015Y-14620293D01*
X3961015Y-14620293D02*
X3961015Y-14572674D01*
X3961015Y-14572674D02*
X3970539Y-14534579D01*
X3970539Y-14534579D02*
X3980063Y-14515531D01*
X3980063Y-14515531D02*
X3989586Y-14506008D01*
X3989586Y-14506008D02*
X4008634Y-14496484D01*
X4161015Y-14677436D02*
X4170539Y-14686960D01*
X4170539Y-14686960D02*
X4161015Y-14696484D01*
X4161015Y-14696484D02*
X4151491Y-14686960D01*
X4151491Y-14686960D02*
X4161015Y-14677436D01*
X4161015Y-14677436D02*
X4161015Y-14696484D01*
X4294348Y-14496484D02*
X4313396Y-14496484D01*
X4313396Y-14496484D02*
X4332444Y-14506008D01*
X4332444Y-14506008D02*
X4341968Y-14515531D01*
X4341968Y-14515531D02*
X4351491Y-14534579D01*
X4351491Y-14534579D02*
X4361015Y-14572674D01*
X4361015Y-14572674D02*
X4361015Y-14620293D01*
X4361015Y-14620293D02*
X4351491Y-14658388D01*
X4351491Y-14658388D02*
X4341968Y-14677436D01*
X4341968Y-14677436D02*
X4332444Y-14686960D01*
X4332444Y-14686960D02*
X4313396Y-14696484D01*
X4313396Y-14696484D02*
X4294348Y-14696484D01*
X4294348Y-14696484D02*
X4275301Y-14686960D01*
X4275301Y-14686960D02*
X4265777Y-14677436D01*
X4265777Y-14677436D02*
X4256253Y-14658388D01*
X4256253Y-14658388D02*
X4246729Y-14620293D01*
X4246729Y-14620293D02*
X4246729Y-14572674D01*
X4246729Y-14572674D02*
X4256253Y-14534579D01*
X4256253Y-14534579D02*
X4265777Y-14515531D01*
X4265777Y-14515531D02*
X4275301Y-14506008D01*
X4275301Y-14506008D02*
X4294348Y-14496484D01*
X4541968Y-14496484D02*
X4446729Y-14496484D01*
X4446729Y-14496484D02*
X4437206Y-14591722D01*
X4437206Y-14591722D02*
X4446729Y-14582198D01*
X4446729Y-14582198D02*
X4465777Y-14572674D01*
X4465777Y-14572674D02*
X4513396Y-14572674D01*
X4513396Y-14572674D02*
X4532444Y-14582198D01*
X4532444Y-14582198D02*
X4541968Y-14591722D01*
X4541968Y-14591722D02*
X4551491Y-14610769D01*
X4551491Y-14610769D02*
X4551491Y-14658388D01*
X4551491Y-14658388D02*
X4541968Y-14677436D01*
X4541968Y-14677436D02*
X4532444Y-14686960D01*
X4532444Y-14686960D02*
X4513396Y-14696484D01*
X4513396Y-14696484D02*
X4465777Y-14696484D01*
X4465777Y-14696484D02*
X4446729Y-14686960D01*
X4446729Y-14686960D02*
X4437206Y-14677436D01*
X4675301Y-14496484D02*
X4694349Y-14496484D01*
X4694349Y-14496484D02*
X4713396Y-14506008D01*
X4713396Y-14506008D02*
X4722920Y-14515531D01*
X4722920Y-14515531D02*
X4732444Y-14534579D01*
X4732444Y-14534579D02*
X4741968Y-14572674D01*
X4741968Y-14572674D02*
X4741968Y-14620293D01*
X4741968Y-14620293D02*
X4732444Y-14658388D01*
X4732444Y-14658388D02*
X4722920Y-14677436D01*
X4722920Y-14677436D02*
X4713396Y-14686960D01*
X4713396Y-14686960D02*
X4694349Y-14696484D01*
X4694349Y-14696484D02*
X4675301Y-14696484D01*
X4675301Y-14696484D02*
X4656253Y-14686960D01*
X4656253Y-14686960D02*
X4646729Y-14677436D01*
X4646729Y-14677436D02*
X4637206Y-14658388D01*
X4637206Y-14658388D02*
X4627682Y-14620293D01*
X4627682Y-14620293D02*
X4627682Y-14572674D01*
X4627682Y-14572674D02*
X4637206Y-14534579D01*
X4637206Y-14534579D02*
X4646729Y-14515531D01*
X4646729Y-14515531D02*
X4656253Y-14506008D01*
X4656253Y-14506008D02*
X4675301Y-14496484D01*
X4865777Y-14496484D02*
X4884825Y-14496484D01*
X4884825Y-14496484D02*
X4903872Y-14506008D01*
X4903872Y-14506008D02*
X4913396Y-14515531D01*
X4913396Y-14515531D02*
X4922920Y-14534579D01*
X4922920Y-14534579D02*
X4932444Y-14572674D01*
X4932444Y-14572674D02*
X4932444Y-14620293D01*
X4932444Y-14620293D02*
X4922920Y-14658388D01*
X4922920Y-14658388D02*
X4913396Y-14677436D01*
X4913396Y-14677436D02*
X4903872Y-14686960D01*
X4903872Y-14686960D02*
X4884825Y-14696484D01*
X4884825Y-14696484D02*
X4865777Y-14696484D01*
X4865777Y-14696484D02*
X4846729Y-14686960D01*
X4846729Y-14686960D02*
X4837206Y-14677436D01*
X4837206Y-14677436D02*
X4827682Y-14658388D01*
X4827682Y-14658388D02*
X4818158Y-14620293D01*
X4818158Y-14620293D02*
X4818158Y-14572674D01*
X4818158Y-14572674D02*
X4827682Y-14534579D01*
X4827682Y-14534579D02*
X4837206Y-14515531D01*
X4837206Y-14515531D02*
X4846729Y-14506008D01*
X4846729Y-14506008D02*
X4865777Y-14496484D01*
X5008634Y-14496484D02*
X5008634Y-14534579D01*
X5084825Y-14496484D02*
X5084825Y-14534579D01*
X5380063Y-14772674D02*
X5370539Y-14763150D01*
X5370539Y-14763150D02*
X5351491Y-14734579D01*
X5351491Y-14734579D02*
X5341968Y-14715531D01*
X5341968Y-14715531D02*
X5332444Y-14686960D01*
X5332444Y-14686960D02*
X5322920Y-14639341D01*
X5322920Y-14639341D02*
X5322920Y-14601246D01*
X5322920Y-14601246D02*
X5332444Y-14553627D01*
X5332444Y-14553627D02*
X5341968Y-14525055D01*
X5341968Y-14525055D02*
X5351491Y-14506008D01*
X5351491Y-14506008D02*
X5370539Y-14477436D01*
X5370539Y-14477436D02*
X5380063Y-14467912D01*
X5446730Y-14515531D02*
X5456253Y-14506008D01*
X5456253Y-14506008D02*
X5475301Y-14496484D01*
X5475301Y-14496484D02*
X5522920Y-14496484D01*
X5522920Y-14496484D02*
X5541968Y-14506008D01*
X5541968Y-14506008D02*
X5551491Y-14515531D01*
X5551491Y-14515531D02*
X5561015Y-14534579D01*
X5561015Y-14534579D02*
X5561015Y-14553627D01*
X5561015Y-14553627D02*
X5551491Y-14582198D01*
X5551491Y-14582198D02*
X5437206Y-14696484D01*
X5437206Y-14696484D02*
X5561015Y-14696484D01*
X5799110Y-14696484D02*
X5799110Y-14496484D01*
X5884825Y-14696484D02*
X5884825Y-14591722D01*
X5884825Y-14591722D02*
X5875301Y-14572674D01*
X5875301Y-14572674D02*
X5856253Y-14563150D01*
X5856253Y-14563150D02*
X5827682Y-14563150D01*
X5827682Y-14563150D02*
X5808634Y-14572674D01*
X5808634Y-14572674D02*
X5799110Y-14582198D01*
X6008634Y-14696484D02*
X5989587Y-14686960D01*
X5989587Y-14686960D02*
X5980063Y-14677436D01*
X5980063Y-14677436D02*
X5970539Y-14658388D01*
X5970539Y-14658388D02*
X5970539Y-14601246D01*
X5970539Y-14601246D02*
X5980063Y-14582198D01*
X5980063Y-14582198D02*
X5989587Y-14572674D01*
X5989587Y-14572674D02*
X6008634Y-14563150D01*
X6008634Y-14563150D02*
X6037206Y-14563150D01*
X6037206Y-14563150D02*
X6056253Y-14572674D01*
X6056253Y-14572674D02*
X6065777Y-14582198D01*
X6065777Y-14582198D02*
X6075301Y-14601246D01*
X6075301Y-14601246D02*
X6075301Y-14658388D01*
X6075301Y-14658388D02*
X6065777Y-14677436D01*
X6065777Y-14677436D02*
X6056253Y-14686960D01*
X6056253Y-14686960D02*
X6037206Y-14696484D01*
X6037206Y-14696484D02*
X6008634Y-14696484D01*
X6189587Y-14696484D02*
X6170539Y-14686960D01*
X6170539Y-14686960D02*
X6161015Y-14667912D01*
X6161015Y-14667912D02*
X6161015Y-14496484D01*
X6341968Y-14686960D02*
X6322920Y-14696484D01*
X6322920Y-14696484D02*
X6284825Y-14696484D01*
X6284825Y-14696484D02*
X6265777Y-14686960D01*
X6265777Y-14686960D02*
X6256253Y-14667912D01*
X6256253Y-14667912D02*
X6256253Y-14591722D01*
X6256253Y-14591722D02*
X6265777Y-14572674D01*
X6265777Y-14572674D02*
X6284825Y-14563150D01*
X6284825Y-14563150D02*
X6322920Y-14563150D01*
X6322920Y-14563150D02*
X6341968Y-14572674D01*
X6341968Y-14572674D02*
X6351491Y-14591722D01*
X6351491Y-14591722D02*
X6351491Y-14610769D01*
X6351491Y-14610769D02*
X6256253Y-14629817D01*
X6427682Y-14686960D02*
X6446730Y-14696484D01*
X6446730Y-14696484D02*
X6484825Y-14696484D01*
X6484825Y-14696484D02*
X6503872Y-14686960D01*
X6503872Y-14686960D02*
X6513396Y-14667912D01*
X6513396Y-14667912D02*
X6513396Y-14658388D01*
X6513396Y-14658388D02*
X6503872Y-14639341D01*
X6503872Y-14639341D02*
X6484825Y-14629817D01*
X6484825Y-14629817D02*
X6456253Y-14629817D01*
X6456253Y-14629817D02*
X6437206Y-14620293D01*
X6437206Y-14620293D02*
X6427682Y-14601246D01*
X6427682Y-14601246D02*
X6427682Y-14591722D01*
X6427682Y-14591722D02*
X6437206Y-14572674D01*
X6437206Y-14572674D02*
X6456253Y-14563150D01*
X6456253Y-14563150D02*
X6484825Y-14563150D01*
X6484825Y-14563150D02*
X6503872Y-14572674D01*
X6580063Y-14772674D02*
X6589587Y-14763150D01*
X6589587Y-14763150D02*
X6608634Y-14734579D01*
X6608634Y-14734579D02*
X6618158Y-14715531D01*
X6618158Y-14715531D02*
X6627682Y-14686960D01*
X6627682Y-14686960D02*
X6637206Y-14639341D01*
X6637206Y-14639341D02*
X6637206Y-14601246D01*
X6637206Y-14601246D02*
X6627682Y-14553627D01*
X6627682Y-14553627D02*
X6618158Y-14525055D01*
X6618158Y-14525055D02*
X6608634Y-14506008D01*
X6608634Y-14506008D02*
X6589587Y-14477436D01*
X6589587Y-14477436D02*
X6580063Y-14467912D01*
X6941968Y-14772674D02*
X6932444Y-14763150D01*
X6932444Y-14763150D02*
X6913396Y-14734579D01*
X6913396Y-14734579D02*
X6903872Y-14715531D01*
X6903872Y-14715531D02*
X6894349Y-14686960D01*
X6894349Y-14686960D02*
X6884825Y-14639341D01*
X6884825Y-14639341D02*
X6884825Y-14601246D01*
X6884825Y-14601246D02*
X6894349Y-14553627D01*
X6894349Y-14553627D02*
X6903872Y-14525055D01*
X6903872Y-14525055D02*
X6913396Y-14506008D01*
X6913396Y-14506008D02*
X6932444Y-14477436D01*
X6932444Y-14477436D02*
X6941968Y-14467912D01*
X7018158Y-14563150D02*
X7018158Y-14696484D01*
X7018158Y-14582198D02*
X7027682Y-14572674D01*
X7027682Y-14572674D02*
X7046730Y-14563150D01*
X7046730Y-14563150D02*
X7075301Y-14563150D01*
X7075301Y-14563150D02*
X7094349Y-14572674D01*
X7094349Y-14572674D02*
X7103872Y-14591722D01*
X7103872Y-14591722D02*
X7103872Y-14696484D01*
X7227682Y-14696484D02*
X7208634Y-14686960D01*
X7208634Y-14686960D02*
X7199111Y-14677436D01*
X7199111Y-14677436D02*
X7189587Y-14658388D01*
X7189587Y-14658388D02*
X7189587Y-14601246D01*
X7189587Y-14601246D02*
X7199111Y-14582198D01*
X7199111Y-14582198D02*
X7208634Y-14572674D01*
X7208634Y-14572674D02*
X7227682Y-14563150D01*
X7227682Y-14563150D02*
X7256253Y-14563150D01*
X7256253Y-14563150D02*
X7275301Y-14572674D01*
X7275301Y-14572674D02*
X7284825Y-14582198D01*
X7284825Y-14582198D02*
X7294349Y-14601246D01*
X7294349Y-14601246D02*
X7294349Y-14658388D01*
X7294349Y-14658388D02*
X7284825Y-14677436D01*
X7284825Y-14677436D02*
X7275301Y-14686960D01*
X7275301Y-14686960D02*
X7256253Y-14696484D01*
X7256253Y-14696484D02*
X7227682Y-14696484D01*
X7351492Y-14563150D02*
X7427682Y-14563150D01*
X7380063Y-14496484D02*
X7380063Y-14667912D01*
X7380063Y-14667912D02*
X7389587Y-14686960D01*
X7389587Y-14686960D02*
X7408634Y-14696484D01*
X7408634Y-14696484D02*
X7427682Y-14696484D01*
X7646730Y-14563150D02*
X7646730Y-14763150D01*
X7646730Y-14572674D02*
X7665777Y-14563150D01*
X7665777Y-14563150D02*
X7703873Y-14563150D01*
X7703873Y-14563150D02*
X7722920Y-14572674D01*
X7722920Y-14572674D02*
X7732444Y-14582198D01*
X7732444Y-14582198D02*
X7741968Y-14601246D01*
X7741968Y-14601246D02*
X7741968Y-14658388D01*
X7741968Y-14658388D02*
X7732444Y-14677436D01*
X7732444Y-14677436D02*
X7722920Y-14686960D01*
X7722920Y-14686960D02*
X7703873Y-14696484D01*
X7703873Y-14696484D02*
X7665777Y-14696484D01*
X7665777Y-14696484D02*
X7646730Y-14686960D01*
X7856253Y-14696484D02*
X7837206Y-14686960D01*
X7837206Y-14686960D02*
X7827682Y-14667912D01*
X7827682Y-14667912D02*
X7827682Y-14496484D01*
X8018158Y-14696484D02*
X8018158Y-14591722D01*
X8018158Y-14591722D02*
X8008634Y-14572674D01*
X8008634Y-14572674D02*
X7989587Y-14563150D01*
X7989587Y-14563150D02*
X7951492Y-14563150D01*
X7951492Y-14563150D02*
X7932444Y-14572674D01*
X8018158Y-14686960D02*
X7999111Y-14696484D01*
X7999111Y-14696484D02*
X7951492Y-14696484D01*
X7951492Y-14696484D02*
X7932444Y-14686960D01*
X7932444Y-14686960D02*
X7922920Y-14667912D01*
X7922920Y-14667912D02*
X7922920Y-14648865D01*
X7922920Y-14648865D02*
X7932444Y-14629817D01*
X7932444Y-14629817D02*
X7951492Y-14620293D01*
X7951492Y-14620293D02*
X7999111Y-14620293D01*
X7999111Y-14620293D02*
X8018158Y-14610769D01*
X8084825Y-14563150D02*
X8161015Y-14563150D01*
X8113396Y-14496484D02*
X8113396Y-14667912D01*
X8113396Y-14667912D02*
X8122920Y-14686960D01*
X8122920Y-14686960D02*
X8141968Y-14696484D01*
X8141968Y-14696484D02*
X8161015Y-14696484D01*
X8303873Y-14686960D02*
X8284825Y-14696484D01*
X8284825Y-14696484D02*
X8246730Y-14696484D01*
X8246730Y-14696484D02*
X8227682Y-14686960D01*
X8227682Y-14686960D02*
X8218158Y-14667912D01*
X8218158Y-14667912D02*
X8218158Y-14591722D01*
X8218158Y-14591722D02*
X8227682Y-14572674D01*
X8227682Y-14572674D02*
X8246730Y-14563150D01*
X8246730Y-14563150D02*
X8284825Y-14563150D01*
X8284825Y-14563150D02*
X8303873Y-14572674D01*
X8303873Y-14572674D02*
X8313396Y-14591722D01*
X8313396Y-14591722D02*
X8313396Y-14610769D01*
X8313396Y-14610769D02*
X8218158Y-14629817D01*
X8484825Y-14696484D02*
X8484825Y-14496484D01*
X8484825Y-14686960D02*
X8465777Y-14696484D01*
X8465777Y-14696484D02*
X8427682Y-14696484D01*
X8427682Y-14696484D02*
X8408635Y-14686960D01*
X8408635Y-14686960D02*
X8399111Y-14677436D01*
X8399111Y-14677436D02*
X8389587Y-14658388D01*
X8389587Y-14658388D02*
X8389587Y-14601246D01*
X8389587Y-14601246D02*
X8399111Y-14582198D01*
X8399111Y-14582198D02*
X8408635Y-14572674D01*
X8408635Y-14572674D02*
X8427682Y-14563150D01*
X8427682Y-14563150D02*
X8465777Y-14563150D01*
X8465777Y-14563150D02*
X8484825Y-14572674D01*
X8561016Y-14772674D02*
X8570539Y-14763150D01*
X8570539Y-14763150D02*
X8589587Y-14734579D01*
X8589587Y-14734579D02*
X8599111Y-14715531D01*
X8599111Y-14715531D02*
X8608635Y-14686960D01*
X8608635Y-14686960D02*
X8618158Y-14639341D01*
X8618158Y-14639341D02*
X8618158Y-14601246D01*
X8618158Y-14601246D02*
X8608635Y-14553627D01*
X8608635Y-14553627D02*
X8599111Y-14525055D01*
X8599111Y-14525055D02*
X8589587Y-14506008D01*
X8589587Y-14506008D02*
X8570539Y-14477436D01*
X8570539Y-14477436D02*
X8561016Y-14467912D01*
X1805000Y-14869000D02*
G75*
G02*
X1605000Y-14869000I-100000J0D01*
G01*
X1605000Y-14869000D02*
G75*
G02*
X1805000Y-14869000I100000J0D01*
G01*
X2046729Y-14760484D02*
X2170539Y-14760484D01*
X2170539Y-14760484D02*
X2103872Y-14836674D01*
X2103872Y-14836674D02*
X2132444Y-14836674D01*
X2132444Y-14836674D02*
X2151491Y-14846198D01*
X2151491Y-14846198D02*
X2161015Y-14855722D01*
X2161015Y-14855722D02*
X2170539Y-14874769D01*
X2170539Y-14874769D02*
X2170539Y-14922388D01*
X2170539Y-14922388D02*
X2161015Y-14941436D01*
X2161015Y-14941436D02*
X2151491Y-14950960D01*
X2151491Y-14950960D02*
X2132444Y-14960484D01*
X2132444Y-14960484D02*
X2075301Y-14960484D01*
X2075301Y-14960484D02*
X2056253Y-14950960D01*
X2056253Y-14950960D02*
X2046729Y-14941436D01*
X2256253Y-14941436D02*
X2265777Y-14950960D01*
X2265777Y-14950960D02*
X2256253Y-14960484D01*
X2256253Y-14960484D02*
X2246729Y-14950960D01*
X2246729Y-14950960D02*
X2256253Y-14941436D01*
X2256253Y-14941436D02*
X2256253Y-14960484D01*
X2389586Y-14760484D02*
X2408634Y-14760484D01*
X2408634Y-14760484D02*
X2427682Y-14770008D01*
X2427682Y-14770008D02*
X2437205Y-14779531D01*
X2437205Y-14779531D02*
X2446729Y-14798579D01*
X2446729Y-14798579D02*
X2456253Y-14836674D01*
X2456253Y-14836674D02*
X2456253Y-14884293D01*
X2456253Y-14884293D02*
X2446729Y-14922388D01*
X2446729Y-14922388D02*
X2437205Y-14941436D01*
X2437205Y-14941436D02*
X2427682Y-14950960D01*
X2427682Y-14950960D02*
X2408634Y-14960484D01*
X2408634Y-14960484D02*
X2389586Y-14960484D01*
X2389586Y-14960484D02*
X2370539Y-14950960D01*
X2370539Y-14950960D02*
X2361015Y-14941436D01*
X2361015Y-14941436D02*
X2351491Y-14922388D01*
X2351491Y-14922388D02*
X2341967Y-14884293D01*
X2341967Y-14884293D02*
X2341967Y-14836674D01*
X2341967Y-14836674D02*
X2351491Y-14798579D01*
X2351491Y-14798579D02*
X2361015Y-14779531D01*
X2361015Y-14779531D02*
X2370539Y-14770008D01*
X2370539Y-14770008D02*
X2389586Y-14760484D01*
X2580063Y-14760484D02*
X2599110Y-14760484D01*
X2599110Y-14760484D02*
X2618158Y-14770008D01*
X2618158Y-14770008D02*
X2627682Y-14779531D01*
X2627682Y-14779531D02*
X2637205Y-14798579D01*
X2637205Y-14798579D02*
X2646729Y-14836674D01*
X2646729Y-14836674D02*
X2646729Y-14884293D01*
X2646729Y-14884293D02*
X2637205Y-14922388D01*
X2637205Y-14922388D02*
X2627682Y-14941436D01*
X2627682Y-14941436D02*
X2618158Y-14950960D01*
X2618158Y-14950960D02*
X2599110Y-14960484D01*
X2599110Y-14960484D02*
X2580063Y-14960484D01*
X2580063Y-14960484D02*
X2561015Y-14950960D01*
X2561015Y-14950960D02*
X2551491Y-14941436D01*
X2551491Y-14941436D02*
X2541967Y-14922388D01*
X2541967Y-14922388D02*
X2532444Y-14884293D01*
X2532444Y-14884293D02*
X2532444Y-14836674D01*
X2532444Y-14836674D02*
X2541967Y-14798579D01*
X2541967Y-14798579D02*
X2551491Y-14779531D01*
X2551491Y-14779531D02*
X2561015Y-14770008D01*
X2561015Y-14770008D02*
X2580063Y-14760484D01*
X2770539Y-14760484D02*
X2789586Y-14760484D01*
X2789586Y-14760484D02*
X2808634Y-14770008D01*
X2808634Y-14770008D02*
X2818158Y-14779531D01*
X2818158Y-14779531D02*
X2827682Y-14798579D01*
X2827682Y-14798579D02*
X2837205Y-14836674D01*
X2837205Y-14836674D02*
X2837205Y-14884293D01*
X2837205Y-14884293D02*
X2827682Y-14922388D01*
X2827682Y-14922388D02*
X2818158Y-14941436D01*
X2818158Y-14941436D02*
X2808634Y-14950960D01*
X2808634Y-14950960D02*
X2789586Y-14960484D01*
X2789586Y-14960484D02*
X2770539Y-14960484D01*
X2770539Y-14960484D02*
X2751491Y-14950960D01*
X2751491Y-14950960D02*
X2741967Y-14941436D01*
X2741967Y-14941436D02*
X2732444Y-14922388D01*
X2732444Y-14922388D02*
X2722920Y-14884293D01*
X2722920Y-14884293D02*
X2722920Y-14836674D01*
X2722920Y-14836674D02*
X2732444Y-14798579D01*
X2732444Y-14798579D02*
X2741967Y-14779531D01*
X2741967Y-14779531D02*
X2751491Y-14770008D01*
X2751491Y-14770008D02*
X2770539Y-14760484D01*
X2922920Y-14960484D02*
X2922920Y-14827150D01*
X2922920Y-14846198D02*
X2932443Y-14836674D01*
X2932443Y-14836674D02*
X2951491Y-14827150D01*
X2951491Y-14827150D02*
X2980063Y-14827150D01*
X2980063Y-14827150D02*
X2999110Y-14836674D01*
X2999110Y-14836674D02*
X3008634Y-14855722D01*
X3008634Y-14855722D02*
X3008634Y-14960484D01*
X3008634Y-14855722D02*
X3018158Y-14836674D01*
X3018158Y-14836674D02*
X3037205Y-14827150D01*
X3037205Y-14827150D02*
X3065777Y-14827150D01*
X3065777Y-14827150D02*
X3084824Y-14836674D01*
X3084824Y-14836674D02*
X3094348Y-14855722D01*
X3094348Y-14855722D02*
X3094348Y-14960484D01*
X3189586Y-14960484D02*
X3189586Y-14827150D01*
X3189586Y-14846198D02*
X3199110Y-14836674D01*
X3199110Y-14836674D02*
X3218158Y-14827150D01*
X3218158Y-14827150D02*
X3246729Y-14827150D01*
X3246729Y-14827150D02*
X3265777Y-14836674D01*
X3265777Y-14836674D02*
X3275301Y-14855722D01*
X3275301Y-14855722D02*
X3275301Y-14960484D01*
X3275301Y-14855722D02*
X3284824Y-14836674D01*
X3284824Y-14836674D02*
X3303872Y-14827150D01*
X3303872Y-14827150D02*
X3332443Y-14827150D01*
X3332443Y-14827150D02*
X3351491Y-14836674D01*
X3351491Y-14836674D02*
X3361015Y-14855722D01*
X3361015Y-14855722D02*
X3361015Y-14960484D01*
X3751491Y-14750960D02*
X3580063Y-15008103D01*
X4008634Y-14760484D02*
X4027682Y-14760484D01*
X4027682Y-14760484D02*
X4046729Y-14770008D01*
X4046729Y-14770008D02*
X4056253Y-14779531D01*
X4056253Y-14779531D02*
X4065777Y-14798579D01*
X4065777Y-14798579D02*
X4075301Y-14836674D01*
X4075301Y-14836674D02*
X4075301Y-14884293D01*
X4075301Y-14884293D02*
X4065777Y-14922388D01*
X4065777Y-14922388D02*
X4056253Y-14941436D01*
X4056253Y-14941436D02*
X4046729Y-14950960D01*
X4046729Y-14950960D02*
X4027682Y-14960484D01*
X4027682Y-14960484D02*
X4008634Y-14960484D01*
X4008634Y-14960484D02*
X3989586Y-14950960D01*
X3989586Y-14950960D02*
X3980063Y-14941436D01*
X3980063Y-14941436D02*
X3970539Y-14922388D01*
X3970539Y-14922388D02*
X3961015Y-14884293D01*
X3961015Y-14884293D02*
X3961015Y-14836674D01*
X3961015Y-14836674D02*
X3970539Y-14798579D01*
X3970539Y-14798579D02*
X3980063Y-14779531D01*
X3980063Y-14779531D02*
X3989586Y-14770008D01*
X3989586Y-14770008D02*
X4008634Y-14760484D01*
X4161015Y-14941436D02*
X4170539Y-14950960D01*
X4170539Y-14950960D02*
X4161015Y-14960484D01*
X4161015Y-14960484D02*
X4151491Y-14950960D01*
X4151491Y-14950960D02*
X4161015Y-14941436D01*
X4161015Y-14941436D02*
X4161015Y-14960484D01*
X4361015Y-14960484D02*
X4246729Y-14960484D01*
X4303872Y-14960484D02*
X4303872Y-14760484D01*
X4303872Y-14760484D02*
X4284825Y-14789055D01*
X4284825Y-14789055D02*
X4265777Y-14808103D01*
X4265777Y-14808103D02*
X4246729Y-14817627D01*
X4551491Y-14960484D02*
X4437206Y-14960484D01*
X4494348Y-14960484D02*
X4494348Y-14760484D01*
X4494348Y-14760484D02*
X4475301Y-14789055D01*
X4475301Y-14789055D02*
X4456253Y-14808103D01*
X4456253Y-14808103D02*
X4437206Y-14817627D01*
X4665777Y-14846198D02*
X4646729Y-14836674D01*
X4646729Y-14836674D02*
X4637206Y-14827150D01*
X4637206Y-14827150D02*
X4627682Y-14808103D01*
X4627682Y-14808103D02*
X4627682Y-14798579D01*
X4627682Y-14798579D02*
X4637206Y-14779531D01*
X4637206Y-14779531D02*
X4646729Y-14770008D01*
X4646729Y-14770008D02*
X4665777Y-14760484D01*
X4665777Y-14760484D02*
X4703872Y-14760484D01*
X4703872Y-14760484D02*
X4722920Y-14770008D01*
X4722920Y-14770008D02*
X4732444Y-14779531D01*
X4732444Y-14779531D02*
X4741968Y-14798579D01*
X4741968Y-14798579D02*
X4741968Y-14808103D01*
X4741968Y-14808103D02*
X4732444Y-14827150D01*
X4732444Y-14827150D02*
X4722920Y-14836674D01*
X4722920Y-14836674D02*
X4703872Y-14846198D01*
X4703872Y-14846198D02*
X4665777Y-14846198D01*
X4665777Y-14846198D02*
X4646729Y-14855722D01*
X4646729Y-14855722D02*
X4637206Y-14865246D01*
X4637206Y-14865246D02*
X4627682Y-14884293D01*
X4627682Y-14884293D02*
X4627682Y-14922388D01*
X4627682Y-14922388D02*
X4637206Y-14941436D01*
X4637206Y-14941436D02*
X4646729Y-14950960D01*
X4646729Y-14950960D02*
X4665777Y-14960484D01*
X4665777Y-14960484D02*
X4703872Y-14960484D01*
X4703872Y-14960484D02*
X4722920Y-14950960D01*
X4722920Y-14950960D02*
X4732444Y-14941436D01*
X4732444Y-14941436D02*
X4741968Y-14922388D01*
X4741968Y-14922388D02*
X4741968Y-14884293D01*
X4741968Y-14884293D02*
X4732444Y-14865246D01*
X4732444Y-14865246D02*
X4722920Y-14855722D01*
X4722920Y-14855722D02*
X4703872Y-14846198D01*
X4932444Y-14960484D02*
X4818158Y-14960484D01*
X4875301Y-14960484D02*
X4875301Y-14760484D01*
X4875301Y-14760484D02*
X4856253Y-14789055D01*
X4856253Y-14789055D02*
X4837206Y-14808103D01*
X4837206Y-14808103D02*
X4818158Y-14817627D01*
X5008634Y-14760484D02*
X5008634Y-14798579D01*
X5084825Y-14760484D02*
X5084825Y-14798579D01*
X5380063Y-15036674D02*
X5370539Y-15027150D01*
X5370539Y-15027150D02*
X5351491Y-14998579D01*
X5351491Y-14998579D02*
X5341968Y-14979531D01*
X5341968Y-14979531D02*
X5332444Y-14950960D01*
X5332444Y-14950960D02*
X5322920Y-14903341D01*
X5322920Y-14903341D02*
X5322920Y-14865246D01*
X5322920Y-14865246D02*
X5332444Y-14817627D01*
X5332444Y-14817627D02*
X5341968Y-14789055D01*
X5341968Y-14789055D02*
X5351491Y-14770008D01*
X5351491Y-14770008D02*
X5370539Y-14741436D01*
X5370539Y-14741436D02*
X5380063Y-14731912D01*
X5561015Y-14960484D02*
X5446730Y-14960484D01*
X5503872Y-14960484D02*
X5503872Y-14760484D01*
X5503872Y-14760484D02*
X5484825Y-14789055D01*
X5484825Y-14789055D02*
X5465777Y-14808103D01*
X5465777Y-14808103D02*
X5446730Y-14817627D01*
X5732444Y-14760484D02*
X5694348Y-14760484D01*
X5694348Y-14760484D02*
X5675301Y-14770008D01*
X5675301Y-14770008D02*
X5665777Y-14779531D01*
X5665777Y-14779531D02*
X5646729Y-14808103D01*
X5646729Y-14808103D02*
X5637206Y-14846198D01*
X5637206Y-14846198D02*
X5637206Y-14922388D01*
X5637206Y-14922388D02*
X5646729Y-14941436D01*
X5646729Y-14941436D02*
X5656253Y-14950960D01*
X5656253Y-14950960D02*
X5675301Y-14960484D01*
X5675301Y-14960484D02*
X5713396Y-14960484D01*
X5713396Y-14960484D02*
X5732444Y-14950960D01*
X5732444Y-14950960D02*
X5741968Y-14941436D01*
X5741968Y-14941436D02*
X5751491Y-14922388D01*
X5751491Y-14922388D02*
X5751491Y-14874769D01*
X5751491Y-14874769D02*
X5741968Y-14855722D01*
X5741968Y-14855722D02*
X5732444Y-14846198D01*
X5732444Y-14846198D02*
X5713396Y-14836674D01*
X5713396Y-14836674D02*
X5675301Y-14836674D01*
X5675301Y-14836674D02*
X5656253Y-14846198D01*
X5656253Y-14846198D02*
X5646729Y-14855722D01*
X5646729Y-14855722D02*
X5637206Y-14874769D01*
X5989587Y-14960484D02*
X5989587Y-14760484D01*
X6075301Y-14960484D02*
X6075301Y-14855722D01*
X6075301Y-14855722D02*
X6065777Y-14836674D01*
X6065777Y-14836674D02*
X6046730Y-14827150D01*
X6046730Y-14827150D02*
X6018158Y-14827150D01*
X6018158Y-14827150D02*
X5999110Y-14836674D01*
X5999110Y-14836674D02*
X5989587Y-14846198D01*
X6199110Y-14960484D02*
X6180063Y-14950960D01*
X6180063Y-14950960D02*
X6170539Y-14941436D01*
X6170539Y-14941436D02*
X6161015Y-14922388D01*
X6161015Y-14922388D02*
X6161015Y-14865246D01*
X6161015Y-14865246D02*
X6170539Y-14846198D01*
X6170539Y-14846198D02*
X6180063Y-14836674D01*
X6180063Y-14836674D02*
X6199110Y-14827150D01*
X6199110Y-14827150D02*
X6227682Y-14827150D01*
X6227682Y-14827150D02*
X6246730Y-14836674D01*
X6246730Y-14836674D02*
X6256253Y-14846198D01*
X6256253Y-14846198D02*
X6265777Y-14865246D01*
X6265777Y-14865246D02*
X6265777Y-14922388D01*
X6265777Y-14922388D02*
X6256253Y-14941436D01*
X6256253Y-14941436D02*
X6246730Y-14950960D01*
X6246730Y-14950960D02*
X6227682Y-14960484D01*
X6227682Y-14960484D02*
X6199110Y-14960484D01*
X6380063Y-14960484D02*
X6361015Y-14950960D01*
X6361015Y-14950960D02*
X6351491Y-14931912D01*
X6351491Y-14931912D02*
X6351491Y-14760484D01*
X6532444Y-14950960D02*
X6513396Y-14960484D01*
X6513396Y-14960484D02*
X6475301Y-14960484D01*
X6475301Y-14960484D02*
X6456253Y-14950960D01*
X6456253Y-14950960D02*
X6446730Y-14931912D01*
X6446730Y-14931912D02*
X6446730Y-14855722D01*
X6446730Y-14855722D02*
X6456253Y-14836674D01*
X6456253Y-14836674D02*
X6475301Y-14827150D01*
X6475301Y-14827150D02*
X6513396Y-14827150D01*
X6513396Y-14827150D02*
X6532444Y-14836674D01*
X6532444Y-14836674D02*
X6541968Y-14855722D01*
X6541968Y-14855722D02*
X6541968Y-14874769D01*
X6541968Y-14874769D02*
X6446730Y-14893817D01*
X6618158Y-14950960D02*
X6637206Y-14960484D01*
X6637206Y-14960484D02*
X6675301Y-14960484D01*
X6675301Y-14960484D02*
X6694349Y-14950960D01*
X6694349Y-14950960D02*
X6703872Y-14931912D01*
X6703872Y-14931912D02*
X6703872Y-14922388D01*
X6703872Y-14922388D02*
X6694349Y-14903341D01*
X6694349Y-14903341D02*
X6675301Y-14893817D01*
X6675301Y-14893817D02*
X6646730Y-14893817D01*
X6646730Y-14893817D02*
X6627682Y-14884293D01*
X6627682Y-14884293D02*
X6618158Y-14865246D01*
X6618158Y-14865246D02*
X6618158Y-14855722D01*
X6618158Y-14855722D02*
X6627682Y-14836674D01*
X6627682Y-14836674D02*
X6646730Y-14827150D01*
X6646730Y-14827150D02*
X6675301Y-14827150D01*
X6675301Y-14827150D02*
X6694349Y-14836674D01*
X6770539Y-15036674D02*
X6780063Y-15027150D01*
X6780063Y-15027150D02*
X6799111Y-14998579D01*
X6799111Y-14998579D02*
X6808634Y-14979531D01*
X6808634Y-14979531D02*
X6818158Y-14950960D01*
X6818158Y-14950960D02*
X6827682Y-14903341D01*
X6827682Y-14903341D02*
X6827682Y-14865246D01*
X6827682Y-14865246D02*
X6818158Y-14817627D01*
X6818158Y-14817627D02*
X6808634Y-14789055D01*
X6808634Y-14789055D02*
X6799111Y-14770008D01*
X6799111Y-14770008D02*
X6780063Y-14741436D01*
X6780063Y-14741436D02*
X6770539Y-14731912D01*
X7132444Y-15036674D02*
X7122920Y-15027150D01*
X7122920Y-15027150D02*
X7103872Y-14998579D01*
X7103872Y-14998579D02*
X7094349Y-14979531D01*
X7094349Y-14979531D02*
X7084825Y-14950960D01*
X7084825Y-14950960D02*
X7075301Y-14903341D01*
X7075301Y-14903341D02*
X7075301Y-14865246D01*
X7075301Y-14865246D02*
X7084825Y-14817627D01*
X7084825Y-14817627D02*
X7094349Y-14789055D01*
X7094349Y-14789055D02*
X7103872Y-14770008D01*
X7103872Y-14770008D02*
X7122920Y-14741436D01*
X7122920Y-14741436D02*
X7132444Y-14731912D01*
X7208634Y-14827150D02*
X7208634Y-14960484D01*
X7208634Y-14846198D02*
X7218158Y-14836674D01*
X7218158Y-14836674D02*
X7237206Y-14827150D01*
X7237206Y-14827150D02*
X7265777Y-14827150D01*
X7265777Y-14827150D02*
X7284825Y-14836674D01*
X7284825Y-14836674D02*
X7294349Y-14855722D01*
X7294349Y-14855722D02*
X7294349Y-14960484D01*
X7418158Y-14960484D02*
X7399111Y-14950960D01*
X7399111Y-14950960D02*
X7389587Y-14941436D01*
X7389587Y-14941436D02*
X7380063Y-14922388D01*
X7380063Y-14922388D02*
X7380063Y-14865246D01*
X7380063Y-14865246D02*
X7389587Y-14846198D01*
X7389587Y-14846198D02*
X7399111Y-14836674D01*
X7399111Y-14836674D02*
X7418158Y-14827150D01*
X7418158Y-14827150D02*
X7446730Y-14827150D01*
X7446730Y-14827150D02*
X7465777Y-14836674D01*
X7465777Y-14836674D02*
X7475301Y-14846198D01*
X7475301Y-14846198D02*
X7484825Y-14865246D01*
X7484825Y-14865246D02*
X7484825Y-14922388D01*
X7484825Y-14922388D02*
X7475301Y-14941436D01*
X7475301Y-14941436D02*
X7465777Y-14950960D01*
X7465777Y-14950960D02*
X7446730Y-14960484D01*
X7446730Y-14960484D02*
X7418158Y-14960484D01*
X7541968Y-14827150D02*
X7618158Y-14827150D01*
X7570539Y-14760484D02*
X7570539Y-14931912D01*
X7570539Y-14931912D02*
X7580063Y-14950960D01*
X7580063Y-14950960D02*
X7599111Y-14960484D01*
X7599111Y-14960484D02*
X7618158Y-14960484D01*
X7837206Y-14827150D02*
X7837206Y-15027150D01*
X7837206Y-14836674D02*
X7856253Y-14827150D01*
X7856253Y-14827150D02*
X7894349Y-14827150D01*
X7894349Y-14827150D02*
X7913396Y-14836674D01*
X7913396Y-14836674D02*
X7922920Y-14846198D01*
X7922920Y-14846198D02*
X7932444Y-14865246D01*
X7932444Y-14865246D02*
X7932444Y-14922388D01*
X7932444Y-14922388D02*
X7922920Y-14941436D01*
X7922920Y-14941436D02*
X7913396Y-14950960D01*
X7913396Y-14950960D02*
X7894349Y-14960484D01*
X7894349Y-14960484D02*
X7856253Y-14960484D01*
X7856253Y-14960484D02*
X7837206Y-14950960D01*
X8046730Y-14960484D02*
X8027682Y-14950960D01*
X8027682Y-14950960D02*
X8018158Y-14931912D01*
X8018158Y-14931912D02*
X8018158Y-14760484D01*
X8208634Y-14960484D02*
X8208634Y-14855722D01*
X8208634Y-14855722D02*
X8199111Y-14836674D01*
X8199111Y-14836674D02*
X8180063Y-14827150D01*
X8180063Y-14827150D02*
X8141968Y-14827150D01*
X8141968Y-14827150D02*
X8122920Y-14836674D01*
X8208634Y-14950960D02*
X8189587Y-14960484D01*
X8189587Y-14960484D02*
X8141968Y-14960484D01*
X8141968Y-14960484D02*
X8122920Y-14950960D01*
X8122920Y-14950960D02*
X8113396Y-14931912D01*
X8113396Y-14931912D02*
X8113396Y-14912865D01*
X8113396Y-14912865D02*
X8122920Y-14893817D01*
X8122920Y-14893817D02*
X8141968Y-14884293D01*
X8141968Y-14884293D02*
X8189587Y-14884293D01*
X8189587Y-14884293D02*
X8208634Y-14874769D01*
X8275301Y-14827150D02*
X8351492Y-14827150D01*
X8303873Y-14760484D02*
X8303873Y-14931912D01*
X8303873Y-14931912D02*
X8313396Y-14950960D01*
X8313396Y-14950960D02*
X8332444Y-14960484D01*
X8332444Y-14960484D02*
X8351492Y-14960484D01*
X8494349Y-14950960D02*
X8475301Y-14960484D01*
X8475301Y-14960484D02*
X8437206Y-14960484D01*
X8437206Y-14960484D02*
X8418158Y-14950960D01*
X8418158Y-14950960D02*
X8408635Y-14931912D01*
X8408635Y-14931912D02*
X8408635Y-14855722D01*
X8408635Y-14855722D02*
X8418158Y-14836674D01*
X8418158Y-14836674D02*
X8437206Y-14827150D01*
X8437206Y-14827150D02*
X8475301Y-14827150D01*
X8475301Y-14827150D02*
X8494349Y-14836674D01*
X8494349Y-14836674D02*
X8503873Y-14855722D01*
X8503873Y-14855722D02*
X8503873Y-14874769D01*
X8503873Y-14874769D02*
X8408635Y-14893817D01*
X8675301Y-14960484D02*
X8675301Y-14760484D01*
X8675301Y-14950960D02*
X8656254Y-14960484D01*
X8656254Y-14960484D02*
X8618158Y-14960484D01*
X8618158Y-14960484D02*
X8599111Y-14950960D01*
X8599111Y-14950960D02*
X8589587Y-14941436D01*
X8589587Y-14941436D02*
X8580063Y-14922388D01*
X8580063Y-14922388D02*
X8580063Y-14865246D01*
X8580063Y-14865246D02*
X8589587Y-14846198D01*
X8589587Y-14846198D02*
X8599111Y-14836674D01*
X8599111Y-14836674D02*
X8618158Y-14827150D01*
X8618158Y-14827150D02*
X8656254Y-14827150D01*
X8656254Y-14827150D02*
X8675301Y-14836674D01*
X8751492Y-15036674D02*
X8761016Y-15027150D01*
X8761016Y-15027150D02*
X8780063Y-14998579D01*
X8780063Y-14998579D02*
X8789587Y-14979531D01*
X8789587Y-14979531D02*
X8799111Y-14950960D01*
X8799111Y-14950960D02*
X8808635Y-14903341D01*
X8808635Y-14903341D02*
X8808635Y-14865246D01*
X8808635Y-14865246D02*
X8799111Y-14817627D01*
X8799111Y-14817627D02*
X8789587Y-14789055D01*
X8789587Y-14789055D02*
X8780063Y-14770008D01*
X8780063Y-14770008D02*
X8761016Y-14741436D01*
X8761016Y-14741436D02*
X8751492Y-14731912D01*
X1705000Y-15089000D02*
X1705000Y-15289000D01*
X1605000Y-15189000D02*
X1805000Y-15189000D01*
X2046729Y-15080484D02*
X2170539Y-15080484D01*
X2170539Y-15080484D02*
X2103872Y-15156674D01*
X2103872Y-15156674D02*
X2132444Y-15156674D01*
X2132444Y-15156674D02*
X2151491Y-15166198D01*
X2151491Y-15166198D02*
X2161015Y-15175722D01*
X2161015Y-15175722D02*
X2170539Y-15194769D01*
X2170539Y-15194769D02*
X2170539Y-15242388D01*
X2170539Y-15242388D02*
X2161015Y-15261436D01*
X2161015Y-15261436D02*
X2151491Y-15270960D01*
X2151491Y-15270960D02*
X2132444Y-15280484D01*
X2132444Y-15280484D02*
X2075301Y-15280484D01*
X2075301Y-15280484D02*
X2056253Y-15270960D01*
X2056253Y-15270960D02*
X2046729Y-15261436D01*
X2256253Y-15261436D02*
X2265777Y-15270960D01*
X2265777Y-15270960D02*
X2256253Y-15280484D01*
X2256253Y-15280484D02*
X2246729Y-15270960D01*
X2246729Y-15270960D02*
X2256253Y-15261436D01*
X2256253Y-15261436D02*
X2256253Y-15280484D01*
X2341967Y-15099531D02*
X2351491Y-15090008D01*
X2351491Y-15090008D02*
X2370539Y-15080484D01*
X2370539Y-15080484D02*
X2418158Y-15080484D01*
X2418158Y-15080484D02*
X2437205Y-15090008D01*
X2437205Y-15090008D02*
X2446729Y-15099531D01*
X2446729Y-15099531D02*
X2456253Y-15118579D01*
X2456253Y-15118579D02*
X2456253Y-15137627D01*
X2456253Y-15137627D02*
X2446729Y-15166198D01*
X2446729Y-15166198D02*
X2332444Y-15280484D01*
X2332444Y-15280484D02*
X2456253Y-15280484D01*
X2580063Y-15080484D02*
X2599110Y-15080484D01*
X2599110Y-15080484D02*
X2618158Y-15090008D01*
X2618158Y-15090008D02*
X2627682Y-15099531D01*
X2627682Y-15099531D02*
X2637205Y-15118579D01*
X2637205Y-15118579D02*
X2646729Y-15156674D01*
X2646729Y-15156674D02*
X2646729Y-15204293D01*
X2646729Y-15204293D02*
X2637205Y-15242388D01*
X2637205Y-15242388D02*
X2627682Y-15261436D01*
X2627682Y-15261436D02*
X2618158Y-15270960D01*
X2618158Y-15270960D02*
X2599110Y-15280484D01*
X2599110Y-15280484D02*
X2580063Y-15280484D01*
X2580063Y-15280484D02*
X2561015Y-15270960D01*
X2561015Y-15270960D02*
X2551491Y-15261436D01*
X2551491Y-15261436D02*
X2541967Y-15242388D01*
X2541967Y-15242388D02*
X2532444Y-15204293D01*
X2532444Y-15204293D02*
X2532444Y-15156674D01*
X2532444Y-15156674D02*
X2541967Y-15118579D01*
X2541967Y-15118579D02*
X2551491Y-15099531D01*
X2551491Y-15099531D02*
X2561015Y-15090008D01*
X2561015Y-15090008D02*
X2580063Y-15080484D01*
X2770539Y-15080484D02*
X2789586Y-15080484D01*
X2789586Y-15080484D02*
X2808634Y-15090008D01*
X2808634Y-15090008D02*
X2818158Y-15099531D01*
X2818158Y-15099531D02*
X2827682Y-15118579D01*
X2827682Y-15118579D02*
X2837205Y-15156674D01*
X2837205Y-15156674D02*
X2837205Y-15204293D01*
X2837205Y-15204293D02*
X2827682Y-15242388D01*
X2827682Y-15242388D02*
X2818158Y-15261436D01*
X2818158Y-15261436D02*
X2808634Y-15270960D01*
X2808634Y-15270960D02*
X2789586Y-15280484D01*
X2789586Y-15280484D02*
X2770539Y-15280484D01*
X2770539Y-15280484D02*
X2751491Y-15270960D01*
X2751491Y-15270960D02*
X2741967Y-15261436D01*
X2741967Y-15261436D02*
X2732444Y-15242388D01*
X2732444Y-15242388D02*
X2722920Y-15204293D01*
X2722920Y-15204293D02*
X2722920Y-15156674D01*
X2722920Y-15156674D02*
X2732444Y-15118579D01*
X2732444Y-15118579D02*
X2741967Y-15099531D01*
X2741967Y-15099531D02*
X2751491Y-15090008D01*
X2751491Y-15090008D02*
X2770539Y-15080484D01*
X2922920Y-15280484D02*
X2922920Y-15147150D01*
X2922920Y-15166198D02*
X2932443Y-15156674D01*
X2932443Y-15156674D02*
X2951491Y-15147150D01*
X2951491Y-15147150D02*
X2980063Y-15147150D01*
X2980063Y-15147150D02*
X2999110Y-15156674D01*
X2999110Y-15156674D02*
X3008634Y-15175722D01*
X3008634Y-15175722D02*
X3008634Y-15280484D01*
X3008634Y-15175722D02*
X3018158Y-15156674D01*
X3018158Y-15156674D02*
X3037205Y-15147150D01*
X3037205Y-15147150D02*
X3065777Y-15147150D01*
X3065777Y-15147150D02*
X3084824Y-15156674D01*
X3084824Y-15156674D02*
X3094348Y-15175722D01*
X3094348Y-15175722D02*
X3094348Y-15280484D01*
X3189586Y-15280484D02*
X3189586Y-15147150D01*
X3189586Y-15166198D02*
X3199110Y-15156674D01*
X3199110Y-15156674D02*
X3218158Y-15147150D01*
X3218158Y-15147150D02*
X3246729Y-15147150D01*
X3246729Y-15147150D02*
X3265777Y-15156674D01*
X3265777Y-15156674D02*
X3275301Y-15175722D01*
X3275301Y-15175722D02*
X3275301Y-15280484D01*
X3275301Y-15175722D02*
X3284824Y-15156674D01*
X3284824Y-15156674D02*
X3303872Y-15147150D01*
X3303872Y-15147150D02*
X3332443Y-15147150D01*
X3332443Y-15147150D02*
X3351491Y-15156674D01*
X3351491Y-15156674D02*
X3361015Y-15175722D01*
X3361015Y-15175722D02*
X3361015Y-15280484D01*
X3751491Y-15070960D02*
X3580063Y-15328103D01*
X4008634Y-15080484D02*
X4027682Y-15080484D01*
X4027682Y-15080484D02*
X4046729Y-15090008D01*
X4046729Y-15090008D02*
X4056253Y-15099531D01*
X4056253Y-15099531D02*
X4065777Y-15118579D01*
X4065777Y-15118579D02*
X4075301Y-15156674D01*
X4075301Y-15156674D02*
X4075301Y-15204293D01*
X4075301Y-15204293D02*
X4065777Y-15242388D01*
X4065777Y-15242388D02*
X4056253Y-15261436D01*
X4056253Y-15261436D02*
X4046729Y-15270960D01*
X4046729Y-15270960D02*
X4027682Y-15280484D01*
X4027682Y-15280484D02*
X4008634Y-15280484D01*
X4008634Y-15280484D02*
X3989586Y-15270960D01*
X3989586Y-15270960D02*
X3980063Y-15261436D01*
X3980063Y-15261436D02*
X3970539Y-15242388D01*
X3970539Y-15242388D02*
X3961015Y-15204293D01*
X3961015Y-15204293D02*
X3961015Y-15156674D01*
X3961015Y-15156674D02*
X3970539Y-15118579D01*
X3970539Y-15118579D02*
X3980063Y-15099531D01*
X3980063Y-15099531D02*
X3989586Y-15090008D01*
X3989586Y-15090008D02*
X4008634Y-15080484D01*
X4161015Y-15261436D02*
X4170539Y-15270960D01*
X4170539Y-15270960D02*
X4161015Y-15280484D01*
X4161015Y-15280484D02*
X4151491Y-15270960D01*
X4151491Y-15270960D02*
X4161015Y-15261436D01*
X4161015Y-15261436D02*
X4161015Y-15280484D01*
X4361015Y-15280484D02*
X4246729Y-15280484D01*
X4303872Y-15280484D02*
X4303872Y-15080484D01*
X4303872Y-15080484D02*
X4284825Y-15109055D01*
X4284825Y-15109055D02*
X4265777Y-15128103D01*
X4265777Y-15128103D02*
X4246729Y-15137627D01*
X4437206Y-15099531D02*
X4446729Y-15090008D01*
X4446729Y-15090008D02*
X4465777Y-15080484D01*
X4465777Y-15080484D02*
X4513396Y-15080484D01*
X4513396Y-15080484D02*
X4532444Y-15090008D01*
X4532444Y-15090008D02*
X4541968Y-15099531D01*
X4541968Y-15099531D02*
X4551491Y-15118579D01*
X4551491Y-15118579D02*
X4551491Y-15137627D01*
X4551491Y-15137627D02*
X4541968Y-15166198D01*
X4541968Y-15166198D02*
X4427682Y-15280484D01*
X4427682Y-15280484D02*
X4551491Y-15280484D01*
X4722920Y-15080484D02*
X4684825Y-15080484D01*
X4684825Y-15080484D02*
X4665777Y-15090008D01*
X4665777Y-15090008D02*
X4656253Y-15099531D01*
X4656253Y-15099531D02*
X4637206Y-15128103D01*
X4637206Y-15128103D02*
X4627682Y-15166198D01*
X4627682Y-15166198D02*
X4627682Y-15242388D01*
X4627682Y-15242388D02*
X4637206Y-15261436D01*
X4637206Y-15261436D02*
X4646729Y-15270960D01*
X4646729Y-15270960D02*
X4665777Y-15280484D01*
X4665777Y-15280484D02*
X4703872Y-15280484D01*
X4703872Y-15280484D02*
X4722920Y-15270960D01*
X4722920Y-15270960D02*
X4732444Y-15261436D01*
X4732444Y-15261436D02*
X4741968Y-15242388D01*
X4741968Y-15242388D02*
X4741968Y-15194769D01*
X4741968Y-15194769D02*
X4732444Y-15175722D01*
X4732444Y-15175722D02*
X4722920Y-15166198D01*
X4722920Y-15166198D02*
X4703872Y-15156674D01*
X4703872Y-15156674D02*
X4665777Y-15156674D01*
X4665777Y-15156674D02*
X4646729Y-15166198D01*
X4646729Y-15166198D02*
X4637206Y-15175722D01*
X4637206Y-15175722D02*
X4627682Y-15194769D01*
X4865777Y-15080484D02*
X4884825Y-15080484D01*
X4884825Y-15080484D02*
X4903872Y-15090008D01*
X4903872Y-15090008D02*
X4913396Y-15099531D01*
X4913396Y-15099531D02*
X4922920Y-15118579D01*
X4922920Y-15118579D02*
X4932444Y-15156674D01*
X4932444Y-15156674D02*
X4932444Y-15204293D01*
X4932444Y-15204293D02*
X4922920Y-15242388D01*
X4922920Y-15242388D02*
X4913396Y-15261436D01*
X4913396Y-15261436D02*
X4903872Y-15270960D01*
X4903872Y-15270960D02*
X4884825Y-15280484D01*
X4884825Y-15280484D02*
X4865777Y-15280484D01*
X4865777Y-15280484D02*
X4846729Y-15270960D01*
X4846729Y-15270960D02*
X4837206Y-15261436D01*
X4837206Y-15261436D02*
X4827682Y-15242388D01*
X4827682Y-15242388D02*
X4818158Y-15204293D01*
X4818158Y-15204293D02*
X4818158Y-15156674D01*
X4818158Y-15156674D02*
X4827682Y-15118579D01*
X4827682Y-15118579D02*
X4837206Y-15099531D01*
X4837206Y-15099531D02*
X4846729Y-15090008D01*
X4846729Y-15090008D02*
X4865777Y-15080484D01*
X5008634Y-15080484D02*
X5008634Y-15118579D01*
X5084825Y-15080484D02*
X5084825Y-15118579D01*
X5380063Y-15356674D02*
X5370539Y-15347150D01*
X5370539Y-15347150D02*
X5351491Y-15318579D01*
X5351491Y-15318579D02*
X5341968Y-15299531D01*
X5341968Y-15299531D02*
X5332444Y-15270960D01*
X5332444Y-15270960D02*
X5322920Y-15223341D01*
X5322920Y-15223341D02*
X5322920Y-15185246D01*
X5322920Y-15185246D02*
X5332444Y-15137627D01*
X5332444Y-15137627D02*
X5341968Y-15109055D01*
X5341968Y-15109055D02*
X5351491Y-15090008D01*
X5351491Y-15090008D02*
X5370539Y-15061436D01*
X5370539Y-15061436D02*
X5380063Y-15051912D01*
X5541968Y-15147150D02*
X5541968Y-15280484D01*
X5494349Y-15070960D02*
X5446730Y-15213817D01*
X5446730Y-15213817D02*
X5570539Y-15213817D01*
X5799110Y-15280484D02*
X5799110Y-15080484D01*
X5884825Y-15280484D02*
X5884825Y-15175722D01*
X5884825Y-15175722D02*
X5875301Y-15156674D01*
X5875301Y-15156674D02*
X5856253Y-15147150D01*
X5856253Y-15147150D02*
X5827682Y-15147150D01*
X5827682Y-15147150D02*
X5808634Y-15156674D01*
X5808634Y-15156674D02*
X5799110Y-15166198D01*
X6008634Y-15280484D02*
X5989587Y-15270960D01*
X5989587Y-15270960D02*
X5980063Y-15261436D01*
X5980063Y-15261436D02*
X5970539Y-15242388D01*
X5970539Y-15242388D02*
X5970539Y-15185246D01*
X5970539Y-15185246D02*
X5980063Y-15166198D01*
X5980063Y-15166198D02*
X5989587Y-15156674D01*
X5989587Y-15156674D02*
X6008634Y-15147150D01*
X6008634Y-15147150D02*
X6037206Y-15147150D01*
X6037206Y-15147150D02*
X6056253Y-15156674D01*
X6056253Y-15156674D02*
X6065777Y-15166198D01*
X6065777Y-15166198D02*
X6075301Y-15185246D01*
X6075301Y-15185246D02*
X6075301Y-15242388D01*
X6075301Y-15242388D02*
X6065777Y-15261436D01*
X6065777Y-15261436D02*
X6056253Y-15270960D01*
X6056253Y-15270960D02*
X6037206Y-15280484D01*
X6037206Y-15280484D02*
X6008634Y-15280484D01*
X6189587Y-15280484D02*
X6170539Y-15270960D01*
X6170539Y-15270960D02*
X6161015Y-15251912D01*
X6161015Y-15251912D02*
X6161015Y-15080484D01*
X6341968Y-15270960D02*
X6322920Y-15280484D01*
X6322920Y-15280484D02*
X6284825Y-15280484D01*
X6284825Y-15280484D02*
X6265777Y-15270960D01*
X6265777Y-15270960D02*
X6256253Y-15251912D01*
X6256253Y-15251912D02*
X6256253Y-15175722D01*
X6256253Y-15175722D02*
X6265777Y-15156674D01*
X6265777Y-15156674D02*
X6284825Y-15147150D01*
X6284825Y-15147150D02*
X6322920Y-15147150D01*
X6322920Y-15147150D02*
X6341968Y-15156674D01*
X6341968Y-15156674D02*
X6351491Y-15175722D01*
X6351491Y-15175722D02*
X6351491Y-15194769D01*
X6351491Y-15194769D02*
X6256253Y-15213817D01*
X6427682Y-15270960D02*
X6446730Y-15280484D01*
X6446730Y-15280484D02*
X6484825Y-15280484D01*
X6484825Y-15280484D02*
X6503872Y-15270960D01*
X6503872Y-15270960D02*
X6513396Y-15251912D01*
X6513396Y-15251912D02*
X6513396Y-15242388D01*
X6513396Y-15242388D02*
X6503872Y-15223341D01*
X6503872Y-15223341D02*
X6484825Y-15213817D01*
X6484825Y-15213817D02*
X6456253Y-15213817D01*
X6456253Y-15213817D02*
X6437206Y-15204293D01*
X6437206Y-15204293D02*
X6427682Y-15185246D01*
X6427682Y-15185246D02*
X6427682Y-15175722D01*
X6427682Y-15175722D02*
X6437206Y-15156674D01*
X6437206Y-15156674D02*
X6456253Y-15147150D01*
X6456253Y-15147150D02*
X6484825Y-15147150D01*
X6484825Y-15147150D02*
X6503872Y-15156674D01*
X6580063Y-15356674D02*
X6589587Y-15347150D01*
X6589587Y-15347150D02*
X6608634Y-15318579D01*
X6608634Y-15318579D02*
X6618158Y-15299531D01*
X6618158Y-15299531D02*
X6627682Y-15270960D01*
X6627682Y-15270960D02*
X6637206Y-15223341D01*
X6637206Y-15223341D02*
X6637206Y-15185246D01*
X6637206Y-15185246D02*
X6627682Y-15137627D01*
X6627682Y-15137627D02*
X6618158Y-15109055D01*
X6618158Y-15109055D02*
X6608634Y-15090008D01*
X6608634Y-15090008D02*
X6589587Y-15061436D01*
X6589587Y-15061436D02*
X6580063Y-15051912D01*
X6941968Y-15356674D02*
X6932444Y-15347150D01*
X6932444Y-15347150D02*
X6913396Y-15318579D01*
X6913396Y-15318579D02*
X6903872Y-15299531D01*
X6903872Y-15299531D02*
X6894349Y-15270960D01*
X6894349Y-15270960D02*
X6884825Y-15223341D01*
X6884825Y-15223341D02*
X6884825Y-15185246D01*
X6884825Y-15185246D02*
X6894349Y-15137627D01*
X6894349Y-15137627D02*
X6903872Y-15109055D01*
X6903872Y-15109055D02*
X6913396Y-15090008D01*
X6913396Y-15090008D02*
X6932444Y-15061436D01*
X6932444Y-15061436D02*
X6941968Y-15051912D01*
X7018158Y-15147150D02*
X7018158Y-15280484D01*
X7018158Y-15166198D02*
X7027682Y-15156674D01*
X7027682Y-15156674D02*
X7046730Y-15147150D01*
X7046730Y-15147150D02*
X7075301Y-15147150D01*
X7075301Y-15147150D02*
X7094349Y-15156674D01*
X7094349Y-15156674D02*
X7103872Y-15175722D01*
X7103872Y-15175722D02*
X7103872Y-15280484D01*
X7227682Y-15280484D02*
X7208634Y-15270960D01*
X7208634Y-15270960D02*
X7199111Y-15261436D01*
X7199111Y-15261436D02*
X7189587Y-15242388D01*
X7189587Y-15242388D02*
X7189587Y-15185246D01*
X7189587Y-15185246D02*
X7199111Y-15166198D01*
X7199111Y-15166198D02*
X7208634Y-15156674D01*
X7208634Y-15156674D02*
X7227682Y-15147150D01*
X7227682Y-15147150D02*
X7256253Y-15147150D01*
X7256253Y-15147150D02*
X7275301Y-15156674D01*
X7275301Y-15156674D02*
X7284825Y-15166198D01*
X7284825Y-15166198D02*
X7294349Y-15185246D01*
X7294349Y-15185246D02*
X7294349Y-15242388D01*
X7294349Y-15242388D02*
X7284825Y-15261436D01*
X7284825Y-15261436D02*
X7275301Y-15270960D01*
X7275301Y-15270960D02*
X7256253Y-15280484D01*
X7256253Y-15280484D02*
X7227682Y-15280484D01*
X7351492Y-15147150D02*
X7427682Y-15147150D01*
X7380063Y-15080484D02*
X7380063Y-15251912D01*
X7380063Y-15251912D02*
X7389587Y-15270960D01*
X7389587Y-15270960D02*
X7408634Y-15280484D01*
X7408634Y-15280484D02*
X7427682Y-15280484D01*
X7646730Y-15147150D02*
X7646730Y-15347150D01*
X7646730Y-15156674D02*
X7665777Y-15147150D01*
X7665777Y-15147150D02*
X7703873Y-15147150D01*
X7703873Y-15147150D02*
X7722920Y-15156674D01*
X7722920Y-15156674D02*
X7732444Y-15166198D01*
X7732444Y-15166198D02*
X7741968Y-15185246D01*
X7741968Y-15185246D02*
X7741968Y-15242388D01*
X7741968Y-15242388D02*
X7732444Y-15261436D01*
X7732444Y-15261436D02*
X7722920Y-15270960D01*
X7722920Y-15270960D02*
X7703873Y-15280484D01*
X7703873Y-15280484D02*
X7665777Y-15280484D01*
X7665777Y-15280484D02*
X7646730Y-15270960D01*
X7856253Y-15280484D02*
X7837206Y-15270960D01*
X7837206Y-15270960D02*
X7827682Y-15251912D01*
X7827682Y-15251912D02*
X7827682Y-15080484D01*
X8018158Y-15280484D02*
X8018158Y-15175722D01*
X8018158Y-15175722D02*
X8008634Y-15156674D01*
X8008634Y-15156674D02*
X7989587Y-15147150D01*
X7989587Y-15147150D02*
X7951492Y-15147150D01*
X7951492Y-15147150D02*
X7932444Y-15156674D01*
X8018158Y-15270960D02*
X7999111Y-15280484D01*
X7999111Y-15280484D02*
X7951492Y-15280484D01*
X7951492Y-15280484D02*
X7932444Y-15270960D01*
X7932444Y-15270960D02*
X7922920Y-15251912D01*
X7922920Y-15251912D02*
X7922920Y-15232865D01*
X7922920Y-15232865D02*
X7932444Y-15213817D01*
X7932444Y-15213817D02*
X7951492Y-15204293D01*
X7951492Y-15204293D02*
X7999111Y-15204293D01*
X7999111Y-15204293D02*
X8018158Y-15194769D01*
X8084825Y-15147150D02*
X8161015Y-15147150D01*
X8113396Y-15080484D02*
X8113396Y-15251912D01*
X8113396Y-15251912D02*
X8122920Y-15270960D01*
X8122920Y-15270960D02*
X8141968Y-15280484D01*
X8141968Y-15280484D02*
X8161015Y-15280484D01*
X8303873Y-15270960D02*
X8284825Y-15280484D01*
X8284825Y-15280484D02*
X8246730Y-15280484D01*
X8246730Y-15280484D02*
X8227682Y-15270960D01*
X8227682Y-15270960D02*
X8218158Y-15251912D01*
X8218158Y-15251912D02*
X8218158Y-15175722D01*
X8218158Y-15175722D02*
X8227682Y-15156674D01*
X8227682Y-15156674D02*
X8246730Y-15147150D01*
X8246730Y-15147150D02*
X8284825Y-15147150D01*
X8284825Y-15147150D02*
X8303873Y-15156674D01*
X8303873Y-15156674D02*
X8313396Y-15175722D01*
X8313396Y-15175722D02*
X8313396Y-15194769D01*
X8313396Y-15194769D02*
X8218158Y-15213817D01*
X8484825Y-15280484D02*
X8484825Y-15080484D01*
X8484825Y-15270960D02*
X8465777Y-15280484D01*
X8465777Y-15280484D02*
X8427682Y-15280484D01*
X8427682Y-15280484D02*
X8408635Y-15270960D01*
X8408635Y-15270960D02*
X8399111Y-15261436D01*
X8399111Y-15261436D02*
X8389587Y-15242388D01*
X8389587Y-15242388D02*
X8389587Y-15185246D01*
X8389587Y-15185246D02*
X8399111Y-15166198D01*
X8399111Y-15166198D02*
X8408635Y-15156674D01*
X8408635Y-15156674D02*
X8427682Y-15147150D01*
X8427682Y-15147150D02*
X8465777Y-15147150D01*
X8465777Y-15147150D02*
X8484825Y-15156674D01*
X8561016Y-15356674D02*
X8570539Y-15347150D01*
X8570539Y-15347150D02*
X8589587Y-15318579D01*
X8589587Y-15318579D02*
X8599111Y-15299531D01*
X8599111Y-15299531D02*
X8608635Y-15270960D01*
X8608635Y-15270960D02*
X8618158Y-15223341D01*
X8618158Y-15223341D02*
X8618158Y-15185246D01*
X8618158Y-15185246D02*
X8608635Y-15137627D01*
X8608635Y-15137627D02*
X8599111Y-15109055D01*
X8599111Y-15109055D02*
X8589587Y-15090008D01*
X8589587Y-15090008D02*
X8570539Y-15061436D01*
X8570539Y-15061436D02*
X8561016Y-15051912D01*
M02*
